<?xml version="1.0" encoding="UTF-8" standalone="no"?>
<!DOCTYPE svg PUBLIC "-//W3C//DTD SVG 1.1//EN"
 "http://www.w3.org/Graphics/SVG/1.1/DTD/svg11.dtd">
<!-- Generated by graphviz version 2.50.0 (0)
 -->
<!-- Title: Tree Pages: 1 -->
<svg width="784pt" height="1286pt"
 viewBox="0.00 0.00 784.00 1286.00" xmlns="http://www.w3.org/2000/svg" xmlns:xlink="http://www.w3.org/1999/xlink">
<g id="graph0" class="graph" transform="scale(1 1) rotate(0) translate(4 1282)">
<title>Tree</title>
<polygon fill="white" stroke="transparent" points="-4,4 -4,-1282 780,-1282 780,4 -4,4"/>
<!-- 0 -->
<g id="node1" class="node">
<title>0</title>
<path fill="#ffffff" stroke="black" d="M78,-568C78,-568 12,-568 12,-568 6,-568 0,-562 0,-556 0,-556 0,-544 0,-544 0,-538 6,-532 12,-532 12,-532 78,-532 78,-532 84,-532 90,-538 90,-544 90,-544 90,-556 90,-556 90,-562 84,-568 78,-568"/>
<text text-anchor="start" x="8" y="-546.3" font-family="Helvetica,sans-Serif" font-size="14.00">big_mouth</text>
</g>
<!-- 1 -->
<g id="node2" class="node">
<title>1</title>
<path fill="#ffffff" stroke="black" d="M202.5,-662C202.5,-662 172.5,-662 172.5,-662 166.5,-662 160.5,-656 160.5,-650 160.5,-650 160.5,-638 160.5,-638 160.5,-632 166.5,-626 172.5,-626 172.5,-626 202.5,-626 202.5,-626 208.5,-626 214.5,-632 214.5,-638 214.5,-638 214.5,-650 214.5,-650 214.5,-656 208.5,-662 202.5,-662"/>
<text text-anchor="start" x="172" y="-640.3" font-family="Helvetica,sans-Serif" font-size="14.00">bald</text>
</g>
<!-- 0&#45;&gt;1 -->
<g id="edge1" class="edge">
<title>0&#45;&gt;1</title>
<path fill="none" stroke="black" d="M73.09,-568.12C95.53,-583.14 127.57,-604.57 151.87,-620.83"/>
<polygon fill="black" stroke="black" points="150.19,-623.92 160.44,-626.57 154.08,-618.1 150.19,-623.92"/>
<text text-anchor="middle" x="111.5" y="-605.8" font-family="Helvetica,sans-Serif" font-size="14.00">NO</text>
</g>
<!-- 28 -->
<g id="node29" class="node">
<title>28</title>
<path fill="#ffffff" stroke="black" d="M230,-406C230,-406 145,-406 145,-406 139,-406 133,-400 133,-394 133,-394 133,-382 133,-382 133,-376 139,-370 145,-370 145,-370 230,-370 230,-370 236,-370 242,-376 242,-382 242,-382 242,-394 242,-394 242,-400 236,-406 230,-406"/>
<text text-anchor="start" x="141" y="-384.3" font-family="Helvetica,sans-Serif" font-size="14.00">hair_partition</text>
</g>
<!-- 0&#45;&gt;28 -->
<g id="edge28" class="edge">
<title>0&#45;&gt;28</title>
<path fill="none" stroke="black" d="M61.84,-531.73C86.72,-503.05 135.05,-447.33 163.67,-414.32"/>
<polygon fill="black" stroke="black" points="166.59,-416.3 170.5,-406.45 161.3,-411.71 166.59,-416.3"/>
<text text-anchor="middle" x="111.5" y="-491.8" font-family="Helvetica,sans-Serif" font-size="14.00">YES</text>
</g>
<!-- 2 -->
<g id="node3" class="node">
<title>2</title>
<path fill="#ffffff" stroke="black" d="M326.5,-927C326.5,-927 286.5,-927 286.5,-927 280.5,-927 274.5,-921 274.5,-915 274.5,-915 274.5,-903 274.5,-903 274.5,-897 280.5,-891 286.5,-891 286.5,-891 326.5,-891 326.5,-891 332.5,-891 338.5,-897 338.5,-903 338.5,-903 338.5,-915 338.5,-915 338.5,-921 332.5,-927 326.5,-927"/>
<text text-anchor="start" x="282.5" y="-905.3" font-family="Helvetica,sans-Serif" font-size="14.00">female</text>
</g>
<!-- 1&#45;&gt;2 -->
<g id="edge2" class="edge">
<title>1&#45;&gt;2</title>
<path fill="none" stroke="black" d="M196.54,-662.21C216.66,-707.79 269.29,-826.98 293.27,-881.3"/>
<polygon fill="black" stroke="black" points="290.16,-882.92 297.4,-890.66 296.56,-880.1 290.16,-882.92"/>
</g>
<!-- 19 -->
<g id="node20" class="node">
<title>19</title>
<path fill="#ffffff" stroke="black" d="M323,-662C323,-662 290,-662 290,-662 284,-662 278,-656 278,-650 278,-650 278,-638 278,-638 278,-632 284,-626 290,-626 290,-626 323,-626 323,-626 329,-626 335,-632 335,-638 335,-638 335,-650 335,-650 335,-656 329,-662 323,-662"/>
<text text-anchor="start" x="286" y="-640.3" font-family="Helvetica,sans-Serif" font-size="14.00">beard</text>
</g>
<!-- 1&#45;&gt;19 -->
<g id="edge19" class="edge">
<title>1&#45;&gt;19</title>
<path fill="none" stroke="black" d="M214.76,-644C230.27,-644 250.18,-644 267.39,-644"/>
<polygon fill="black" stroke="black" points="267.7,-647.5 277.7,-644 267.7,-640.5 267.7,-647.5"/>
</g>
<!-- 3 -->
<g id="node4" class="node">
<title>3</title>
<path fill="#ffffff" stroke="black" d="M457,-1089C457,-1089 383,-1089 383,-1089 377,-1089 371,-1083 371,-1077 371,-1077 371,-1065 371,-1065 371,-1059 377,-1053 383,-1053 383,-1053 457,-1053 457,-1053 463,-1053 469,-1059 469,-1065 469,-1065 469,-1077 469,-1077 469,-1083 463,-1089 457,-1089"/>
<text text-anchor="start" x="379" y="-1067.3" font-family="Helvetica,sans-Serif" font-size="14.00">sad_looking</text>
</g>
<!-- 2&#45;&gt;3 -->
<g id="edge3" class="edge">
<title>2&#45;&gt;3</title>
<path fill="none" stroke="black" d="M320.07,-927.27C339.73,-955.83 377.84,-1011.2 400.59,-1044.26"/>
<polygon fill="black" stroke="black" points="397.75,-1046.3 406.3,-1052.55 403.51,-1042.33 397.75,-1046.3"/>
</g>
<!-- 12 -->
<g id="node13" class="node">
<title>12</title>
<path fill="#ffffff" stroke="black" d="M435,-927C435,-927 405,-927 405,-927 399,-927 393,-921 393,-915 393,-915 393,-903 393,-903 393,-897 399,-891 405,-891 405,-891 435,-891 435,-891 441,-891 447,-897 447,-903 447,-903 447,-915 447,-915 447,-921 441,-927 435,-927"/>
<text text-anchor="start" x="408.5" y="-905.3" font-family="Helvetica,sans-Serif" font-size="14.00">hat</text>
</g>
<!-- 2&#45;&gt;12 -->
<g id="edge12" class="edge">
<title>2&#45;&gt;12</title>
<path fill="none" stroke="black" d="M338.56,-909C352.11,-909 368.11,-909 382.25,-909"/>
<polygon fill="black" stroke="black" points="382.64,-912.5 392.64,-909 382.64,-905.5 382.64,-912.5"/>
</g>
<!-- 4 -->
<g id="node5" class="node">
<title>4</title>
<path fill="#ffffff" stroke="black" d="M569,-1170C569,-1170 498,-1170 498,-1170 492,-1170 486,-1164 486,-1158 486,-1158 486,-1146 486,-1146 486,-1140 492,-1134 498,-1134 498,-1134 569,-1134 569,-1134 575,-1134 581,-1140 581,-1146 581,-1146 581,-1158 581,-1158 581,-1164 575,-1170 569,-1170"/>
<text text-anchor="start" x="494" y="-1148.3" font-family="Helvetica,sans-Serif" font-size="14.00">ginger_hair</text>
</g>
<!-- 3&#45;&gt;4 -->
<g id="edge4" class="edge">
<title>3&#45;&gt;4</title>
<path fill="none" stroke="black" d="M446.02,-1089.18C461.66,-1100.54 481.99,-1115.31 499.01,-1127.67"/>
<polygon fill="black" stroke="black" points="497.41,-1130.84 507.56,-1133.88 501.53,-1125.17 497.41,-1130.84"/>
</g>
<!-- 9 -->
<g id="node10" class="node">
<title>9</title>
<path fill="#ffffff" stroke="black" d="M564.5,-1089C564.5,-1089 502.5,-1089 502.5,-1089 496.5,-1089 490.5,-1083 490.5,-1077 490.5,-1077 490.5,-1065 490.5,-1065 490.5,-1059 496.5,-1053 502.5,-1053 502.5,-1053 564.5,-1053 564.5,-1053 570.5,-1053 576.5,-1059 576.5,-1065 576.5,-1065 576.5,-1077 576.5,-1077 576.5,-1083 570.5,-1089 564.5,-1089"/>
<text text-anchor="start" x="498.5" y="-1067.3" font-family="Helvetica,sans-Serif" font-size="14.00">blue_eyes</text>
</g>
<!-- 3&#45;&gt;9 -->
<g id="edge9" class="edge">
<title>3&#45;&gt;9</title>
<path fill="none" stroke="black" d="M469.26,-1071C472.9,-1071 476.58,-1071 480.25,-1071"/>
<polygon fill="black" stroke="black" points="480.47,-1074.5 490.47,-1071 480.47,-1067.5 480.47,-1074.5"/>
</g>
<!-- 5 -->
<g id="node6" class="node">
<title>5</title>
<path fill="#ffffff" stroke="black" d="M675,-1224C675,-1224 610,-1224 610,-1224 604,-1224 598,-1218 598,-1212 598,-1212 598,-1200 598,-1200 598,-1194 604,-1188 610,-1188 610,-1188 675,-1188 675,-1188 681,-1188 687,-1194 687,-1200 687,-1200 687,-1212 687,-1212 687,-1218 681,-1224 675,-1224"/>
<text text-anchor="start" x="606" y="-1202.3" font-family="Helvetica,sans-Serif" font-size="14.00">blond_hair</text>
</g>
<!-- 4&#45;&gt;5 -->
<g id="edge5" class="edge">
<title>4&#45;&gt;5</title>
<path fill="none" stroke="black" d="M570.43,-1170.13C578.81,-1174.36 587.84,-1178.92 596.55,-1183.32"/>
<polygon fill="black" stroke="black" points="594.98,-1186.44 605.49,-1187.82 598.13,-1180.19 594.98,-1186.44"/>
</g>
<!-- 8 -->
<g id="node9" class="node">
<title>8</title>
<path fill="#39e5d7" stroke="black" d="M755,-1170C755,-1170 725,-1170 725,-1170 719,-1170 713,-1164 713,-1158 713,-1158 713,-1146 713,-1146 713,-1140 719,-1134 725,-1134 725,-1134 755,-1134 755,-1134 761,-1134 767,-1140 767,-1146 767,-1146 767,-1158 767,-1158 767,-1164 761,-1170 755,-1170"/>
<text text-anchor="start" x="721.5" y="-1148.3" font-family="Helvetica,sans-Serif" font-size="14.00">frans</text>
</g>
<!-- 4&#45;&gt;8 -->
<g id="edge8" class="edge">
<title>4&#45;&gt;8</title>
<path fill="none" stroke="black" d="M581.16,-1152C617.96,-1152 668.57,-1152 702.47,-1152"/>
<polygon fill="black" stroke="black" points="702.85,-1155.5 712.85,-1152 702.85,-1148.5 702.85,-1155.5"/>
</g>
<!-- 6 -->
<g id="node7" class="node">
<title>6</title>
<path fill="#8139e5" stroke="black" d="M755,-1278C755,-1278 725,-1278 725,-1278 719,-1278 713,-1272 713,-1266 713,-1266 713,-1254 713,-1254 713,-1248 719,-1242 725,-1242 725,-1242 755,-1242 755,-1242 761,-1242 767,-1248 767,-1254 767,-1254 767,-1266 767,-1266 767,-1272 761,-1278 755,-1278"/>
<text text-anchor="start" x="724.5" y="-1256.3" font-family="Helvetica,sans-Serif" font-size="14.00">paul</text>
</g>
<!-- 5&#45;&gt;6 -->
<g id="edge6" class="edge">
<title>5&#45;&gt;6</title>
<path fill="none" stroke="black" d="M675.57,-1224.13C684.67,-1229.28 694.63,-1234.91 703.9,-1240.15"/>
<polygon fill="black" stroke="black" points="702.46,-1243.36 712.89,-1245.24 705.91,-1237.27 702.46,-1243.36"/>
</g>
<!-- 7 -->
<g id="node8" class="node">
<title>7</title>
<path fill="#3972e5" stroke="black" d="M755,-1224C755,-1224 725,-1224 725,-1224 719,-1224 713,-1218 713,-1212 713,-1212 713,-1200 713,-1200 713,-1194 719,-1188 725,-1188 725,-1188 755,-1188 755,-1188 761,-1188 767,-1194 767,-1200 767,-1200 767,-1212 767,-1212 767,-1218 761,-1224 755,-1224"/>
<text text-anchor="start" x="729.5" y="-1202.3" font-family="Helvetica,sans-Serif" font-size="14.00">joe</text>
</g>
<!-- 5&#45;&gt;7 -->
<g id="edge7" class="edge">
<title>5&#45;&gt;7</title>
<path fill="none" stroke="black" d="M687.06,-1206C692.32,-1206 697.64,-1206 702.78,-1206"/>
<polygon fill="black" stroke="black" points="702.97,-1209.5 712.97,-1206 702.97,-1202.5 702.97,-1209.5"/>
</g>
<!-- 10 -->
<g id="node11" class="node">
<title>10</title>
<path fill="#9de539" stroke="black" d="M764,-1116C764,-1116 716,-1116 716,-1116 710,-1116 704,-1110 704,-1104 704,-1104 704,-1092 704,-1092 704,-1086 710,-1080 716,-1080 716,-1080 764,-1080 764,-1080 770,-1080 776,-1086 776,-1092 776,-1092 776,-1104 776,-1104 776,-1110 770,-1116 764,-1116"/>
<text text-anchor="start" x="712" y="-1094.3" font-family="Helvetica,sans-Serif" font-size="14.00">bernard</text>
</g>
<!-- 9&#45;&gt;10 -->
<g id="edge10" class="edge">
<title>9&#45;&gt;10</title>
<path fill="none" stroke="black" d="M576.87,-1076.59C611.05,-1081.11 659.02,-1087.44 693.9,-1092.05"/>
<polygon fill="black" stroke="black" points="693.45,-1095.52 703.83,-1093.36 694.37,-1088.58 693.45,-1095.52"/>
</g>
<!-- 11 -->
<g id="node12" class="node">
<title>11</title>
<path fill="#e5ac39" stroke="black" d="M756,-1062C756,-1062 724,-1062 724,-1062 718,-1062 712,-1056 712,-1050 712,-1050 712,-1038 712,-1038 712,-1032 718,-1026 724,-1026 724,-1026 756,-1026 756,-1026 762,-1026 768,-1032 768,-1038 768,-1038 768,-1050 768,-1050 768,-1056 762,-1062 756,-1062"/>
<text text-anchor="start" x="720" y="-1040.3" font-family="Helvetica,sans-Serif" font-size="14.00">alfred</text>
</g>
<!-- 9&#45;&gt;11 -->
<g id="edge11" class="edge">
<title>9&#45;&gt;11</title>
<path fill="none" stroke="black" d="M576.87,-1065.41C613.66,-1060.55 666.42,-1053.58 701.65,-1048.93"/>
<polygon fill="black" stroke="black" points="702.53,-1052.35 711.99,-1047.57 701.62,-1045.41 702.53,-1052.35"/>
</g>
<!-- 13 -->
<g id="node14" class="node">
<title>13</title>
<path fill="#ffffff" stroke="black" d="M566,-954C566,-954 501,-954 501,-954 495,-954 489,-948 489,-942 489,-942 489,-930 489,-930 489,-924 495,-918 501,-918 501,-918 566,-918 566,-918 572,-918 578,-924 578,-930 578,-930 578,-942 578,-942 578,-948 572,-954 566,-954"/>
<text text-anchor="start" x="497" y="-932.3" font-family="Helvetica,sans-Serif" font-size="14.00">blond_hair</text>
</g>
<!-- 12&#45;&gt;13 -->
<g id="edge13" class="edge">
<title>12&#45;&gt;13</title>
<path fill="none" stroke="black" d="M447.14,-915.33C456.6,-917.62 467.67,-920.3 478.64,-922.96"/>
<polygon fill="black" stroke="black" points="478.09,-926.43 488.63,-925.38 479.74,-919.62 478.09,-926.43"/>
</g>
<!-- 16 -->
<g id="node17" class="node">
<title>16</title>
<path fill="#ffffff" stroke="black" d="M561.5,-900C561.5,-900 505.5,-900 505.5,-900 499.5,-900 493.5,-894 493.5,-888 493.5,-888 493.5,-876 493.5,-876 493.5,-870 499.5,-864 505.5,-864 505.5,-864 561.5,-864 561.5,-864 567.5,-864 573.5,-870 573.5,-876 573.5,-876 573.5,-888 573.5,-888 573.5,-894 567.5,-900 561.5,-900"/>
<text text-anchor="start" x="501.5" y="-878.3" font-family="Helvetica,sans-Serif" font-size="14.00">long_hair</text>
</g>
<!-- 12&#45;&gt;16 -->
<g id="edge16" class="edge">
<title>12&#45;&gt;16</title>
<path fill="none" stroke="black" d="M447.14,-902.67C458.01,-900.04 470.99,-896.89 483.52,-893.86"/>
<polygon fill="black" stroke="black" points="484.52,-897.22 493.41,-891.47 482.87,-890.42 484.52,-897.22"/>
</g>
<!-- 14 -->
<g id="node15" class="node">
<title>14</title>
<path fill="#c8e539" stroke="black" d="M755,-1008C755,-1008 725,-1008 725,-1008 719,-1008 713,-1002 713,-996 713,-996 713,-984 713,-984 713,-978 719,-972 725,-972 725,-972 755,-972 755,-972 761,-972 767,-978 767,-984 767,-984 767,-996 767,-996 767,-1002 761,-1008 755,-1008"/>
<text text-anchor="start" x="722.5" y="-986.3" font-family="Helvetica,sans-Serif" font-size="14.00">anne</text>
</g>
<!-- 13&#45;&gt;14 -->
<g id="edge14" class="edge">
<title>13&#45;&gt;14</title>
<path fill="none" stroke="black" d="M578.12,-947.52C615.38,-957.36 668.33,-971.34 703.16,-980.54"/>
<polygon fill="black" stroke="black" points="702.35,-983.94 712.91,-983.11 704.14,-977.17 702.35,-983.94"/>
</g>
<!-- 15 -->
<g id="node16" class="node">
<title>15</title>
<path fill="#e5d739" stroke="black" d="M755,-954C755,-954 725,-954 725,-954 719,-954 713,-948 713,-942 713,-942 713,-930 713,-930 713,-924 719,-918 725,-918 725,-918 755,-918 755,-918 761,-918 767,-924 767,-930 767,-930 767,-942 767,-942 767,-948 761,-954 755,-954"/>
<text text-anchor="start" x="722.5" y="-932.3" font-family="Helvetica,sans-Serif" font-size="14.00">anita</text>
</g>
<!-- 13&#45;&gt;15 -->
<g id="edge15" class="edge">
<title>13&#45;&gt;15</title>
<path fill="none" stroke="black" d="M578.12,-936C615.22,-936 667.88,-936 702.71,-936"/>
<polygon fill="black" stroke="black" points="702.91,-939.5 712.91,-936 702.91,-932.5 702.91,-939.5"/>
</g>
<!-- 17 -->
<g id="node18" class="node">
<title>17</title>
<path fill="#39e556" stroke="black" d="M755,-900C755,-900 725,-900 725,-900 719,-900 713,-894 713,-888 713,-888 713,-876 713,-876 713,-870 719,-864 725,-864 725,-864 755,-864 755,-864 761,-864 767,-870 767,-876 767,-876 767,-888 767,-888 767,-894 761,-900 755,-900"/>
<text text-anchor="start" x="721.5" y="-878.3" font-family="Helvetica,sans-Serif" font-size="14.00">claire</text>
</g>
<!-- 16&#45;&gt;17 -->
<g id="edge17" class="edge">
<title>16&#45;&gt;17</title>
<path fill="none" stroke="black" d="M573.93,-882C611.22,-882 666.71,-882 702.87,-882"/>
<polygon fill="black" stroke="black" points="702.98,-885.5 712.98,-882 702.98,-878.5 702.98,-885.5"/>
</g>
<!-- 18 -->
<g id="node19" class="node">
<title>18</title>
<path fill="#3947e5" stroke="black" d="M756,-846C756,-846 724,-846 724,-846 718,-846 712,-840 712,-834 712,-834 712,-822 712,-822 712,-816 718,-810 724,-810 724,-810 756,-810 756,-810 762,-810 768,-816 768,-822 768,-822 768,-834 768,-834 768,-840 762,-846 756,-846"/>
<text text-anchor="start" x="720" y="-824.3" font-family="Helvetica,sans-Serif" font-size="14.00">maria</text>
</g>
<!-- 16&#45;&gt;18 -->
<g id="edge18" class="edge">
<title>16&#45;&gt;18</title>
<path fill="none" stroke="black" d="M573.93,-871.59C610.96,-861.81 665.92,-847.3 702.1,-837.74"/>
<polygon fill="black" stroke="black" points="703,-841.13 711.78,-835.19 701.22,-834.36 703,-841.13"/>
</g>
<!-- 20 -->
<g id="node21" class="node">
<title>20</title>
<path fill="#ffffff" stroke="black" d="M452,-684C452,-684 388,-684 388,-684 382,-684 376,-678 376,-672 376,-672 376,-660 376,-660 376,-654 382,-648 388,-648 388,-648 452,-648 452,-648 458,-648 464,-654 464,-660 464,-660 464,-672 464,-672 464,-678 458,-684 452,-684"/>
<text text-anchor="start" x="384" y="-662.3" font-family="Helvetica,sans-Serif" font-size="14.00">white_hair</text>
</g>
<!-- 19&#45;&gt;20 -->
<g id="edge20" class="edge">
<title>19&#45;&gt;20</title>
<path fill="none" stroke="black" d="M335.06,-649.44C344.35,-651.27 355.05,-653.38 365.63,-655.47"/>
<polygon fill="black" stroke="black" points="365.21,-658.95 375.7,-657.46 366.57,-652.09 365.21,-658.95"/>
</g>
<!-- 25 -->
<g id="node26" class="node">
<title>25</title>
<path fill="#ffffff" stroke="black" d="M455.5,-630C455.5,-630 384.5,-630 384.5,-630 378.5,-630 372.5,-624 372.5,-618 372.5,-618 372.5,-606 372.5,-606 372.5,-600 378.5,-594 384.5,-594 384.5,-594 455.5,-594 455.5,-594 461.5,-594 467.5,-600 467.5,-606 467.5,-606 467.5,-618 467.5,-618 467.5,-624 461.5,-630 455.5,-630"/>
<text text-anchor="start" x="380.5" y="-608.3" font-family="Helvetica,sans-Serif" font-size="14.00">red_cheeks</text>
</g>
<!-- 19&#45;&gt;25 -->
<g id="edge25" class="edge">
<title>19&#45;&gt;25</title>
<path fill="none" stroke="black" d="M335.06,-636.09C343.39,-633.7 352.86,-630.98 362.36,-628.26"/>
<polygon fill="black" stroke="black" points="363.58,-631.55 372.23,-625.42 361.65,-624.82 363.58,-631.55"/>
</g>
<!-- 21 -->
<g id="node22" class="node">
<title>21</title>
<path fill="#ffffff" stroke="black" d="M569,-738C569,-738 498,-738 498,-738 492,-738 486,-732 486,-726 486,-726 486,-714 486,-714 486,-708 492,-702 498,-702 498,-702 569,-702 569,-702 575,-702 581,-708 581,-714 581,-714 581,-726 581,-726 581,-732 575,-738 569,-738"/>
<text text-anchor="start" x="494" y="-716.3" font-family="Helvetica,sans-Serif" font-size="14.00">ginger_hair</text>
</g>
<!-- 20&#45;&gt;21 -->
<g id="edge21" class="edge">
<title>20&#45;&gt;21</title>
<path fill="none" stroke="black" d="M458.44,-684.13C467.26,-688.41 476.78,-693.01 485.95,-697.46"/>
<polygon fill="black" stroke="black" points="484.45,-700.62 494.97,-701.82 487.5,-694.32 484.45,-700.62"/>
</g>
<!-- 24 -->
<g id="node25" class="node">
<title>24</title>
<path fill="#e53972" stroke="black" d="M755,-684C755,-684 725,-684 725,-684 719,-684 713,-678 713,-672 713,-672 713,-660 713,-660 713,-654 719,-648 725,-648 725,-648 755,-648 755,-648 761,-648 767,-654 767,-660 767,-660 767,-672 767,-672 767,-678 761,-684 755,-684"/>
<text text-anchor="start" x="725" y="-662.3" font-family="Helvetica,sans-Serif" font-size="14.00">sam</text>
</g>
<!-- 20&#45;&gt;24 -->
<g id="edge24" class="edge">
<title>20&#45;&gt;24</title>
<path fill="none" stroke="black" d="M464.22,-666C527.21,-666 643.14,-666 702.25,-666"/>
<polygon fill="black" stroke="black" points="702.6,-669.5 712.6,-666 702.6,-662.5 702.6,-669.5"/>
</g>
<!-- 22 -->
<g id="node23" class="node">
<title>22</title>
<path fill="#e55639" stroke="black" d="M755,-792C755,-792 725,-792 725,-792 719,-792 713,-786 713,-780 713,-780 713,-768 713,-768 713,-762 719,-756 725,-756 725,-756 755,-756 755,-756 761,-756 767,-762 767,-768 767,-768 767,-780 767,-780 767,-786 761,-792 755,-792"/>
<text text-anchor="start" x="726" y="-770.3" font-family="Helvetica,sans-Serif" font-size="14.00">tom</text>
</g>
<!-- 21&#45;&gt;22 -->
<g id="edge22" class="edge">
<title>21&#45;&gt;22</title>
<path fill="none" stroke="black" d="M581.16,-732.32C618.12,-742.08 669.01,-755.52 702.91,-764.47"/>
<polygon fill="black" stroke="black" points="702.28,-767.92 712.85,-767.09 704.07,-761.16 702.28,-767.92"/>
</g>
<!-- 23 -->
<g id="node24" class="node">
<title>23</title>
<path fill="#399de5" stroke="black" d="M763.5,-738C763.5,-738 716.5,-738 716.5,-738 710.5,-738 704.5,-732 704.5,-726 704.5,-726 704.5,-714 704.5,-714 704.5,-708 710.5,-702 716.5,-702 716.5,-702 763.5,-702 763.5,-702 769.5,-702 775.5,-708 775.5,-714 775.5,-714 775.5,-726 775.5,-726 775.5,-732 769.5,-738 763.5,-738"/>
<text text-anchor="start" x="712.5" y="-716.3" font-family="Helvetica,sans-Serif" font-size="14.00">herman</text>
</g>
<!-- 21&#45;&gt;23 -->
<g id="edge23" class="edge">
<title>21&#45;&gt;23</title>
<path fill="none" stroke="black" d="M581.16,-720C614.99,-720 660.47,-720 693.93,-720"/>
<polygon fill="black" stroke="black" points="694.34,-723.5 704.34,-720 694.34,-716.5 694.34,-723.5"/>
</g>
<!-- 26 -->
<g id="node27" class="node">
<title>26</title>
<path fill="#e539c8" stroke="black" d="M761,-630C761,-630 719,-630 719,-630 713,-630 707,-624 707,-618 707,-618 707,-606 707,-606 707,-600 713,-594 719,-594 719,-594 761,-594 761,-594 767,-594 773,-600 773,-606 773,-606 773,-618 773,-618 773,-624 767,-630 761,-630"/>
<text text-anchor="start" x="715" y="-608.3" font-family="Helvetica,sans-Serif" font-size="14.00">richard</text>
</g>
<!-- 25&#45;&gt;26 -->
<g id="edge26" class="edge">
<title>25&#45;&gt;26</title>
<path fill="none" stroke="black" d="M467.58,-612C529.26,-612 637.15,-612 696.64,-612"/>
<polygon fill="black" stroke="black" points="696.81,-615.5 706.81,-612 696.81,-608.5 696.81,-615.5"/>
</g>
<!-- 27 -->
<g id="node28" class="node">
<title>27</title>
<path fill="#72e539" stroke="black" d="M755,-576C755,-576 725,-576 725,-576 719,-576 713,-570 713,-564 713,-564 713,-552 713,-552 713,-546 719,-540 725,-540 725,-540 755,-540 755,-540 761,-540 767,-546 767,-552 767,-552 767,-564 767,-564 767,-570 761,-576 755,-576"/>
<text text-anchor="start" x="729.5" y="-554.3" font-family="Helvetica,sans-Serif" font-size="14.00">bill</text>
</g>
<!-- 25&#45;&gt;27 -->
<g id="edge27" class="edge">
<title>25&#45;&gt;27</title>
<path fill="none" stroke="black" d="M467.58,-604.09C531.41,-593.25 644.71,-574.01 702.66,-564.17"/>
<polygon fill="black" stroke="black" points="703.54,-567.57 712.82,-562.45 702.37,-560.67 703.54,-567.57"/>
</g>
<!-- 29 -->
<g id="node30" class="node">
<title>29</title>
<path fill="#ffffff" stroke="black" d="M338,-406C338,-406 275,-406 275,-406 269,-406 263,-400 263,-394 263,-394 263,-382 263,-382 263,-376 269,-370 275,-370 275,-370 338,-370 338,-370 344,-370 350,-376 350,-382 350,-382 350,-394 350,-394 350,-400 344,-406 338,-406"/>
<text text-anchor="start" x="271" y="-384.3" font-family="Helvetica,sans-Serif" font-size="14.00">facial_hair</text>
</g>
<!-- 28&#45;&gt;29 -->
<g id="edge29" class="edge">
<title>28&#45;&gt;29</title>
<path fill="none" stroke="black" d="M242.21,-388C245.69,-388 249.2,-388 252.68,-388"/>
<polygon fill="black" stroke="black" points="252.99,-391.5 262.99,-388 252.99,-384.5 252.99,-391.5"/>
</g>
<!-- 38 -->
<g id="node39" class="node">
<title>38</title>
<path fill="#ffffff" stroke="black" d="M342,-170C342,-170 271,-170 271,-170 265,-170 259,-164 259,-158 259,-158 259,-146 259,-146 259,-140 265,-134 271,-134 271,-134 342,-134 342,-134 348,-134 354,-140 354,-146 354,-146 354,-158 354,-158 354,-164 348,-170 342,-170"/>
<text text-anchor="start" x="267" y="-148.3" font-family="Helvetica,sans-Serif" font-size="14.00">red_cheeks</text>
</g>
<!-- 28&#45;&gt;38 -->
<g id="edge38" class="edge">
<title>28&#45;&gt;38</title>
<path fill="none" stroke="black" d="M197.49,-369.87C217.9,-328.69 267.88,-227.89 292.02,-179.2"/>
<polygon fill="black" stroke="black" points="295.18,-180.7 296.48,-170.19 288.91,-177.59 295.18,-180.7"/>
</g>
<!-- 30 -->
<g id="node31" class="node">
<title>30</title>
<path fill="#ffffff" stroke="black" d="M452.5,-468C452.5,-468 387.5,-468 387.5,-468 381.5,-468 375.5,-462 375.5,-456 375.5,-456 375.5,-444 375.5,-444 375.5,-438 381.5,-432 387.5,-432 387.5,-432 452.5,-432 452.5,-432 458.5,-432 464.5,-438 464.5,-444 464.5,-444 464.5,-456 464.5,-456 464.5,-462 458.5,-468 452.5,-468"/>
<text text-anchor="start" x="383.5" y="-446.3" font-family="Helvetica,sans-Serif" font-size="14.00">blond_hair</text>
</g>
<!-- 29&#45;&gt;30 -->
<g id="edge30" class="edge">
<title>29&#45;&gt;30</title>
<path fill="none" stroke="black" d="M340.05,-406.1C351.84,-412.66 365.32,-420.15 377.76,-427.07"/>
<polygon fill="black" stroke="black" points="376.16,-430.18 386.6,-431.99 379.56,-424.07 376.16,-430.18"/>
</g>
<!-- 33 -->
<g id="node34" class="node">
<title>33</title>
<path fill="#ffffff" stroke="black" d="M436.5,-364C436.5,-364 403.5,-364 403.5,-364 397.5,-364 391.5,-358 391.5,-352 391.5,-352 391.5,-340 391.5,-340 391.5,-334 397.5,-328 403.5,-328 403.5,-328 436.5,-328 436.5,-328 442.5,-328 448.5,-334 448.5,-340 448.5,-340 448.5,-352 448.5,-352 448.5,-358 442.5,-364 436.5,-364"/>
<text text-anchor="start" x="399.5" y="-342.3" font-family="Helvetica,sans-Serif" font-size="14.00">beard</text>
</g>
<!-- 29&#45;&gt;33 -->
<g id="edge33" class="edge">
<title>29&#45;&gt;33</title>
<path fill="none" stroke="black" d="M350.29,-371.88C360.71,-367.95 371.78,-363.79 381.91,-359.97"/>
<polygon fill="black" stroke="black" points="383.17,-363.24 391.29,-356.44 380.7,-356.69 383.17,-363.24"/>
</g>
<!-- 31 -->
<g id="node32" class="node">
<title>31</title>
<path fill="#39c8e5" stroke="black" d="M760.5,-522C760.5,-522 719.5,-522 719.5,-522 713.5,-522 707.5,-516 707.5,-510 707.5,-510 707.5,-498 707.5,-498 707.5,-492 713.5,-486 719.5,-486 719.5,-486 760.5,-486 760.5,-486 766.5,-486 772.5,-492 772.5,-498 772.5,-498 772.5,-510 772.5,-510 772.5,-516 766.5,-522 760.5,-522"/>
<text text-anchor="start" x="715.5" y="-500.3" font-family="Helvetica,sans-Serif" font-size="14.00">george</text>
</g>
<!-- 30&#45;&gt;31 -->
<g id="edge31" class="edge">
<title>30&#45;&gt;31</title>
<path fill="none" stroke="black" d="M464.57,-460.89C471.8,-462.7 477,-464 477,-464 477,-464 623.6,-486.38 697.48,-497.66"/>
<polygon fill="black" stroke="black" points="696.98,-501.13 707.4,-499.18 698.04,-494.21 696.98,-501.13"/>
</g>
<!-- 32 -->
<g id="node33" class="node">
<title>32</title>
<path fill="#39e5ac" stroke="black" d="M755,-468C755,-468 725,-468 725,-468 719,-468 713,-462 713,-456 713,-456 713,-444 713,-444 713,-438 719,-432 725,-432 725,-432 755,-432 755,-432 761,-432 767,-438 767,-444 767,-444 767,-456 767,-456 767,-462 761,-468 755,-468"/>
<text text-anchor="start" x="727" y="-446.3" font-family="Helvetica,sans-Serif" font-size="14.00">eric</text>
</g>
<!-- 30&#45;&gt;32 -->
<g id="edge32" class="edge">
<title>30&#45;&gt;32</title>
<path fill="none" stroke="black" d="M464.55,-450C527.64,-450 643.36,-450 702.34,-450"/>
<polygon fill="black" stroke="black" points="702.67,-453.5 712.67,-450 702.67,-446.5 702.67,-453.5"/>
</g>
<!-- 34 -->
<g id="node35" class="node">
<title>34</title>
<path fill="#ffffff" stroke="black" d="M560.5,-364C560.5,-364 506.5,-364 506.5,-364 500.5,-364 494.5,-358 494.5,-352 494.5,-352 494.5,-340 494.5,-340 494.5,-334 500.5,-328 506.5,-328 506.5,-328 560.5,-328 560.5,-328 566.5,-328 572.5,-334 572.5,-340 572.5,-340 572.5,-352 572.5,-352 572.5,-358 566.5,-364 560.5,-364"/>
<text text-anchor="start" x="502.5" y="-342.3" font-family="Helvetica,sans-Serif" font-size="14.00">big_nose</text>
</g>
<!-- 33&#45;&gt;34 -->
<g id="edge34" class="edge">
<title>33&#45;&gt;34</title>
<path fill="none" stroke="black" d="M448.56,-346C459.34,-346 472.03,-346 484.24,-346"/>
<polygon fill="black" stroke="black" points="484.32,-349.5 494.32,-346 484.32,-342.5 484.32,-349.5"/>
</g>
<!-- 37 -->
<g id="node38" class="node">
<title>37</title>
<path fill="#d739e5" stroke="black" d="M755.5,-306C755.5,-306 724.5,-306 724.5,-306 718.5,-306 712.5,-300 712.5,-294 712.5,-294 712.5,-282 712.5,-282 712.5,-276 718.5,-270 724.5,-270 724.5,-270 755.5,-270 755.5,-270 761.5,-270 767.5,-276 767.5,-282 767.5,-282 767.5,-294 767.5,-294 767.5,-300 761.5,-306 755.5,-306"/>
<text text-anchor="start" x="720.5" y="-284.3" font-family="Helvetica,sans-Serif" font-size="14.00">philip</text>
</g>
<!-- 33&#45;&gt;37 -->
<g id="edge37" class="edge">
<title>33&#45;&gt;37</title>
<path fill="none" stroke="black" d="M448.57,-334.55C466.28,-327.19 486,-319 486,-319 486,-319 632.06,-301.1 702.23,-292.51"/>
<polygon fill="black" stroke="black" points="702.9,-295.95 712.4,-291.26 702.05,-289 702.9,-295.95"/>
</g>
<!-- 35 -->
<g id="node36" class="node">
<title>35</title>
<path fill="#e58139" stroke="black" d="M755,-414C755,-414 725,-414 725,-414 719,-414 713,-408 713,-402 713,-402 713,-390 713,-390 713,-384 719,-378 725,-378 725,-378 755,-378 755,-378 761,-378 767,-384 767,-390 767,-390 767,-402 767,-402 767,-408 761,-414 755,-414"/>
<text text-anchor="start" x="725.5" y="-392.3" font-family="Helvetica,sans-Serif" font-size="14.00">alex</text>
</g>
<!-- 34&#45;&gt;35 -->
<g id="edge35" class="edge">
<title>34&#45;&gt;35</title>
<path fill="none" stroke="black" d="M572.96,-355.4C610.3,-364.53 666.52,-378.28 702.99,-387.2"/>
<polygon fill="black" stroke="black" points="702.18,-390.6 712.72,-389.58 703.84,-383.8 702.18,-390.6"/>
</g>
<!-- 36 -->
<g id="node37" class="node">
<title>36</title>
<path fill="#5639e5" stroke="black" d="M755,-360C755,-360 725,-360 725,-360 719,-360 713,-354 713,-348 713,-348 713,-336 713,-336 713,-330 719,-324 725,-324 725,-324 755,-324 755,-324 761,-324 767,-330 767,-336 767,-336 767,-348 767,-348 767,-354 761,-360 755,-360"/>
<text text-anchor="start" x="724.5" y="-338.3" font-family="Helvetica,sans-Serif" font-size="14.00">max</text>
</g>
<!-- 34&#45;&gt;36 -->
<g id="edge36" class="edge">
<title>34&#45;&gt;36</title>
<path fill="none" stroke="black" d="M572.96,-345.25C610.14,-344.52 666.04,-343.43 702.52,-342.71"/>
<polygon fill="black" stroke="black" points="702.79,-346.21 712.72,-342.51 702.66,-339.21 702.79,-346.21"/>
</g>
<!-- 39 -->
<g id="node40" class="node">
<title>39</title>
<path fill="#ffffff" stroke="black" d="M447,-170C447,-170 393,-170 393,-170 387,-170 381,-164 381,-158 381,-158 381,-146 381,-146 381,-140 387,-134 393,-134 393,-134 447,-134 447,-134 453,-134 459,-140 459,-146 459,-146 459,-158 459,-158 459,-164 453,-170 447,-170"/>
<text text-anchor="start" x="389" y="-148.3" font-family="Helvetica,sans-Serif" font-size="14.00">big_nose</text>
</g>
<!-- 38&#45;&gt;39 -->
<g id="edge39" class="edge">
<title>38&#45;&gt;39</title>
<path fill="none" stroke="black" d="M354.14,-152C359.52,-152 365.02,-152 370.43,-152"/>
<polygon fill="black" stroke="black" points="370.66,-155.5 380.66,-152 370.66,-148.5 370.66,-155.5"/>
</g>
<!-- 44 -->
<g id="node45" class="node">
<title>44</title>
<path fill="#ffffff" stroke="black" d="M457,-90C457,-90 383,-90 383,-90 377,-90 371,-84 371,-78 371,-78 371,-66 371,-66 371,-60 377,-54 383,-54 383,-54 457,-54 457,-54 463,-54 469,-60 469,-66 469,-66 469,-78 469,-78 469,-84 463,-90 457,-90"/>
<text text-anchor="start" x="379" y="-68.3" font-family="Helvetica,sans-Serif" font-size="14.00">sad_looking</text>
</g>
<!-- 38&#45;&gt;44 -->
<g id="edge44" class="edge">
<title>38&#45;&gt;44</title>
<path fill="none" stroke="black" d="M332.8,-133.85C348.34,-122.7 368.43,-108.28 385.31,-96.17"/>
<polygon fill="black" stroke="black" points="387.71,-98.75 393.8,-90.08 383.63,-93.07 387.71,-98.75"/>
</g>
<!-- 40 -->
<g id="node41" class="node">
<title>40</title>
<path fill="#ffffff" stroke="black" d="M550,-198C550,-198 517,-198 517,-198 511,-198 505,-192 505,-186 505,-186 505,-174 505,-174 505,-168 511,-162 517,-162 517,-162 550,-162 550,-162 556,-162 562,-168 562,-174 562,-174 562,-186 562,-186 562,-192 556,-198 550,-198"/>
<text text-anchor="start" x="513" y="-176.3" font-family="Helvetica,sans-Serif" font-size="14.00">beard</text>
</g>
<!-- 39&#45;&gt;40 -->
<g id="edge40" class="edge">
<title>39&#45;&gt;40</title>
<path fill="none" stroke="black" d="M459.06,-161.56C470.67,-164.47 483.43,-167.68 495,-170.58"/>
<polygon fill="black" stroke="black" points="494.26,-174.01 504.81,-173.05 495.97,-167.22 494.26,-174.01"/>
</g>
<!-- 43 -->
<g id="node44" class="node">
<title>43</title>
<path fill="#ac39e5" stroke="black" d="M755,-144C755,-144 725,-144 725,-144 719,-144 713,-138 713,-132 713,-132 713,-120 713,-120 713,-114 719,-108 725,-108 725,-108 755,-108 755,-108 761,-108 767,-114 767,-120 767,-120 767,-132 767,-132 767,-138 761,-144 755,-144"/>
<text text-anchor="start" x="721.5" y="-122.3" font-family="Helvetica,sans-Serif" font-size="14.00">peter</text>
</g>
<!-- 39&#45;&gt;43 -->
<g id="edge43" class="edge">
<title>39&#45;&gt;43</title>
<path fill="none" stroke="black" d="M459.04,-148.89C520.78,-143.84 641.99,-133.93 702.64,-128.97"/>
<polygon fill="black" stroke="black" points="703.2,-132.44 712.88,-128.14 702.63,-125.46 703.2,-132.44"/>
</g>
<!-- 41 -->
<g id="node42" class="node">
<title>41</title>
<path fill="#47e539" stroke="black" d="M761.5,-252C761.5,-252 718.5,-252 718.5,-252 712.5,-252 706.5,-246 706.5,-240 706.5,-240 706.5,-228 706.5,-228 706.5,-222 712.5,-216 718.5,-216 718.5,-216 761.5,-216 761.5,-216 767.5,-216 773.5,-222 773.5,-228 773.5,-228 773.5,-240 773.5,-240 773.5,-246 767.5,-252 761.5,-252"/>
<text text-anchor="start" x="714.5" y="-230.3" font-family="Helvetica,sans-Serif" font-size="14.00">charles</text>
</g>
<!-- 40&#45;&gt;41 -->
<g id="edge41" class="edge">
<title>40&#45;&gt;41</title>
<path fill="none" stroke="black" d="M562.08,-187.28C596.65,-196.41 656.27,-212.15 696.65,-222.82"/>
<polygon fill="black" stroke="black" points="695.91,-226.24 706.47,-225.41 697.69,-219.47 695.91,-226.24"/>
</g>
<!-- 42 -->
<g id="node43" class="node">
<title>42</title>
<path fill="#39e581" stroke="black" d="M755.5,-198C755.5,-198 724.5,-198 724.5,-198 718.5,-198 712.5,-192 712.5,-186 712.5,-186 712.5,-174 712.5,-174 712.5,-168 718.5,-162 724.5,-162 724.5,-162 755.5,-162 755.5,-162 761.5,-162 767.5,-168 767.5,-174 767.5,-174 767.5,-186 767.5,-186 767.5,-192 761.5,-198 755.5,-198"/>
<text text-anchor="start" x="720.5" y="-176.3" font-family="Helvetica,sans-Serif" font-size="14.00">david</text>
</g>
<!-- 40&#45;&gt;42 -->
<g id="edge42" class="edge">
<title>40&#45;&gt;42</title>
<path fill="none" stroke="black" d="M562.08,-180C598.21,-180 661.68,-180 701.97,-180"/>
<polygon fill="black" stroke="black" points="702.18,-183.5 712.18,-180 702.18,-176.5 702.18,-183.5"/>
</g>
<!-- 45 -->
<g id="node46" class="node">
<title>45</title>
<path fill="#e53947" stroke="black" d="M757,-90C757,-90 723,-90 723,-90 717,-90 711,-84 711,-78 711,-78 711,-66 711,-66 711,-60 717,-54 723,-54 723,-54 757,-54 757,-54 763,-54 769,-60 769,-66 769,-66 769,-78 769,-78 769,-84 763,-90 757,-90"/>
<text text-anchor="start" x="719" y="-68.3" font-family="Helvetica,sans-Serif" font-size="14.00">susan</text>
</g>
<!-- 44&#45;&gt;45 -->
<g id="edge45" class="edge">
<title>44&#45;&gt;45</title>
<path fill="none" stroke="black" d="M469.3,-72C532.6,-72 642.37,-72 700.43,-72"/>
<polygon fill="black" stroke="black" points="700.65,-75.5 710.65,-72 700.65,-68.5 700.65,-75.5"/>
</g>
<!-- 46 -->
<g id="node47" class="node">
<title>46</title>
<path fill="#e5399d" stroke="black" d="M757.5,-36C757.5,-36 722.5,-36 722.5,-36 716.5,-36 710.5,-30 710.5,-24 710.5,-24 710.5,-12 710.5,-12 710.5,-6 716.5,0 722.5,0 722.5,0 757.5,0 757.5,0 763.5,0 769.5,-6 769.5,-12 769.5,-12 769.5,-24 769.5,-24 769.5,-30 763.5,-36 757.5,-36"/>
<text text-anchor="start" x="718.5" y="-14.3" font-family="Helvetica,sans-Serif" font-size="14.00">robert</text>
</g>
<!-- 44&#45;&gt;46 -->
<g id="edge46" class="edge">
<title>44&#45;&gt;46</title>
<path fill="none" stroke="black" d="M469.3,-63.8C532.57,-53.05 642.26,-34.43 700.34,-24.56"/>
<polygon fill="black" stroke="black" points="700.95,-28.01 710.22,-22.89 699.78,-21.11 700.95,-28.01"/>
</g>
</g>
</svg>
