<?xml version="1.0" encoding="UTF-8" standalone="no"?>
<!DOCTYPE svg PUBLIC "-//W3C//DTD SVG 1.1//EN"
 "http://www.w3.org/Graphics/SVG/1.1/DTD/svg11.dtd">
<!-- Generated by graphviz version 2.50.0 (0)
 -->
<!-- Title: Tree Pages: 1 -->
<svg width="782pt" height="1286pt"
 viewBox="0.00 0.00 782.00 1286.00" xmlns="http://www.w3.org/2000/svg" xmlns:xlink="http://www.w3.org/1999/xlink">
<g id="graph0" class="graph" transform="scale(1 1) rotate(0) translate(4 1282)">
<title>Tree</title>
<polygon fill="white" stroke="transparent" points="-4,4 -4,-1282 778,-1282 778,4 -4,4"/>
<!-- 0 -->
<g id="node1" class="node">
<title>0</title>
<path fill="#ffffff" stroke="black" d="M78,-496C78,-496 12,-496 12,-496 6,-496 0,-490 0,-484 0,-484 0,-472 0,-472 0,-466 6,-460 12,-460 12,-460 78,-460 78,-460 84,-460 90,-466 90,-472 90,-472 90,-484 90,-484 90,-490 84,-496 78,-496"/>
<text text-anchor="start" x="8" y="-474.3" font-family="Helvetica,sans-Serif" font-size="14.00">big_mouth</text>
</g>
<!-- 1 -->
<g id="node2" class="node">
<title>1</title>
<path fill="#ffffff" stroke="black" d="M191.5,-657C191.5,-657 161.5,-657 161.5,-657 155.5,-657 149.5,-651 149.5,-645 149.5,-645 149.5,-633 149.5,-633 149.5,-627 155.5,-621 161.5,-621 161.5,-621 191.5,-621 191.5,-621 197.5,-621 203.5,-627 203.5,-633 203.5,-633 203.5,-645 203.5,-645 203.5,-651 197.5,-657 191.5,-657"/>
<text text-anchor="start" x="161" y="-635.3" font-family="Helvetica,sans-Serif" font-size="14.00">bald</text>
</g>
<!-- 0&#45;&gt;1 -->
<g id="edge1" class="edge">
<title>0&#45;&gt;1</title>
<path fill="none" stroke="black" d="M60.6,-496.16C83.53,-524.66 128.08,-580.04 154.46,-612.84"/>
<polygon fill="black" stroke="black" points="151.76,-615.07 160.75,-620.66 157.21,-610.68 151.76,-615.07"/>
<text text-anchor="middle" x="111.5" y="-575.8" font-family="Helvetica,sans-Serif" font-size="14.00">NO</text>
</g>
<!-- 28 -->
<g id="node29" class="node">
<title>28</title>
<path fill="#ffffff" stroke="black" d="M208,-388C208,-388 145,-388 145,-388 139,-388 133,-382 133,-376 133,-376 133,-364 133,-364 133,-358 139,-352 145,-352 145,-352 208,-352 208,-352 214,-352 220,-358 220,-364 220,-364 220,-376 220,-376 220,-382 214,-388 208,-388"/>
<text text-anchor="start" x="141" y="-366.3" font-family="Helvetica,sans-Serif" font-size="14.00">facial_hair</text>
</g>
<!-- 0&#45;&gt;28 -->
<g id="edge28" class="edge">
<title>0&#45;&gt;28</title>
<path fill="none" stroke="black" d="M67.68,-459.92C89.15,-442.01 122.2,-414.45 146.05,-394.56"/>
<polygon fill="black" stroke="black" points="148.32,-397.23 153.75,-388.14 143.83,-391.85 148.32,-397.23"/>
<text text-anchor="middle" x="111.5" y="-436.8" font-family="Helvetica,sans-Serif" font-size="14.00">YES</text>
</g>
<!-- 2 -->
<g id="node3" class="node">
<title>2</title>
<path fill="#ffffff" stroke="black" d="M304.5,-920C304.5,-920 264.5,-920 264.5,-920 258.5,-920 252.5,-914 252.5,-908 252.5,-908 252.5,-896 252.5,-896 252.5,-890 258.5,-884 264.5,-884 264.5,-884 304.5,-884 304.5,-884 310.5,-884 316.5,-890 316.5,-896 316.5,-896 316.5,-908 316.5,-908 316.5,-914 310.5,-920 304.5,-920"/>
<text text-anchor="start" x="260.5" y="-898.3" font-family="Helvetica,sans-Serif" font-size="14.00">female</text>
</g>
<!-- 1&#45;&gt;2 -->
<g id="edge2" class="edge">
<title>1&#45;&gt;2</title>
<path fill="none" stroke="black" d="M184.79,-657.08C203.02,-702.31 250.69,-820.6 272.42,-874.51"/>
<polygon fill="black" stroke="black" points="269.18,-875.83 276.16,-883.8 275.67,-873.21 269.18,-875.83"/>
</g>
<!-- 19 -->
<g id="node20" class="node">
<title>19</title>
<path fill="#ffffff" stroke="black" d="M320,-657C320,-657 249,-657 249,-657 243,-657 237,-651 237,-645 237,-645 237,-633 237,-633 237,-627 243,-621 249,-621 249,-621 320,-621 320,-621 326,-621 332,-627 332,-633 332,-633 332,-645 332,-645 332,-651 326,-657 320,-657"/>
<text text-anchor="start" x="245" y="-635.3" font-family="Helvetica,sans-Serif" font-size="14.00">ginger_hair</text>
</g>
<!-- 1&#45;&gt;19 -->
<g id="edge19" class="edge">
<title>1&#45;&gt;19</title>
<path fill="none" stroke="black" d="M203.7,-639C210.77,-639 218.7,-639 226.75,-639"/>
<polygon fill="black" stroke="black" points="226.95,-642.5 236.95,-639 226.95,-635.5 226.95,-642.5"/>
</g>
<!-- 3 -->
<g id="node4" class="node">
<title>3</title>
<path fill="#ffffff" stroke="black" d="M420,-1083C420,-1083 376,-1083 376,-1083 370,-1083 364,-1077 364,-1071 364,-1071 364,-1059 364,-1059 364,-1053 370,-1047 376,-1047 376,-1047 420,-1047 420,-1047 426,-1047 432,-1053 432,-1059 432,-1059 432,-1071 432,-1071 432,-1077 426,-1083 420,-1083"/>
<text text-anchor="start" x="372" y="-1061.3" font-family="Helvetica,sans-Serif" font-size="14.00">glasses</text>
</g>
<!-- 2&#45;&gt;3 -->
<g id="edge3" class="edge">
<title>2&#45;&gt;3</title>
<path fill="none" stroke="black" d="M297.86,-920.07C317.53,-948.83 356.08,-1005.17 378.88,-1038.5"/>
<polygon fill="black" stroke="black" points="376.05,-1040.57 384.59,-1046.85 381.83,-1036.62 376.05,-1040.57"/>
</g>
<!-- 12 -->
<g id="node13" class="node">
<title>12</title>
<path fill="#ffffff" stroke="black" d="M426,-920C426,-920 370,-920 370,-920 364,-920 358,-914 358,-908 358,-908 358,-896 358,-896 358,-890 364,-884 370,-884 370,-884 426,-884 426,-884 432,-884 438,-890 438,-896 438,-896 438,-908 438,-908 438,-914 432,-920 426,-920"/>
<text text-anchor="start" x="366" y="-898.3" font-family="Helvetica,sans-Serif" font-size="14.00">long_hair</text>
</g>
<!-- 2&#45;&gt;12 -->
<g id="edge12" class="edge">
<title>2&#45;&gt;12</title>
<path fill="none" stroke="black" d="M316.56,-902C326.23,-902 337.14,-902 347.73,-902"/>
<polygon fill="black" stroke="black" points="347.74,-905.5 357.74,-902 347.74,-898.5 347.74,-905.5"/>
</g>
<!-- 4 -->
<g id="node5" class="node">
<title>4</title>
<path fill="#ffffff" stroke="black" d="M538.5,-1170C538.5,-1170 484.5,-1170 484.5,-1170 478.5,-1170 472.5,-1164 472.5,-1158 472.5,-1158 472.5,-1146 472.5,-1146 472.5,-1140 478.5,-1134 484.5,-1134 484.5,-1134 538.5,-1134 538.5,-1134 544.5,-1134 550.5,-1140 550.5,-1146 550.5,-1146 550.5,-1158 550.5,-1158 550.5,-1164 544.5,-1170 538.5,-1170"/>
<text text-anchor="start" x="480.5" y="-1148.3" font-family="Helvetica,sans-Serif" font-size="14.00">big_nose</text>
</g>
<!-- 3&#45;&gt;4 -->
<g id="edge4" class="edge">
<title>3&#45;&gt;4</title>
<path fill="none" stroke="black" d="M422.1,-1083.03C438.7,-1095.97 461.25,-1113.57 479.42,-1127.75"/>
<polygon fill="black" stroke="black" points="477.39,-1130.6 487.43,-1134 481.7,-1125.09 477.39,-1130.6"/>
</g>
<!-- 9 -->
<g id="node10" class="node">
<title>9</title>
<path fill="#ffffff" stroke="black" d="M542,-1083C542,-1083 481,-1083 481,-1083 475,-1083 469,-1077 469,-1071 469,-1071 469,-1059 469,-1059 469,-1053 475,-1047 481,-1047 481,-1047 542,-1047 542,-1047 548,-1047 554,-1053 554,-1059 554,-1059 554,-1071 554,-1071 554,-1077 548,-1083 542,-1083"/>
<text text-anchor="start" x="477" y="-1061.3" font-family="Helvetica,sans-Serif" font-size="14.00">curly_hair</text>
</g>
<!-- 3&#45;&gt;9 -->
<g id="edge9" class="edge">
<title>3&#45;&gt;9</title>
<path fill="none" stroke="black" d="M432.15,-1065C440.55,-1065 449.77,-1065 458.84,-1065"/>
<polygon fill="black" stroke="black" points="458.97,-1068.5 468.97,-1065 458.97,-1061.5 458.97,-1068.5"/>
</g>
<!-- 5 -->
<g id="node6" class="node">
<title>5</title>
<path fill="#ffffff" stroke="black" d="M673,-1224C673,-1224 588,-1224 588,-1224 582,-1224 576,-1218 576,-1212 576,-1212 576,-1200 576,-1200 576,-1194 582,-1188 588,-1188 588,-1188 673,-1188 673,-1188 679,-1188 685,-1194 685,-1200 685,-1200 685,-1212 685,-1212 685,-1218 679,-1224 673,-1224"/>
<text text-anchor="start" x="584" y="-1202.3" font-family="Helvetica,sans-Serif" font-size="14.00">hair_partition</text>
</g>
<!-- 4&#45;&gt;5 -->
<g id="edge5" class="edge">
<title>4&#45;&gt;5</title>
<path fill="none" stroke="black" d="M550.81,-1169.68C560.5,-1174.16 571.04,-1179.02 581.16,-1183.69"/>
<polygon fill="black" stroke="black" points="579.76,-1186.9 590.3,-1187.91 582.69,-1180.54 579.76,-1186.9"/>
</g>
<!-- 8 -->
<g id="node9" class="node">
<title>8</title>
<path fill="#9de539" stroke="black" d="M762,-1170C762,-1170 714,-1170 714,-1170 708,-1170 702,-1164 702,-1158 702,-1158 702,-1146 702,-1146 702,-1140 708,-1134 714,-1134 714,-1134 762,-1134 762,-1134 768,-1134 774,-1140 774,-1146 774,-1146 774,-1158 774,-1158 774,-1164 768,-1170 762,-1170"/>
<text text-anchor="start" x="710" y="-1148.3" font-family="Helvetica,sans-Serif" font-size="14.00">bernard</text>
</g>
<!-- 4&#45;&gt;8 -->
<g id="edge8" class="edge">
<title>4&#45;&gt;8</title>
<path fill="none" stroke="black" d="M550.58,-1152C589.56,-1152 650.14,-1152 691.59,-1152"/>
<polygon fill="black" stroke="black" points="691.69,-1155.5 701.69,-1152 691.69,-1148.5 691.69,-1155.5"/>
</g>
<!-- 6 -->
<g id="node7" class="node">
<title>6</title>
<path fill="#39e5d7" stroke="black" d="M753,-1278C753,-1278 723,-1278 723,-1278 717,-1278 711,-1272 711,-1266 711,-1266 711,-1254 711,-1254 711,-1248 717,-1242 723,-1242 723,-1242 753,-1242 753,-1242 759,-1242 765,-1248 765,-1254 765,-1254 765,-1266 765,-1266 765,-1272 759,-1278 753,-1278"/>
<text text-anchor="start" x="719.5" y="-1256.3" font-family="Helvetica,sans-Serif" font-size="14.00">frans</text>
</g>
<!-- 5&#45;&gt;6 -->
<g id="edge6" class="edge">
<title>5&#45;&gt;6</title>
<path fill="none" stroke="black" d="M666.92,-1224.13C678.15,-1229.88 690.55,-1236.22 701.76,-1241.96"/>
<polygon fill="black" stroke="black" points="700.35,-1245.17 710.85,-1246.61 703.54,-1238.94 700.35,-1245.17"/>
</g>
<!-- 7 -->
<g id="node8" class="node">
<title>7</title>
<path fill="#e5ac39" stroke="black" d="M754,-1224C754,-1224 722,-1224 722,-1224 716,-1224 710,-1218 710,-1212 710,-1212 710,-1200 710,-1200 710,-1194 716,-1188 722,-1188 722,-1188 754,-1188 754,-1188 760,-1188 766,-1194 766,-1200 766,-1200 766,-1212 766,-1212 766,-1218 760,-1224 754,-1224"/>
<text text-anchor="start" x="718" y="-1202.3" font-family="Helvetica,sans-Serif" font-size="14.00">alfred</text>
</g>
<!-- 5&#45;&gt;7 -->
<g id="edge7" class="edge">
<title>5&#45;&gt;7</title>
<path fill="none" stroke="black" d="M685.18,-1206C690.12,-1206 695.05,-1206 699.8,-1206"/>
<polygon fill="black" stroke="black" points="699.84,-1209.5 709.84,-1206 699.84,-1202.5 699.84,-1209.5"/>
</g>
<!-- 10 -->
<g id="node11" class="node">
<title>10</title>
<path fill="#8139e5" stroke="black" d="M753,-1116C753,-1116 723,-1116 723,-1116 717,-1116 711,-1110 711,-1104 711,-1104 711,-1092 711,-1092 711,-1086 717,-1080 723,-1080 723,-1080 753,-1080 753,-1080 759,-1080 765,-1086 765,-1092 765,-1092 765,-1104 765,-1104 765,-1110 759,-1116 753,-1116"/>
<text text-anchor="start" x="722.5" y="-1094.3" font-family="Helvetica,sans-Serif" font-size="14.00">paul</text>
</g>
<!-- 9&#45;&gt;10 -->
<g id="edge10" class="edge">
<title>9&#45;&gt;10</title>
<path fill="none" stroke="black" d="M554.2,-1071.13C596.34,-1077.32 660.78,-1086.8 700.83,-1092.68"/>
<polygon fill="black" stroke="black" points="700.54,-1096.18 710.94,-1094.17 701.56,-1089.25 700.54,-1096.18"/>
</g>
<!-- 11 -->
<g id="node12" class="node">
<title>11</title>
<path fill="#3972e5" stroke="black" d="M753,-1062C753,-1062 723,-1062 723,-1062 717,-1062 711,-1056 711,-1050 711,-1050 711,-1038 711,-1038 711,-1032 717,-1026 723,-1026 723,-1026 753,-1026 753,-1026 759,-1026 765,-1032 765,-1038 765,-1038 765,-1050 765,-1050 765,-1056 759,-1062 753,-1062"/>
<text text-anchor="start" x="727.5" y="-1040.3" font-family="Helvetica,sans-Serif" font-size="14.00">joe</text>
</g>
<!-- 9&#45;&gt;11 -->
<g id="edge11" class="edge">
<title>9&#45;&gt;11</title>
<path fill="none" stroke="black" d="M554.2,-1061.1C596.34,-1057.16 660.78,-1051.13 700.83,-1047.38"/>
<polygon fill="black" stroke="black" points="701.31,-1050.85 710.94,-1046.44 700.66,-1043.88 701.31,-1050.85"/>
</g>
<!-- 13 -->
<g id="node14" class="node">
<title>13</title>
<path fill="#ffffff" stroke="black" d="M547,-954C547,-954 476,-954 476,-954 470,-954 464,-948 464,-942 464,-942 464,-930 464,-930 464,-924 470,-918 476,-918 476,-918 547,-918 547,-918 553,-918 559,-924 559,-930 559,-930 559,-942 559,-942 559,-948 553,-954 547,-954"/>
<text text-anchor="start" x="472" y="-932.3" font-family="Helvetica,sans-Serif" font-size="14.00">ginger_hair</text>
</g>
<!-- 12&#45;&gt;13 -->
<g id="edge13" class="edge">
<title>12&#45;&gt;13</title>
<path fill="none" stroke="black" d="M438.31,-913.99C443.48,-915.56 448.86,-917.2 454.25,-918.85"/>
<polygon fill="black" stroke="black" points="453.32,-922.22 463.91,-921.79 455.36,-915.53 453.32,-922.22"/>
</g>
<!-- 16 -->
<g id="node17" class="node">
<title>16</title>
<path fill="#ffffff" stroke="black" d="M542.5,-900C542.5,-900 480.5,-900 480.5,-900 474.5,-900 468.5,-894 468.5,-888 468.5,-888 468.5,-876 468.5,-876 468.5,-870 474.5,-864 480.5,-864 480.5,-864 542.5,-864 542.5,-864 548.5,-864 554.5,-870 554.5,-876 554.5,-876 554.5,-888 554.5,-888 554.5,-894 548.5,-900 542.5,-900"/>
<text text-anchor="start" x="476.5" y="-878.3" font-family="Helvetica,sans-Serif" font-size="14.00">blue_eyes</text>
</g>
<!-- 12&#45;&gt;16 -->
<g id="edge16" class="edge">
<title>12&#45;&gt;16</title>
<path fill="none" stroke="black" d="M438.31,-894.95C444.65,-893.81 451.29,-892.62 457.88,-891.44"/>
<polygon fill="black" stroke="black" points="458.91,-894.81 468.14,-889.6 457.68,-887.92 458.91,-894.81"/>
</g>
<!-- 14 -->
<g id="node15" class="node">
<title>14</title>
<path fill="#c8e539" stroke="black" d="M753,-1008C753,-1008 723,-1008 723,-1008 717,-1008 711,-1002 711,-996 711,-996 711,-984 711,-984 711,-978 717,-972 723,-972 723,-972 753,-972 753,-972 759,-972 765,-978 765,-984 765,-984 765,-996 765,-996 765,-1002 759,-1008 753,-1008"/>
<text text-anchor="start" x="720.5" y="-986.3" font-family="Helvetica,sans-Serif" font-size="14.00">anne</text>
</g>
<!-- 13&#45;&gt;14 -->
<g id="edge14" class="edge">
<title>13&#45;&gt;14</title>
<path fill="none" stroke="black" d="M559.42,-948.05C564.01,-949.23 567,-950 567,-950 567,-950 651.13,-969.8 701.02,-981.54"/>
<polygon fill="black" stroke="black" points="700.27,-984.95 710.81,-983.84 701.88,-978.14 700.27,-984.95"/>
</g>
<!-- 15 -->
<g id="node16" class="node">
<title>15</title>
<path fill="#39e556" stroke="black" d="M753,-954C753,-954 723,-954 723,-954 717,-954 711,-948 711,-942 711,-942 711,-930 711,-930 711,-924 717,-918 723,-918 723,-918 753,-918 753,-918 759,-918 765,-924 765,-930 765,-930 765,-942 765,-942 765,-948 759,-954 753,-954"/>
<text text-anchor="start" x="719.5" y="-932.3" font-family="Helvetica,sans-Serif" font-size="14.00">claire</text>
</g>
<!-- 13&#45;&gt;15 -->
<g id="edge15" class="edge">
<title>13&#45;&gt;15</title>
<path fill="none" stroke="black" d="M559.02,-936C601.04,-936 662.05,-936 700.61,-936"/>
<polygon fill="black" stroke="black" points="700.86,-939.5 710.86,-936 700.86,-932.5 700.86,-939.5"/>
</g>
<!-- 17 -->
<g id="node18" class="node">
<title>17</title>
<path fill="#3947e5" stroke="black" d="M754,-900C754,-900 722,-900 722,-900 716,-900 710,-894 710,-888 710,-888 710,-876 710,-876 710,-870 716,-864 722,-864 722,-864 754,-864 754,-864 760,-864 766,-870 766,-876 766,-876 766,-888 766,-888 766,-894 760,-900 754,-900"/>
<text text-anchor="start" x="718" y="-878.3" font-family="Helvetica,sans-Serif" font-size="14.00">maria</text>
</g>
<!-- 16&#45;&gt;17 -->
<g id="edge17" class="edge">
<title>16&#45;&gt;17</title>
<path fill="none" stroke="black" d="M554.73,-882C596.47,-882 659.72,-882 699.67,-882"/>
<polygon fill="black" stroke="black" points="699.79,-885.5 709.79,-882 699.79,-878.5 699.79,-885.5"/>
</g>
<!-- 18 -->
<g id="node19" class="node">
<title>18</title>
<path fill="#e5d739" stroke="black" d="M753,-846C753,-846 723,-846 723,-846 717,-846 711,-840 711,-834 711,-834 711,-822 711,-822 711,-816 717,-810 723,-810 723,-810 753,-810 753,-810 759,-810 765,-816 765,-822 765,-822 765,-834 765,-834 765,-840 759,-846 753,-846"/>
<text text-anchor="start" x="720.5" y="-824.3" font-family="Helvetica,sans-Serif" font-size="14.00">anita</text>
</g>
<!-- 16&#45;&gt;18 -->
<g id="edge18" class="edge">
<title>16&#45;&gt;18</title>
<path fill="none" stroke="black" d="M554.73,-871.84C596.91,-861.7 661.05,-846.27 700.92,-836.68"/>
<polygon fill="black" stroke="black" points="701.85,-840.05 710.75,-834.31 700.21,-833.25 701.85,-840.05"/>
</g>
<!-- 20 -->
<g id="node21" class="node">
<title>20</title>
<path fill="#ffffff" stroke="black" d="M429.5,-684C429.5,-684 366.5,-684 366.5,-684 360.5,-684 354.5,-678 354.5,-672 354.5,-672 354.5,-660 354.5,-660 354.5,-654 360.5,-648 366.5,-648 366.5,-648 429.5,-648 429.5,-648 435.5,-648 441.5,-654 441.5,-660 441.5,-660 441.5,-672 441.5,-672 441.5,-678 435.5,-684 429.5,-684"/>
<text text-anchor="start" x="362.5" y="-662.3" font-family="Helvetica,sans-Serif" font-size="14.00">black_hair</text>
</g>
<!-- 19&#45;&gt;20 -->
<g id="edge20" class="edge">
<title>19&#45;&gt;20</title>
<path fill="none" stroke="black" d="M332.14,-650.29C336.3,-651.3 340.53,-652.33 344.74,-653.35"/>
<polygon fill="black" stroke="black" points="343.92,-656.75 354.46,-655.7 345.56,-649.94 343.92,-656.75"/>
</g>
<!-- 25 -->
<g id="node26" class="node">
<title>25</title>
<path fill="#ffffff" stroke="black" d="M425,-630C425,-630 371,-630 371,-630 365,-630 359,-624 359,-618 359,-618 359,-606 359,-606 359,-600 365,-594 371,-594 371,-594 425,-594 425,-594 431,-594 437,-600 437,-606 437,-606 437,-618 437,-618 437,-624 431,-630 425,-630"/>
<text text-anchor="start" x="367" y="-608.3" font-family="Helvetica,sans-Serif" font-size="14.00">big_nose</text>
</g>
<!-- 19&#45;&gt;25 -->
<g id="edge25" class="edge">
<title>19&#45;&gt;25</title>
<path fill="none" stroke="black" d="M332.14,-627.71C337.66,-626.37 343.3,-625 348.84,-623.66"/>
<polygon fill="black" stroke="black" points="349.76,-627.04 358.66,-621.28 348.11,-620.24 349.76,-627.04"/>
</g>
<!-- 21 -->
<g id="node22" class="node">
<title>21</title>
<path fill="#ffffff" stroke="black" d="M546,-738C546,-738 477,-738 477,-738 471,-738 465,-732 465,-726 465,-726 465,-714 465,-714 465,-708 471,-702 477,-702 477,-702 546,-702 546,-702 552,-702 558,-708 558,-714 558,-714 558,-726 558,-726 558,-732 552,-738 546,-738"/>
<text text-anchor="start" x="473" y="-716.3" font-family="Helvetica,sans-Serif" font-size="14.00">brown_hair</text>
</g>
<!-- 20&#45;&gt;21 -->
<g id="edge21" class="edge">
<title>20&#45;&gt;21</title>
<path fill="none" stroke="black" d="M436.44,-684.13C445.26,-688.41 454.78,-693.01 463.95,-697.46"/>
<polygon fill="black" stroke="black" points="462.45,-700.62 472.97,-701.82 465.5,-694.32 462.45,-700.62"/>
</g>
<!-- 24 -->
<g id="node25" class="node">
<title>24</title>
<path fill="#e55639" stroke="black" d="M753,-684C753,-684 723,-684 723,-684 717,-684 711,-678 711,-672 711,-672 711,-660 711,-660 711,-654 717,-648 723,-648 723,-648 753,-648 753,-648 759,-648 765,-654 765,-660 765,-660 765,-672 765,-672 765,-678 759,-684 753,-684"/>
<text text-anchor="start" x="724" y="-662.3" font-family="Helvetica,sans-Serif" font-size="14.00">tom</text>
</g>
<!-- 20&#45;&gt;24 -->
<g id="edge24" class="edge">
<title>20&#45;&gt;24</title>
<path fill="none" stroke="black" d="M441.81,-666C508.81,-666 637.29,-666 700.31,-666"/>
<polygon fill="black" stroke="black" points="700.57,-669.5 710.57,-666 700.57,-662.5 700.57,-669.5"/>
</g>
<!-- 22 -->
<g id="node23" class="node">
<title>22</title>
<path fill="#e53972" stroke="black" d="M753,-792C753,-792 723,-792 723,-792 717,-792 711,-786 711,-780 711,-780 711,-768 711,-768 711,-762 717,-756 723,-756 723,-756 753,-756 753,-756 759,-756 765,-762 765,-768 765,-768 765,-780 765,-780 765,-786 759,-792 753,-792"/>
<text text-anchor="start" x="723" y="-770.3" font-family="Helvetica,sans-Serif" font-size="14.00">sam</text>
</g>
<!-- 21&#45;&gt;22 -->
<g id="edge22" class="edge">
<title>21&#45;&gt;22</title>
<path fill="none" stroke="black" d="M558,-731.69C563.38,-733.07 567,-734 567,-734 567,-734 651.13,-753.8 701.02,-765.54"/>
<polygon fill="black" stroke="black" points="700.27,-768.95 710.81,-767.84 701.88,-762.14 700.27,-768.95"/>
</g>
<!-- 23 -->
<g id="node24" class="node">
<title>23</title>
<path fill="#e539c8" stroke="black" d="M759,-738C759,-738 717,-738 717,-738 711,-738 705,-732 705,-726 705,-726 705,-714 705,-714 705,-708 711,-702 717,-702 717,-702 759,-702 759,-702 765,-702 771,-708 771,-714 771,-714 771,-726 771,-726 771,-732 765,-738 759,-738"/>
<text text-anchor="start" x="713" y="-716.3" font-family="Helvetica,sans-Serif" font-size="14.00">richard</text>
</g>
<!-- 21&#45;&gt;23 -->
<g id="edge23" class="edge">
<title>21&#45;&gt;23</title>
<path fill="none" stroke="black" d="M558.2,-720C598.04,-720 655.4,-720 694.32,-720"/>
<polygon fill="black" stroke="black" points="694.78,-723.5 704.78,-720 694.78,-716.5 694.78,-723.5"/>
</g>
<!-- 26 -->
<g id="node27" class="node">
<title>26</title>
<path fill="#72e539" stroke="black" d="M753,-630C753,-630 723,-630 723,-630 717,-630 711,-624 711,-618 711,-618 711,-606 711,-606 711,-600 717,-594 723,-594 723,-594 753,-594 753,-594 759,-594 765,-600 765,-606 765,-606 765,-618 765,-618 765,-624 759,-630 753,-630"/>
<text text-anchor="start" x="727.5" y="-608.3" font-family="Helvetica,sans-Serif" font-size="14.00">bill</text>
</g>
<!-- 25&#45;&gt;26 -->
<g id="edge26" class="edge">
<title>25&#45;&gt;26</title>
<path fill="none" stroke="black" d="M437.12,-612C502.7,-612 636.03,-612 700.49,-612"/>
<polygon fill="black" stroke="black" points="700.59,-615.5 710.59,-612 700.59,-608.5 700.59,-615.5"/>
</g>
<!-- 27 -->
<g id="node28" class="node">
<title>27</title>
<path fill="#399de5" stroke="black" d="M761.5,-576C761.5,-576 714.5,-576 714.5,-576 708.5,-576 702.5,-570 702.5,-564 702.5,-564 702.5,-552 702.5,-552 702.5,-546 708.5,-540 714.5,-540 714.5,-540 761.5,-540 761.5,-540 767.5,-540 773.5,-546 773.5,-552 773.5,-552 773.5,-564 773.5,-564 773.5,-570 767.5,-576 761.5,-576"/>
<text text-anchor="start" x="710.5" y="-554.3" font-family="Helvetica,sans-Serif" font-size="14.00">herman</text>
</g>
<!-- 25&#45;&gt;27 -->
<g id="edge27" class="edge">
<title>25&#45;&gt;27</title>
<path fill="none" stroke="black" d="M437.12,-605.91C499.96,-595.87 625.04,-575.89 692.08,-565.18"/>
<polygon fill="black" stroke="black" points="693,-568.57 702.32,-563.54 691.9,-561.66 693,-568.57"/>
</g>
<!-- 29 -->
<g id="node30" class="node">
<title>29</title>
<path fill="#ffffff" stroke="black" d="M320,-388C320,-388 249,-388 249,-388 243,-388 237,-382 237,-376 237,-376 237,-364 237,-364 237,-358 243,-352 249,-352 249,-352 320,-352 320,-352 326,-352 332,-358 332,-364 332,-364 332,-376 332,-376 332,-382 326,-388 320,-388"/>
<text text-anchor="start" x="245" y="-366.3" font-family="Helvetica,sans-Serif" font-size="14.00">red_cheeks</text>
</g>
<!-- 28&#45;&gt;29 -->
<g id="edge29" class="edge">
<title>28&#45;&gt;29</title>
<path fill="none" stroke="black" d="M220,-370C222.25,-370 224.52,-370 226.8,-370"/>
<polygon fill="black" stroke="black" points="226.81,-373.5 236.81,-370 226.81,-366.5 226.81,-373.5"/>
</g>
<!-- 38 -->
<g id="node39" class="node">
<title>38</title>
<path fill="#ffffff" stroke="black" d="M317,-164C317,-164 252,-164 252,-164 246,-164 240,-158 240,-152 240,-152 240,-140 240,-140 240,-134 246,-128 252,-128 252,-128 317,-128 317,-128 323,-128 329,-134 329,-140 329,-140 329,-152 329,-152 329,-158 323,-164 317,-164"/>
<text text-anchor="start" x="248" y="-142.3" font-family="Helvetica,sans-Serif" font-size="14.00">blond_hair</text>
</g>
<!-- 28&#45;&gt;38 -->
<g id="edge38" class="edge">
<title>28&#45;&gt;38</title>
<path fill="none" stroke="black" d="M186.17,-351.67C204.78,-312.36 248.59,-219.76 270.52,-173.42"/>
<polygon fill="black" stroke="black" points="273.74,-174.81 274.85,-164.27 267.41,-171.81 273.74,-174.81"/>
</g>
<!-- 30 -->
<g id="node31" class="node">
<title>30</title>
<path fill="#ffffff" stroke="black" d="M435,-414C435,-414 361,-414 361,-414 355,-414 349,-408 349,-402 349,-402 349,-390 349,-390 349,-384 355,-378 361,-378 361,-378 435,-378 435,-378 441,-378 447,-384 447,-390 447,-390 447,-402 447,-402 447,-408 441,-414 435,-414"/>
<text text-anchor="start" x="357" y="-392.3" font-family="Helvetica,sans-Serif" font-size="14.00">sad_looking</text>
</g>
<!-- 29&#45;&gt;30 -->
<g id="edge30" class="edge">
<title>29&#45;&gt;30</title>
<path fill="none" stroke="black" d="M332.14,-380.88C334.37,-381.4 336.62,-381.92 338.88,-382.45"/>
<polygon fill="black" stroke="black" points="338.22,-385.89 348.75,-384.75 339.81,-379.07 338.22,-385.89"/>
</g>
<!-- 35 -->
<g id="node36" class="node">
<title>35</title>
<path fill="#ffffff" stroke="black" d="M418,-360C418,-360 378,-360 378,-360 372,-360 366,-354 366,-348 366,-348 366,-336 366,-336 366,-330 372,-324 378,-324 378,-324 418,-324 418,-324 424,-324 430,-330 430,-336 430,-336 430,-348 430,-348 430,-354 424,-360 418,-360"/>
<text text-anchor="start" x="374" y="-338.3" font-family="Helvetica,sans-Serif" font-size="14.00">female</text>
</g>
<!-- 29&#45;&gt;35 -->
<g id="edge35" class="edge">
<title>29&#45;&gt;35</title>
<path fill="none" stroke="black" d="M332.14,-358.29C340.02,-356.31 348.16,-354.27 355.89,-352.32"/>
<polygon fill="black" stroke="black" points="356.91,-355.68 365.76,-349.84 355.21,-348.89 356.91,-355.68"/>
</g>
<!-- 31 -->
<g id="node32" class="node">
<title>31</title>
<path fill="#ffffff" stroke="black" d="M542.5,-468C542.5,-468 480.5,-468 480.5,-468 474.5,-468 468.5,-462 468.5,-456 468.5,-456 468.5,-444 468.5,-444 468.5,-438 474.5,-432 480.5,-432 480.5,-432 542.5,-432 542.5,-432 548.5,-432 554.5,-438 554.5,-444 554.5,-444 554.5,-456 554.5,-456 554.5,-462 548.5,-468 542.5,-468"/>
<text text-anchor="start" x="476.5" y="-446.3" font-family="Helvetica,sans-Serif" font-size="14.00">blue_eyes</text>
</g>
<!-- 30&#45;&gt;31 -->
<g id="edge31" class="edge">
<title>30&#45;&gt;31</title>
<path fill="none" stroke="black" d="M436.44,-414.13C445.26,-418.41 454.78,-423.01 463.95,-427.46"/>
<polygon fill="black" stroke="black" points="462.45,-430.62 472.97,-431.82 465.5,-424.32 462.45,-430.62"/>
</g>
<!-- 34 -->
<g id="node35" class="node">
<title>34</title>
<path fill="#39c8e5" stroke="black" d="M758.5,-414C758.5,-414 717.5,-414 717.5,-414 711.5,-414 705.5,-408 705.5,-402 705.5,-402 705.5,-390 705.5,-390 705.5,-384 711.5,-378 717.5,-378 717.5,-378 758.5,-378 758.5,-378 764.5,-378 770.5,-384 770.5,-390 770.5,-390 770.5,-402 770.5,-402 770.5,-408 764.5,-414 758.5,-414"/>
<text text-anchor="start" x="713.5" y="-392.3" font-family="Helvetica,sans-Serif" font-size="14.00">george</text>
</g>
<!-- 30&#45;&gt;34 -->
<g id="edge34" class="edge">
<title>30&#45;&gt;34</title>
<path fill="none" stroke="black" d="M447.07,-396C513.4,-396 631.93,-396 694.93,-396"/>
<polygon fill="black" stroke="black" points="695.29,-399.5 705.29,-396 695.29,-392.5 695.29,-399.5"/>
</g>
<!-- 32 -->
<g id="node33" class="node">
<title>32</title>
<path fill="#39e5ac" stroke="black" d="M753,-522C753,-522 723,-522 723,-522 717,-522 711,-516 711,-510 711,-510 711,-498 711,-498 711,-492 717,-486 723,-486 723,-486 753,-486 753,-486 759,-486 765,-492 765,-498 765,-498 765,-510 765,-510 765,-516 759,-522 753,-522"/>
<text text-anchor="start" x="725" y="-500.3" font-family="Helvetica,sans-Serif" font-size="14.00">eric</text>
</g>
<!-- 31&#45;&gt;32 -->
<g id="edge32" class="edge">
<title>31&#45;&gt;32</title>
<path fill="none" stroke="black" d="M554.63,-460.82C561.81,-462.67 567,-464 567,-464 567,-464 651.13,-483.8 701.02,-495.54"/>
<polygon fill="black" stroke="black" points="700.27,-498.95 710.81,-497.84 701.88,-492.14 700.27,-498.95"/>
</g>
<!-- 33 -->
<g id="node34" class="node">
<title>33</title>
<path fill="#ac39e5" stroke="black" d="M753,-468C753,-468 723,-468 723,-468 717,-468 711,-462 711,-456 711,-456 711,-444 711,-444 711,-438 717,-432 723,-432 723,-432 753,-432 753,-432 759,-432 765,-438 765,-444 765,-444 765,-456 765,-456 765,-462 759,-468 753,-468"/>
<text text-anchor="start" x="719.5" y="-446.3" font-family="Helvetica,sans-Serif" font-size="14.00">peter</text>
</g>
<!-- 31&#45;&gt;33 -->
<g id="edge33" class="edge">
<title>31&#45;&gt;33</title>
<path fill="none" stroke="black" d="M554.73,-450C596.82,-450 660.78,-450 700.67,-450"/>
<polygon fill="black" stroke="black" points="700.75,-453.5 710.75,-450 700.75,-446.5 700.75,-453.5"/>
</g>
<!-- 36 -->
<g id="node37" class="node">
<title>36</title>
<path fill="#e5399d" stroke="black" d="M755.5,-360C755.5,-360 720.5,-360 720.5,-360 714.5,-360 708.5,-354 708.5,-348 708.5,-348 708.5,-336 708.5,-336 708.5,-330 714.5,-324 720.5,-324 720.5,-324 755.5,-324 755.5,-324 761.5,-324 767.5,-330 767.5,-336 767.5,-336 767.5,-348 767.5,-348 767.5,-354 761.5,-360 755.5,-360"/>
<text text-anchor="start" x="716.5" y="-338.3" font-family="Helvetica,sans-Serif" font-size="14.00">robert</text>
</g>
<!-- 35&#45;&gt;36 -->
<g id="edge36" class="edge">
<title>35&#45;&gt;36</title>
<path fill="none" stroke="black" d="M430.19,-342C492.09,-342 630.29,-342 698.05,-342"/>
<polygon fill="black" stroke="black" points="698.29,-345.5 708.29,-342 698.29,-338.5 698.29,-345.5"/>
</g>
<!-- 37 -->
<g id="node38" class="node">
<title>37</title>
<path fill="#e53947" stroke="black" d="M755,-306C755,-306 721,-306 721,-306 715,-306 709,-300 709,-294 709,-294 709,-282 709,-282 709,-276 715,-270 721,-270 721,-270 755,-270 755,-270 761,-270 767,-276 767,-282 767,-282 767,-294 767,-294 767,-300 761,-306 755,-306"/>
<text text-anchor="start" x="717" y="-284.3" font-family="Helvetica,sans-Serif" font-size="14.00">susan</text>
</g>
<!-- 35&#45;&gt;37 -->
<g id="edge37" class="edge">
<title>35&#45;&gt;37</title>
<path fill="none" stroke="black" d="M430.19,-337.02C492.24,-327.1 630.99,-304.94 698.55,-294.14"/>
<polygon fill="black" stroke="black" points="699.44,-297.55 708.76,-292.51 698.34,-290.63 699.44,-297.55"/>
</g>
<!-- 39 -->
<g id="node40" class="node">
<title>39</title>
<path fill="#ffffff" stroke="black" d="M414.5,-164C414.5,-164 381.5,-164 381.5,-164 375.5,-164 369.5,-158 369.5,-152 369.5,-152 369.5,-140 369.5,-140 369.5,-134 375.5,-128 381.5,-128 381.5,-128 414.5,-128 414.5,-128 420.5,-128 426.5,-134 426.5,-140 426.5,-140 426.5,-152 426.5,-152 426.5,-158 420.5,-164 414.5,-164"/>
<text text-anchor="start" x="377.5" y="-142.3" font-family="Helvetica,sans-Serif" font-size="14.00">beard</text>
</g>
<!-- 38&#45;&gt;39 -->
<g id="edge39" class="edge">
<title>38&#45;&gt;39</title>
<path fill="none" stroke="black" d="M329.25,-146C339.19,-146 349.68,-146 359.34,-146"/>
<polygon fill="black" stroke="black" points="359.45,-149.5 369.45,-146 359.45,-142.5 359.45,-149.5"/>
</g>
<!-- 44 -->
<g id="node45" class="node">
<title>44</title>
<path fill="#ffffff" stroke="black" d="M414.5,-90C414.5,-90 381.5,-90 381.5,-90 375.5,-90 369.5,-84 369.5,-78 369.5,-78 369.5,-66 369.5,-66 369.5,-60 375.5,-54 381.5,-54 381.5,-54 414.5,-54 414.5,-54 420.5,-54 426.5,-60 426.5,-66 426.5,-66 426.5,-78 426.5,-78 426.5,-84 420.5,-90 414.5,-90"/>
<text text-anchor="start" x="377.5" y="-68.3" font-family="Helvetica,sans-Serif" font-size="14.00">beard</text>
</g>
<!-- 38&#45;&gt;44 -->
<g id="edge44" class="edge">
<title>38&#45;&gt;44</title>
<path fill="none" stroke="black" d="M312.78,-127.9C327.35,-118.22 345.48,-106.19 361.18,-95.77"/>
<polygon fill="black" stroke="black" points="363.22,-98.62 369.62,-90.17 359.35,-92.79 363.22,-98.62"/>
</g>
<!-- 40 -->
<g id="node41" class="node">
<title>40</title>
<path fill="#ffffff" stroke="black" d="M542,-198C542,-198 481,-198 481,-198 475,-198 469,-192 469,-186 469,-186 469,-174 469,-174 469,-168 475,-162 481,-162 481,-162 542,-162 542,-162 548,-162 554,-168 554,-174 554,-174 554,-186 554,-186 554,-192 548,-198 542,-198"/>
<text text-anchor="start" x="477" y="-176.3" font-family="Helvetica,sans-Serif" font-size="14.00">curly_hair</text>
</g>
<!-- 39&#45;&gt;40 -->
<g id="edge40" class="edge">
<title>39&#45;&gt;40</title>
<path fill="none" stroke="black" d="M426.56,-154.4C436.44,-157.42 447.92,-160.92 459.15,-164.34"/>
<polygon fill="black" stroke="black" points="458.33,-167.75 468.92,-167.32 460.38,-161.06 458.33,-167.75"/>
</g>
<!-- 43 -->
<g id="node44" class="node">
<title>43</title>
<path fill="#d739e5" stroke="black" d="M753.5,-144C753.5,-144 722.5,-144 722.5,-144 716.5,-144 710.5,-138 710.5,-132 710.5,-132 710.5,-120 710.5,-120 710.5,-114 716.5,-108 722.5,-108 722.5,-108 753.5,-108 753.5,-108 759.5,-108 765.5,-114 765.5,-120 765.5,-120 765.5,-132 765.5,-132 765.5,-138 759.5,-144 753.5,-144"/>
<text text-anchor="start" x="718.5" y="-122.3" font-family="Helvetica,sans-Serif" font-size="14.00">philip</text>
</g>
<!-- 39&#45;&gt;43 -->
<g id="edge43" class="edge">
<title>39&#45;&gt;43</title>
<path fill="none" stroke="black" d="M426.66,-144.36C487.27,-140.78 631.82,-132.22 700.09,-128.18"/>
<polygon fill="black" stroke="black" points="700.59,-131.66 710.37,-127.58 700.18,-124.67 700.59,-131.66"/>
</g>
<!-- 41 -->
<g id="node42" class="node">
<title>41</title>
<path fill="#e58139" stroke="black" d="M753,-252C753,-252 723,-252 723,-252 717,-252 711,-246 711,-240 711,-240 711,-228 711,-228 711,-222 717,-216 723,-216 723,-216 753,-216 753,-216 759,-216 765,-222 765,-228 765,-228 765,-240 765,-240 765,-246 759,-252 753,-252"/>
<text text-anchor="start" x="723.5" y="-230.3" font-family="Helvetica,sans-Serif" font-size="14.00">alex</text>
</g>
<!-- 40&#45;&gt;41 -->
<g id="edge41" class="edge">
<title>40&#45;&gt;41</title>
<path fill="none" stroke="black" d="M554.08,-190.68C561.54,-192.6 567,-194 567,-194 567,-194 651.13,-213.8 701.02,-225.54"/>
<polygon fill="black" stroke="black" points="700.27,-228.95 710.81,-227.84 701.88,-222.14 700.27,-228.95"/>
</g>
<!-- 42 -->
<g id="node43" class="node">
<title>42</title>
<path fill="#5639e5" stroke="black" d="M753,-198C753,-198 723,-198 723,-198 717,-198 711,-192 711,-186 711,-186 711,-174 711,-174 711,-168 717,-162 723,-162 723,-162 753,-162 753,-162 759,-162 765,-168 765,-174 765,-174 765,-186 765,-186 765,-192 759,-198 753,-198"/>
<text text-anchor="start" x="722.5" y="-176.3" font-family="Helvetica,sans-Serif" font-size="14.00">max</text>
</g>
<!-- 40&#45;&gt;42 -->
<g id="edge42" class="edge">
<title>40&#45;&gt;42</title>
<path fill="none" stroke="black" d="M554.2,-180C596.34,-180 660.78,-180 700.83,-180"/>
<polygon fill="black" stroke="black" points="700.94,-183.5 710.94,-180 700.94,-176.5 700.94,-183.5"/>
</g>
<!-- 45 -->
<g id="node46" class="node">
<title>45</title>
<path fill="#47e539" stroke="black" d="M759.5,-90C759.5,-90 716.5,-90 716.5,-90 710.5,-90 704.5,-84 704.5,-78 704.5,-78 704.5,-66 704.5,-66 704.5,-60 710.5,-54 716.5,-54 716.5,-54 759.5,-54 759.5,-54 765.5,-54 771.5,-60 771.5,-66 771.5,-66 771.5,-78 771.5,-78 771.5,-84 765.5,-90 759.5,-90"/>
<text text-anchor="start" x="712.5" y="-68.3" font-family="Helvetica,sans-Serif" font-size="14.00">charles</text>
</g>
<!-- 44&#45;&gt;45 -->
<g id="edge45" class="edge">
<title>44&#45;&gt;45</title>
<path fill="none" stroke="black" d="M426.66,-72C485.52,-72 623.55,-72 693.99,-72"/>
<polygon fill="black" stroke="black" points="694.29,-75.5 704.29,-72 694.29,-68.5 694.29,-75.5"/>
</g>
<!-- 46 -->
<g id="node47" class="node">
<title>46</title>
<path fill="#39e581" stroke="black" d="M753.5,-36C753.5,-36 722.5,-36 722.5,-36 716.5,-36 710.5,-30 710.5,-24 710.5,-24 710.5,-12 710.5,-12 710.5,-6 716.5,0 722.5,0 722.5,0 753.5,0 753.5,0 759.5,0 765.5,-6 765.5,-12 765.5,-12 765.5,-24 765.5,-24 765.5,-30 759.5,-36 753.5,-36"/>
<text text-anchor="start" x="718.5" y="-14.3" font-family="Helvetica,sans-Serif" font-size="14.00">david</text>
</g>
<!-- 44&#45;&gt;46 -->
<g id="edge46" class="edge">
<title>44&#45;&gt;46</title>
<path fill="none" stroke="black" d="M426.66,-67.58C487.27,-57.9 631.82,-34.8 700.09,-23.9"/>
<polygon fill="black" stroke="black" points="701.05,-27.29 710.37,-22.25 699.94,-20.38 701.05,-27.29"/>
</g>
</g>
</svg>
