<?xml version="1.0" encoding="UTF-8" standalone="no"?>
<!DOCTYPE svg PUBLIC "-//W3C//DTD SVG 1.1//EN"
 "http://www.w3.org/Graphics/SVG/1.1/DTD/svg11.dtd">
<!-- Generated by graphviz version 2.50.0 (0)
 -->
<!-- Title: Tree Pages: 1 -->
<svg width="777pt" height="1286pt"
 viewBox="0.00 0.00 777.00 1286.00" xmlns="http://www.w3.org/2000/svg" xmlns:xlink="http://www.w3.org/1999/xlink">
<g id="graph0" class="graph" transform="scale(1 1) rotate(0) translate(4 1282)">
<title>Tree</title>
<polygon fill="white" stroke="transparent" points="-4,4 -4,-1282 773,-1282 773,4 -4,4"/>
<!-- 0 -->
<g id="node1" class="node">
<title>0</title>
<path fill="#ffffff" stroke="black" d="M78,-523C78,-523 12,-523 12,-523 6,-523 0,-517 0,-511 0,-511 0,-499 0,-499 0,-493 6,-487 12,-487 12,-487 78,-487 78,-487 84,-487 90,-493 90,-499 90,-499 90,-511 90,-511 90,-517 84,-523 78,-523"/>
<text text-anchor="start" x="8" y="-501.3" font-family="Helvetica,sans-Serif" font-size="14.00">big_mouth</text>
</g>
<!-- 1 -->
<g id="node2" class="node">
<title>1</title>
<path fill="#ffffff" stroke="black" d="M216,-656C216,-656 145,-656 145,-656 139,-656 133,-650 133,-644 133,-644 133,-632 133,-632 133,-626 139,-620 145,-620 145,-620 216,-620 216,-620 222,-620 228,-626 228,-632 228,-632 228,-644 228,-644 228,-650 222,-656 216,-656"/>
<text text-anchor="start" x="141" y="-634.3" font-family="Helvetica,sans-Serif" font-size="14.00">ginger_hair</text>
</g>
<!-- 0&#45;&gt;1 -->
<g id="edge1" class="edge">
<title>0&#45;&gt;1</title>
<path fill="none" stroke="black" d="M64.28,-523.21C87.42,-546.27 127.42,-586.11 153.67,-612.26"/>
<polygon fill="black" stroke="black" points="151.46,-615 161.01,-619.58 156.4,-610.04 151.46,-615"/>
<text text-anchor="middle" x="111.5" y="-586.8" font-family="Helvetica,sans-Serif" font-size="14.00">NO</text>
</g>
<!-- 28 -->
<g id="node29" class="node">
<title>28</title>
<path fill="#ffffff" stroke="black" d="M212,-442C212,-442 149,-442 149,-442 143,-442 137,-436 137,-430 137,-430 137,-418 137,-418 137,-412 143,-406 149,-406 149,-406 212,-406 212,-406 218,-406 224,-412 224,-418 224,-418 224,-430 224,-430 224,-436 218,-442 212,-442"/>
<text text-anchor="start" x="145" y="-420.3" font-family="Helvetica,sans-Serif" font-size="14.00">facial_hair</text>
</g>
<!-- 0&#45;&gt;28 -->
<g id="edge28" class="edge">
<title>0&#45;&gt;28</title>
<path fill="none" stroke="black" d="M75.96,-486.82C95.2,-475.15 120.37,-459.88 141.07,-447.32"/>
<polygon fill="black" stroke="black" points="142.91,-450.3 149.64,-442.12 139.28,-444.31 142.91,-450.3"/>
<text text-anchor="middle" x="111.5" y="-474.8" font-family="Helvetica,sans-Serif" font-size="14.00">YES</text>
</g>
<!-- 2 -->
<g id="node3" class="node">
<title>2</title>
<path fill="#ffffff" stroke="black" d="M321.5,-927C321.5,-927 277.5,-927 277.5,-927 271.5,-927 265.5,-921 265.5,-915 265.5,-915 265.5,-903 265.5,-903 265.5,-897 271.5,-891 277.5,-891 277.5,-891 321.5,-891 321.5,-891 327.5,-891 333.5,-897 333.5,-903 333.5,-903 333.5,-915 333.5,-915 333.5,-921 327.5,-927 321.5,-927"/>
<text text-anchor="start" x="273.5" y="-905.3" font-family="Helvetica,sans-Serif" font-size="14.00">glasses</text>
</g>
<!-- 1&#45;&gt;2 -->
<g id="edge2" class="edge">
<title>1&#45;&gt;2</title>
<path fill="none" stroke="black" d="M189.36,-656.2C209.42,-702.68 262.65,-825.96 286.57,-881.36"/>
<polygon fill="black" stroke="black" points="283.5,-883.08 290.68,-890.88 289.93,-880.31 283.5,-883.08"/>
</g>
<!-- 19 -->
<g id="node20" class="node">
<title>19</title>
<path fill="#ffffff" stroke="black" d="M331,-656C331,-656 268,-656 268,-656 262,-656 256,-650 256,-644 256,-644 256,-632 256,-632 256,-626 262,-620 268,-620 268,-620 331,-620 331,-620 337,-620 343,-626 343,-632 343,-632 343,-644 343,-644 343,-650 337,-656 331,-656"/>
<text text-anchor="start" x="264" y="-634.3" font-family="Helvetica,sans-Serif" font-size="14.00">facial_hair</text>
</g>
<!-- 1&#45;&gt;19 -->
<g id="edge19" class="edge">
<title>1&#45;&gt;19</title>
<path fill="none" stroke="black" d="M228.08,-638C233.81,-638 239.71,-638 245.53,-638"/>
<polygon fill="black" stroke="black" points="245.88,-641.5 255.88,-638 245.88,-634.5 245.88,-641.5"/>
</g>
<!-- 3 -->
<g id="node4" class="node">
<title>3</title>
<path fill="#ffffff" stroke="black" d="M432.5,-1083C432.5,-1083 402.5,-1083 402.5,-1083 396.5,-1083 390.5,-1077 390.5,-1071 390.5,-1071 390.5,-1059 390.5,-1059 390.5,-1053 396.5,-1047 402.5,-1047 402.5,-1047 432.5,-1047 432.5,-1047 438.5,-1047 444.5,-1053 444.5,-1059 444.5,-1059 444.5,-1071 444.5,-1071 444.5,-1077 438.5,-1083 432.5,-1083"/>
<text text-anchor="start" x="406" y="-1061.3" font-family="Helvetica,sans-Serif" font-size="14.00">hat</text>
</g>
<!-- 2&#45;&gt;3 -->
<g id="edge3" class="edge">
<title>2&#45;&gt;3</title>
<path fill="none" stroke="black" d="M314.03,-927.2C334.46,-954.68 373.29,-1006.89 396.84,-1038.57"/>
<polygon fill="black" stroke="black" points="394.28,-1040.98 403.05,-1046.92 399.89,-1036.8 394.28,-1040.98"/>
</g>
<!-- 12 -->
<g id="node13" class="node">
<title>12</title>
<path fill="#ffffff" stroke="black" d="M432.5,-927C432.5,-927 402.5,-927 402.5,-927 396.5,-927 390.5,-921 390.5,-915 390.5,-915 390.5,-903 390.5,-903 390.5,-897 396.5,-891 402.5,-891 402.5,-891 432.5,-891 432.5,-891 438.5,-891 444.5,-897 444.5,-903 444.5,-903 444.5,-915 444.5,-915 444.5,-921 438.5,-927 432.5,-927"/>
<text text-anchor="start" x="402" y="-905.3" font-family="Helvetica,sans-Serif" font-size="14.00">bald</text>
</g>
<!-- 2&#45;&gt;12 -->
<g id="edge12" class="edge">
<title>2&#45;&gt;12</title>
<path fill="none" stroke="black" d="M333.74,-909C348.18,-909 365.14,-909 379.93,-909"/>
<polygon fill="black" stroke="black" points="380.25,-912.5 390.25,-909 380.25,-905.5 380.25,-912.5"/>
</g>
<!-- 4 -->
<g id="node5" class="node">
<title>4</title>
<path fill="#ffffff" stroke="black" d="M564,-1170C564,-1170 493,-1170 493,-1170 487,-1170 481,-1164 481,-1158 481,-1158 481,-1146 481,-1146 481,-1140 487,-1134 493,-1134 493,-1134 564,-1134 564,-1134 570,-1134 576,-1140 576,-1146 576,-1146 576,-1158 576,-1158 576,-1164 570,-1170 564,-1170"/>
<text text-anchor="start" x="489" y="-1148.3" font-family="Helvetica,sans-Serif" font-size="14.00">red_cheeks</text>
</g>
<!-- 3&#45;&gt;4 -->
<g id="edge4" class="edge">
<title>3&#45;&gt;4</title>
<path fill="none" stroke="black" d="M441.08,-1083.03C457.31,-1095.97 479.36,-1113.57 497.12,-1127.75"/>
<polygon fill="black" stroke="black" points="494.94,-1130.49 504.94,-1134 499.31,-1125.02 494.94,-1130.49"/>
</g>
<!-- 9 -->
<g id="node10" class="node">
<title>9</title>
<path fill="#ffffff" stroke="black" d="M556.5,-1083C556.5,-1083 500.5,-1083 500.5,-1083 494.5,-1083 488.5,-1077 488.5,-1071 488.5,-1071 488.5,-1059 488.5,-1059 488.5,-1053 494.5,-1047 500.5,-1047 500.5,-1047 556.5,-1047 556.5,-1047 562.5,-1047 568.5,-1053 568.5,-1059 568.5,-1059 568.5,-1071 568.5,-1071 568.5,-1077 562.5,-1083 556.5,-1083"/>
<text text-anchor="start" x="496.5" y="-1061.3" font-family="Helvetica,sans-Serif" font-size="14.00">long_hair</text>
</g>
<!-- 3&#45;&gt;9 -->
<g id="edge9" class="edge">
<title>3&#45;&gt;9</title>
<path fill="none" stroke="black" d="M444.61,-1065C454.74,-1065 466.69,-1065 478.31,-1065"/>
<polygon fill="black" stroke="black" points="478.39,-1068.5 488.39,-1065 478.39,-1061.5 478.39,-1068.5"/>
</g>
<!-- 5 -->
<g id="node6" class="node">
<title>5</title>
<path fill="#ffffff" stroke="black" d="M668,-1224C668,-1224 605,-1224 605,-1224 599,-1224 593,-1218 593,-1212 593,-1212 593,-1200 593,-1200 593,-1194 599,-1188 605,-1188 605,-1188 668,-1188 668,-1188 674,-1188 680,-1194 680,-1200 680,-1200 680,-1212 680,-1212 680,-1218 674,-1224 668,-1224"/>
<text text-anchor="start" x="601" y="-1202.3" font-family="Helvetica,sans-Serif" font-size="14.00">black_hair</text>
</g>
<!-- 4&#45;&gt;5 -->
<g id="edge5" class="edge">
<title>4&#45;&gt;5</title>
<path fill="none" stroke="black" d="M565.09,-1170.13C573.31,-1174.32 582.15,-1178.82 590.7,-1183.18"/>
<polygon fill="black" stroke="black" points="589.32,-1186.4 599.82,-1187.82 592.5,-1180.17 589.32,-1186.4"/>
</g>
<!-- 8 -->
<g id="node9" class="node">
<title>8</title>
<path fill="#e5d739" stroke="black" d="M748,-1170C748,-1170 718,-1170 718,-1170 712,-1170 706,-1164 706,-1158 706,-1158 706,-1146 706,-1146 706,-1140 712,-1134 718,-1134 718,-1134 748,-1134 748,-1134 754,-1134 760,-1140 760,-1146 760,-1146 760,-1158 760,-1158 760,-1164 754,-1170 748,-1170"/>
<text text-anchor="start" x="715.5" y="-1148.3" font-family="Helvetica,sans-Serif" font-size="14.00">anita</text>
</g>
<!-- 4&#45;&gt;8 -->
<g id="edge8" class="edge">
<title>4&#45;&gt;8</title>
<path fill="none" stroke="black" d="M576.21,-1152C612.57,-1152 662.31,-1152 695.72,-1152"/>
<polygon fill="black" stroke="black" points="695.95,-1155.5 705.95,-1152 695.95,-1148.5 695.95,-1155.5"/>
</g>
<!-- 6 -->
<g id="node7" class="node">
<title>6</title>
<path fill="#e539c8" stroke="black" d="M754,-1278C754,-1278 712,-1278 712,-1278 706,-1278 700,-1272 700,-1266 700,-1266 700,-1254 700,-1254 700,-1248 706,-1242 712,-1242 712,-1242 754,-1242 754,-1242 760,-1242 766,-1248 766,-1254 766,-1254 766,-1266 766,-1266 766,-1272 760,-1278 754,-1278"/>
<text text-anchor="start" x="708" y="-1256.3" font-family="Helvetica,sans-Serif" font-size="14.00">richard</text>
</g>
<!-- 5&#45;&gt;6 -->
<g id="edge6" class="edge">
<title>5&#45;&gt;6</title>
<path fill="none" stroke="black" d="M669.23,-1224.13C676.24,-1228.14 683.77,-1232.44 691.09,-1236.62"/>
<polygon fill="black" stroke="black" points="689.77,-1239.9 700.19,-1241.82 693.25,-1233.82 689.77,-1239.9"/>
</g>
<!-- 7 -->
<g id="node8" class="node">
<title>7</title>
<path fill="#c8e539" stroke="black" d="M748,-1224C748,-1224 718,-1224 718,-1224 712,-1224 706,-1218 706,-1212 706,-1212 706,-1200 706,-1200 706,-1194 712,-1188 718,-1188 718,-1188 748,-1188 748,-1188 754,-1188 760,-1194 760,-1200 760,-1200 760,-1212 760,-1212 760,-1218 754,-1224 748,-1224"/>
<text text-anchor="start" x="715.5" y="-1202.3" font-family="Helvetica,sans-Serif" font-size="14.00">anne</text>
</g>
<!-- 5&#45;&gt;7 -->
<g id="edge7" class="edge">
<title>5&#45;&gt;7</title>
<path fill="none" stroke="black" d="M680.05,-1206C685.29,-1206 690.6,-1206 695.73,-1206"/>
<polygon fill="black" stroke="black" points="695.92,-1209.5 705.92,-1206 695.92,-1202.5 695.92,-1209.5"/>
</g>
<!-- 10 -->
<g id="node11" class="node">
<title>10</title>
<path fill="#9de539" stroke="black" d="M757,-1116C757,-1116 709,-1116 709,-1116 703,-1116 697,-1110 697,-1104 697,-1104 697,-1092 697,-1092 697,-1086 703,-1080 709,-1080 709,-1080 757,-1080 757,-1080 763,-1080 769,-1086 769,-1092 769,-1092 769,-1104 769,-1104 769,-1110 763,-1116 757,-1116"/>
<text text-anchor="start" x="705" y="-1094.3" font-family="Helvetica,sans-Serif" font-size="14.00">bernard</text>
</g>
<!-- 9&#45;&gt;10 -->
<g id="edge10" class="edge">
<title>9&#45;&gt;10</title>
<path fill="none" stroke="black" d="M568.54,-1071.36C602.33,-1076.87 651.21,-1084.83 686.71,-1090.62"/>
<polygon fill="black" stroke="black" points="686.37,-1094.11 696.8,-1092.26 687.49,-1087.2 686.37,-1094.11"/>
</g>
<!-- 11 -->
<g id="node12" class="node">
<title>11</title>
<path fill="#3947e5" stroke="black" d="M749,-1062C749,-1062 717,-1062 717,-1062 711,-1062 705,-1056 705,-1050 705,-1050 705,-1038 705,-1038 705,-1032 711,-1026 717,-1026 717,-1026 749,-1026 749,-1026 755,-1026 761,-1032 761,-1038 761,-1038 761,-1050 761,-1050 761,-1056 755,-1062 749,-1062"/>
<text text-anchor="start" x="713" y="-1040.3" font-family="Helvetica,sans-Serif" font-size="14.00">maria</text>
</g>
<!-- 9&#45;&gt;11 -->
<g id="edge11" class="edge">
<title>9&#45;&gt;11</title>
<path fill="none" stroke="black" d="M568.54,-1060.95C604.95,-1057.18 658.86,-1051.58 694.69,-1047.87"/>
<polygon fill="black" stroke="black" points="695.16,-1051.34 704.74,-1046.83 694.43,-1044.38 695.16,-1051.34"/>
</g>
<!-- 13 -->
<g id="node14" class="node">
<title>13</title>
<path fill="#ffffff" stroke="black" d="M560.5,-954C560.5,-954 496.5,-954 496.5,-954 490.5,-954 484.5,-948 484.5,-942 484.5,-942 484.5,-930 484.5,-930 484.5,-924 490.5,-918 496.5,-918 496.5,-918 560.5,-918 560.5,-918 566.5,-918 572.5,-924 572.5,-930 572.5,-930 572.5,-942 572.5,-942 572.5,-948 566.5,-954 560.5,-954"/>
<text text-anchor="start" x="492.5" y="-932.3" font-family="Helvetica,sans-Serif" font-size="14.00">white_hair</text>
</g>
<!-- 12&#45;&gt;13 -->
<g id="edge13" class="edge">
<title>12&#45;&gt;13</title>
<path fill="none" stroke="black" d="M444.61,-915.47C453.58,-917.69 463.98,-920.27 474.31,-922.83"/>
<polygon fill="black" stroke="black" points="473.61,-926.26 484.15,-925.26 475.29,-919.46 473.61,-926.26"/>
</g>
<!-- 16 -->
<g id="node17" class="node">
<title>16</title>
<path fill="#ffffff" stroke="black" d="M560.5,-900C560.5,-900 496.5,-900 496.5,-900 490.5,-900 484.5,-894 484.5,-888 484.5,-888 484.5,-876 484.5,-876 484.5,-870 490.5,-864 496.5,-864 496.5,-864 560.5,-864 560.5,-864 566.5,-864 572.5,-870 572.5,-876 572.5,-876 572.5,-888 572.5,-888 572.5,-894 566.5,-900 560.5,-900"/>
<text text-anchor="start" x="492.5" y="-878.3" font-family="Helvetica,sans-Serif" font-size="14.00">white_hair</text>
</g>
<!-- 12&#45;&gt;16 -->
<g id="edge16" class="edge">
<title>12&#45;&gt;16</title>
<path fill="none" stroke="black" d="M444.61,-902.53C453.58,-900.31 463.98,-897.73 474.31,-895.17"/>
<polygon fill="black" stroke="black" points="475.29,-898.54 484.15,-892.74 473.61,-891.74 475.29,-898.54"/>
</g>
<!-- 14 -->
<g id="node15" class="node">
<title>14</title>
<path fill="#3972e5" stroke="black" d="M748,-1008C748,-1008 718,-1008 718,-1008 712,-1008 706,-1002 706,-996 706,-996 706,-984 706,-984 706,-978 712,-972 718,-972 718,-972 748,-972 748,-972 754,-972 760,-978 760,-984 760,-984 760,-996 760,-996 760,-1002 754,-1008 748,-1008"/>
<text text-anchor="start" x="722.5" y="-986.3" font-family="Helvetica,sans-Serif" font-size="14.00">joe</text>
</g>
<!-- 13&#45;&gt;14 -->
<g id="edge14" class="edge">
<title>13&#45;&gt;14</title>
<path fill="none" stroke="black" d="M572.94,-947.58C609.59,-957.36 661.44,-971.18 695.86,-980.36"/>
<polygon fill="black" stroke="black" points="695.38,-983.86 705.94,-983.05 697.18,-977.09 695.38,-983.86"/>
</g>
<!-- 15 -->
<g id="node16" class="node">
<title>15</title>
<path fill="#8139e5" stroke="black" d="M748,-954C748,-954 718,-954 718,-954 712,-954 706,-948 706,-942 706,-942 706,-930 706,-930 706,-924 712,-918 718,-918 718,-918 748,-918 748,-918 754,-918 760,-924 760,-930 760,-930 760,-942 760,-942 760,-948 754,-954 748,-954"/>
<text text-anchor="start" x="717.5" y="-932.3" font-family="Helvetica,sans-Serif" font-size="14.00">paul</text>
</g>
<!-- 13&#45;&gt;15 -->
<g id="edge15" class="edge">
<title>13&#45;&gt;15</title>
<path fill="none" stroke="black" d="M572.94,-936C609.59,-936 661.44,-936 695.86,-936"/>
<polygon fill="black" stroke="black" points="695.94,-939.5 705.94,-936 695.94,-932.5 695.94,-939.5"/>
</g>
<!-- 17 -->
<g id="node18" class="node">
<title>17</title>
<path fill="#e55639" stroke="black" d="M748,-900C748,-900 718,-900 718,-900 712,-900 706,-894 706,-888 706,-888 706,-876 706,-876 706,-870 712,-864 718,-864 718,-864 748,-864 748,-864 754,-864 760,-870 760,-876 760,-876 760,-888 760,-888 760,-894 754,-900 748,-900"/>
<text text-anchor="start" x="719" y="-878.3" font-family="Helvetica,sans-Serif" font-size="14.00">tom</text>
</g>
<!-- 16&#45;&gt;17 -->
<g id="edge17" class="edge">
<title>16&#45;&gt;17</title>
<path fill="none" stroke="black" d="M572.94,-882C609.59,-882 661.44,-882 695.86,-882"/>
<polygon fill="black" stroke="black" points="695.94,-885.5 705.94,-882 695.94,-878.5 695.94,-885.5"/>
</g>
<!-- 18 -->
<g id="node19" class="node">
<title>18</title>
<path fill="#e53972" stroke="black" d="M748,-846C748,-846 718,-846 718,-846 712,-846 706,-840 706,-834 706,-834 706,-822 706,-822 706,-816 712,-810 718,-810 718,-810 748,-810 748,-810 754,-810 760,-816 760,-822 760,-822 760,-834 760,-834 760,-840 754,-846 748,-846"/>
<text text-anchor="start" x="718" y="-824.3" font-family="Helvetica,sans-Serif" font-size="14.00">sam</text>
</g>
<!-- 16&#45;&gt;18 -->
<g id="edge18" class="edge">
<title>16&#45;&gt;18</title>
<path fill="none" stroke="black" d="M572.94,-870.42C609.59,-860.64 661.44,-846.82 695.86,-837.64"/>
<polygon fill="black" stroke="black" points="697.18,-840.91 705.94,-834.95 695.38,-834.14 697.18,-840.91"/>
</g>
<!-- 20 -->
<g id="node21" class="node">
<title>20</title>
<path fill="#ffffff" stroke="black" d="M442.5,-684C442.5,-684 392.5,-684 392.5,-684 386.5,-684 380.5,-678 380.5,-672 380.5,-672 380.5,-660 380.5,-660 380.5,-654 386.5,-648 392.5,-648 392.5,-648 442.5,-648 442.5,-648 448.5,-648 454.5,-654 454.5,-660 454.5,-660 454.5,-672 454.5,-672 454.5,-678 448.5,-684 442.5,-684"/>
<text text-anchor="start" x="388.5" y="-662.3" font-family="Helvetica,sans-Serif" font-size="14.00">earrings</text>
</g>
<!-- 19&#45;&gt;20 -->
<g id="edge20" class="edge">
<title>19&#45;&gt;20</title>
<path fill="none" stroke="black" d="M343.04,-648.27C351.96,-650.42 361.42,-652.7 370.46,-654.89"/>
<polygon fill="black" stroke="black" points="369.91,-658.36 380.46,-657.3 371.56,-651.55 369.91,-658.36"/>
</g>
<!-- 25 -->
<g id="node26" class="node">
<title>25</title>
<path fill="#ffffff" stroke="black" d="M448.5,-630C448.5,-630 386.5,-630 386.5,-630 380.5,-630 374.5,-624 374.5,-618 374.5,-618 374.5,-606 374.5,-606 374.5,-600 380.5,-594 386.5,-594 386.5,-594 448.5,-594 448.5,-594 454.5,-594 460.5,-600 460.5,-606 460.5,-606 460.5,-618 460.5,-618 460.5,-624 454.5,-630 448.5,-630"/>
<text text-anchor="start" x="382.5" y="-608.3" font-family="Helvetica,sans-Serif" font-size="14.00">blue_eyes</text>
</g>
<!-- 19&#45;&gt;25 -->
<g id="edge25" class="edge">
<title>19&#45;&gt;25</title>
<path fill="none" stroke="black" d="M343.04,-628.47C349.9,-626.93 357.08,-625.32 364.14,-623.74"/>
<polygon fill="black" stroke="black" points="365.36,-627.05 374.36,-621.45 363.83,-620.22 365.36,-627.05"/>
</g>
<!-- 21 -->
<g id="node22" class="node">
<title>21</title>
<path fill="#ffffff" stroke="black" d="M555.5,-738C555.5,-738 501.5,-738 501.5,-738 495.5,-738 489.5,-732 489.5,-726 489.5,-726 489.5,-714 489.5,-714 489.5,-708 495.5,-702 501.5,-702 501.5,-702 555.5,-702 555.5,-702 561.5,-702 567.5,-708 567.5,-714 567.5,-714 567.5,-726 567.5,-726 567.5,-732 561.5,-738 555.5,-738"/>
<text text-anchor="start" x="497.5" y="-716.3" font-family="Helvetica,sans-Serif" font-size="14.00">big_nose</text>
</g>
<!-- 20&#45;&gt;21 -->
<g id="edge21" class="edge">
<title>20&#45;&gt;21</title>
<path fill="none" stroke="black" d="M454.8,-683.98C463.44,-688.26 472.77,-692.88 481.77,-697.35"/>
<polygon fill="black" stroke="black" points="480.48,-700.61 490.99,-701.91 483.58,-694.34 480.48,-700.61"/>
</g>
<!-- 24 -->
<g id="node25" class="node">
<title>24</title>
<path fill="#39e556" stroke="black" d="M748,-684C748,-684 718,-684 718,-684 712,-684 706,-678 706,-672 706,-672 706,-660 706,-660 706,-654 712,-648 718,-648 718,-648 748,-648 748,-648 754,-648 760,-654 760,-660 760,-660 760,-672 760,-672 760,-678 754,-684 748,-684"/>
<text text-anchor="start" x="714.5" y="-662.3" font-family="Helvetica,sans-Serif" font-size="14.00">claire</text>
</g>
<!-- 20&#45;&gt;24 -->
<g id="edge24" class="edge">
<title>20&#45;&gt;24</title>
<path fill="none" stroke="black" d="M454.77,-666C514.98,-666 634.91,-666 695.37,-666"/>
<polygon fill="black" stroke="black" points="695.59,-669.5 705.59,-666 695.59,-662.5 695.59,-669.5"/>
</g>
<!-- 22 -->
<g id="node23" class="node">
<title>22</title>
<path fill="#39e5d7" stroke="black" d="M748,-792C748,-792 718,-792 718,-792 712,-792 706,-786 706,-780 706,-780 706,-768 706,-768 706,-762 712,-756 718,-756 718,-756 748,-756 748,-756 754,-756 760,-762 760,-768 760,-768 760,-780 760,-780 760,-786 754,-792 748,-792"/>
<text text-anchor="start" x="714.5" y="-770.3" font-family="Helvetica,sans-Serif" font-size="14.00">frans</text>
</g>
<!-- 21&#45;&gt;22 -->
<g id="edge22" class="edge">
<title>21&#45;&gt;22</title>
<path fill="none" stroke="black" d="M567.59,-730.16C604.4,-739.97 659.75,-754.73 695.88,-764.37"/>
<polygon fill="black" stroke="black" points="695.42,-767.87 705.98,-767.06 697.22,-761.1 695.42,-767.87"/>
</g>
<!-- 23 -->
<g id="node24" class="node">
<title>23</title>
<path fill="#399de5" stroke="black" d="M756.5,-738C756.5,-738 709.5,-738 709.5,-738 703.5,-738 697.5,-732 697.5,-726 697.5,-726 697.5,-714 697.5,-714 697.5,-708 703.5,-702 709.5,-702 709.5,-702 756.5,-702 756.5,-702 762.5,-702 768.5,-708 768.5,-714 768.5,-714 768.5,-726 768.5,-726 768.5,-732 762.5,-738 756.5,-738"/>
<text text-anchor="start" x="705.5" y="-716.3" font-family="Helvetica,sans-Serif" font-size="14.00">herman</text>
</g>
<!-- 21&#45;&gt;23 -->
<g id="edge23" class="edge">
<title>21&#45;&gt;23</title>
<path fill="none" stroke="black" d="M567.59,-720C601.58,-720 651.39,-720 687.27,-720"/>
<polygon fill="black" stroke="black" points="687.46,-723.5 697.46,-720 687.46,-716.5 687.46,-723.5"/>
</g>
<!-- 26 -->
<g id="node27" class="node">
<title>26</title>
<path fill="#72e539" stroke="black" d="M748,-630C748,-630 718,-630 718,-630 712,-630 706,-624 706,-618 706,-618 706,-606 706,-606 706,-600 712,-594 718,-594 718,-594 748,-594 748,-594 754,-594 760,-600 760,-606 760,-606 760,-618 760,-618 760,-624 754,-630 748,-630"/>
<text text-anchor="start" x="722.5" y="-608.3" font-family="Helvetica,sans-Serif" font-size="14.00">bill</text>
</g>
<!-- 25&#45;&gt;26 -->
<g id="edge26" class="edge">
<title>25&#45;&gt;26</title>
<path fill="none" stroke="black" d="M460.78,-612C522.77,-612 637.29,-612 695.69,-612"/>
<polygon fill="black" stroke="black" points="695.92,-615.5 705.92,-612 695.92,-608.5 695.92,-615.5"/>
</g>
<!-- 27 -->
<g id="node28" class="node">
<title>27</title>
<path fill="#e5ac39" stroke="black" d="M749,-576C749,-576 717,-576 717,-576 711,-576 705,-570 705,-564 705,-564 705,-552 705,-552 705,-546 711,-540 717,-540 717,-540 749,-540 749,-540 755,-540 761,-546 761,-552 761,-552 761,-564 761,-564 761,-570 755,-576 749,-576"/>
<text text-anchor="start" x="713" y="-554.3" font-family="Helvetica,sans-Serif" font-size="14.00">alfred</text>
</g>
<!-- 25&#45;&gt;27 -->
<g id="edge27" class="edge">
<title>25&#45;&gt;27</title>
<path fill="none" stroke="black" d="M460.78,-604.72C522.43,-594.1 636.01,-574.53 694.71,-564.42"/>
<polygon fill="black" stroke="black" points="695.4,-567.86 704.67,-562.71 694.22,-560.96 695.4,-567.86"/>
</g>
<!-- 29 -->
<g id="node30" class="node">
<title>29</title>
<path fill="#ffffff" stroke="black" d="M342,-442C342,-442 257,-442 257,-442 251,-442 245,-436 245,-430 245,-430 245,-418 245,-418 245,-412 251,-406 257,-406 257,-406 342,-406 342,-406 348,-406 354,-412 354,-418 354,-418 354,-430 354,-430 354,-436 348,-442 342,-442"/>
<text text-anchor="start" x="253" y="-420.3" font-family="Helvetica,sans-Serif" font-size="14.00">hair_partition</text>
</g>
<!-- 28&#45;&gt;29 -->
<g id="edge29" class="edge">
<title>28&#45;&gt;29</title>
<path fill="none" stroke="black" d="M224.07,-424C227.57,-424 231.16,-424 234.77,-424"/>
<polygon fill="black" stroke="black" points="234.98,-427.5 244.98,-424 234.98,-420.5 234.98,-427.5"/>
</g>
<!-- 38 -->
<g id="node39" class="node">
<title>38</title>
<path fill="#ffffff" stroke="black" d="M332,-164C332,-164 267,-164 267,-164 261,-164 255,-158 255,-152 255,-152 255,-140 255,-140 255,-134 261,-128 267,-128 267,-128 332,-128 332,-128 338,-128 344,-134 344,-140 344,-140 344,-152 344,-152 344,-158 338,-164 332,-164"/>
<text text-anchor="start" x="263" y="-142.3" font-family="Helvetica,sans-Serif" font-size="14.00">blond_hair</text>
</g>
<!-- 28&#45;&gt;38 -->
<g id="edge38" class="edge">
<title>28&#45;&gt;38</title>
<path fill="none" stroke="black" d="M189.18,-405.76C209.18,-358.24 262.98,-230.4 286.84,-173.72"/>
<polygon fill="black" stroke="black" points="290.14,-174.88 290.8,-164.31 283.69,-172.17 290.14,-174.88"/>
</g>
<!-- 30 -->
<g id="node31" class="node">
<title>30</title>
<path fill="#ffffff" stroke="black" d="M450,-468C450,-468 385,-468 385,-468 379,-468 373,-462 373,-456 373,-456 373,-444 373,-444 373,-438 379,-432 385,-432 385,-432 450,-432 450,-432 456,-432 462,-438 462,-444 462,-444 462,-456 462,-456 462,-462 456,-468 450,-468"/>
<text text-anchor="start" x="381" y="-446.3" font-family="Helvetica,sans-Serif" font-size="14.00">blond_hair</text>
</g>
<!-- 29&#45;&gt;30 -->
<g id="edge30" class="edge">
<title>29&#45;&gt;30</title>
<path fill="none" stroke="black" d="M354.09,-436.01C357.04,-436.67 360,-437.34 362.95,-438"/>
<polygon fill="black" stroke="black" points="362.35,-441.45 372.87,-440.22 363.88,-434.62 362.35,-441.45"/>
</g>
<!-- 33 -->
<g id="node34" class="node">
<title>33</title>
<path fill="#ffffff" stroke="black" d="M444.5,-414C444.5,-414 390.5,-414 390.5,-414 384.5,-414 378.5,-408 378.5,-402 378.5,-402 378.5,-390 378.5,-390 378.5,-384 384.5,-378 390.5,-378 390.5,-378 444.5,-378 444.5,-378 450.5,-378 456.5,-384 456.5,-390 456.5,-390 456.5,-402 456.5,-402 456.5,-408 450.5,-414 444.5,-414"/>
<text text-anchor="start" x="386.5" y="-392.3" font-family="Helvetica,sans-Serif" font-size="14.00">big_nose</text>
</g>
<!-- 29&#45;&gt;33 -->
<g id="edge33" class="edge">
<title>29&#45;&gt;33</title>
<path fill="none" stroke="black" d="M354.09,-411.07C358.82,-409.92 363.6,-408.77 368.29,-407.64"/>
<polygon fill="black" stroke="black" points="369.46,-410.96 378.36,-405.21 367.82,-404.15 369.46,-410.96"/>
</g>
<!-- 31 -->
<g id="node32" class="node">
<title>31</title>
<path fill="#39c8e5" stroke="black" d="M753.5,-522C753.5,-522 712.5,-522 712.5,-522 706.5,-522 700.5,-516 700.5,-510 700.5,-510 700.5,-498 700.5,-498 700.5,-492 706.5,-486 712.5,-486 712.5,-486 753.5,-486 753.5,-486 759.5,-486 765.5,-492 765.5,-498 765.5,-498 765.5,-510 765.5,-510 765.5,-516 759.5,-522 753.5,-522"/>
<text text-anchor="start" x="708.5" y="-500.3" font-family="Helvetica,sans-Serif" font-size="14.00">george</text>
</g>
<!-- 30&#45;&gt;31 -->
<g id="edge31" class="edge">
<title>30&#45;&gt;31</title>
<path fill="none" stroke="black" d="M462.19,-461.43C468,-462.95 472,-464 472,-464 472,-464 616.52,-486.23 690.07,-497.55"/>
<polygon fill="black" stroke="black" points="689.96,-501.07 700.38,-499.14 691.03,-494.16 689.96,-501.07"/>
</g>
<!-- 32 -->
<g id="node33" class="node">
<title>32</title>
<path fill="#39e5ac" stroke="black" d="M748,-468C748,-468 718,-468 718,-468 712,-468 706,-462 706,-456 706,-456 706,-444 706,-444 706,-438 712,-432 718,-432 718,-432 748,-432 748,-432 754,-432 760,-438 760,-444 760,-444 760,-456 760,-456 760,-462 754,-468 748,-468"/>
<text text-anchor="start" x="720" y="-446.3" font-family="Helvetica,sans-Serif" font-size="14.00">eric</text>
</g>
<!-- 30&#45;&gt;32 -->
<g id="edge32" class="edge">
<title>30&#45;&gt;32</title>
<path fill="none" stroke="black" d="M462.09,-450C524.34,-450 637.56,-450 695.58,-450"/>
<polygon fill="black" stroke="black" points="695.75,-453.5 705.75,-450 695.75,-446.5 695.75,-453.5"/>
</g>
<!-- 34 -->
<g id="node35" class="node">
<title>34</title>
<path fill="#e53947" stroke="black" d="M750,-414C750,-414 716,-414 716,-414 710,-414 704,-408 704,-402 704,-402 704,-390 704,-390 704,-384 710,-378 716,-378 716,-378 750,-378 750,-378 756,-378 762,-384 762,-390 762,-390 762,-402 762,-402 762,-408 756,-414 750,-414"/>
<text text-anchor="start" x="712" y="-392.3" font-family="Helvetica,sans-Serif" font-size="14.00">susan</text>
</g>
<!-- 33&#45;&gt;34 -->
<g id="edge34" class="edge">
<title>33&#45;&gt;34</title>
<path fill="none" stroke="black" d="M456.63,-396C516.82,-396 633.2,-396 693.58,-396"/>
<polygon fill="black" stroke="black" points="693.82,-399.5 703.82,-396 693.82,-392.5 693.82,-399.5"/>
</g>
<!-- 35 -->
<g id="node36" class="node">
<title>35</title>
<path fill="#ffffff" stroke="black" d="M564,-360C564,-360 493,-360 493,-360 487,-360 481,-354 481,-348 481,-348 481,-336 481,-336 481,-330 487,-324 493,-324 493,-324 564,-324 564,-324 570,-324 576,-330 576,-336 576,-336 576,-348 576,-348 576,-354 570,-360 564,-360"/>
<text text-anchor="start" x="489" y="-338.3" font-family="Helvetica,sans-Serif" font-size="14.00">red_cheeks</text>
</g>
<!-- 33&#45;&gt;35 -->
<g id="edge35" class="edge">
<title>33&#45;&gt;35</title>
<path fill="none" stroke="black" d="M455.1,-377.87C463.64,-373.64 472.83,-369.08 481.71,-364.68"/>
<polygon fill="black" stroke="black" points="483.41,-367.75 490.81,-360.18 480.3,-361.48 483.41,-367.75"/>
</g>
<!-- 36 -->
<g id="node37" class="node">
<title>36</title>
<path fill="#ac39e5" stroke="black" d="M748,-360C748,-360 718,-360 718,-360 712,-360 706,-354 706,-348 706,-348 706,-336 706,-336 706,-330 712,-324 718,-324 718,-324 748,-324 748,-324 754,-324 760,-330 760,-336 760,-336 760,-348 760,-348 760,-354 754,-360 748,-360"/>
<text text-anchor="start" x="714.5" y="-338.3" font-family="Helvetica,sans-Serif" font-size="14.00">peter</text>
</g>
<!-- 35&#45;&gt;36 -->
<g id="edge36" class="edge">
<title>35&#45;&gt;36</title>
<path fill="none" stroke="black" d="M576.21,-342C612.57,-342 662.31,-342 695.72,-342"/>
<polygon fill="black" stroke="black" points="695.95,-345.5 705.95,-342 695.95,-338.5 695.95,-345.5"/>
</g>
<!-- 37 -->
<g id="node38" class="node">
<title>37</title>
<path fill="#e5399d" stroke="black" d="M750.5,-306C750.5,-306 715.5,-306 715.5,-306 709.5,-306 703.5,-300 703.5,-294 703.5,-294 703.5,-282 703.5,-282 703.5,-276 709.5,-270 715.5,-270 715.5,-270 750.5,-270 750.5,-270 756.5,-270 762.5,-276 762.5,-282 762.5,-282 762.5,-294 762.5,-294 762.5,-300 756.5,-306 750.5,-306"/>
<text text-anchor="start" x="711.5" y="-284.3" font-family="Helvetica,sans-Serif" font-size="14.00">robert</text>
</g>
<!-- 35&#45;&gt;37 -->
<g id="edge37" class="edge">
<title>35&#45;&gt;37</title>
<path fill="none" stroke="black" d="M576.21,-329.54C611.78,-320.06 660.14,-307.16 693.5,-298.27"/>
<polygon fill="black" stroke="black" points="694.58,-301.6 703.34,-295.64 692.78,-294.84 694.58,-301.6"/>
</g>
<!-- 39 -->
<g id="node40" class="node">
<title>39</title>
<path fill="#ffffff" stroke="black" d="M444.5,-164C444.5,-164 390.5,-164 390.5,-164 384.5,-164 378.5,-158 378.5,-152 378.5,-152 378.5,-140 378.5,-140 378.5,-134 384.5,-128 390.5,-128 390.5,-128 444.5,-128 444.5,-128 450.5,-128 456.5,-134 456.5,-140 456.5,-140 456.5,-152 456.5,-152 456.5,-158 450.5,-164 444.5,-164"/>
<text text-anchor="start" x="386.5" y="-142.3" font-family="Helvetica,sans-Serif" font-size="14.00">big_nose</text>
</g>
<!-- 38&#45;&gt;39 -->
<g id="edge39" class="edge">
<title>38&#45;&gt;39</title>
<path fill="none" stroke="black" d="M344.02,-146C351.98,-146 360.32,-146 368.4,-146"/>
<polygon fill="black" stroke="black" points="368.45,-149.5 378.45,-146 368.45,-142.5 368.45,-149.5"/>
</g>
<!-- 44 -->
<g id="node45" class="node">
<title>44</title>
<path fill="#ffffff" stroke="black" d="M452,-90C452,-90 383,-90 383,-90 377,-90 371,-84 371,-78 371,-78 371,-66 371,-66 371,-60 377,-54 383,-54 383,-54 452,-54 452,-54 458,-54 464,-60 464,-66 464,-66 464,-78 464,-78 464,-84 458,-90 452,-90"/>
<text text-anchor="start" x="379" y="-68.3" font-family="Helvetica,sans-Serif" font-size="14.00">moustache</text>
</g>
<!-- 38&#45;&gt;44 -->
<g id="edge44" class="edge">
<title>38&#45;&gt;44</title>
<path fill="none" stroke="black" d="M328.88,-127.9C344.04,-118.22 362.91,-106.19 379.24,-95.77"/>
<polygon fill="black" stroke="black" points="381.47,-98.5 388.01,-90.17 377.7,-92.6 381.47,-98.5"/>
</g>
<!-- 40 -->
<g id="node41" class="node">
<title>40</title>
<path fill="#ffffff" stroke="black" d="M559,-198C559,-198 498,-198 498,-198 492,-198 486,-192 486,-186 486,-186 486,-174 486,-174 486,-168 492,-162 498,-162 498,-162 559,-162 559,-162 565,-162 571,-168 571,-174 571,-174 571,-186 571,-186 571,-192 565,-198 559,-198"/>
<text text-anchor="start" x="494" y="-176.3" font-family="Helvetica,sans-Serif" font-size="14.00">curly_hair</text>
</g>
<!-- 39&#45;&gt;40 -->
<g id="edge40" class="edge">
<title>39&#45;&gt;40</title>
<path fill="none" stroke="black" d="M456.62,-157.89C462.98,-159.87 469.65,-161.96 476.27,-164.02"/>
<polygon fill="black" stroke="black" points="475.28,-167.38 485.87,-167.01 477.36,-160.7 475.28,-167.38"/>
</g>
<!-- 43 -->
<g id="node44" class="node">
<title>43</title>
<path fill="#5639e5" stroke="black" d="M748,-144C748,-144 718,-144 718,-144 712,-144 706,-138 706,-132 706,-132 706,-120 706,-120 706,-114 712,-108 718,-108 718,-108 748,-108 748,-108 754,-108 760,-114 760,-120 760,-120 760,-132 760,-132 760,-138 754,-144 748,-144"/>
<text text-anchor="start" x="717.5" y="-122.3" font-family="Helvetica,sans-Serif" font-size="14.00">max</text>
</g>
<!-- 39&#45;&gt;43 -->
<g id="edge43" class="edge">
<title>39&#45;&gt;43</title>
<path fill="none" stroke="black" d="M456.63,-143.57C517.59,-139.68 636.19,-132.11 695.86,-128.31"/>
<polygon fill="black" stroke="black" points="696.19,-131.79 705.95,-127.66 695.75,-124.81 696.19,-131.79"/>
</g>
<!-- 41 -->
<g id="node42" class="node">
<title>41</title>
<path fill="#e58139" stroke="black" d="M748,-252C748,-252 718,-252 718,-252 712,-252 706,-246 706,-240 706,-240 706,-228 706,-228 706,-222 712,-216 718,-216 718,-216 748,-216 748,-216 754,-216 760,-222 760,-228 760,-228 760,-240 760,-240 760,-246 754,-252 748,-252"/>
<text text-anchor="start" x="718.5" y="-230.3" font-family="Helvetica,sans-Serif" font-size="14.00">alex</text>
</g>
<!-- 40&#45;&gt;41 -->
<g id="edge41" class="edge">
<title>40&#45;&gt;41</title>
<path fill="none" stroke="black" d="M571.46,-191.19C608.26,-201 661.19,-215.12 696.07,-224.42"/>
<polygon fill="black" stroke="black" points="695.28,-227.83 705.84,-227.02 697.08,-221.07 695.28,-227.83"/>
</g>
<!-- 42 -->
<g id="node43" class="node">
<title>42</title>
<path fill="#d739e5" stroke="black" d="M748.5,-198C748.5,-198 717.5,-198 717.5,-198 711.5,-198 705.5,-192 705.5,-186 705.5,-186 705.5,-174 705.5,-174 705.5,-168 711.5,-162 717.5,-162 717.5,-162 748.5,-162 748.5,-162 754.5,-162 760.5,-168 760.5,-174 760.5,-174 760.5,-186 760.5,-186 760.5,-192 754.5,-198 748.5,-198"/>
<text text-anchor="start" x="713.5" y="-176.3" font-family="Helvetica,sans-Serif" font-size="14.00">philip</text>
</g>
<!-- 40&#45;&gt;42 -->
<g id="edge42" class="edge">
<title>40&#45;&gt;42</title>
<path fill="none" stroke="black" d="M571.46,-180C607.89,-180 660.13,-180 695.02,-180"/>
<polygon fill="black" stroke="black" points="695.25,-183.5 705.25,-180 695.25,-176.5 695.25,-183.5"/>
</g>
<!-- 45 -->
<g id="node46" class="node">
<title>45</title>
<path fill="#39e581" stroke="black" d="M748.5,-90C748.5,-90 717.5,-90 717.5,-90 711.5,-90 705.5,-84 705.5,-78 705.5,-78 705.5,-66 705.5,-66 705.5,-60 711.5,-54 717.5,-54 717.5,-54 748.5,-54 748.5,-54 754.5,-54 760.5,-60 760.5,-66 760.5,-66 760.5,-78 760.5,-78 760.5,-84 754.5,-90 748.5,-90"/>
<text text-anchor="start" x="713.5" y="-68.3" font-family="Helvetica,sans-Serif" font-size="14.00">david</text>
</g>
<!-- 44&#45;&gt;45 -->
<g id="edge45" class="edge">
<title>44&#45;&gt;45</title>
<path fill="none" stroke="black" d="M464.09,-72C526.6,-72 637.7,-72 695.22,-72"/>
<polygon fill="black" stroke="black" points="695.31,-75.5 705.31,-72 695.31,-68.5 695.31,-75.5"/>
</g>
<!-- 46 -->
<g id="node47" class="node">
<title>46</title>
<path fill="#47e539" stroke="black" d="M754.5,-36C754.5,-36 711.5,-36 711.5,-36 705.5,-36 699.5,-30 699.5,-24 699.5,-24 699.5,-12 699.5,-12 699.5,-6 705.5,0 711.5,0 711.5,0 754.5,0 754.5,0 760.5,0 766.5,-6 766.5,-12 766.5,-12 766.5,-24 766.5,-24 766.5,-30 760.5,-36 754.5,-36"/>
<text text-anchor="start" x="707.5" y="-14.3" font-family="Helvetica,sans-Serif" font-size="14.00">charles</text>
</g>
<!-- 44&#45;&gt;46 -->
<g id="edge46" class="edge">
<title>44&#45;&gt;46</title>
<path fill="none" stroke="black" d="M464.09,-64.15C524.48,-53.74 630.24,-35.53 689.2,-25.37"/>
<polygon fill="black" stroke="black" points="690.04,-28.78 699.3,-23.63 688.85,-21.88 690.04,-28.78"/>
</g>
</g>
</svg>
