<?xml version="1.0" encoding="UTF-8" standalone="no"?>
<!DOCTYPE svg PUBLIC "-//W3C//DTD SVG 1.1//EN"
 "http://www.w3.org/Graphics/SVG/1.1/DTD/svg11.dtd">
<!-- Generated by graphviz version 2.50.0 (0)
 -->
<!-- Title: Tree Pages: 1 -->
<svg width="752pt" height="1286pt"
 viewBox="0.00 0.00 752.00 1286.00" xmlns="http://www.w3.org/2000/svg" xmlns:xlink="http://www.w3.org/1999/xlink">
<g id="graph0" class="graph" transform="scale(1 1) rotate(0) translate(4 1282)">
<title>Tree</title>
<polygon fill="white" stroke="transparent" points="-4,4 -4,-1282 748,-1282 748,4 -4,4"/>
<!-- 0 -->
<g id="node1" class="node">
<title>0</title>
<path fill="#ffffff" stroke="black" d="M78,-546C78,-546 12,-546 12,-546 6,-546 0,-540 0,-534 0,-534 0,-522 0,-522 0,-516 6,-510 12,-510 12,-510 78,-510 78,-510 84,-510 90,-516 90,-522 90,-522 90,-534 90,-534 90,-540 84,-546 78,-546"/>
<text text-anchor="start" x="8" y="-524.3" font-family="Helvetica,sans-Serif" font-size="14.00">big_mouth</text>
</g>
<!-- 1 -->
<g id="node2" class="node">
<title>1</title>
<path fill="#ffffff" stroke="black" d="M216,-658C216,-658 145,-658 145,-658 139,-658 133,-652 133,-646 133,-646 133,-634 133,-634 133,-628 139,-622 145,-622 145,-622 216,-622 216,-622 222,-622 228,-628 228,-634 228,-634 228,-646 228,-646 228,-652 222,-658 216,-658"/>
<text text-anchor="start" x="141" y="-636.3" font-family="Helvetica,sans-Serif" font-size="14.00">ginger_hair</text>
</g>
<!-- 0&#45;&gt;1 -->
<g id="edge1" class="edge">
<title>0&#45;&gt;1</title>
<path fill="none" stroke="black" d="M67.75,-546.24C90.15,-565.04 125.21,-594.45 150.08,-615.31"/>
<polygon fill="black" stroke="black" points="147.85,-618.02 157.76,-621.76 152.35,-612.66 147.85,-618.02"/>
<text text-anchor="middle" x="111.5" y="-597.8" font-family="Helvetica,sans-Serif" font-size="14.00">NO</text>
</g>
<!-- 28 -->
<g id="node29" class="node">
<title>28</title>
<path fill="#ffffff" stroke="black" d="M212,-438C212,-438 149,-438 149,-438 143,-438 137,-432 137,-426 137,-426 137,-414 137,-414 137,-408 143,-402 149,-402 149,-402 212,-402 212,-402 218,-402 224,-408 224,-414 224,-414 224,-426 224,-426 224,-432 218,-438 212,-438"/>
<text text-anchor="start" x="145" y="-416.3" font-family="Helvetica,sans-Serif" font-size="14.00">facial_hair</text>
</g>
<!-- 0&#45;&gt;28 -->
<g id="edge28" class="edge">
<title>0&#45;&gt;28</title>
<path fill="none" stroke="black" d="M68.34,-509.92C90.49,-492.01 124.55,-464.45 149.14,-444.56"/>
<polygon fill="black" stroke="black" points="151.51,-447.15 157.08,-438.14 147.11,-441.7 151.51,-447.15"/>
<text text-anchor="middle" x="111.5" y="-486.8" font-family="Helvetica,sans-Serif" font-size="14.00">YES</text>
</g>
<!-- 2 -->
<g id="node3" class="node">
<title>2</title>
<path fill="#ffffff" stroke="black" d="M311,-927C311,-927 267,-927 267,-927 261,-927 255,-921 255,-915 255,-915 255,-903 255,-903 255,-897 261,-891 267,-891 267,-891 311,-891 311,-891 317,-891 323,-897 323,-903 323,-903 323,-915 323,-915 323,-921 317,-927 311,-927"/>
<text text-anchor="start" x="263" y="-905.3" font-family="Helvetica,sans-Serif" font-size="14.00">glasses</text>
</g>
<!-- 1&#45;&gt;2 -->
<g id="edge2" class="edge">
<title>1&#45;&gt;2</title>
<path fill="none" stroke="black" d="M188.65,-658.07C206.87,-704.09 255.13,-825.98 276.98,-881.16"/>
<polygon fill="black" stroke="black" points="273.8,-882.65 280.74,-890.66 280.31,-880.07 273.8,-882.65"/>
</g>
<!-- 19 -->
<g id="node20" class="node">
<title>19</title>
<path fill="#ffffff" stroke="black" d="M304,-658C304,-658 274,-658 274,-658 268,-658 262,-652 262,-646 262,-646 262,-634 262,-634 262,-628 268,-622 274,-622 274,-622 304,-622 304,-622 310,-622 316,-628 316,-634 316,-634 316,-646 316,-646 316,-652 310,-658 304,-658"/>
<text text-anchor="start" x="273.5" y="-636.3" font-family="Helvetica,sans-Serif" font-size="14.00">bald</text>
</g>
<!-- 1&#45;&gt;19 -->
<g id="edge19" class="edge">
<title>1&#45;&gt;19</title>
<path fill="none" stroke="black" d="M228.21,-640C236.04,-640 244.05,-640 251.57,-640"/>
<polygon fill="black" stroke="black" points="251.8,-643.5 261.8,-640 251.8,-636.5 251.8,-643.5"/>
</g>
<!-- 3 -->
<g id="node4" class="node">
<title>3</title>
<path fill="#ffffff" stroke="black" d="M433.5,-1082C433.5,-1082 364.5,-1082 364.5,-1082 358.5,-1082 352.5,-1076 352.5,-1070 352.5,-1070 352.5,-1058 352.5,-1058 352.5,-1052 358.5,-1046 364.5,-1046 364.5,-1046 433.5,-1046 433.5,-1046 439.5,-1046 445.5,-1052 445.5,-1058 445.5,-1058 445.5,-1070 445.5,-1070 445.5,-1076 439.5,-1082 433.5,-1082"/>
<text text-anchor="start" x="360.5" y="-1060.3" font-family="Helvetica,sans-Serif" font-size="14.00">brown_hair</text>
</g>
<!-- 2&#45;&gt;3 -->
<g id="edge3" class="edge">
<title>2&#45;&gt;3</title>
<path fill="none" stroke="black" d="M302.6,-927.08C321.52,-954.24 357.39,-1005.71 379.35,-1037.23"/>
<polygon fill="black" stroke="black" points="376.56,-1039.35 385.15,-1045.55 382.3,-1035.35 376.56,-1039.35"/>
</g>
<!-- 12 -->
<g id="node13" class="node">
<title>12</title>
<path fill="#ffffff" stroke="black" d="M431,-927C431,-927 367,-927 367,-927 361,-927 355,-921 355,-915 355,-915 355,-903 355,-903 355,-897 361,-891 367,-891 367,-891 431,-891 431,-891 437,-891 443,-897 443,-903 443,-903 443,-915 443,-915 443,-921 437,-927 431,-927"/>
<text text-anchor="start" x="363" y="-905.3" font-family="Helvetica,sans-Serif" font-size="14.00">white_hair</text>
</g>
<!-- 2&#45;&gt;12 -->
<g id="edge12" class="edge">
<title>2&#45;&gt;12</title>
<path fill="none" stroke="black" d="M323.28,-909C329.95,-909 337.11,-909 344.26,-909"/>
<polygon fill="black" stroke="black" points="344.68,-912.5 354.68,-909 344.68,-905.5 344.68,-912.5"/>
</g>
<!-- 4 -->
<g id="node5" class="node">
<title>4</title>
<path fill="#ffffff" stroke="black" d="M550.5,-1224C550.5,-1224 488.5,-1224 488.5,-1224 482.5,-1224 476.5,-1218 476.5,-1212 476.5,-1212 476.5,-1200 476.5,-1200 476.5,-1194 482.5,-1188 488.5,-1188 488.5,-1188 550.5,-1188 550.5,-1188 556.5,-1188 562.5,-1194 562.5,-1200 562.5,-1200 562.5,-1212 562.5,-1212 562.5,-1218 556.5,-1224 550.5,-1224"/>
<text text-anchor="start" x="484.5" y="-1202.3" font-family="Helvetica,sans-Serif" font-size="14.00">blue_eyes</text>
</g>
<!-- 3&#45;&gt;4 -->
<g id="edge4" class="edge">
<title>3&#45;&gt;4</title>
<path fill="none" stroke="black" d="M415.25,-1082.27C435.96,-1107.09 473.1,-1151.59 496.73,-1179.92"/>
<polygon fill="black" stroke="black" points="494.21,-1182.36 503.31,-1187.8 499.59,-1177.88 494.21,-1182.36"/>
</g>
<!-- 7 -->
<g id="node8" class="node">
<title>7</title>
<path fill="#ffffff" stroke="black" d="M556.5,-1082C556.5,-1082 482.5,-1082 482.5,-1082 476.5,-1082 470.5,-1076 470.5,-1070 470.5,-1070 470.5,-1058 470.5,-1058 470.5,-1052 476.5,-1046 482.5,-1046 482.5,-1046 556.5,-1046 556.5,-1046 562.5,-1046 568.5,-1052 568.5,-1058 568.5,-1058 568.5,-1070 568.5,-1070 568.5,-1076 562.5,-1082 556.5,-1082"/>
<text text-anchor="start" x="478.5" y="-1060.3" font-family="Helvetica,sans-Serif" font-size="14.00">sad_looking</text>
</g>
<!-- 3&#45;&gt;7 -->
<g id="edge7" class="edge">
<title>3&#45;&gt;7</title>
<path fill="none" stroke="black" d="M445.82,-1064C450.61,-1064 455.53,-1064 460.44,-1064"/>
<polygon fill="black" stroke="black" points="460.45,-1067.5 470.45,-1064 460.45,-1060.5 460.45,-1067.5"/>
</g>
<!-- 5 -->
<g id="node6" class="node">
<title>5</title>
<path fill="#c8e539" stroke="black" d="M723,-1278C723,-1278 693,-1278 693,-1278 687,-1278 681,-1272 681,-1266 681,-1266 681,-1254 681,-1254 681,-1248 687,-1242 693,-1242 693,-1242 723,-1242 723,-1242 729,-1242 735,-1248 735,-1254 735,-1254 735,-1266 735,-1266 735,-1272 729,-1278 723,-1278"/>
<text text-anchor="start" x="690.5" y="-1256.3" font-family="Helvetica,sans-Serif" font-size="14.00">anne</text>
</g>
<!-- 4&#45;&gt;5 -->
<g id="edge5" class="edge">
<title>4&#45;&gt;5</title>
<path fill="none" stroke="black" d="M562.82,-1218.25C595.46,-1227.7 640.1,-1240.63 671.02,-1249.58"/>
<polygon fill="black" stroke="black" points="670.37,-1253.04 680.95,-1252.46 672.32,-1246.31 670.37,-1253.04"/>
</g>
<!-- 6 -->
<g id="node7" class="node">
<title>6</title>
<path fill="#e5d739" stroke="black" d="M723,-1224C723,-1224 693,-1224 693,-1224 687,-1224 681,-1218 681,-1212 681,-1212 681,-1200 681,-1200 681,-1194 687,-1188 693,-1188 693,-1188 723,-1188 723,-1188 729,-1188 735,-1194 735,-1200 735,-1200 735,-1212 735,-1212 735,-1218 729,-1224 723,-1224"/>
<text text-anchor="start" x="690.5" y="-1202.3" font-family="Helvetica,sans-Serif" font-size="14.00">anita</text>
</g>
<!-- 4&#45;&gt;6 -->
<g id="edge6" class="edge">
<title>4&#45;&gt;6</title>
<path fill="none" stroke="black" d="M562.82,-1206C595.31,-1206 639.71,-1206 670.62,-1206"/>
<polygon fill="black" stroke="black" points="670.95,-1209.5 680.95,-1206 670.95,-1202.5 670.95,-1209.5"/>
</g>
<!-- 8 -->
<g id="node9" class="node">
<title>8</title>
<path fill="#ffffff" stroke="black" d="M643,-1116C643,-1116 603,-1116 603,-1116 597,-1116 591,-1110 591,-1104 591,-1104 591,-1092 591,-1092 591,-1086 597,-1080 603,-1080 603,-1080 643,-1080 643,-1080 649,-1080 655,-1086 655,-1092 655,-1092 655,-1104 655,-1104 655,-1110 649,-1116 643,-1116"/>
<text text-anchor="start" x="599" y="-1094.3" font-family="Helvetica,sans-Serif" font-size="14.00">female</text>
</g>
<!-- 7&#45;&gt;8 -->
<g id="edge8" class="edge">
<title>7&#45;&gt;8</title>
<path fill="none" stroke="black" d="M568.57,-1080.1C572.84,-1081.53 577.13,-1082.97 581.33,-1084.38"/>
<polygon fill="black" stroke="black" points="580.29,-1087.72 590.88,-1087.58 582.51,-1081.08 580.29,-1087.72"/>
</g>
<!-- 11 -->
<g id="node12" class="node">
<title>11</title>
<path fill="#9de539" stroke="black" d="M732,-1062C732,-1062 684,-1062 684,-1062 678,-1062 672,-1056 672,-1050 672,-1050 672,-1038 672,-1038 672,-1032 678,-1026 684,-1026 684,-1026 732,-1026 732,-1026 738,-1026 744,-1032 744,-1038 744,-1038 744,-1050 744,-1050 744,-1056 738,-1062 732,-1062"/>
<text text-anchor="start" x="680" y="-1040.3" font-family="Helvetica,sans-Serif" font-size="14.00">bernard</text>
</g>
<!-- 7&#45;&gt;11 -->
<g id="edge11" class="edge">
<title>7&#45;&gt;11</title>
<path fill="none" stroke="black" d="M568.53,-1058.85C597.27,-1055.77 633.57,-1051.87 661.8,-1048.85"/>
<polygon fill="black" stroke="black" points="662.23,-1052.32 671.8,-1047.77 661.48,-1045.36 662.23,-1052.32"/>
</g>
<!-- 9 -->
<g id="node10" class="node">
<title>9</title>
<path fill="#e539c8" stroke="black" d="M729,-1170C729,-1170 687,-1170 687,-1170 681,-1170 675,-1164 675,-1158 675,-1158 675,-1146 675,-1146 675,-1140 681,-1134 687,-1134 687,-1134 729,-1134 729,-1134 735,-1134 741,-1140 741,-1146 741,-1146 741,-1158 741,-1158 741,-1164 735,-1170 729,-1170"/>
<text text-anchor="start" x="683" y="-1148.3" font-family="Helvetica,sans-Serif" font-size="14.00">richard</text>
</g>
<!-- 8&#45;&gt;9 -->
<g id="edge9" class="edge">
<title>8&#45;&gt;9</title>
<path fill="none" stroke="black" d="M652.1,-1116.28C658.11,-1120.19 664.55,-1124.38 670.82,-1128.46"/>
<polygon fill="black" stroke="black" points="668.92,-1131.4 679.21,-1133.92 672.74,-1125.53 668.92,-1131.4"/>
</g>
<!-- 10 -->
<g id="node11" class="node">
<title>10</title>
<path fill="#3947e5" stroke="black" d="M724,-1116C724,-1116 692,-1116 692,-1116 686,-1116 680,-1110 680,-1104 680,-1104 680,-1092 680,-1092 680,-1086 686,-1080 692,-1080 692,-1080 724,-1080 724,-1080 730,-1080 736,-1086 736,-1092 736,-1092 736,-1104 736,-1104 736,-1110 730,-1116 724,-1116"/>
<text text-anchor="start" x="688" y="-1094.3" font-family="Helvetica,sans-Serif" font-size="14.00">maria</text>
</g>
<!-- 8&#45;&gt;10 -->
<g id="edge10" class="edge">
<title>8&#45;&gt;10</title>
<path fill="none" stroke="black" d="M655.38,-1098C660.05,-1098 664.9,-1098 669.68,-1098"/>
<polygon fill="black" stroke="black" points="669.92,-1101.5 679.92,-1098 669.92,-1094.5 669.92,-1101.5"/>
</g>
<!-- 13 -->
<g id="node14" class="node">
<title>13</title>
<path fill="#ffffff" stroke="black" d="M550.5,-954C550.5,-954 488.5,-954 488.5,-954 482.5,-954 476.5,-948 476.5,-942 476.5,-942 476.5,-930 476.5,-930 476.5,-924 482.5,-918 488.5,-918 488.5,-918 550.5,-918 550.5,-918 556.5,-918 562.5,-924 562.5,-930 562.5,-930 562.5,-942 562.5,-942 562.5,-948 556.5,-954 550.5,-954"/>
<text text-anchor="start" x="484.5" y="-932.3" font-family="Helvetica,sans-Serif" font-size="14.00">blue_eyes</text>
</g>
<!-- 12&#45;&gt;13 -->
<g id="edge13" class="edge">
<title>12&#45;&gt;13</title>
<path fill="none" stroke="black" d="M443.12,-918.82C450.75,-920.56 458.76,-922.39 466.61,-924.18"/>
<polygon fill="black" stroke="black" points="465.88,-927.6 476.41,-926.41 467.43,-920.77 465.88,-927.6"/>
</g>
<!-- 16 -->
<g id="node17" class="node">
<title>16</title>
<path fill="#ffffff" stroke="black" d="M534.5,-900C534.5,-900 504.5,-900 504.5,-900 498.5,-900 492.5,-894 492.5,-888 492.5,-888 492.5,-876 492.5,-876 492.5,-870 498.5,-864 504.5,-864 504.5,-864 534.5,-864 534.5,-864 540.5,-864 546.5,-870 546.5,-876 546.5,-876 546.5,-888 546.5,-888 546.5,-894 540.5,-900 534.5,-900"/>
<text text-anchor="start" x="504" y="-878.3" font-family="Helvetica,sans-Serif" font-size="14.00">bald</text>
</g>
<!-- 12&#45;&gt;16 -->
<g id="edge16" class="edge">
<title>12&#45;&gt;16</title>
<path fill="none" stroke="black" d="M443.12,-899.18C456.04,-896.23 470.08,-893.03 482.49,-890.2"/>
<polygon fill="black" stroke="black" points="483.51,-893.56 492.48,-887.93 481.95,-886.74 483.51,-893.56"/>
</g>
<!-- 14 -->
<g id="node15" class="node">
<title>14</title>
<path fill="#3972e5" stroke="black" d="M723,-1008C723,-1008 693,-1008 693,-1008 687,-1008 681,-1002 681,-996 681,-996 681,-984 681,-984 681,-978 687,-972 693,-972 693,-972 723,-972 723,-972 729,-972 735,-978 735,-984 735,-984 735,-996 735,-996 735,-1002 729,-1008 723,-1008"/>
<text text-anchor="start" x="697.5" y="-986.3" font-family="Helvetica,sans-Serif" font-size="14.00">joe</text>
</g>
<!-- 13&#45;&gt;14 -->
<g id="edge14" class="edge">
<title>13&#45;&gt;14</title>
<path fill="none" stroke="black" d="M562.82,-948.25C595.46,-957.7 640.1,-970.63 671.02,-979.58"/>
<polygon fill="black" stroke="black" points="670.37,-983.04 680.95,-982.46 672.32,-976.31 670.37,-983.04"/>
</g>
<!-- 15 -->
<g id="node16" class="node">
<title>15</title>
<path fill="#e55639" stroke="black" d="M723,-954C723,-954 693,-954 693,-954 687,-954 681,-948 681,-942 681,-942 681,-930 681,-930 681,-924 687,-918 693,-918 693,-918 723,-918 723,-918 729,-918 735,-924 735,-930 735,-930 735,-942 735,-942 735,-948 729,-954 723,-954"/>
<text text-anchor="start" x="694" y="-932.3" font-family="Helvetica,sans-Serif" font-size="14.00">tom</text>
</g>
<!-- 13&#45;&gt;15 -->
<g id="edge15" class="edge">
<title>13&#45;&gt;15</title>
<path fill="none" stroke="black" d="M562.82,-936C595.31,-936 639.71,-936 670.62,-936"/>
<polygon fill="black" stroke="black" points="670.95,-939.5 680.95,-936 670.95,-932.5 670.95,-939.5"/>
</g>
<!-- 17 -->
<g id="node18" class="node">
<title>17</title>
<path fill="#8139e5" stroke="black" d="M723,-900C723,-900 693,-900 693,-900 687,-900 681,-894 681,-888 681,-888 681,-876 681,-876 681,-870 687,-864 693,-864 693,-864 723,-864 723,-864 729,-864 735,-870 735,-876 735,-876 735,-888 735,-888 735,-894 729,-900 723,-900"/>
<text text-anchor="start" x="692.5" y="-878.3" font-family="Helvetica,sans-Serif" font-size="14.00">paul</text>
</g>
<!-- 16&#45;&gt;17 -->
<g id="edge17" class="edge">
<title>16&#45;&gt;17</title>
<path fill="none" stroke="black" d="M546.83,-882C579.18,-882 634.24,-882 670.62,-882"/>
<polygon fill="black" stroke="black" points="670.81,-885.5 680.81,-882 670.81,-878.5 670.81,-885.5"/>
</g>
<!-- 18 -->
<g id="node19" class="node">
<title>18</title>
<path fill="#e53972" stroke="black" d="M723,-846C723,-846 693,-846 693,-846 687,-846 681,-840 681,-834 681,-834 681,-822 681,-822 681,-816 687,-810 693,-810 693,-810 723,-810 723,-810 729,-810 735,-816 735,-822 735,-822 735,-834 735,-834 735,-840 729,-846 723,-846"/>
<text text-anchor="start" x="693" y="-824.3" font-family="Helvetica,sans-Serif" font-size="14.00">sam</text>
</g>
<!-- 16&#45;&gt;18 -->
<g id="edge18" class="edge">
<title>16&#45;&gt;18</title>
<path fill="none" stroke="black" d="M546.83,-874.38C579.32,-864.97 634.71,-848.93 671.09,-838.4"/>
<polygon fill="black" stroke="black" points="672.18,-841.73 680.81,-835.58 670.23,-835 672.18,-841.73"/>
</g>
<!-- 20 -->
<g id="node21" class="node">
<title>20</title>
<path fill="#ffffff" stroke="black" d="M414,-684C414,-684 384,-684 384,-684 378,-684 372,-678 372,-672 372,-672 372,-660 372,-660 372,-654 378,-648 384,-648 384,-648 414,-648 414,-648 420,-648 426,-654 426,-660 426,-660 426,-672 426,-672 426,-678 420,-684 414,-684"/>
<text text-anchor="start" x="387.5" y="-662.3" font-family="Helvetica,sans-Serif" font-size="14.00">hat</text>
</g>
<!-- 19&#45;&gt;20 -->
<g id="edge20" class="edge">
<title>19&#45;&gt;20</title>
<path fill="none" stroke="black" d="M316.14,-646.29C329.84,-649.59 346.83,-653.68 361.77,-657.28"/>
<polygon fill="black" stroke="black" points="361.18,-660.74 371.72,-659.67 362.82,-653.93 361.18,-660.74"/>
</g>
<!-- 25 -->
<g id="node26" class="node">
<title>25</title>
<path fill="#ffffff" stroke="black" d="M430.5,-630C430.5,-630 367.5,-630 367.5,-630 361.5,-630 355.5,-624 355.5,-618 355.5,-618 355.5,-606 355.5,-606 355.5,-600 361.5,-594 367.5,-594 367.5,-594 430.5,-594 430.5,-594 436.5,-594 442.5,-600 442.5,-606 442.5,-606 442.5,-618 442.5,-618 442.5,-624 436.5,-630 430.5,-630"/>
<text text-anchor="start" x="363.5" y="-608.3" font-family="Helvetica,sans-Serif" font-size="14.00">facial_hair</text>
</g>
<!-- 19&#45;&gt;25 -->
<g id="edge25" class="edge">
<title>19&#45;&gt;25</title>
<path fill="none" stroke="black" d="M316.14,-633.22C325.04,-630.92 335.32,-628.25 345.53,-625.6"/>
<polygon fill="black" stroke="black" points="346.45,-628.98 355.25,-623.08 344.69,-622.21 346.45,-628.98"/>
</g>
<!-- 21 -->
<g id="node22" class="node">
<title>21</title>
<path fill="#ffffff" stroke="black" d="M562,-738C562,-738 477,-738 477,-738 471,-738 465,-732 465,-726 465,-726 465,-714 465,-714 465,-708 471,-702 477,-702 477,-702 562,-702 562,-702 568,-702 574,-708 574,-714 574,-714 574,-726 574,-726 574,-732 568,-738 562,-738"/>
<text text-anchor="start" x="473" y="-716.3" font-family="Helvetica,sans-Serif" font-size="14.00">hair_partition</text>
</g>
<!-- 20&#45;&gt;21 -->
<g id="edge21" class="edge">
<title>20&#45;&gt;21</title>
<path fill="none" stroke="black" d="M426.01,-677.85C438.76,-683.66 454.54,-690.86 469.45,-697.65"/>
<polygon fill="black" stroke="black" points="468.02,-700.84 478.57,-701.81 470.93,-694.47 468.02,-700.84"/>
</g>
<!-- 24 -->
<g id="node25" class="node">
<title>24</title>
<path fill="#39e556" stroke="black" d="M723,-684C723,-684 693,-684 693,-684 687,-684 681,-678 681,-672 681,-672 681,-660 681,-660 681,-654 687,-648 693,-648 693,-648 723,-648 723,-648 729,-648 735,-654 735,-660 735,-660 735,-672 735,-672 735,-678 729,-684 723,-684"/>
<text text-anchor="start" x="689.5" y="-662.3" font-family="Helvetica,sans-Serif" font-size="14.00">claire</text>
</g>
<!-- 20&#45;&gt;24 -->
<g id="edge24" class="edge">
<title>20&#45;&gt;24</title>
<path fill="none" stroke="black" d="M426.17,-666C481,-666 608.02,-666 670.69,-666"/>
<polygon fill="black" stroke="black" points="670.89,-669.5 680.89,-666 670.89,-662.5 670.89,-669.5"/>
</g>
<!-- 22 -->
<g id="node23" class="node">
<title>22</title>
<path fill="#39e5d7" stroke="black" d="M723,-792C723,-792 693,-792 693,-792 687,-792 681,-786 681,-780 681,-780 681,-768 681,-768 681,-762 687,-756 693,-756 693,-756 723,-756 723,-756 729,-756 735,-762 735,-768 735,-768 735,-780 735,-780 735,-786 729,-792 723,-792"/>
<text text-anchor="start" x="689.5" y="-770.3" font-family="Helvetica,sans-Serif" font-size="14.00">frans</text>
</g>
<!-- 21&#45;&gt;22 -->
<g id="edge22" class="edge">
<title>21&#45;&gt;22</title>
<path fill="none" stroke="black" d="M574.19,-735.55C605.2,-744.53 643.38,-755.58 670.83,-763.53"/>
<polygon fill="black" stroke="black" points="670.21,-766.99 680.79,-766.41 672.16,-760.27 670.21,-766.99"/>
</g>
<!-- 23 -->
<g id="node24" class="node">
<title>23</title>
<path fill="#e5ac39" stroke="black" d="M724,-738C724,-738 692,-738 692,-738 686,-738 680,-732 680,-726 680,-726 680,-714 680,-714 680,-708 686,-702 692,-702 692,-702 724,-702 724,-702 730,-702 736,-708 736,-714 736,-714 736,-726 736,-726 736,-732 730,-738 724,-738"/>
<text text-anchor="start" x="688" y="-716.3" font-family="Helvetica,sans-Serif" font-size="14.00">alfred</text>
</g>
<!-- 21&#45;&gt;23 -->
<g id="edge23" class="edge">
<title>21&#45;&gt;23</title>
<path fill="none" stroke="black" d="M574.19,-720C604.69,-720 642.11,-720 669.45,-720"/>
<polygon fill="black" stroke="black" points="669.76,-723.5 679.76,-720 669.76,-716.5 669.76,-723.5"/>
</g>
<!-- 26 -->
<g id="node27" class="node">
<title>26</title>
<path fill="#399de5" stroke="black" d="M731.5,-630C731.5,-630 684.5,-630 684.5,-630 678.5,-630 672.5,-624 672.5,-618 672.5,-618 672.5,-606 672.5,-606 672.5,-600 678.5,-594 684.5,-594 684.5,-594 731.5,-594 731.5,-594 737.5,-594 743.5,-600 743.5,-606 743.5,-606 743.5,-618 743.5,-618 743.5,-624 737.5,-630 731.5,-630"/>
<text text-anchor="start" x="680.5" y="-608.3" font-family="Helvetica,sans-Serif" font-size="14.00">herman</text>
</g>
<!-- 25&#45;&gt;26 -->
<g id="edge26" class="edge">
<title>25&#45;&gt;26</title>
<path fill="none" stroke="black" d="M442.69,-612C500.5,-612 603.24,-612 662.15,-612"/>
<polygon fill="black" stroke="black" points="662.27,-615.5 672.27,-612 662.27,-608.5 662.27,-615.5"/>
</g>
<!-- 27 -->
<g id="node28" class="node">
<title>27</title>
<path fill="#72e539" stroke="black" d="M723,-576C723,-576 693,-576 693,-576 687,-576 681,-570 681,-564 681,-564 681,-552 681,-552 681,-546 687,-540 693,-540 693,-540 723,-540 723,-540 729,-540 735,-546 735,-552 735,-552 735,-564 735,-564 735,-570 729,-576 723,-576"/>
<text text-anchor="start" x="697.5" y="-554.3" font-family="Helvetica,sans-Serif" font-size="14.00">bill</text>
</g>
<!-- 25&#45;&gt;27 -->
<g id="edge27" class="edge">
<title>25&#45;&gt;27</title>
<path fill="none" stroke="black" d="M442.69,-604.49C503.49,-593.8 613.95,-574.37 670.9,-564.35"/>
<polygon fill="black" stroke="black" points="671.65,-567.77 680.89,-562.59 670.44,-560.88 671.65,-567.77"/>
</g>
<!-- 29 -->
<g id="node30" class="node">
<title>29</title>
<path fill="#ffffff" stroke="black" d="M321,-438C321,-438 257,-438 257,-438 251,-438 245,-432 245,-426 245,-426 245,-414 245,-414 245,-408 251,-402 257,-402 257,-402 321,-402 321,-402 327,-402 333,-408 333,-414 333,-414 333,-426 333,-426 333,-432 327,-438 321,-438"/>
<text text-anchor="start" x="253" y="-416.3" font-family="Helvetica,sans-Serif" font-size="14.00">white_hair</text>
</g>
<!-- 28&#45;&gt;29 -->
<g id="edge29" class="edge">
<title>28&#45;&gt;29</title>
<path fill="none" stroke="black" d="M224.2,-420C227.72,-420 231.31,-420 234.89,-420"/>
<polygon fill="black" stroke="black" points="234.94,-423.5 244.94,-420 234.94,-416.5 234.94,-423.5"/>
</g>
<!-- 38 -->
<g id="node39" class="node">
<title>38</title>
<path fill="#ffffff" stroke="black" d="M320.5,-231C320.5,-231 257.5,-231 257.5,-231 251.5,-231 245.5,-225 245.5,-219 245.5,-219 245.5,-207 245.5,-207 245.5,-201 251.5,-195 257.5,-195 257.5,-195 320.5,-195 320.5,-195 326.5,-195 332.5,-201 332.5,-207 332.5,-207 332.5,-219 332.5,-219 332.5,-225 326.5,-231 320.5,-231"/>
<text text-anchor="start" x="253.5" y="-209.3" font-family="Helvetica,sans-Serif" font-size="14.00">black_hair</text>
</g>
<!-- 28&#45;&gt;38 -->
<g id="edge38" class="edge">
<title>28&#45;&gt;38</title>
<path fill="none" stroke="black" d="M190.76,-401.99C209.49,-365.6 251.93,-283.1 274.03,-240.14"/>
<polygon fill="black" stroke="black" points="277.22,-241.61 278.68,-231.11 270.99,-238.4 277.22,-241.61"/>
</g>
<!-- 30 -->
<g id="node31" class="node">
<title>30</title>
<path fill="#ffffff" stroke="black" d="M436,-468C436,-468 362,-468 362,-468 356,-468 350,-462 350,-456 350,-456 350,-444 350,-444 350,-438 356,-432 362,-432 362,-432 436,-432 436,-432 442,-432 448,-438 448,-444 448,-444 448,-456 448,-456 448,-462 442,-468 436,-468"/>
<text text-anchor="start" x="358" y="-446.3" font-family="Helvetica,sans-Serif" font-size="14.00">sad_looking</text>
</g>
<!-- 29&#45;&gt;30 -->
<g id="edge30" class="edge">
<title>29&#45;&gt;30</title>
<path fill="none" stroke="black" d="M333.31,-432.03C335.5,-432.64 337.72,-433.25 339.94,-433.87"/>
<polygon fill="black" stroke="black" points="339.15,-437.28 349.72,-436.59 341.02,-430.54 339.15,-437.28"/>
</g>
<!-- 33 -->
<g id="node34" class="node">
<title>33</title>
<path fill="#ffffff" stroke="black" d="M426,-387C426,-387 372,-387 372,-387 366,-387 360,-381 360,-375 360,-375 360,-363 360,-363 360,-357 366,-351 372,-351 372,-351 426,-351 426,-351 432,-351 438,-357 438,-363 438,-363 438,-375 438,-375 438,-381 432,-387 426,-387"/>
<text text-anchor="start" x="368" y="-365.3" font-family="Helvetica,sans-Serif" font-size="14.00">big_nose</text>
</g>
<!-- 29&#45;&gt;33 -->
<g id="edge33" class="edge">
<title>29&#45;&gt;33</title>
<path fill="none" stroke="black" d="M328.38,-401.88C335.54,-398.49 343.11,-394.92 350.5,-391.43"/>
<polygon fill="black" stroke="black" points="352.19,-394.5 359.74,-387.07 349.21,-388.17 352.19,-394.5"/>
</g>
<!-- 31 -->
<g id="node32" class="node">
<title>31</title>
<path fill="#39e5ac" stroke="black" d="M723,-522C723,-522 693,-522 693,-522 687,-522 681,-516 681,-510 681,-510 681,-498 681,-498 681,-492 687,-486 693,-486 693,-486 723,-486 723,-486 729,-486 735,-492 735,-498 735,-498 735,-510 735,-510 735,-516 729,-522 723,-522"/>
<text text-anchor="start" x="695" y="-500.3" font-family="Helvetica,sans-Serif" font-size="14.00">eric</text>
</g>
<!-- 30&#45;&gt;31 -->
<g id="edge31" class="edge">
<title>30&#45;&gt;31</title>
<path fill="none" stroke="black" d="M448.21,-462.05C452.92,-463.23 456,-464 456,-464 456,-464 600.91,-487.09 670.52,-498.19"/>
<polygon fill="black" stroke="black" points="670.19,-501.68 680.61,-499.79 671.29,-494.76 670.19,-501.68"/>
</g>
<!-- 32 -->
<g id="node33" class="node">
<title>32</title>
<path fill="#e5399d" stroke="black" d="M725.5,-468C725.5,-468 690.5,-468 690.5,-468 684.5,-468 678.5,-462 678.5,-456 678.5,-456 678.5,-444 678.5,-444 678.5,-438 684.5,-432 690.5,-432 690.5,-432 725.5,-432 725.5,-432 731.5,-432 737.5,-438 737.5,-444 737.5,-444 737.5,-456 737.5,-456 737.5,-462 731.5,-468 725.5,-468"/>
<text text-anchor="start" x="686.5" y="-446.3" font-family="Helvetica,sans-Serif" font-size="14.00">robert</text>
</g>
<!-- 30&#45;&gt;32 -->
<g id="edge32" class="edge">
<title>30&#45;&gt;32</title>
<path fill="none" stroke="black" d="M448.31,-450C509.06,-450 612.19,-450 668.12,-450"/>
<polygon fill="black" stroke="black" points="668.33,-453.5 678.33,-450 668.33,-446.5 668.33,-453.5"/>
</g>
<!-- 34 -->
<g id="node35" class="node">
<title>34</title>
<path fill="#ffffff" stroke="black" d="M556.5,-387C556.5,-387 482.5,-387 482.5,-387 476.5,-387 470.5,-381 470.5,-375 470.5,-375 470.5,-363 470.5,-363 470.5,-357 476.5,-351 482.5,-351 482.5,-351 556.5,-351 556.5,-351 562.5,-351 568.5,-357 568.5,-363 568.5,-363 568.5,-375 568.5,-375 568.5,-381 562.5,-387 556.5,-387"/>
<text text-anchor="start" x="478.5" y="-365.3" font-family="Helvetica,sans-Serif" font-size="14.00">sad_looking</text>
</g>
<!-- 33&#45;&gt;34 -->
<g id="edge34" class="edge">
<title>33&#45;&gt;34</title>
<path fill="none" stroke="black" d="M438.15,-369C445.22,-369 452.75,-369 460.26,-369"/>
<polygon fill="black" stroke="black" points="460.44,-372.5 470.44,-369 460.44,-365.5 460.44,-372.5"/>
</g>
<!-- 37 -->
<g id="node38" class="node">
<title>37</title>
<path fill="#ac39e5" stroke="black" d="M723,-306C723,-306 693,-306 693,-306 687,-306 681,-300 681,-294 681,-294 681,-282 681,-282 681,-276 687,-270 693,-270 693,-270 723,-270 723,-270 729,-270 735,-276 735,-282 735,-282 735,-294 735,-294 735,-300 729,-306 723,-306"/>
<text text-anchor="start" x="689.5" y="-284.3" font-family="Helvetica,sans-Serif" font-size="14.00">peter</text>
</g>
<!-- 33&#45;&gt;37 -->
<g id="edge37" class="edge">
<title>33&#45;&gt;37</title>
<path fill="none" stroke="black" d="M438.19,-353.14C452.34,-347.26 465,-342 465,-342 465,-342 603.35,-311.13 670.84,-296.07"/>
<polygon fill="black" stroke="black" points="671.64,-299.48 680.64,-293.88 670.12,-292.64 671.64,-299.48"/>
</g>
<!-- 35 -->
<g id="node36" class="node">
<title>35</title>
<path fill="#e53947" stroke="black" d="M725,-414C725,-414 691,-414 691,-414 685,-414 679,-408 679,-402 679,-402 679,-390 679,-390 679,-384 685,-378 691,-378 691,-378 725,-378 725,-378 731,-378 737,-384 737,-390 737,-390 737,-402 737,-402 737,-408 731,-414 725,-414"/>
<text text-anchor="start" x="687" y="-392.3" font-family="Helvetica,sans-Serif" font-size="14.00">susan</text>
</g>
<!-- 34&#45;&gt;35 -->
<g id="edge35" class="edge">
<title>34&#45;&gt;35</title>
<path fill="none" stroke="black" d="M568.53,-375.95C599.67,-380.46 639.7,-386.26 668.7,-390.45"/>
<polygon fill="black" stroke="black" points="668.45,-393.96 678.85,-391.92 669.45,-387.03 668.45,-393.96"/>
</g>
<!-- 36 -->
<g id="node37" class="node">
<title>36</title>
<path fill="#39c8e5" stroke="black" d="M728.5,-360C728.5,-360 687.5,-360 687.5,-360 681.5,-360 675.5,-354 675.5,-348 675.5,-348 675.5,-336 675.5,-336 675.5,-330 681.5,-324 687.5,-324 687.5,-324 728.5,-324 728.5,-324 734.5,-324 740.5,-330 740.5,-336 740.5,-336 740.5,-348 740.5,-348 740.5,-354 734.5,-360 728.5,-360"/>
<text text-anchor="start" x="683.5" y="-338.3" font-family="Helvetica,sans-Serif" font-size="14.00">george</text>
</g>
<!-- 34&#45;&gt;36 -->
<g id="edge36" class="edge">
<title>34&#45;&gt;36</title>
<path fill="none" stroke="black" d="M568.53,-362.05C598.42,-357.72 636.5,-352.21 665.15,-348.06"/>
<polygon fill="black" stroke="black" points="665.86,-351.49 675.25,-346.6 664.85,-344.57 665.86,-351.49"/>
</g>
<!-- 39 -->
<g id="node40" class="node">
<title>39</title>
<path fill="#ffffff" stroke="black" d="M415.5,-231C415.5,-231 382.5,-231 382.5,-231 376.5,-231 370.5,-225 370.5,-219 370.5,-219 370.5,-207 370.5,-207 370.5,-201 376.5,-195 382.5,-195 382.5,-195 415.5,-195 415.5,-195 421.5,-195 427.5,-201 427.5,-207 427.5,-207 427.5,-219 427.5,-219 427.5,-225 421.5,-231 415.5,-231"/>
<text text-anchor="start" x="378.5" y="-209.3" font-family="Helvetica,sans-Serif" font-size="14.00">beard</text>
</g>
<!-- 38&#45;&gt;39 -->
<g id="edge39" class="edge">
<title>38&#45;&gt;39</title>
<path fill="none" stroke="black" d="M332.68,-213C341.75,-213 351.27,-213 360.14,-213"/>
<polygon fill="black" stroke="black" points="360.2,-216.5 370.2,-213 360.2,-209.5 360.2,-216.5"/>
</g>
<!-- 42 -->
<g id="node43" class="node">
<title>42</title>
<path fill="#ffffff" stroke="black" d="M415.5,-117C415.5,-117 382.5,-117 382.5,-117 376.5,-117 370.5,-111 370.5,-105 370.5,-105 370.5,-93 370.5,-93 370.5,-87 376.5,-81 382.5,-81 382.5,-81 415.5,-81 415.5,-81 421.5,-81 427.5,-87 427.5,-93 427.5,-93 427.5,-105 427.5,-105 427.5,-111 421.5,-117 415.5,-117"/>
<text text-anchor="start" x="378.5" y="-95.3" font-family="Helvetica,sans-Serif" font-size="14.00">beard</text>
</g>
<!-- 38&#45;&gt;42 -->
<g id="edge42" class="edge">
<title>38&#45;&gt;42</title>
<path fill="none" stroke="black" d="M307.11,-194.94C325.02,-176.04 353.29,-146.2 373.54,-124.82"/>
<polygon fill="black" stroke="black" points="376.27,-127.02 380.61,-117.36 371.19,-122.21 376.27,-127.02"/>
</g>
<!-- 40 -->
<g id="node41" class="node">
<title>40</title>
<path fill="#47e539" stroke="black" d="M729.5,-252C729.5,-252 686.5,-252 686.5,-252 680.5,-252 674.5,-246 674.5,-240 674.5,-240 674.5,-228 674.5,-228 674.5,-222 680.5,-216 686.5,-216 686.5,-216 729.5,-216 729.5,-216 735.5,-216 741.5,-222 741.5,-228 741.5,-228 741.5,-240 741.5,-240 741.5,-246 735.5,-252 729.5,-252"/>
<text text-anchor="start" x="682.5" y="-230.3" font-family="Helvetica,sans-Serif" font-size="14.00">charles</text>
</g>
<!-- 39&#45;&gt;40 -->
<g id="edge40" class="edge">
<title>39&#45;&gt;40</title>
<path fill="none" stroke="black" d="M427.51,-214.88C481.19,-218.55 600.2,-226.69 664.24,-231.07"/>
<polygon fill="black" stroke="black" points="664.19,-234.58 674.4,-231.77 664.66,-227.6 664.19,-234.58"/>
</g>
<!-- 41 -->
<g id="node42" class="node">
<title>41</title>
<path fill="#39e581" stroke="black" d="M723.5,-198C723.5,-198 692.5,-198 692.5,-198 686.5,-198 680.5,-192 680.5,-186 680.5,-186 680.5,-174 680.5,-174 680.5,-168 686.5,-162 692.5,-162 692.5,-162 723.5,-162 723.5,-162 729.5,-162 735.5,-168 735.5,-174 735.5,-174 735.5,-186 735.5,-186 735.5,-192 729.5,-198 723.5,-198"/>
<text text-anchor="start" x="688.5" y="-176.3" font-family="Helvetica,sans-Serif" font-size="14.00">david</text>
</g>
<!-- 39&#45;&gt;41 -->
<g id="edge41" class="edge">
<title>39&#45;&gt;41</title>
<path fill="none" stroke="black" d="M427.51,-210.04C482.89,-204.09 607.8,-190.66 670.15,-183.96"/>
<polygon fill="black" stroke="black" points="670.75,-187.42 680.31,-182.87 670,-180.46 670.75,-187.42"/>
</g>
<!-- 43 -->
<g id="node44" class="node">
<title>43</title>
<path fill="#ffffff" stroke="black" d="M550,-117C550,-117 489,-117 489,-117 483,-117 477,-111 477,-105 477,-105 477,-93 477,-93 477,-87 483,-81 489,-81 489,-81 550,-81 550,-81 556,-81 562,-87 562,-93 562,-93 562,-105 562,-105 562,-111 556,-117 550,-117"/>
<text text-anchor="start" x="485" y="-95.3" font-family="Helvetica,sans-Serif" font-size="14.00">curly_hair</text>
</g>
<!-- 42&#45;&gt;43 -->
<g id="edge43" class="edge">
<title>42&#45;&gt;43</title>
<path fill="none" stroke="black" d="M427.78,-99C439.45,-99 453.41,-99 466.84,-99"/>
<polygon fill="black" stroke="black" points="466.96,-102.5 476.96,-99 466.96,-95.5 466.96,-102.5"/>
</g>
<!-- 46 -->
<g id="node47" class="node">
<title>46</title>
<path fill="#d739e5" stroke="black" d="M723.5,-36C723.5,-36 692.5,-36 692.5,-36 686.5,-36 680.5,-30 680.5,-24 680.5,-24 680.5,-12 680.5,-12 680.5,-6 686.5,0 692.5,0 692.5,0 723.5,0 723.5,0 729.5,0 735.5,-6 735.5,-12 735.5,-12 735.5,-24 735.5,-24 735.5,-30 729.5,-36 723.5,-36"/>
<text text-anchor="start" x="688.5" y="-14.3" font-family="Helvetica,sans-Serif" font-size="14.00">philip</text>
</g>
<!-- 42&#45;&gt;46 -->
<g id="edge46" class="edge">
<title>42&#45;&gt;46</title>
<path fill="none" stroke="black" d="M427.57,-87.55C445.28,-80.19 465,-72 465,-72 465,-72 602.67,-41.28 670.34,-26.18"/>
<polygon fill="black" stroke="black" points="671.18,-29.58 680.18,-23.99 669.65,-22.75 671.18,-29.58"/>
</g>
<!-- 44 -->
<g id="node45" class="node">
<title>44</title>
<path fill="#e58139" stroke="black" d="M723,-144C723,-144 693,-144 693,-144 687,-144 681,-138 681,-132 681,-132 681,-120 681,-120 681,-114 687,-108 693,-108 693,-108 723,-108 723,-108 729,-108 735,-114 735,-120 735,-120 735,-132 735,-132 735,-138 729,-144 723,-144"/>
<text text-anchor="start" x="693.5" y="-122.3" font-family="Helvetica,sans-Serif" font-size="14.00">alex</text>
</g>
<!-- 43&#45;&gt;44 -->
<g id="edge44" class="edge">
<title>43&#45;&gt;44</title>
<path fill="none" stroke="black" d="M562.35,-105.06C594.97,-109.78 639.78,-116.27 670.84,-120.77"/>
<polygon fill="black" stroke="black" points="670.42,-124.24 680.81,-122.21 671.42,-117.31 670.42,-124.24"/>
</g>
<!-- 45 -->
<g id="node46" class="node">
<title>45</title>
<path fill="#5639e5" stroke="black" d="M723,-90C723,-90 693,-90 693,-90 687,-90 681,-84 681,-78 681,-78 681,-66 681,-66 681,-60 687,-54 693,-54 693,-54 723,-54 723,-54 729,-54 735,-60 735,-66 735,-66 735,-78 735,-78 735,-84 729,-90 723,-90"/>
<text text-anchor="start" x="692.5" y="-68.3" font-family="Helvetica,sans-Serif" font-size="14.00">max</text>
</g>
<!-- 43&#45;&gt;45 -->
<g id="edge45" class="edge">
<title>43&#45;&gt;45</title>
<path fill="none" stroke="black" d="M562.35,-92.94C594.97,-88.22 639.78,-81.73 670.84,-77.23"/>
<polygon fill="black" stroke="black" points="671.42,-80.69 680.81,-75.79 670.42,-73.76 671.42,-80.69"/>
</g>
</g>
</svg>
