<?xml version="1.0" encoding="UTF-8" standalone="no"?>
<!DOCTYPE svg PUBLIC "-//W3C//DTD SVG 1.1//EN"
 "http://www.w3.org/Graphics/SVG/1.1/DTD/svg11.dtd">
<!-- Generated by graphviz version 2.50.0 (0)
 -->
<!-- Title: Tree Pages: 1 -->
<svg width="770pt" height="1286pt"
 viewBox="0.00 0.00 770.00 1286.00" xmlns="http://www.w3.org/2000/svg" xmlns:xlink="http://www.w3.org/1999/xlink">
<g id="graph0" class="graph" transform="scale(1 1) rotate(0) translate(4 1282)">
<title>Tree</title>
<polygon fill="white" stroke="transparent" points="-4,4 -4,-1282 766,-1282 766,4 -4,4"/>
<!-- 0 -->
<g id="node1" class="node">
<title>0</title>
<path fill="#ffffff" stroke="black" d="M78,-523C78,-523 12,-523 12,-523 6,-523 0,-517 0,-511 0,-511 0,-499 0,-499 0,-493 6,-487 12,-487 12,-487 78,-487 78,-487 84,-487 90,-493 90,-499 90,-499 90,-511 90,-511 90,-517 84,-523 78,-523"/>
<text text-anchor="start" x="8" y="-501.3" font-family="Helvetica,sans-Serif" font-size="14.00">big_mouth</text>
</g>
<!-- 1 -->
<g id="node2" class="node">
<title>1</title>
<path fill="#ffffff" stroke="black" d="M209.5,-657C209.5,-657 165.5,-657 165.5,-657 159.5,-657 153.5,-651 153.5,-645 153.5,-645 153.5,-633 153.5,-633 153.5,-627 159.5,-621 165.5,-621 165.5,-621 209.5,-621 209.5,-621 215.5,-621 221.5,-627 221.5,-633 221.5,-633 221.5,-645 221.5,-645 221.5,-651 215.5,-657 209.5,-657"/>
<text text-anchor="start" x="161.5" y="-635.3" font-family="Helvetica,sans-Serif" font-size="14.00">glasses</text>
</g>
<!-- 0&#45;&gt;1 -->
<g id="edge1" class="edge">
<title>0&#45;&gt;1</title>
<path fill="none" stroke="black" d="M64.95,-523.07C89.46,-546.45 132.29,-587.3 160.01,-613.74"/>
<polygon fill="black" stroke="black" points="157.75,-616.42 167.4,-620.79 162.58,-611.35 157.75,-616.42"/>
<text text-anchor="middle" x="111.5" y="-583.8" font-family="Helvetica,sans-Serif" font-size="14.00">NO</text>
</g>
<!-- 28 -->
<g id="node29" class="node">
<title>28</title>
<path fill="#ffffff" stroke="black" d="M230,-442C230,-442 145,-442 145,-442 139,-442 133,-436 133,-430 133,-430 133,-418 133,-418 133,-412 139,-406 145,-406 145,-406 230,-406 230,-406 236,-406 242,-412 242,-418 242,-418 242,-430 242,-430 242,-436 236,-442 230,-442"/>
<text text-anchor="start" x="141" y="-420.3" font-family="Helvetica,sans-Serif" font-size="14.00">hair_partition</text>
</g>
<!-- 0&#45;&gt;28 -->
<g id="edge28" class="edge">
<title>0&#45;&gt;28</title>
<path fill="none" stroke="black" d="M77.53,-486.82C97.87,-475.1 124.5,-459.74 146.35,-447.15"/>
<polygon fill="black" stroke="black" points="148.16,-450.14 155.07,-442.12 144.66,-444.08 148.16,-450.14"/>
<text text-anchor="middle" x="111.5" y="-477.8" font-family="Helvetica,sans-Serif" font-size="14.00">YES</text>
</g>
<!-- 2 -->
<g id="node3" class="node">
<title>2</title>
<path fill="#ffffff" stroke="black" d="M342,-927C342,-927 271,-927 271,-927 265,-927 259,-921 259,-915 259,-915 259,-903 259,-903 259,-897 265,-891 271,-891 271,-891 342,-891 342,-891 348,-891 354,-897 354,-903 354,-903 354,-915 354,-915 354,-921 348,-927 342,-927"/>
<text text-anchor="start" x="267" y="-905.3" font-family="Helvetica,sans-Serif" font-size="14.00">ginger_hair</text>
</g>
<!-- 1&#45;&gt;2 -->
<g id="edge2" class="edge">
<title>1&#45;&gt;2</title>
<path fill="none" stroke="black" d="M196.36,-657.13C216.42,-703.44 269.65,-826.26 293.57,-881.46"/>
<polygon fill="black" stroke="black" points="290.49,-883.16 297.68,-890.94 296.91,-880.38 290.49,-883.16"/>
</g>
<!-- 19 -->
<g id="node20" class="node">
<title>19</title>
<path fill="#ffffff" stroke="black" d="M338.5,-657C338.5,-657 274.5,-657 274.5,-657 268.5,-657 262.5,-651 262.5,-645 262.5,-645 262.5,-633 262.5,-633 262.5,-627 268.5,-621 274.5,-621 274.5,-621 338.5,-621 338.5,-621 344.5,-621 350.5,-627 350.5,-633 350.5,-633 350.5,-645 350.5,-645 350.5,-651 344.5,-657 338.5,-657"/>
<text text-anchor="start" x="270.5" y="-635.3" font-family="Helvetica,sans-Serif" font-size="14.00">white_hair</text>
</g>
<!-- 1&#45;&gt;19 -->
<g id="edge19" class="edge">
<title>1&#45;&gt;19</title>
<path fill="none" stroke="black" d="M221.71,-639C231.14,-639 241.65,-639 251.95,-639"/>
<polygon fill="black" stroke="black" points="252.14,-642.5 262.14,-639 252.14,-635.5 252.14,-642.5"/>
</g>
<!-- 3 -->
<g id="node4" class="node">
<title>3</title>
<path fill="#ffffff" stroke="black" d="M460,-1082C460,-1082 391,-1082 391,-1082 385,-1082 379,-1076 379,-1070 379,-1070 379,-1058 379,-1058 379,-1052 385,-1046 391,-1046 391,-1046 460,-1046 460,-1046 466,-1046 472,-1052 472,-1058 472,-1058 472,-1070 472,-1070 472,-1076 466,-1082 460,-1082"/>
<text text-anchor="start" x="387" y="-1060.3" font-family="Helvetica,sans-Serif" font-size="14.00">brown_hair</text>
</g>
<!-- 2&#45;&gt;3 -->
<g id="edge3" class="edge">
<title>2&#45;&gt;3</title>
<path fill="none" stroke="black" d="M321.15,-927.08C341.65,-954.24 380.5,-1005.71 404.29,-1037.23"/>
<polygon fill="black" stroke="black" points="401.76,-1039.68 410.57,-1045.55 407.34,-1035.46 401.76,-1039.68"/>
</g>
<!-- 12 -->
<g id="node13" class="node">
<title>12</title>
<path fill="#ffffff" stroke="black" d="M456,-927C456,-927 395,-927 395,-927 389,-927 383,-921 383,-915 383,-915 383,-903 383,-903 383,-897 389,-891 395,-891 395,-891 456,-891 456,-891 462,-891 468,-897 468,-903 468,-903 468,-915 468,-915 468,-921 462,-927 456,-927"/>
<text text-anchor="start" x="391" y="-905.3" font-family="Helvetica,sans-Serif" font-size="14.00">curly_hair</text>
</g>
<!-- 2&#45;&gt;12 -->
<g id="edge12" class="edge">
<title>2&#45;&gt;12</title>
<path fill="none" stroke="black" d="M354.08,-909C360.12,-909 366.34,-909 372.46,-909"/>
<polygon fill="black" stroke="black" points="372.63,-912.5 382.63,-909 372.63,-905.5 372.63,-912.5"/>
</g>
<!-- 4 -->
<g id="node5" class="node">
<title>4</title>
<path fill="#ffffff" stroke="black" d="M576,-1224C576,-1224 513,-1224 513,-1224 507,-1224 501,-1218 501,-1212 501,-1212 501,-1200 501,-1200 501,-1194 507,-1188 513,-1188 513,-1188 576,-1188 576,-1188 582,-1188 588,-1194 588,-1200 588,-1200 588,-1212 588,-1212 588,-1218 582,-1224 576,-1224"/>
<text text-anchor="start" x="509" y="-1202.3" font-family="Helvetica,sans-Serif" font-size="14.00">black_hair</text>
</g>
<!-- 3&#45;&gt;4 -->
<g id="edge4" class="edge">
<title>3&#45;&gt;4</title>
<path fill="none" stroke="black" d="M441.56,-1082.27C462,-1107.09 498.67,-1151.59 522.01,-1179.92"/>
<polygon fill="black" stroke="black" points="519.44,-1182.3 528.5,-1187.8 524.84,-1177.85 519.44,-1182.3"/>
</g>
<!-- 7 -->
<g id="node8" class="node">
<title>7</title>
<path fill="#ffffff" stroke="black" d="M559.5,-1082C559.5,-1082 529.5,-1082 529.5,-1082 523.5,-1082 517.5,-1076 517.5,-1070 517.5,-1070 517.5,-1058 517.5,-1058 517.5,-1052 523.5,-1046 529.5,-1046 529.5,-1046 559.5,-1046 559.5,-1046 565.5,-1046 571.5,-1052 571.5,-1058 571.5,-1058 571.5,-1070 571.5,-1070 571.5,-1076 565.5,-1082 559.5,-1082"/>
<text text-anchor="start" x="529" y="-1060.3" font-family="Helvetica,sans-Serif" font-size="14.00">bald</text>
</g>
<!-- 3&#45;&gt;7 -->
<g id="edge7" class="edge">
<title>3&#45;&gt;7</title>
<path fill="none" stroke="black" d="M472.07,-1064C483.74,-1064 496.13,-1064 507.26,-1064"/>
<polygon fill="black" stroke="black" points="507.48,-1067.5 517.48,-1064 507.48,-1060.5 507.48,-1067.5"/>
</g>
<!-- 5 -->
<g id="node6" class="node">
<title>5</title>
<path fill="#e5d739" stroke="black" d="M741,-1278C741,-1278 711,-1278 711,-1278 705,-1278 699,-1272 699,-1266 699,-1266 699,-1254 699,-1254 699,-1248 705,-1242 711,-1242 711,-1242 741,-1242 741,-1242 747,-1242 753,-1248 753,-1254 753,-1254 753,-1266 753,-1266 753,-1272 747,-1278 741,-1278"/>
<text text-anchor="start" x="708.5" y="-1256.3" font-family="Helvetica,sans-Serif" font-size="14.00">anita</text>
</g>
<!-- 4&#45;&gt;5 -->
<g id="edge5" class="edge">
<title>4&#45;&gt;5</title>
<path fill="none" stroke="black" d="M588.04,-1218.8C618.83,-1228.06 659.98,-1240.44 689.11,-1249.2"/>
<polygon fill="black" stroke="black" points="688.3,-1252.61 698.88,-1252.14 690.31,-1245.91 688.3,-1252.61"/>
</g>
<!-- 6 -->
<g id="node7" class="node">
<title>6</title>
<path fill="#c8e539" stroke="black" d="M741,-1224C741,-1224 711,-1224 711,-1224 705,-1224 699,-1218 699,-1212 699,-1212 699,-1200 699,-1200 699,-1194 705,-1188 711,-1188 711,-1188 741,-1188 741,-1188 747,-1188 753,-1194 753,-1200 753,-1200 753,-1212 753,-1212 753,-1218 747,-1224 741,-1224"/>
<text text-anchor="start" x="708.5" y="-1202.3" font-family="Helvetica,sans-Serif" font-size="14.00">anne</text>
</g>
<!-- 4&#45;&gt;6 -->
<g id="edge6" class="edge">
<title>4&#45;&gt;6</title>
<path fill="none" stroke="black" d="M588.04,-1206C618.69,-1206 659.62,-1206 688.73,-1206"/>
<polygon fill="black" stroke="black" points="688.88,-1209.5 698.88,-1206 688.88,-1202.5 688.88,-1209.5"/>
</g>
<!-- 8 -->
<g id="node9" class="node">
<title>8</title>
<path fill="#ffffff" stroke="black" d="M661,-1116C661,-1116 621,-1116 621,-1116 615,-1116 609,-1110 609,-1104 609,-1104 609,-1092 609,-1092 609,-1086 615,-1080 621,-1080 621,-1080 661,-1080 661,-1080 667,-1080 673,-1086 673,-1092 673,-1092 673,-1104 673,-1104 673,-1110 667,-1116 661,-1116"/>
<text text-anchor="start" x="617" y="-1094.3" font-family="Helvetica,sans-Serif" font-size="14.00">female</text>
</g>
<!-- 7&#45;&gt;8 -->
<g id="edge8" class="edge">
<title>7&#45;&gt;8</title>
<path fill="none" stroke="black" d="M571.57,-1073.38C580.17,-1076.47 589.94,-1079.99 599.36,-1083.38"/>
<polygon fill="black" stroke="black" points="598.39,-1086.75 608.98,-1086.84 600.76,-1080.16 598.39,-1086.75"/>
</g>
<!-- 11 -->
<g id="node12" class="node">
<title>11</title>
<path fill="#e539c8" stroke="black" d="M747,-1062C747,-1062 705,-1062 705,-1062 699,-1062 693,-1056 693,-1050 693,-1050 693,-1038 693,-1038 693,-1032 699,-1026 705,-1026 705,-1026 747,-1026 747,-1026 753,-1026 759,-1032 759,-1038 759,-1038 759,-1050 759,-1050 759,-1056 753,-1062 747,-1062"/>
<text text-anchor="start" x="701" y="-1040.3" font-family="Helvetica,sans-Serif" font-size="14.00">richard</text>
</g>
<!-- 7&#45;&gt;11 -->
<g id="edge11" class="edge">
<title>7&#45;&gt;11</title>
<path fill="none" stroke="black" d="M571.6,-1061.09C600.68,-1057.85 648.13,-1052.57 682.56,-1048.73"/>
<polygon fill="black" stroke="black" points="683.24,-1052.17 692.79,-1047.59 682.47,-1045.22 683.24,-1052.17"/>
</g>
<!-- 9 -->
<g id="node10" class="node">
<title>9</title>
<path fill="#9de539" stroke="black" d="M750,-1170C750,-1170 702,-1170 702,-1170 696,-1170 690,-1164 690,-1158 690,-1158 690,-1146 690,-1146 690,-1140 696,-1134 702,-1134 702,-1134 750,-1134 750,-1134 756,-1134 762,-1140 762,-1146 762,-1146 762,-1158 762,-1158 762,-1164 756,-1170 750,-1170"/>
<text text-anchor="start" x="698" y="-1148.3" font-family="Helvetica,sans-Serif" font-size="14.00">bernard</text>
</g>
<!-- 8&#45;&gt;9 -->
<g id="edge9" class="edge">
<title>8&#45;&gt;9</title>
<path fill="none" stroke="black" d="M670.1,-1116.28C676.11,-1120.19 682.55,-1124.38 688.82,-1128.46"/>
<polygon fill="black" stroke="black" points="686.92,-1131.4 697.21,-1133.92 690.74,-1125.53 686.92,-1131.4"/>
</g>
<!-- 10 -->
<g id="node11" class="node">
<title>10</title>
<path fill="#3947e5" stroke="black" d="M742,-1116C742,-1116 710,-1116 710,-1116 704,-1116 698,-1110 698,-1104 698,-1104 698,-1092 698,-1092 698,-1086 704,-1080 710,-1080 710,-1080 742,-1080 742,-1080 748,-1080 754,-1086 754,-1092 754,-1092 754,-1104 754,-1104 754,-1110 748,-1116 742,-1116"/>
<text text-anchor="start" x="706" y="-1094.3" font-family="Helvetica,sans-Serif" font-size="14.00">maria</text>
</g>
<!-- 8&#45;&gt;10 -->
<g id="edge10" class="edge">
<title>8&#45;&gt;10</title>
<path fill="none" stroke="black" d="M673.38,-1098C678.05,-1098 682.9,-1098 687.68,-1098"/>
<polygon fill="black" stroke="black" points="687.92,-1101.5 697.92,-1098 687.92,-1094.5 687.92,-1101.5"/>
</g>
<!-- 13 -->
<g id="node14" class="node">
<title>13</title>
<path fill="#ffffff" stroke="black" d="M579,-954C579,-954 510,-954 510,-954 504,-954 498,-948 498,-942 498,-942 498,-930 498,-930 498,-924 504,-918 510,-918 510,-918 579,-918 579,-918 585,-918 591,-924 591,-930 591,-930 591,-942 591,-942 591,-948 585,-954 579,-954"/>
<text text-anchor="start" x="506" y="-932.3" font-family="Helvetica,sans-Serif" font-size="14.00">moustache</text>
</g>
<!-- 12&#45;&gt;13 -->
<g id="edge13" class="edge">
<title>12&#45;&gt;13</title>
<path fill="none" stroke="black" d="M468.08,-918.6C474.37,-920.05 480.95,-921.57 487.49,-923.07"/>
<polygon fill="black" stroke="black" points="487.15,-926.59 497.68,-925.43 488.72,-919.77 487.15,-926.59"/>
</g>
<!-- 16 -->
<g id="node17" class="node">
<title>16</title>
<path fill="#ffffff" stroke="black" d="M571.5,-900C571.5,-900 517.5,-900 517.5,-900 511.5,-900 505.5,-894 505.5,-888 505.5,-888 505.5,-876 505.5,-876 505.5,-870 511.5,-864 517.5,-864 517.5,-864 571.5,-864 571.5,-864 577.5,-864 583.5,-870 583.5,-876 583.5,-876 583.5,-888 583.5,-888 583.5,-894 577.5,-900 571.5,-900"/>
<text text-anchor="start" x="513.5" y="-878.3" font-family="Helvetica,sans-Serif" font-size="14.00">big_nose</text>
</g>
<!-- 12&#45;&gt;16 -->
<g id="edge16" class="edge">
<title>12&#45;&gt;16</title>
<path fill="none" stroke="black" d="M468.08,-899.4C476.86,-897.38 486.2,-895.22 495.2,-893.15"/>
<polygon fill="black" stroke="black" points="496.22,-896.5 505.18,-890.84 494.65,-889.68 496.22,-896.5"/>
</g>
<!-- 14 -->
<g id="node15" class="node">
<title>14</title>
<path fill="#72e539" stroke="black" d="M741,-1008C741,-1008 711,-1008 711,-1008 705,-1008 699,-1002 699,-996 699,-996 699,-984 699,-984 699,-978 705,-972 711,-972 711,-972 741,-972 741,-972 747,-972 753,-978 753,-984 753,-984 753,-996 753,-996 753,-1002 747,-1008 741,-1008"/>
<text text-anchor="start" x="715.5" y="-986.3" font-family="Helvetica,sans-Serif" font-size="14.00">bill</text>
</g>
<!-- 13&#45;&gt;14 -->
<g id="edge14" class="edge">
<title>13&#45;&gt;14</title>
<path fill="none" stroke="black" d="M591.26,-949.77C621.6,-958.89 660.86,-970.7 688.98,-979.16"/>
<polygon fill="black" stroke="black" points="688.21,-982.59 698.8,-982.12 690.23,-975.88 688.21,-982.59"/>
</g>
<!-- 15 -->
<g id="node16" class="node">
<title>15</title>
<path fill="#e5ac39" stroke="black" d="M742,-954C742,-954 710,-954 710,-954 704,-954 698,-948 698,-942 698,-942 698,-930 698,-930 698,-924 704,-918 710,-918 710,-918 742,-918 742,-918 748,-918 754,-924 754,-930 754,-930 754,-942 754,-942 754,-948 748,-954 742,-954"/>
<text text-anchor="start" x="706" y="-932.3" font-family="Helvetica,sans-Serif" font-size="14.00">alfred</text>
</g>
<!-- 13&#45;&gt;15 -->
<g id="edge15" class="edge">
<title>13&#45;&gt;15</title>
<path fill="none" stroke="black" d="M591.26,-936C621.1,-936 659.56,-936 687.57,-936"/>
<polygon fill="black" stroke="black" points="687.76,-939.5 697.76,-936 687.76,-932.5 687.76,-939.5"/>
</g>
<!-- 17 -->
<g id="node18" class="node">
<title>17</title>
<path fill="#39e5d7" stroke="black" d="M741,-900C741,-900 711,-900 711,-900 705,-900 699,-894 699,-888 699,-888 699,-876 699,-876 699,-870 705,-864 711,-864 711,-864 741,-864 741,-864 747,-864 753,-870 753,-876 753,-876 753,-888 753,-888 753,-894 747,-900 741,-900"/>
<text text-anchor="start" x="707.5" y="-878.3" font-family="Helvetica,sans-Serif" font-size="14.00">frans</text>
</g>
<!-- 16&#45;&gt;17 -->
<g id="edge17" class="edge">
<title>16&#45;&gt;17</title>
<path fill="none" stroke="black" d="M583.57,-882C614.59,-882 658.11,-882 688.66,-882"/>
<polygon fill="black" stroke="black" points="688.88,-885.5 698.88,-882 688.88,-878.5 688.88,-885.5"/>
</g>
<!-- 18 -->
<g id="node19" class="node">
<title>18</title>
<path fill="#399de5" stroke="black" d="M749.5,-846C749.5,-846 702.5,-846 702.5,-846 696.5,-846 690.5,-840 690.5,-834 690.5,-834 690.5,-822 690.5,-822 690.5,-816 696.5,-810 702.5,-810 702.5,-810 749.5,-810 749.5,-810 755.5,-810 761.5,-816 761.5,-822 761.5,-822 761.5,-834 761.5,-834 761.5,-840 755.5,-846 749.5,-846"/>
<text text-anchor="start" x="698.5" y="-824.3" font-family="Helvetica,sans-Serif" font-size="14.00">herman</text>
</g>
<!-- 16&#45;&gt;18 -->
<g id="edge18" class="edge">
<title>16&#45;&gt;18</title>
<path fill="none" stroke="black" d="M583.57,-870.55C611.95,-862.01 650.8,-850.32 680.6,-841.36"/>
<polygon fill="black" stroke="black" points="681.76,-844.66 690.33,-838.43 679.75,-837.96 681.76,-844.66"/>
</g>
<!-- 20 -->
<g id="node21" class="node">
<title>20</title>
<path fill="#ffffff" stroke="black" d="M456,-684C456,-684 395,-684 395,-684 389,-684 383,-678 383,-672 383,-672 383,-660 383,-660 383,-654 389,-648 395,-648 395,-648 456,-648 456,-648 462,-648 468,-654 468,-660 468,-660 468,-672 468,-672 468,-678 462,-684 456,-684"/>
<text text-anchor="start" x="391" y="-662.3" font-family="Helvetica,sans-Serif" font-size="14.00">curly_hair</text>
</g>
<!-- 19&#45;&gt;20 -->
<g id="edge20" class="edge">
<title>19&#45;&gt;20</title>
<path fill="none" stroke="black" d="M350.73,-648.98C357.98,-650.65 365.57,-652.4 373,-654.12"/>
<polygon fill="black" stroke="black" points="372.47,-657.58 383,-656.42 374.04,-650.76 372.47,-657.58"/>
</g>
<!-- 25 -->
<g id="node26" class="node">
<title>25</title>
<path fill="#ffffff" stroke="black" d="M468,-630C468,-630 383,-630 383,-630 377,-630 371,-624 371,-618 371,-618 371,-606 371,-606 371,-600 377,-594 383,-594 383,-594 468,-594 468,-594 474,-594 480,-600 480,-606 480,-606 480,-618 480,-618 480,-624 474,-630 468,-630"/>
<text text-anchor="start" x="379" y="-608.3" font-family="Helvetica,sans-Serif" font-size="14.00">hair_partition</text>
</g>
<!-- 19&#45;&gt;25 -->
<g id="edge25" class="edge">
<title>19&#45;&gt;25</title>
<path fill="none" stroke="black" d="M350.73,-629.02C354.09,-628.25 357.52,-627.46 360.97,-626.66"/>
<polygon fill="black" stroke="black" points="361.77,-630.07 370.72,-624.41 360.19,-623.25 361.77,-630.07"/>
</g>
<!-- 21 -->
<g id="node22" class="node">
<title>21</title>
<path fill="#ffffff" stroke="black" d="M569.5,-738C569.5,-738 519.5,-738 519.5,-738 513.5,-738 507.5,-732 507.5,-726 507.5,-726 507.5,-714 507.5,-714 507.5,-708 513.5,-702 519.5,-702 519.5,-702 569.5,-702 569.5,-702 575.5,-702 581.5,-708 581.5,-714 581.5,-714 581.5,-726 581.5,-726 581.5,-732 575.5,-738 569.5,-738"/>
<text text-anchor="start" x="515.5" y="-716.3" font-family="Helvetica,sans-Serif" font-size="14.00">earrings</text>
</g>
<!-- 20&#45;&gt;21 -->
<g id="edge21" class="edge">
<title>20&#45;&gt;21</title>
<path fill="none" stroke="black" d="M465.78,-684.13C476.16,-688.92 487.43,-694.12 498.1,-699.05"/>
<polygon fill="black" stroke="black" points="496.73,-702.27 507.28,-703.28 499.67,-695.91 496.73,-702.27"/>
</g>
<!-- 24 -->
<g id="node25" class="node">
<title>24</title>
<path fill="#3972e5" stroke="black" d="M741,-684C741,-684 711,-684 711,-684 705,-684 699,-678 699,-672 699,-672 699,-660 699,-660 699,-654 705,-648 711,-648 711,-648 741,-648 741,-648 747,-648 753,-654 753,-660 753,-660 753,-672 753,-672 753,-678 747,-684 741,-684"/>
<text text-anchor="start" x="715.5" y="-662.3" font-family="Helvetica,sans-Serif" font-size="14.00">joe</text>
</g>
<!-- 20&#45;&gt;24 -->
<g id="edge24" class="edge">
<title>20&#45;&gt;24</title>
<path fill="none" stroke="black" d="M468.01,-666C526.7,-666 632.99,-666 688.71,-666"/>
<polygon fill="black" stroke="black" points="688.82,-669.5 698.82,-666 688.82,-662.5 688.82,-669.5"/>
</g>
<!-- 22 -->
<g id="node23" class="node">
<title>22</title>
<path fill="#e55639" stroke="black" d="M741,-792C741,-792 711,-792 711,-792 705,-792 699,-786 699,-780 699,-780 699,-768 699,-768 699,-762 705,-756 711,-756 711,-756 741,-756 741,-756 747,-756 753,-762 753,-768 753,-768 753,-780 753,-780 753,-786 747,-792 741,-792"/>
<text text-anchor="start" x="712" y="-770.3" font-family="Helvetica,sans-Serif" font-size="14.00">tom</text>
</g>
<!-- 21&#45;&gt;22 -->
<g id="edge22" class="edge">
<title>21&#45;&gt;22</title>
<path fill="none" stroke="black" d="M581.82,-730.93C613.16,-740.35 658.16,-753.89 689.31,-763.26"/>
<polygon fill="black" stroke="black" points="688.32,-766.62 698.9,-766.15 690.33,-759.92 688.32,-766.62"/>
</g>
<!-- 23 -->
<g id="node24" class="node">
<title>23</title>
<path fill="#39e556" stroke="black" d="M741,-738C741,-738 711,-738 711,-738 705,-738 699,-732 699,-726 699,-726 699,-714 699,-714 699,-708 705,-702 711,-702 711,-702 741,-702 741,-702 747,-702 753,-708 753,-714 753,-714 753,-726 753,-726 753,-732 747,-738 741,-738"/>
<text text-anchor="start" x="707.5" y="-716.3" font-family="Helvetica,sans-Serif" font-size="14.00">claire</text>
</g>
<!-- 21&#45;&gt;23 -->
<g id="edge23" class="edge">
<title>21&#45;&gt;23</title>
<path fill="none" stroke="black" d="M581.82,-720C612.89,-720 657.38,-720 688.5,-720"/>
<polygon fill="black" stroke="black" points="688.9,-723.5 698.9,-720 688.9,-716.5 688.9,-723.5"/>
</g>
<!-- 26 -->
<g id="node27" class="node">
<title>26</title>
<path fill="#e53972" stroke="black" d="M741,-630C741,-630 711,-630 711,-630 705,-630 699,-624 699,-618 699,-618 699,-606 699,-606 699,-600 705,-594 711,-594 711,-594 741,-594 741,-594 747,-594 753,-600 753,-606 753,-606 753,-618 753,-618 753,-624 747,-630 741,-630"/>
<text text-anchor="start" x="711" y="-608.3" font-family="Helvetica,sans-Serif" font-size="14.00">sam</text>
</g>
<!-- 25&#45;&gt;26 -->
<g id="edge26" class="edge">
<title>25&#45;&gt;26</title>
<path fill="none" stroke="black" d="M480.21,-612C540.51,-612 636.71,-612 688.74,-612"/>
<polygon fill="black" stroke="black" points="688.84,-615.5 698.84,-612 688.84,-608.5 688.84,-615.5"/>
</g>
<!-- 27 -->
<g id="node28" class="node">
<title>27</title>
<path fill="#8139e5" stroke="black" d="M741,-576C741,-576 711,-576 711,-576 705,-576 699,-570 699,-564 699,-564 699,-552 699,-552 699,-546 705,-540 711,-540 711,-540 741,-540 741,-540 747,-540 753,-546 753,-552 753,-552 753,-564 753,-564 753,-570 747,-576 741,-576"/>
<text text-anchor="start" x="710.5" y="-554.3" font-family="Helvetica,sans-Serif" font-size="14.00">paul</text>
</g>
<!-- 25&#45;&gt;27 -->
<g id="edge27" class="edge">
<title>25&#45;&gt;27</title>
<path fill="none" stroke="black" d="M480.21,-602.28C540.51,-591.37 636.71,-573.97 688.74,-564.56"/>
<polygon fill="black" stroke="black" points="689.62,-567.96 698.84,-562.73 688.37,-561.07 689.62,-567.96"/>
</g>
<!-- 29 -->
<g id="node30" class="node">
<title>29</title>
<path fill="#ffffff" stroke="black" d="M338,-442C338,-442 275,-442 275,-442 269,-442 263,-436 263,-430 263,-430 263,-418 263,-418 263,-412 269,-406 275,-406 275,-406 338,-406 338,-406 344,-406 350,-412 350,-418 350,-418 350,-430 350,-430 350,-436 344,-442 338,-442"/>
<text text-anchor="start" x="271" y="-420.3" font-family="Helvetica,sans-Serif" font-size="14.00">black_hair</text>
</g>
<!-- 28&#45;&gt;29 -->
<g id="edge29" class="edge">
<title>28&#45;&gt;29</title>
<path fill="none" stroke="black" d="M242.21,-424C245.69,-424 249.2,-424 252.68,-424"/>
<polygon fill="black" stroke="black" points="252.99,-427.5 262.99,-424 252.99,-420.5 252.99,-427.5"/>
</g>
<!-- 38 -->
<g id="node39" class="node">
<title>38</title>
<path fill="#ffffff" stroke="black" d="M339,-240C339,-240 274,-240 274,-240 268,-240 262,-234 262,-228 262,-228 262,-216 262,-216 262,-210 268,-204 274,-204 274,-204 339,-204 339,-204 345,-204 351,-210 351,-216 351,-216 351,-228 351,-228 351,-234 345,-240 339,-240"/>
<text text-anchor="start" x="270" y="-218.3" font-family="Helvetica,sans-Serif" font-size="14.00">blond_hair</text>
</g>
<!-- 28&#45;&gt;38 -->
<g id="edge38" class="edge">
<title>28&#45;&gt;38</title>
<path fill="none" stroke="black" d="M199.09,-405.72C219.8,-369.96 265.74,-290.64 289.93,-248.89"/>
<polygon fill="black" stroke="black" points="293.04,-250.5 295.02,-240.1 286.98,-246.99 293.04,-250.5"/>
</g>
<!-- 30 -->
<g id="node31" class="node">
<title>30</title>
<path fill="#ffffff" stroke="black" d="M457.5,-468C457.5,-468 393.5,-468 393.5,-468 387.5,-468 381.5,-462 381.5,-456 381.5,-456 381.5,-444 381.5,-444 381.5,-438 387.5,-432 393.5,-432 393.5,-432 457.5,-432 457.5,-432 463.5,-432 469.5,-438 469.5,-444 469.5,-444 469.5,-456 469.5,-456 469.5,-462 463.5,-468 457.5,-468"/>
<text text-anchor="start" x="389.5" y="-446.3" font-family="Helvetica,sans-Serif" font-size="14.00">white_hair</text>
</g>
<!-- 29&#45;&gt;30 -->
<g id="edge30" class="edge">
<title>29&#45;&gt;30</title>
<path fill="none" stroke="black" d="M350.07,-433.46C356.92,-434.98 364.08,-436.57 371.15,-438.14"/>
<polygon fill="black" stroke="black" points="370.85,-441.66 381.37,-440.42 372.37,-434.83 370.85,-441.66"/>
</g>
<!-- 33 -->
<g id="node34" class="node">
<title>33</title>
<path fill="#ffffff" stroke="black" d="M461,-387C461,-387 390,-387 390,-387 384,-387 378,-381 378,-375 378,-375 378,-363 378,-363 378,-357 384,-351 390,-351 390,-351 461,-351 461,-351 467,-351 473,-357 473,-363 473,-363 473,-375 473,-375 473,-381 467,-387 461,-387"/>
<text text-anchor="start" x="386" y="-365.3" font-family="Helvetica,sans-Serif" font-size="14.00">red_cheeks</text>
</g>
<!-- 29&#45;&gt;33 -->
<g id="edge33" class="edge">
<title>29&#45;&gt;33</title>
<path fill="none" stroke="black" d="M345.81,-405.99C355.71,-401.34 366.49,-396.27 376.8,-391.42"/>
<polygon fill="black" stroke="black" points="378.54,-394.47 386.1,-387.05 375.56,-388.14 378.54,-394.47"/>
</g>
<!-- 31 -->
<g id="node32" class="node">
<title>31</title>
<path fill="#39e5ac" stroke="black" d="M741,-522C741,-522 711,-522 711,-522 705,-522 699,-516 699,-510 699,-510 699,-498 699,-498 699,-492 705,-486 711,-486 711,-486 741,-486 741,-486 747,-486 753,-492 753,-498 753,-498 753,-510 753,-510 753,-516 747,-522 741,-522"/>
<text text-anchor="start" x="713" y="-500.3" font-family="Helvetica,sans-Serif" font-size="14.00">eric</text>
</g>
<!-- 30&#45;&gt;31 -->
<g id="edge31" class="edge">
<title>30&#45;&gt;31</title>
<path fill="none" stroke="black" d="M469.55,-459.8C479.88,-462.15 488,-464 488,-464 488,-464 622.27,-486.66 688.69,-497.87"/>
<polygon fill="black" stroke="black" points="688.29,-501.35 698.73,-499.57 689.45,-494.45 688.29,-501.35"/>
</g>
<!-- 32 -->
<g id="node33" class="node">
<title>32</title>
<path fill="#39c8e5" stroke="black" d="M746.5,-468C746.5,-468 705.5,-468 705.5,-468 699.5,-468 693.5,-462 693.5,-456 693.5,-456 693.5,-444 693.5,-444 693.5,-438 699.5,-432 705.5,-432 705.5,-432 746.5,-432 746.5,-432 752.5,-432 758.5,-438 758.5,-444 758.5,-444 758.5,-456 758.5,-456 758.5,-462 752.5,-468 746.5,-468"/>
<text text-anchor="start" x="701.5" y="-446.3" font-family="Helvetica,sans-Serif" font-size="14.00">george</text>
</g>
<!-- 30&#45;&gt;32 -->
<g id="edge32" class="edge">
<title>30&#45;&gt;32</title>
<path fill="none" stroke="black" d="M469.59,-450C526.73,-450 626.94,-450 683.36,-450"/>
<polygon fill="black" stroke="black" points="683.36,-453.5 693.36,-450 683.36,-446.5 683.36,-453.5"/>
</g>
<!-- 34 -->
<g id="node35" class="node">
<title>34</title>
<path fill="#ffffff" stroke="black" d="M571.5,-387C571.5,-387 517.5,-387 517.5,-387 511.5,-387 505.5,-381 505.5,-375 505.5,-375 505.5,-363 505.5,-363 505.5,-357 511.5,-351 517.5,-351 517.5,-351 571.5,-351 571.5,-351 577.5,-351 583.5,-357 583.5,-363 583.5,-363 583.5,-375 583.5,-375 583.5,-381 577.5,-387 571.5,-387"/>
<text text-anchor="start" x="513.5" y="-365.3" font-family="Helvetica,sans-Serif" font-size="14.00">big_nose</text>
</g>
<!-- 33&#45;&gt;34 -->
<g id="edge34" class="edge">
<title>33&#45;&gt;34</title>
<path fill="none" stroke="black" d="M473.08,-369C480.35,-369 487.89,-369 495.2,-369"/>
<polygon fill="black" stroke="black" points="495.35,-372.5 505.35,-369 495.35,-365.5 495.35,-372.5"/>
</g>
<!-- 37 -->
<g id="node38" class="node">
<title>37</title>
<path fill="#d739e5" stroke="black" d="M741.5,-306C741.5,-306 710.5,-306 710.5,-306 704.5,-306 698.5,-300 698.5,-294 698.5,-294 698.5,-282 698.5,-282 698.5,-276 704.5,-270 710.5,-270 710.5,-270 741.5,-270 741.5,-270 747.5,-270 753.5,-276 753.5,-282 753.5,-282 753.5,-294 753.5,-294 753.5,-300 747.5,-306 741.5,-306"/>
<text text-anchor="start" x="706.5" y="-284.3" font-family="Helvetica,sans-Serif" font-size="14.00">philip</text>
</g>
<!-- 33&#45;&gt;37 -->
<g id="edge37" class="edge">
<title>33&#45;&gt;37</title>
<path fill="none" stroke="black" d="M473.13,-351.14C486.24,-346.12 497,-342 497,-342 497,-342 624.27,-311.86 688.64,-296.61"/>
<polygon fill="black" stroke="black" points="689.48,-300.01 698.4,-294.3 687.86,-293.2 689.48,-300.01"/>
</g>
<!-- 35 -->
<g id="node36" class="node">
<title>35</title>
<path fill="#e58139" stroke="black" d="M741,-414C741,-414 711,-414 711,-414 705,-414 699,-408 699,-402 699,-402 699,-390 699,-390 699,-384 705,-378 711,-378 711,-378 741,-378 741,-378 747,-378 753,-384 753,-390 753,-390 753,-402 753,-402 753,-408 747,-414 741,-414"/>
<text text-anchor="start" x="711.5" y="-392.3" font-family="Helvetica,sans-Serif" font-size="14.00">alex</text>
</g>
<!-- 34&#45;&gt;35 -->
<g id="edge35" class="edge">
<title>34&#45;&gt;35</title>
<path fill="none" stroke="black" d="M583.57,-374.73C614.59,-379.39 658.11,-385.94 688.66,-390.53"/>
<polygon fill="black" stroke="black" points="688.47,-394.04 698.88,-392.07 689.51,-387.12 688.47,-394.04"/>
</g>
<!-- 36 -->
<g id="node37" class="node">
<title>36</title>
<path fill="#5639e5" stroke="black" d="M741,-360C741,-360 711,-360 711,-360 705,-360 699,-354 699,-348 699,-348 699,-336 699,-336 699,-330 705,-324 711,-324 711,-324 741,-324 741,-324 747,-324 753,-330 753,-336 753,-336 753,-348 753,-348 753,-354 747,-360 741,-360"/>
<text text-anchor="start" x="710.5" y="-338.3" font-family="Helvetica,sans-Serif" font-size="14.00">max</text>
</g>
<!-- 34&#45;&gt;36 -->
<g id="edge36" class="edge">
<title>34&#45;&gt;36</title>
<path fill="none" stroke="black" d="M583.57,-363.27C614.59,-358.61 658.11,-352.06 688.66,-347.47"/>
<polygon fill="black" stroke="black" points="689.51,-350.88 698.88,-345.93 688.47,-343.96 689.51,-350.88"/>
</g>
<!-- 39 -->
<g id="node40" class="node">
<title>39</title>
<path fill="#ffffff" stroke="black" d="M457.5,-240C457.5,-240 393.5,-240 393.5,-240 387.5,-240 381.5,-234 381.5,-228 381.5,-228 381.5,-216 381.5,-216 381.5,-210 387.5,-204 393.5,-204 393.5,-204 457.5,-204 457.5,-204 463.5,-204 469.5,-210 469.5,-216 469.5,-216 469.5,-228 469.5,-228 469.5,-234 463.5,-240 457.5,-240"/>
<text text-anchor="start" x="389.5" y="-218.3" font-family="Helvetica,sans-Serif" font-size="14.00">white_hair</text>
</g>
<!-- 38&#45;&gt;39 -->
<g id="edge39" class="edge">
<title>38&#45;&gt;39</title>
<path fill="none" stroke="black" d="M351.07,-222C357.55,-222 364.29,-222 370.95,-222"/>
<polygon fill="black" stroke="black" points="371.29,-225.5 381.29,-222 371.29,-218.5 371.29,-225.5"/>
</g>
<!-- 44 -->
<g id="node45" class="node">
<title>44</title>
<path fill="#ffffff" stroke="black" d="M460,-90C460,-90 391,-90 391,-90 385,-90 379,-84 379,-78 379,-78 379,-66 379,-66 379,-60 385,-54 391,-54 391,-54 460,-54 460,-54 466,-54 472,-60 472,-66 472,-66 472,-78 472,-78 472,-84 466,-90 460,-90"/>
<text text-anchor="start" x="387" y="-68.3" font-family="Helvetica,sans-Serif" font-size="14.00">moustache</text>
</g>
<!-- 38&#45;&gt;44 -->
<g id="edge44" class="edge">
<title>38&#45;&gt;44</title>
<path fill="none" stroke="black" d="M321.61,-203.91C342.17,-177.55 380.46,-128.46 404.09,-98.17"/>
<polygon fill="black" stroke="black" points="406.95,-100.2 410.34,-90.16 401.43,-95.89 406.95,-100.2"/>
</g>
<!-- 40 -->
<g id="node41" class="node">
<title>40</title>
<path fill="#e5399d" stroke="black" d="M743.5,-252C743.5,-252 708.5,-252 708.5,-252 702.5,-252 696.5,-246 696.5,-240 696.5,-240 696.5,-228 696.5,-228 696.5,-222 702.5,-216 708.5,-216 708.5,-216 743.5,-216 743.5,-216 749.5,-216 755.5,-222 755.5,-228 755.5,-228 755.5,-240 755.5,-240 755.5,-246 749.5,-252 743.5,-252"/>
<text text-anchor="start" x="704.5" y="-230.3" font-family="Helvetica,sans-Serif" font-size="14.00">robert</text>
</g>
<!-- 39&#45;&gt;40 -->
<g id="edge40" class="edge">
<title>39&#45;&gt;40</title>
<path fill="none" stroke="black" d="M469.59,-223.73C527.68,-226.07 630.26,-230.19 686.11,-232.44"/>
<polygon fill="black" stroke="black" points="686.17,-235.94 696.31,-232.85 686.45,-228.95 686.17,-235.94"/>
</g>
<!-- 41 -->
<g id="node42" class="node">
<title>41</title>
<path fill="#ffffff" stroke="black" d="M580,-198C580,-198 509,-198 509,-198 503,-198 497,-192 497,-186 497,-186 497,-174 497,-174 497,-168 503,-162 509,-162 509,-162 580,-162 580,-162 586,-162 592,-168 592,-174 592,-174 592,-186 592,-186 592,-192 586,-198 580,-198"/>
<text text-anchor="start" x="505" y="-176.3" font-family="Helvetica,sans-Serif" font-size="14.00">red_cheeks</text>
</g>
<!-- 39&#45;&gt;41 -->
<g id="edge41" class="edge">
<title>39&#45;&gt;41</title>
<path fill="none" stroke="black" d="M469.73,-206.48C475.41,-204.44 481.28,-202.33 487.13,-200.23"/>
<polygon fill="black" stroke="black" points="488.68,-203.4 496.91,-196.73 486.31,-196.81 488.68,-203.4"/>
</g>
<!-- 42 -->
<g id="node43" class="node">
<title>42</title>
<path fill="#ac39e5" stroke="black" d="M741,-198C741,-198 711,-198 711,-198 705,-198 699,-192 699,-186 699,-186 699,-174 699,-174 699,-168 705,-162 711,-162 711,-162 741,-162 741,-162 747,-162 753,-168 753,-174 753,-174 753,-186 753,-186 753,-192 747,-198 741,-198"/>
<text text-anchor="start" x="707.5" y="-176.3" font-family="Helvetica,sans-Serif" font-size="14.00">peter</text>
</g>
<!-- 41&#45;&gt;42 -->
<g id="edge42" class="edge">
<title>41&#45;&gt;42</title>
<path fill="none" stroke="black" d="M592.19,-180C622.31,-180 660.91,-180 688.73,-180"/>
<polygon fill="black" stroke="black" points="688.82,-183.5 698.82,-180 688.82,-176.5 688.82,-183.5"/>
</g>
<!-- 43 -->
<g id="node44" class="node">
<title>43</title>
<path fill="#e53947" stroke="black" d="M743,-144C743,-144 709,-144 709,-144 703,-144 697,-138 697,-132 697,-132 697,-120 697,-120 697,-114 703,-108 709,-108 709,-108 743,-108 743,-108 749,-108 755,-114 755,-120 755,-120 755,-132 755,-132 755,-138 749,-144 743,-144"/>
<text text-anchor="start" x="705" y="-122.3" font-family="Helvetica,sans-Serif" font-size="14.00">susan</text>
</g>
<!-- 41&#45;&gt;43 -->
<g id="edge43" class="edge">
<title>41&#45;&gt;43</title>
<path fill="none" stroke="black" d="M592.19,-165.95C621.71,-157.07 659.36,-145.75 687.03,-137.42"/>
<polygon fill="black" stroke="black" points="688.17,-140.73 696.74,-134.5 686.16,-134.03 688.17,-140.73"/>
</g>
<!-- 45 -->
<g id="node46" class="node">
<title>45</title>
<path fill="#39e581" stroke="black" d="M741.5,-90C741.5,-90 710.5,-90 710.5,-90 704.5,-90 698.5,-84 698.5,-78 698.5,-78 698.5,-66 698.5,-66 698.5,-60 704.5,-54 710.5,-54 710.5,-54 741.5,-54 741.5,-54 747.5,-54 753.5,-60 753.5,-66 753.5,-66 753.5,-78 753.5,-78 753.5,-84 747.5,-90 741.5,-90"/>
<text text-anchor="start" x="706.5" y="-68.3" font-family="Helvetica,sans-Serif" font-size="14.00">david</text>
</g>
<!-- 44&#45;&gt;45 -->
<g id="edge45" class="edge">
<title>44&#45;&gt;45</title>
<path fill="none" stroke="black" d="M472.16,-72C531.41,-72 633.65,-72 688.2,-72"/>
<polygon fill="black" stroke="black" points="688.45,-75.5 698.45,-72 688.45,-68.5 688.45,-75.5"/>
</g>
<!-- 46 -->
<g id="node47" class="node">
<title>46</title>
<path fill="#47e539" stroke="black" d="M747.5,-36C747.5,-36 704.5,-36 704.5,-36 698.5,-36 692.5,-30 692.5,-24 692.5,-24 692.5,-12 692.5,-12 692.5,-6 698.5,0 704.5,0 704.5,0 747.5,0 747.5,0 753.5,0 759.5,-6 759.5,-12 759.5,-12 759.5,-24 759.5,-24 759.5,-30 753.5,-36 747.5,-36"/>
<text text-anchor="start" x="700.5" y="-14.3" font-family="Helvetica,sans-Serif" font-size="14.00">charles</text>
</g>
<!-- 44&#45;&gt;46 -->
<g id="edge46" class="edge">
<title>44&#45;&gt;46</title>
<path fill="none" stroke="black" d="M472.16,-63.74C529.36,-53.39 626.6,-35.8 682.35,-25.72"/>
<polygon fill="black" stroke="black" points="683.04,-29.15 692.25,-23.92 681.79,-22.26 683.04,-29.15"/>
</g>
</g>
</svg>
