<?xml version="1.0" encoding="UTF-8" standalone="no"?>
<!DOCTYPE svg PUBLIC "-//W3C//DTD SVG 1.1//EN"
 "http://www.w3.org/Graphics/SVG/1.1/DTD/svg11.dtd">
<!-- Generated by graphviz version 2.50.0 (0)
 -->
<!-- Title: Tree Pages: 1 -->
<svg width="767pt" height="1286pt"
 viewBox="0.00 0.00 767.00 1286.00" xmlns="http://www.w3.org/2000/svg" xmlns:xlink="http://www.w3.org/1999/xlink">
<g id="graph0" class="graph" transform="scale(1 1) rotate(0) translate(4 1282)">
<title>Tree</title>
<polygon fill="white" stroke="transparent" points="-4,4 -4,-1282 763,-1282 763,4 -4,4"/>
<!-- 0 -->
<g id="node1" class="node">
<title>0</title>
<path fill="#ffffff" stroke="black" d="M78,-496C78,-496 12,-496 12,-496 6,-496 0,-490 0,-484 0,-484 0,-472 0,-472 0,-466 6,-460 12,-460 12,-460 78,-460 78,-460 84,-460 90,-466 90,-472 90,-472 90,-484 90,-484 90,-490 84,-496 78,-496"/>
<text text-anchor="start" x="8" y="-474.3" font-family="Helvetica,sans-Serif" font-size="14.00">big_mouth</text>
</g>
<!-- 1 -->
<g id="node2" class="node">
<title>1</title>
<path fill="#ffffff" stroke="black" d="M191.5,-657C191.5,-657 161.5,-657 161.5,-657 155.5,-657 149.5,-651 149.5,-645 149.5,-645 149.5,-633 149.5,-633 149.5,-627 155.5,-621 161.5,-621 161.5,-621 191.5,-621 191.5,-621 197.5,-621 203.5,-627 203.5,-633 203.5,-633 203.5,-645 203.5,-645 203.5,-651 197.5,-657 191.5,-657"/>
<text text-anchor="start" x="161" y="-635.3" font-family="Helvetica,sans-Serif" font-size="14.00">bald</text>
</g>
<!-- 0&#45;&gt;1 -->
<g id="edge1" class="edge">
<title>0&#45;&gt;1</title>
<path fill="none" stroke="black" d="M60.6,-496.16C83.53,-524.66 128.08,-580.04 154.46,-612.84"/>
<polygon fill="black" stroke="black" points="151.76,-615.07 160.75,-620.66 157.21,-610.68 151.76,-615.07"/>
<text text-anchor="middle" x="111.5" y="-575.8" font-family="Helvetica,sans-Serif" font-size="14.00">NO</text>
</g>
<!-- 28 -->
<g id="node29" class="node">
<title>28</title>
<path fill="#ffffff" stroke="black" d="M208,-388C208,-388 145,-388 145,-388 139,-388 133,-382 133,-376 133,-376 133,-364 133,-364 133,-358 139,-352 145,-352 145,-352 208,-352 208,-352 214,-352 220,-358 220,-364 220,-364 220,-376 220,-376 220,-382 214,-388 208,-388"/>
<text text-anchor="start" x="141" y="-366.3" font-family="Helvetica,sans-Serif" font-size="14.00">facial_hair</text>
</g>
<!-- 0&#45;&gt;28 -->
<g id="edge28" class="edge">
<title>0&#45;&gt;28</title>
<path fill="none" stroke="black" d="M67.68,-459.92C89.15,-442.01 122.2,-414.45 146.05,-394.56"/>
<polygon fill="black" stroke="black" points="148.32,-397.23 153.75,-388.14 143.83,-391.85 148.32,-397.23"/>
<text text-anchor="middle" x="111.5" y="-436.8" font-family="Helvetica,sans-Serif" font-size="14.00">YES</text>
</g>
<!-- 2 -->
<g id="node3" class="node">
<title>2</title>
<path fill="#ffffff" stroke="black" d="M304.5,-920C304.5,-920 264.5,-920 264.5,-920 258.5,-920 252.5,-914 252.5,-908 252.5,-908 252.5,-896 252.5,-896 252.5,-890 258.5,-884 264.5,-884 264.5,-884 304.5,-884 304.5,-884 310.5,-884 316.5,-890 316.5,-896 316.5,-896 316.5,-908 316.5,-908 316.5,-914 310.5,-920 304.5,-920"/>
<text text-anchor="start" x="260.5" y="-898.3" font-family="Helvetica,sans-Serif" font-size="14.00">female</text>
</g>
<!-- 1&#45;&gt;2 -->
<g id="edge2" class="edge">
<title>1&#45;&gt;2</title>
<path fill="none" stroke="black" d="M184.79,-657.08C203.02,-702.31 250.69,-820.6 272.42,-874.51"/>
<polygon fill="black" stroke="black" points="269.18,-875.83 276.16,-883.8 275.67,-873.21 269.18,-875.83"/>
</g>
<!-- 19 -->
<g id="node20" class="node">
<title>19</title>
<path fill="#ffffff" stroke="black" d="M320,-657C320,-657 249,-657 249,-657 243,-657 237,-651 237,-645 237,-645 237,-633 237,-633 237,-627 243,-621 249,-621 249,-621 320,-621 320,-621 326,-621 332,-627 332,-633 332,-633 332,-645 332,-645 332,-651 326,-657 320,-657"/>
<text text-anchor="start" x="245" y="-635.3" font-family="Helvetica,sans-Serif" font-size="14.00">ginger_hair</text>
</g>
<!-- 1&#45;&gt;19 -->
<g id="edge19" class="edge">
<title>1&#45;&gt;19</title>
<path fill="none" stroke="black" d="M203.7,-639C210.77,-639 218.7,-639 226.75,-639"/>
<polygon fill="black" stroke="black" points="226.95,-642.5 236.95,-639 226.95,-635.5 226.95,-642.5"/>
</g>
<!-- 3 -->
<g id="node4" class="node">
<title>3</title>
<path fill="#ffffff" stroke="black" d="M425.5,-1083C425.5,-1083 381.5,-1083 381.5,-1083 375.5,-1083 369.5,-1077 369.5,-1071 369.5,-1071 369.5,-1059 369.5,-1059 369.5,-1053 375.5,-1047 381.5,-1047 381.5,-1047 425.5,-1047 425.5,-1047 431.5,-1047 437.5,-1053 437.5,-1059 437.5,-1059 437.5,-1071 437.5,-1071 437.5,-1077 431.5,-1083 425.5,-1083"/>
<text text-anchor="start" x="377.5" y="-1061.3" font-family="Helvetica,sans-Serif" font-size="14.00">glasses</text>
</g>
<!-- 2&#45;&gt;3 -->
<g id="edge3" class="edge">
<title>2&#45;&gt;3</title>
<path fill="none" stroke="black" d="M298.47,-920.07C319.11,-948.83 359.56,-1005.17 383.48,-1038.5"/>
<polygon fill="black" stroke="black" points="380.8,-1040.77 389.47,-1046.85 386.49,-1036.69 380.8,-1040.77"/>
</g>
<!-- 12 -->
<g id="node13" class="node">
<title>12</title>
<path fill="#ffffff" stroke="black" d="M431.5,-920C431.5,-920 375.5,-920 375.5,-920 369.5,-920 363.5,-914 363.5,-908 363.5,-908 363.5,-896 363.5,-896 363.5,-890 369.5,-884 375.5,-884 375.5,-884 431.5,-884 431.5,-884 437.5,-884 443.5,-890 443.5,-896 443.5,-896 443.5,-908 443.5,-908 443.5,-914 437.5,-920 431.5,-920"/>
<text text-anchor="start" x="371.5" y="-898.3" font-family="Helvetica,sans-Serif" font-size="14.00">long_hair</text>
</g>
<!-- 2&#45;&gt;12 -->
<g id="edge12" class="edge">
<title>2&#45;&gt;12</title>
<path fill="none" stroke="black" d="M316.55,-902C327.76,-902 340.71,-902 353.11,-902"/>
<polygon fill="black" stroke="black" points="353.33,-905.5 363.33,-902 353.33,-898.5 353.33,-905.5"/>
</g>
<!-- 4 -->
<g id="node5" class="node">
<title>4</title>
<path fill="#ffffff" stroke="black" d="M549.5,-1170C549.5,-1170 493.5,-1170 493.5,-1170 487.5,-1170 481.5,-1164 481.5,-1158 481.5,-1158 481.5,-1146 481.5,-1146 481.5,-1140 487.5,-1134 493.5,-1134 493.5,-1134 549.5,-1134 549.5,-1134 555.5,-1134 561.5,-1140 561.5,-1146 561.5,-1146 561.5,-1158 561.5,-1158 561.5,-1164 555.5,-1170 549.5,-1170"/>
<text text-anchor="start" x="489.5" y="-1148.3" font-family="Helvetica,sans-Serif" font-size="14.00">long_hair</text>
</g>
<!-- 3&#45;&gt;4 -->
<g id="edge4" class="edge">
<title>3&#45;&gt;4</title>
<path fill="none" stroke="black" d="M428.54,-1083.03C445.88,-1096.03 469.47,-1113.73 488.42,-1127.94"/>
<polygon fill="black" stroke="black" points="486.4,-1130.8 496.5,-1134 490.6,-1125.2 486.4,-1130.8"/>
</g>
<!-- 9 -->
<g id="node10" class="node">
<title>9</title>
<path fill="#ffffff" stroke="black" d="M552,-1083C552,-1083 491,-1083 491,-1083 485,-1083 479,-1077 479,-1071 479,-1071 479,-1059 479,-1059 479,-1053 485,-1047 491,-1047 491,-1047 552,-1047 552,-1047 558,-1047 564,-1053 564,-1059 564,-1059 564,-1071 564,-1071 564,-1077 558,-1083 552,-1083"/>
<text text-anchor="start" x="487" y="-1061.3" font-family="Helvetica,sans-Serif" font-size="14.00">curly_hair</text>
</g>
<!-- 3&#45;&gt;9 -->
<g id="edge9" class="edge">
<title>3&#45;&gt;9</title>
<path fill="none" stroke="black" d="M437.74,-1065C447.48,-1065 458.37,-1065 468.97,-1065"/>
<polygon fill="black" stroke="black" points="468.99,-1068.5 478.99,-1065 468.99,-1061.5 468.99,-1068.5"/>
</g>
<!-- 5 -->
<g id="node6" class="node">
<title>5</title>
<path fill="#ffffff" stroke="black" d="M658,-1224C658,-1224 597,-1224 597,-1224 591,-1224 585,-1218 585,-1212 585,-1212 585,-1200 585,-1200 585,-1194 591,-1188 597,-1188 597,-1188 658,-1188 658,-1188 664,-1188 670,-1194 670,-1200 670,-1200 670,-1212 670,-1212 670,-1218 664,-1224 658,-1224"/>
<text text-anchor="start" x="593" y="-1202.3" font-family="Helvetica,sans-Serif" font-size="14.00">curly_hair</text>
</g>
<!-- 4&#45;&gt;5 -->
<g id="edge5" class="edge">
<title>4&#45;&gt;5</title>
<path fill="none" stroke="black" d="M557.42,-1170.13C565.48,-1174.32 574.16,-1178.82 582.55,-1183.18"/>
<polygon fill="black" stroke="black" points="581.01,-1186.32 591.5,-1187.82 584.23,-1180.11 581.01,-1186.32"/>
</g>
<!-- 8 -->
<g id="node9" class="node">
<title>8</title>
<path fill="#e5ac39" stroke="black" d="M739,-1170C739,-1170 707,-1170 707,-1170 701,-1170 695,-1164 695,-1158 695,-1158 695,-1146 695,-1146 695,-1140 701,-1134 707,-1134 707,-1134 739,-1134 739,-1134 745,-1134 751,-1140 751,-1146 751,-1146 751,-1158 751,-1158 751,-1164 745,-1170 739,-1170"/>
<text text-anchor="start" x="703" y="-1148.3" font-family="Helvetica,sans-Serif" font-size="14.00">alfred</text>
</g>
<!-- 4&#45;&gt;8 -->
<g id="edge8" class="edge">
<title>4&#45;&gt;8</title>
<path fill="none" stroke="black" d="M561.91,-1152C597.52,-1152 649.56,-1152 684.54,-1152"/>
<polygon fill="black" stroke="black" points="684.82,-1155.5 694.82,-1152 684.82,-1148.5 684.82,-1155.5"/>
</g>
<!-- 6 -->
<g id="node7" class="node">
<title>6</title>
<path fill="#9de539" stroke="black" d="M747,-1278C747,-1278 699,-1278 699,-1278 693,-1278 687,-1272 687,-1266 687,-1266 687,-1254 687,-1254 687,-1248 693,-1242 699,-1242 699,-1242 747,-1242 747,-1242 753,-1242 759,-1248 759,-1254 759,-1254 759,-1266 759,-1266 759,-1272 753,-1278 747,-1278"/>
<text text-anchor="start" x="695" y="-1256.3" font-family="Helvetica,sans-Serif" font-size="14.00">bernard</text>
</g>
<!-- 5&#45;&gt;6 -->
<g id="edge6" class="edge">
<title>5&#45;&gt;6</title>
<path fill="none" stroke="black" d="M659.89,-1224.13C666.83,-1228.14 674.28,-1232.44 681.52,-1236.62"/>
<polygon fill="black" stroke="black" points="680.12,-1239.85 690.53,-1241.82 683.62,-1233.79 680.12,-1239.85"/>
</g>
<!-- 7 -->
<g id="node8" class="node">
<title>7</title>
<path fill="#39e5d7" stroke="black" d="M738,-1224C738,-1224 708,-1224 708,-1224 702,-1224 696,-1218 696,-1212 696,-1212 696,-1200 696,-1200 696,-1194 702,-1188 708,-1188 708,-1188 738,-1188 738,-1188 744,-1188 750,-1194 750,-1200 750,-1200 750,-1212 750,-1212 750,-1218 744,-1224 738,-1224"/>
<text text-anchor="start" x="704.5" y="-1202.3" font-family="Helvetica,sans-Serif" font-size="14.00">frans</text>
</g>
<!-- 5&#45;&gt;7 -->
<g id="edge7" class="edge">
<title>5&#45;&gt;7</title>
<path fill="none" stroke="black" d="M670.05,-1206C675.27,-1206 680.57,-1206 685.69,-1206"/>
<polygon fill="black" stroke="black" points="685.88,-1209.5 695.88,-1206 685.88,-1202.5 685.88,-1209.5"/>
</g>
<!-- 10 -->
<g id="node11" class="node">
<title>10</title>
<path fill="#8139e5" stroke="black" d="M738,-1116C738,-1116 708,-1116 708,-1116 702,-1116 696,-1110 696,-1104 696,-1104 696,-1092 696,-1092 696,-1086 702,-1080 708,-1080 708,-1080 738,-1080 738,-1080 744,-1080 750,-1086 750,-1092 750,-1092 750,-1104 750,-1104 750,-1110 744,-1116 738,-1116"/>
<text text-anchor="start" x="707.5" y="-1094.3" font-family="Helvetica,sans-Serif" font-size="14.00">paul</text>
</g>
<!-- 9&#45;&gt;10 -->
<g id="edge10" class="edge">
<title>9&#45;&gt;10</title>
<path fill="none" stroke="black" d="M564.32,-1071.92C600.25,-1077.86 651.53,-1086.34 685.74,-1092"/>
<polygon fill="black" stroke="black" points="685.34,-1095.48 695.78,-1093.66 686.49,-1088.58 685.34,-1095.48"/>
</g>
<!-- 11 -->
<g id="node12" class="node">
<title>11</title>
<path fill="#3972e5" stroke="black" d="M738,-1062C738,-1062 708,-1062 708,-1062 702,-1062 696,-1056 696,-1050 696,-1050 696,-1038 696,-1038 696,-1032 702,-1026 708,-1026 708,-1026 738,-1026 738,-1026 744,-1026 750,-1032 750,-1038 750,-1038 750,-1050 750,-1050 750,-1056 744,-1062 738,-1062"/>
<text text-anchor="start" x="712.5" y="-1040.3" font-family="Helvetica,sans-Serif" font-size="14.00">joe</text>
</g>
<!-- 9&#45;&gt;11 -->
<g id="edge11" class="edge">
<title>9&#45;&gt;11</title>
<path fill="none" stroke="black" d="M564.32,-1060.6C600.25,-1056.82 651.53,-1051.42 685.74,-1047.82"/>
<polygon fill="black" stroke="black" points="686.2,-1051.29 695.78,-1046.76 685.47,-1044.33 686.2,-1051.29"/>
</g>
<!-- 13 -->
<g id="node14" class="node">
<title>13</title>
<path fill="#ffffff" stroke="black" d="M553,-954C553,-954 490,-954 490,-954 484,-954 478,-948 478,-942 478,-942 478,-930 478,-930 478,-924 484,-918 490,-918 490,-918 553,-918 553,-918 559,-918 565,-924 565,-930 565,-930 565,-942 565,-942 565,-948 559,-954 553,-954"/>
<text text-anchor="start" x="486" y="-932.3" font-family="Helvetica,sans-Serif" font-size="14.00">black_hair</text>
</g>
<!-- 12&#45;&gt;13 -->
<g id="edge13" class="edge">
<title>12&#45;&gt;13</title>
<path fill="none" stroke="black" d="M443.77,-913.51C451.53,-915.78 459.79,-918.2 467.9,-920.58"/>
<polygon fill="black" stroke="black" points="467.11,-924 477.69,-923.45 469.08,-917.28 467.11,-924"/>
</g>
<!-- 16 -->
<g id="node17" class="node">
<title>16</title>
<path fill="#ffffff" stroke="black" d="M556,-900C556,-900 487,-900 487,-900 481,-900 475,-894 475,-888 475,-888 475,-876 475,-876 475,-870 481,-864 487,-864 487,-864 556,-864 556,-864 562,-864 568,-870 568,-876 568,-876 568,-888 568,-888 568,-894 562,-900 556,-900"/>
<text text-anchor="start" x="483" y="-878.3" font-family="Helvetica,sans-Serif" font-size="14.00">brown_hair</text>
</g>
<!-- 12&#45;&gt;16 -->
<g id="edge16" class="edge">
<title>12&#45;&gt;16</title>
<path fill="none" stroke="black" d="M443.77,-895.23C450.48,-894.07 457.57,-892.85 464.62,-891.63"/>
<polygon fill="black" stroke="black" points="465.6,-895.02 474.86,-889.87 464.41,-888.12 465.6,-895.02"/>
</g>
<!-- 14 -->
<g id="node15" class="node">
<title>14</title>
<path fill="#39e556" stroke="black" d="M738,-1008C738,-1008 708,-1008 708,-1008 702,-1008 696,-1002 696,-996 696,-996 696,-984 696,-984 696,-978 702,-972 708,-972 708,-972 738,-972 738,-972 744,-972 750,-978 750,-984 750,-984 750,-996 750,-996 750,-1002 744,-1008 738,-1008"/>
<text text-anchor="start" x="704.5" y="-986.3" font-family="Helvetica,sans-Serif" font-size="14.00">claire</text>
</g>
<!-- 13&#45;&gt;14 -->
<g id="edge14" class="edge">
<title>13&#45;&gt;14</title>
<path fill="none" stroke="black" d="M565.3,-947.58C601.2,-957.3 651.9,-971.03 685.81,-980.2"/>
<polygon fill="black" stroke="black" points="685.19,-983.66 695.76,-982.9 687.02,-976.91 685.19,-983.66"/>
</g>
<!-- 15 -->
<g id="node16" class="node">
<title>15</title>
<path fill="#c8e539" stroke="black" d="M738,-954C738,-954 708,-954 708,-954 702,-954 696,-948 696,-942 696,-942 696,-930 696,-930 696,-924 702,-918 708,-918 708,-918 738,-918 738,-918 744,-918 750,-924 750,-930 750,-930 750,-942 750,-942 750,-948 744,-954 738,-954"/>
<text text-anchor="start" x="705.5" y="-932.3" font-family="Helvetica,sans-Serif" font-size="14.00">anne</text>
</g>
<!-- 13&#45;&gt;15 -->
<g id="edge15" class="edge">
<title>13&#45;&gt;15</title>
<path fill="none" stroke="black" d="M565.3,-936C601.04,-936 651.46,-936 685.37,-936"/>
<polygon fill="black" stroke="black" points="685.76,-939.5 695.76,-936 685.76,-932.5 685.76,-939.5"/>
</g>
<!-- 17 -->
<g id="node18" class="node">
<title>17</title>
<path fill="#e5d739" stroke="black" d="M738,-900C738,-900 708,-900 708,-900 702,-900 696,-894 696,-888 696,-888 696,-876 696,-876 696,-870 702,-864 708,-864 708,-864 738,-864 738,-864 744,-864 750,-870 750,-876 750,-876 750,-888 750,-888 750,-894 744,-900 738,-900"/>
<text text-anchor="start" x="705.5" y="-878.3" font-family="Helvetica,sans-Serif" font-size="14.00">anita</text>
</g>
<!-- 16&#45;&gt;17 -->
<g id="edge17" class="edge">
<title>16&#45;&gt;17</title>
<path fill="none" stroke="black" d="M568.27,-882C603.98,-882 652.89,-882 685.88,-882"/>
<polygon fill="black" stroke="black" points="685.99,-885.5 695.99,-882 685.99,-878.5 685.99,-885.5"/>
</g>
<!-- 18 -->
<g id="node19" class="node">
<title>18</title>
<path fill="#3947e5" stroke="black" d="M739,-846C739,-846 707,-846 707,-846 701,-846 695,-840 695,-834 695,-834 695,-822 695,-822 695,-816 701,-810 707,-810 707,-810 739,-810 739,-810 745,-810 751,-816 751,-822 751,-822 751,-834 751,-834 751,-840 745,-846 739,-846"/>
<text text-anchor="start" x="703" y="-824.3" font-family="Helvetica,sans-Serif" font-size="14.00">maria</text>
</g>
<!-- 16&#45;&gt;18 -->
<g id="edge18" class="edge">
<title>16&#45;&gt;18</title>
<path fill="none" stroke="black" d="M568.27,-869.61C603.72,-860.02 652.17,-846.9 685.15,-837.98"/>
<polygon fill="black" stroke="black" points="686.11,-841.34 694.85,-835.35 684.28,-834.58 686.11,-841.34"/>
</g>
<!-- 20 -->
<g id="node21" class="node">
<title>20</title>
<path fill="#ffffff" stroke="black" d="M435,-684C435,-684 372,-684 372,-684 366,-684 360,-678 360,-672 360,-672 360,-660 360,-660 360,-654 366,-648 372,-648 372,-648 435,-648 435,-648 441,-648 447,-654 447,-660 447,-660 447,-672 447,-672 447,-678 441,-684 435,-684"/>
<text text-anchor="start" x="368" y="-662.3" font-family="Helvetica,sans-Serif" font-size="14.00">facial_hair</text>
</g>
<!-- 19&#45;&gt;20 -->
<g id="edge20" class="edge">
<title>19&#45;&gt;20</title>
<path fill="none" stroke="black" d="M332.08,-649.75C337.96,-651.11 344,-652.5 349.97,-653.88"/>
<polygon fill="black" stroke="black" points="349.35,-657.33 359.88,-656.16 350.92,-650.51 349.35,-657.33"/>
</g>
<!-- 25 -->
<g id="node26" class="node">
<title>25</title>
<path fill="#ffffff" stroke="black" d="M420,-630C420,-630 387,-630 387,-630 381,-630 375,-624 375,-618 375,-618 375,-606 375,-606 375,-600 381,-594 387,-594 387,-594 420,-594 420,-594 426,-594 432,-600 432,-606 432,-606 432,-618 432,-618 432,-624 426,-630 420,-630"/>
<text text-anchor="start" x="383" y="-608.3" font-family="Helvetica,sans-Serif" font-size="14.00">beard</text>
</g>
<!-- 19&#45;&gt;25 -->
<g id="edge25" class="edge">
<title>19&#45;&gt;25</title>
<path fill="none" stroke="black" d="M332.08,-628.25C342.97,-625.74 354.45,-623.09 364.9,-620.68"/>
<polygon fill="black" stroke="black" points="365.99,-624.02 374.95,-618.36 364.42,-617.2 365.99,-624.02"/>
</g>
<!-- 21 -->
<g id="node22" class="node">
<title>21</title>
<path fill="#ffffff" stroke="black" d="M552.5,-738C552.5,-738 490.5,-738 490.5,-738 484.5,-738 478.5,-732 478.5,-726 478.5,-726 478.5,-714 478.5,-714 478.5,-708 484.5,-702 490.5,-702 490.5,-702 552.5,-702 552.5,-702 558.5,-702 564.5,-708 564.5,-714 564.5,-714 564.5,-726 564.5,-726 564.5,-732 558.5,-738 552.5,-738"/>
<text text-anchor="start" x="486.5" y="-716.3" font-family="Helvetica,sans-Serif" font-size="14.00">blue_eyes</text>
</g>
<!-- 20&#45;&gt;21 -->
<g id="edge21" class="edge">
<title>20&#45;&gt;21</title>
<path fill="none" stroke="black" d="M443.45,-684.13C452.73,-688.45 462.74,-693.11 472.37,-697.59"/>
<polygon fill="black" stroke="black" points="470.91,-700.78 481.46,-701.82 473.87,-694.43 470.91,-700.78"/>
</g>
<!-- 24 -->
<g id="node25" class="node">
<title>24</title>
<path fill="#e539c8" stroke="black" d="M744,-684C744,-684 702,-684 702,-684 696,-684 690,-678 690,-672 690,-672 690,-660 690,-660 690,-654 696,-648 702,-648 702,-648 744,-648 744,-648 750,-648 756,-654 756,-660 756,-660 756,-672 756,-672 756,-678 750,-684 744,-684"/>
<text text-anchor="start" x="698" y="-662.3" font-family="Helvetica,sans-Serif" font-size="14.00">richard</text>
</g>
<!-- 20&#45;&gt;24 -->
<g id="edge24" class="edge">
<title>20&#45;&gt;24</title>
<path fill="none" stroke="black" d="M447.32,-666C508.16,-666 618.94,-666 679.57,-666"/>
<polygon fill="black" stroke="black" points="679.92,-669.5 689.92,-666 679.92,-662.5 679.92,-669.5"/>
</g>
<!-- 22 -->
<g id="node23" class="node">
<title>22</title>
<path fill="#e53972" stroke="black" d="M738,-792C738,-792 708,-792 708,-792 702,-792 696,-786 696,-780 696,-780 696,-768 696,-768 696,-762 702,-756 708,-756 708,-756 738,-756 738,-756 744,-756 750,-762 750,-768 750,-768 750,-780 750,-780 750,-786 744,-792 738,-792"/>
<text text-anchor="start" x="708" y="-770.3" font-family="Helvetica,sans-Serif" font-size="14.00">sam</text>
</g>
<!-- 21&#45;&gt;22 -->
<g id="edge22" class="edge">
<title>21&#45;&gt;22</title>
<path fill="none" stroke="black" d="M564.81,-731.45C600.78,-741.19 651.86,-755.01 685.92,-764.23"/>
<polygon fill="black" stroke="black" points="685.35,-767.7 695.91,-766.94 687.17,-760.95 685.35,-767.7"/>
</g>
<!-- 23 -->
<g id="node24" class="node">
<title>23</title>
<path fill="#e55639" stroke="black" d="M738,-738C738,-738 708,-738 708,-738 702,-738 696,-732 696,-726 696,-726 696,-714 696,-714 696,-708 702,-702 708,-702 708,-702 738,-702 738,-702 744,-702 750,-708 750,-714 750,-714 750,-726 750,-726 750,-732 744,-738 738,-738"/>
<text text-anchor="start" x="709" y="-716.3" font-family="Helvetica,sans-Serif" font-size="14.00">tom</text>
</g>
<!-- 21&#45;&gt;23 -->
<g id="edge23" class="edge">
<title>21&#45;&gt;23</title>
<path fill="none" stroke="black" d="M564.81,-720C600.62,-720 651.42,-720 685.48,-720"/>
<polygon fill="black" stroke="black" points="685.91,-723.5 695.91,-720 685.91,-716.5 685.91,-723.5"/>
</g>
<!-- 26 -->
<g id="node27" class="node">
<title>26</title>
<path fill="#399de5" stroke="black" d="M746.5,-630C746.5,-630 699.5,-630 699.5,-630 693.5,-630 687.5,-624 687.5,-618 687.5,-618 687.5,-606 687.5,-606 687.5,-600 693.5,-594 699.5,-594 699.5,-594 746.5,-594 746.5,-594 752.5,-594 758.5,-600 758.5,-606 758.5,-606 758.5,-618 758.5,-618 758.5,-624 752.5,-630 746.5,-630"/>
<text text-anchor="start" x="695.5" y="-608.3" font-family="Helvetica,sans-Serif" font-size="14.00">herman</text>
</g>
<!-- 25&#45;&gt;26 -->
<g id="edge26" class="edge">
<title>25&#45;&gt;26</title>
<path fill="none" stroke="black" d="M432.12,-612C486.97,-612 610.08,-612 676.86,-612"/>
<polygon fill="black" stroke="black" points="677.07,-615.5 687.07,-612 677.07,-608.5 677.07,-615.5"/>
</g>
<!-- 27 -->
<g id="node28" class="node">
<title>27</title>
<path fill="#72e539" stroke="black" d="M738,-576C738,-576 708,-576 708,-576 702,-576 696,-570 696,-564 696,-564 696,-552 696,-552 696,-546 702,-540 708,-540 708,-540 738,-540 738,-540 744,-540 750,-546 750,-552 750,-552 750,-564 750,-564 750,-570 744,-576 738,-576"/>
<text text-anchor="start" x="712.5" y="-554.3" font-family="Helvetica,sans-Serif" font-size="14.00">bill</text>
</g>
<!-- 25&#45;&gt;27 -->
<g id="edge27" class="edge">
<title>25&#45;&gt;27</title>
<path fill="none" stroke="black" d="M432.12,-607.3C489.43,-597.56 621.26,-575.13 685.49,-564.21"/>
<polygon fill="black" stroke="black" points="686.29,-567.62 695.56,-562.5 685.12,-560.72 686.29,-567.62"/>
</g>
<!-- 29 -->
<g id="node30" class="node">
<title>29</title>
<path fill="#ffffff" stroke="black" d="M320,-388C320,-388 249,-388 249,-388 243,-388 237,-382 237,-376 237,-376 237,-364 237,-364 237,-358 243,-352 249,-352 249,-352 320,-352 320,-352 326,-352 332,-358 332,-364 332,-364 332,-376 332,-376 332,-382 326,-388 320,-388"/>
<text text-anchor="start" x="245" y="-366.3" font-family="Helvetica,sans-Serif" font-size="14.00">red_cheeks</text>
</g>
<!-- 28&#45;&gt;29 -->
<g id="edge29" class="edge">
<title>28&#45;&gt;29</title>
<path fill="none" stroke="black" d="M220,-370C222.25,-370 224.52,-370 226.8,-370"/>
<polygon fill="black" stroke="black" points="226.81,-373.5 236.81,-370 226.81,-366.5 226.81,-373.5"/>
</g>
<!-- 38 -->
<g id="node39" class="node">
<title>38</title>
<path fill="#ffffff" stroke="black" d="M301,-164C301,-164 268,-164 268,-164 262,-164 256,-158 256,-152 256,-152 256,-140 256,-140 256,-134 262,-128 268,-128 268,-128 301,-128 301,-128 307,-128 313,-134 313,-140 313,-140 313,-152 313,-152 313,-158 307,-164 301,-164"/>
<text text-anchor="start" x="264" y="-142.3" font-family="Helvetica,sans-Serif" font-size="14.00">beard</text>
</g>
<!-- 28&#45;&gt;38 -->
<g id="edge38" class="edge">
<title>28&#45;&gt;38</title>
<path fill="none" stroke="black" d="M186.17,-351.67C204.78,-312.36 248.59,-219.76 270.52,-173.42"/>
<polygon fill="black" stroke="black" points="273.74,-174.81 274.85,-164.27 267.41,-171.81 273.74,-174.81"/>
</g>
<!-- 30 -->
<g id="node31" class="node">
<title>30</title>
<path fill="#ffffff" stroke="black" d="M440.5,-414C440.5,-414 366.5,-414 366.5,-414 360.5,-414 354.5,-408 354.5,-402 354.5,-402 354.5,-390 354.5,-390 354.5,-384 360.5,-378 366.5,-378 366.5,-378 440.5,-378 440.5,-378 446.5,-378 452.5,-384 452.5,-390 452.5,-390 452.5,-402 452.5,-402 452.5,-408 446.5,-414 440.5,-414"/>
<text text-anchor="start" x="362.5" y="-392.3" font-family="Helvetica,sans-Serif" font-size="14.00">sad_looking</text>
</g>
<!-- 29&#45;&gt;30 -->
<g id="edge30" class="edge">
<title>29&#45;&gt;30</title>
<path fill="none" stroke="black" d="M332.08,-380.35C336.05,-381.23 340.1,-382.13 344.15,-383.03"/>
<polygon fill="black" stroke="black" points="343.64,-386.51 354.17,-385.26 345.16,-379.67 343.64,-386.51"/>
</g>
<!-- 35 -->
<g id="node36" class="node">
<title>35</title>
<path fill="#ffffff" stroke="black" d="M435.5,-360C435.5,-360 371.5,-360 371.5,-360 365.5,-360 359.5,-354 359.5,-348 359.5,-348 359.5,-336 359.5,-336 359.5,-330 365.5,-324 371.5,-324 371.5,-324 435.5,-324 435.5,-324 441.5,-324 447.5,-330 447.5,-336 447.5,-336 447.5,-348 447.5,-348 447.5,-354 441.5,-360 435.5,-360"/>
<text text-anchor="start" x="367.5" y="-338.3" font-family="Helvetica,sans-Serif" font-size="14.00">white_hair</text>
</g>
<!-- 29&#45;&gt;35 -->
<g id="edge35" class="edge">
<title>29&#45;&gt;35</title>
<path fill="none" stroke="black" d="M332.08,-358.85C337.65,-357.52 343.38,-356.15 349.04,-354.79"/>
<polygon fill="black" stroke="black" points="350.21,-358.11 359.12,-352.38 348.58,-351.3 350.21,-358.11"/>
</g>
<!-- 31 -->
<g id="node32" class="node">
<title>31</title>
<path fill="#ffffff" stroke="black" d="M552.5,-468C552.5,-468 490.5,-468 490.5,-468 484.5,-468 478.5,-462 478.5,-456 478.5,-456 478.5,-444 478.5,-444 478.5,-438 484.5,-432 490.5,-432 490.5,-432 552.5,-432 552.5,-432 558.5,-432 564.5,-438 564.5,-444 564.5,-444 564.5,-456 564.5,-456 564.5,-462 558.5,-468 552.5,-468"/>
<text text-anchor="start" x="486.5" y="-446.3" font-family="Helvetica,sans-Serif" font-size="14.00">blue_eyes</text>
</g>
<!-- 30&#45;&gt;31 -->
<g id="edge31" class="edge">
<title>30&#45;&gt;31</title>
<path fill="none" stroke="black" d="M443.45,-414.13C452.73,-418.45 462.74,-423.11 472.37,-427.59"/>
<polygon fill="black" stroke="black" points="470.91,-430.78 481.46,-431.82 473.87,-424.43 470.91,-430.78"/>
</g>
<!-- 34 -->
<g id="node35" class="node">
<title>34</title>
<path fill="#39c8e5" stroke="black" d="M743.5,-414C743.5,-414 702.5,-414 702.5,-414 696.5,-414 690.5,-408 690.5,-402 690.5,-402 690.5,-390 690.5,-390 690.5,-384 696.5,-378 702.5,-378 702.5,-378 743.5,-378 743.5,-378 749.5,-378 755.5,-384 755.5,-390 755.5,-390 755.5,-402 755.5,-402 755.5,-408 749.5,-414 743.5,-414"/>
<text text-anchor="start" x="698.5" y="-392.3" font-family="Helvetica,sans-Serif" font-size="14.00">george</text>
</g>
<!-- 30&#45;&gt;34 -->
<g id="edge34" class="edge">
<title>30&#45;&gt;34</title>
<path fill="none" stroke="black" d="M452.72,-396C514.74,-396 621.45,-396 680.2,-396"/>
<polygon fill="black" stroke="black" points="680.24,-399.5 690.24,-396 680.24,-392.5 680.24,-399.5"/>
</g>
<!-- 32 -->
<g id="node33" class="node">
<title>32</title>
<path fill="#39e5ac" stroke="black" d="M738,-522C738,-522 708,-522 708,-522 702,-522 696,-516 696,-510 696,-510 696,-498 696,-498 696,-492 702,-486 708,-486 708,-486 738,-486 738,-486 744,-486 750,-492 750,-498 750,-498 750,-510 750,-510 750,-516 744,-522 738,-522"/>
<text text-anchor="start" x="710" y="-500.3" font-family="Helvetica,sans-Serif" font-size="14.00">eric</text>
</g>
<!-- 31&#45;&gt;32 -->
<g id="edge32" class="edge">
<title>31&#45;&gt;32</title>
<path fill="none" stroke="black" d="M564.81,-461.45C600.78,-471.19 651.86,-485.01 685.92,-494.23"/>
<polygon fill="black" stroke="black" points="685.35,-497.7 695.91,-496.94 687.17,-490.95 685.35,-497.7"/>
</g>
<!-- 33 -->
<g id="node34" class="node">
<title>33</title>
<path fill="#ac39e5" stroke="black" d="M738,-468C738,-468 708,-468 708,-468 702,-468 696,-462 696,-456 696,-456 696,-444 696,-444 696,-438 702,-432 708,-432 708,-432 738,-432 738,-432 744,-432 750,-438 750,-444 750,-444 750,-456 750,-456 750,-462 744,-468 738,-468"/>
<text text-anchor="start" x="704.5" y="-446.3" font-family="Helvetica,sans-Serif" font-size="14.00">peter</text>
</g>
<!-- 31&#45;&gt;33 -->
<g id="edge33" class="edge">
<title>31&#45;&gt;33</title>
<path fill="none" stroke="black" d="M564.81,-450C600.62,-450 651.42,-450 685.48,-450"/>
<polygon fill="black" stroke="black" points="685.91,-453.5 695.91,-450 685.91,-446.5 685.91,-453.5"/>
</g>
<!-- 36 -->
<g id="node37" class="node">
<title>36</title>
<path fill="#e5399d" stroke="black" d="M740.5,-360C740.5,-360 705.5,-360 705.5,-360 699.5,-360 693.5,-354 693.5,-348 693.5,-348 693.5,-336 693.5,-336 693.5,-330 699.5,-324 705.5,-324 705.5,-324 740.5,-324 740.5,-324 746.5,-324 752.5,-330 752.5,-336 752.5,-336 752.5,-348 752.5,-348 752.5,-354 746.5,-360 740.5,-360"/>
<text text-anchor="start" x="701.5" y="-338.3" font-family="Helvetica,sans-Serif" font-size="14.00">robert</text>
</g>
<!-- 35&#45;&gt;36 -->
<g id="edge36" class="edge">
<title>35&#45;&gt;36</title>
<path fill="none" stroke="black" d="M447.65,-342C509.71,-342 623.25,-342 682.95,-342"/>
<polygon fill="black" stroke="black" points="683.09,-345.5 693.09,-342 683.09,-338.5 683.09,-345.5"/>
</g>
<!-- 37 -->
<g id="node38" class="node">
<title>37</title>
<path fill="#e53947" stroke="black" d="M740,-306C740,-306 706,-306 706,-306 700,-306 694,-300 694,-294 694,-294 694,-282 694,-282 694,-276 700,-270 706,-270 706,-270 740,-270 740,-270 746,-270 752,-276 752,-282 752,-282 752,-294 752,-294 752,-300 746,-306 740,-306"/>
<text text-anchor="start" x="702" y="-284.3" font-family="Helvetica,sans-Serif" font-size="14.00">susan</text>
</g>
<!-- 35&#45;&gt;37 -->
<g id="edge37" class="edge">
<title>35&#45;&gt;37</title>
<path fill="none" stroke="black" d="M447.65,-334.66C510.03,-324.05 624.42,-304.6 683.87,-294.49"/>
<polygon fill="black" stroke="black" points="684.68,-297.9 693.96,-292.77 683.51,-291 684.68,-297.9"/>
</g>
<!-- 39 -->
<g id="node40" class="node">
<title>39</title>
<path fill="#ffffff" stroke="black" d="M446,-164C446,-164 361,-164 361,-164 355,-164 349,-158 349,-152 349,-152 349,-140 349,-140 349,-134 355,-128 361,-128 361,-128 446,-128 446,-128 452,-128 458,-134 458,-140 458,-140 458,-152 458,-152 458,-158 452,-164 446,-164"/>
<text text-anchor="start" x="357" y="-142.3" font-family="Helvetica,sans-Serif" font-size="14.00">hair_partition</text>
</g>
<!-- 38&#45;&gt;39 -->
<g id="edge39" class="edge">
<title>38&#45;&gt;39</title>
<path fill="none" stroke="black" d="M313.23,-146C320.98,-146 329.75,-146 338.68,-146"/>
<polygon fill="black" stroke="black" points="338.8,-149.5 348.8,-146 338.8,-142.5 338.8,-149.5"/>
</g>
<!-- 44 -->
<g id="node45" class="node">
<title>44</title>
<path fill="#ffffff" stroke="black" d="M439,-90C439,-90 368,-90 368,-90 362,-90 356,-84 356,-78 356,-78 356,-66 356,-66 356,-60 362,-54 368,-54 368,-54 439,-54 439,-54 445,-54 451,-60 451,-66 451,-66 451,-78 451,-78 451,-84 445,-90 439,-90"/>
<text text-anchor="start" x="364" y="-68.3" font-family="Helvetica,sans-Serif" font-size="14.00">red_cheeks</text>
</g>
<!-- 38&#45;&gt;44 -->
<g id="edge44" class="edge">
<title>38&#45;&gt;44</title>
<path fill="none" stroke="black" d="M313.23,-128.46C328.76,-118.64 348.35,-106.25 365.21,-95.58"/>
<polygon fill="black" stroke="black" points="367.17,-98.49 373.75,-90.18 363.43,-92.57 367.17,-98.49"/>
</g>
<!-- 40 -->
<g id="node41" class="node">
<title>40</title>
<path fill="#ffffff" stroke="black" d="M552,-198C552,-198 491,-198 491,-198 485,-198 479,-192 479,-186 479,-186 479,-174 479,-174 479,-168 485,-162 491,-162 491,-162 552,-162 552,-162 558,-162 564,-168 564,-174 564,-174 564,-186 564,-186 564,-192 558,-198 552,-198"/>
<text text-anchor="start" x="487" y="-176.3" font-family="Helvetica,sans-Serif" font-size="14.00">curly_hair</text>
</g>
<!-- 39&#45;&gt;40 -->
<g id="edge40" class="edge">
<title>39&#45;&gt;40</title>
<path fill="none" stroke="black" d="M458.09,-161.71C461.81,-162.8 465.55,-163.89 469.26,-164.98"/>
<polygon fill="black" stroke="black" points="468.37,-168.37 478.95,-167.82 470.34,-161.65 468.37,-168.37"/>
</g>
<!-- 43 -->
<g id="node44" class="node">
<title>43</title>
<path fill="#47e539" stroke="black" d="M744.5,-144C744.5,-144 701.5,-144 701.5,-144 695.5,-144 689.5,-138 689.5,-132 689.5,-132 689.5,-120 689.5,-120 689.5,-114 695.5,-108 701.5,-108 701.5,-108 744.5,-108 744.5,-108 750.5,-108 756.5,-114 756.5,-120 756.5,-120 756.5,-132 756.5,-132 756.5,-138 750.5,-144 744.5,-144"/>
<text text-anchor="start" x="697.5" y="-122.3" font-family="Helvetica,sans-Serif" font-size="14.00">charles</text>
</g>
<!-- 39&#45;&gt;43 -->
<g id="edge43" class="edge">
<title>39&#45;&gt;43</title>
<path fill="none" stroke="black" d="M458,-142.63C520.22,-138.71 621.71,-132.32 679.04,-128.71"/>
<polygon fill="black" stroke="black" points="679.45,-132.19 689.21,-128.07 679.01,-125.2 679.45,-132.19"/>
</g>
<!-- 41 -->
<g id="node42" class="node">
<title>41</title>
<path fill="#e58139" stroke="black" d="M738,-252C738,-252 708,-252 708,-252 702,-252 696,-246 696,-240 696,-240 696,-228 696,-228 696,-222 702,-216 708,-216 708,-216 738,-216 738,-216 744,-216 750,-222 750,-228 750,-228 750,-240 750,-240 750,-246 744,-252 738,-252"/>
<text text-anchor="start" x="708.5" y="-230.3" font-family="Helvetica,sans-Serif" font-size="14.00">alex</text>
</g>
<!-- 40&#45;&gt;41 -->
<g id="edge41" class="edge">
<title>40&#45;&gt;41</title>
<path fill="none" stroke="black" d="M564.32,-191.32C600.25,-201.05 651.53,-214.92 685.74,-224.19"/>
<polygon fill="black" stroke="black" points="685.21,-227.67 695.78,-226.9 687.04,-220.91 685.21,-227.67"/>
</g>
<!-- 42 -->
<g id="node43" class="node">
<title>42</title>
<path fill="#5639e5" stroke="black" d="M738,-198C738,-198 708,-198 708,-198 702,-198 696,-192 696,-186 696,-186 696,-174 696,-174 696,-168 702,-162 708,-162 708,-162 738,-162 738,-162 744,-162 750,-168 750,-174 750,-174 750,-186 750,-186 750,-192 744,-198 738,-198"/>
<text text-anchor="start" x="707.5" y="-176.3" font-family="Helvetica,sans-Serif" font-size="14.00">max</text>
</g>
<!-- 40&#45;&gt;42 -->
<g id="edge42" class="edge">
<title>40&#45;&gt;42</title>
<path fill="none" stroke="black" d="M564.32,-180C600.25,-180 651.53,-180 685.74,-180"/>
<polygon fill="black" stroke="black" points="685.78,-183.5 695.78,-180 685.78,-176.5 685.78,-183.5"/>
</g>
<!-- 45 -->
<g id="node46" class="node">
<title>45</title>
<path fill="#39e581" stroke="black" d="M738.5,-90C738.5,-90 707.5,-90 707.5,-90 701.5,-90 695.5,-84 695.5,-78 695.5,-78 695.5,-66 695.5,-66 695.5,-60 701.5,-54 707.5,-54 707.5,-54 738.5,-54 738.5,-54 744.5,-54 750.5,-60 750.5,-66 750.5,-66 750.5,-78 750.5,-78 750.5,-84 744.5,-90 738.5,-90"/>
<text text-anchor="start" x="703.5" y="-68.3" font-family="Helvetica,sans-Serif" font-size="14.00">david</text>
</g>
<!-- 44&#45;&gt;45 -->
<g id="edge45" class="edge">
<title>44&#45;&gt;45</title>
<path fill="none" stroke="black" d="M451.01,-72C514.57,-72 627.29,-72 685.28,-72"/>
<polygon fill="black" stroke="black" points="685.45,-75.5 695.45,-72 685.45,-68.5 685.45,-75.5"/>
</g>
<!-- 46 -->
<g id="node47" class="node">
<title>46</title>
<path fill="#d739e5" stroke="black" d="M738.5,-36C738.5,-36 707.5,-36 707.5,-36 701.5,-36 695.5,-30 695.5,-24 695.5,-24 695.5,-12 695.5,-12 695.5,-6 701.5,0 707.5,0 707.5,0 738.5,0 738.5,0 744.5,0 750.5,-6 750.5,-12 750.5,-12 750.5,-24 750.5,-24 750.5,-30 744.5,-36 738.5,-36"/>
<text text-anchor="start" x="703.5" y="-14.3" font-family="Helvetica,sans-Serif" font-size="14.00">philip</text>
</g>
<!-- 44&#45;&gt;46 -->
<g id="edge46" class="edge">
<title>44&#45;&gt;46</title>
<path fill="none" stroke="black" d="M451.01,-64.09C514.57,-53.28 627.29,-34.11 685.28,-24.25"/>
<polygon fill="black" stroke="black" points="686.17,-27.64 695.45,-22.52 685,-20.74 686.17,-27.64"/>
</g>
</g>
</svg>
