<?xml version="1.0" encoding="UTF-8" standalone="no"?>
<!DOCTYPE svg PUBLIC "-//W3C//DTD SVG 1.1//EN"
 "http://www.w3.org/Graphics/SVG/1.1/DTD/svg11.dtd">
<!-- Generated by graphviz version 2.42.4 (0)
 -->
<!-- Title: Tree Pages: 1 -->
<svg width="790pt" height="1286pt"
 viewBox="0.00 0.00 790.00 1286.00" xmlns="http://www.w3.org/2000/svg" xmlns:xlink="http://www.w3.org/1999/xlink">
<g id="graph0" class="graph" transform="scale(1 1) rotate(0) translate(4 1282)">
<title>Tree</title>
<polygon fill="white" stroke="transparent" points="-4,4 -4,-1282 786,-1282 786,4 -4,4"/>
<!-- 0 -->
<g id="node1" class="node">
<title>0</title>
<path fill="#ffffff" stroke="black" d="M78,-519C78,-519 12,-519 12,-519 6,-519 0,-513 0,-507 0,-507 0,-495 0,-495 0,-489 6,-483 12,-483 12,-483 78,-483 78,-483 84,-483 90,-489 90,-495 90,-495 90,-507 90,-507 90,-513 84,-519 78,-519"/>
<text text-anchor="start" x="8" y="-497.3" font-family="Helvetica,sans-Serif" font-size="14.00">big_mouth</text>
</g>
<!-- 1 -->
<g id="node2" class="node">
<title>1</title>
<path fill="#ffffff" stroke="black" d="M191.5,-669C191.5,-669 161.5,-669 161.5,-669 155.5,-669 149.5,-663 149.5,-657 149.5,-657 149.5,-645 149.5,-645 149.5,-639 155.5,-633 161.5,-633 161.5,-633 191.5,-633 191.5,-633 197.5,-633 203.5,-639 203.5,-645 203.5,-645 203.5,-657 203.5,-657 203.5,-663 197.5,-669 191.5,-669"/>
<text text-anchor="start" x="161" y="-647.3" font-family="Helvetica,sans-Serif" font-size="14.00">bald</text>
</g>
<!-- 0&#45;&gt;1 -->
<g id="edge1" class="edge">
<title>0&#45;&gt;1</title>
<path fill="none" stroke="black" d="M61.62,-519.09C84.47,-545.56 127.12,-594.96 153.24,-625.22"/>
<polygon fill="black" stroke="black" points="150.64,-627.56 159.82,-632.84 155.94,-622.99 150.64,-627.56"/>
<text text-anchor="middle" x="111.5" y="-592.8" font-family="Helvetica,sans-Serif" font-size="14.00">NO</text>
</g>
<!-- 28 -->
<g id="node29" class="node">
<title>28</title>
<path fill="#ffffff" stroke="black" d="M208,-438C208,-438 145,-438 145,-438 139,-438 133,-432 133,-426 133,-426 133,-414 133,-414 133,-408 139,-402 145,-402 145,-402 208,-402 208,-402 214,-402 220,-408 220,-414 220,-414 220,-426 220,-426 220,-432 214,-438 208,-438"/>
<text text-anchor="start" x="141" y="-416.3" font-family="Helvetica,sans-Serif" font-size="14.00">facial_hair</text>
</g>
<!-- 0&#45;&gt;28 -->
<g id="edge28" class="edge">
<title>0&#45;&gt;28</title>
<path fill="none" stroke="black" d="M75.06,-482.82C93.64,-471.2 117.92,-456.02 137.95,-443.49"/>
<polygon fill="black" stroke="black" points="139.91,-446.39 146.53,-438.12 136.2,-440.45 139.91,-446.39"/>
<text text-anchor="middle" x="111.5" y="-470.8" font-family="Helvetica,sans-Serif" font-size="14.00">YES</text>
</g>
<!-- 2 -->
<g id="node3" class="node">
<title>2</title>
<path fill="#ffffff" stroke="black" d="M311.5,-927C311.5,-927 271.5,-927 271.5,-927 265.5,-927 259.5,-921 259.5,-915 259.5,-915 259.5,-903 259.5,-903 259.5,-897 265.5,-891 271.5,-891 271.5,-891 311.5,-891 311.5,-891 317.5,-891 323.5,-897 323.5,-903 323.5,-903 323.5,-915 323.5,-915 323.5,-921 317.5,-927 311.5,-927"/>
<text text-anchor="start" x="267.5" y="-905.3" font-family="Helvetica,sans-Serif" font-size="14.00">female</text>
</g>
<!-- 1&#45;&gt;2 -->
<g id="edge2" class="edge">
<title>1&#45;&gt;2</title>
<path fill="none" stroke="black" d="M185.45,-669.14C204.94,-713.64 255.22,-828.44 278.43,-881.44"/>
<polygon fill="black" stroke="black" points="275.34,-883.12 282.56,-890.88 281.76,-880.31 275.34,-883.12"/>
</g>
<!-- 19 -->
<g id="node20" class="node">
<title>19</title>
<path fill="#ffffff" stroke="black" d="M313.5,-669C313.5,-669 269.5,-669 269.5,-669 263.5,-669 257.5,-663 257.5,-657 257.5,-657 257.5,-645 257.5,-645 257.5,-639 263.5,-633 269.5,-633 269.5,-633 313.5,-633 313.5,-633 319.5,-633 325.5,-639 325.5,-645 325.5,-645 325.5,-657 325.5,-657 325.5,-663 319.5,-669 313.5,-669"/>
<text text-anchor="start" x="265.5" y="-647.3" font-family="Helvetica,sans-Serif" font-size="14.00">glasses</text>
</g>
<!-- 1&#45;&gt;19 -->
<g id="edge19" class="edge">
<title>1&#45;&gt;19</title>
<path fill="none" stroke="black" d="M203.71,-651C216.51,-651 232.26,-651 246.81,-651"/>
<polygon fill="black" stroke="black" points="247.13,-654.5 257.13,-651 247.13,-647.5 247.13,-654.5"/>
</g>
<!-- 3 -->
<g id="node4" class="node">
<title>3</title>
<path fill="#ffffff" stroke="black" d="M431.5,-1089C431.5,-1089 387.5,-1089 387.5,-1089 381.5,-1089 375.5,-1083 375.5,-1077 375.5,-1077 375.5,-1065 375.5,-1065 375.5,-1059 381.5,-1053 387.5,-1053 387.5,-1053 431.5,-1053 431.5,-1053 437.5,-1053 443.5,-1059 443.5,-1065 443.5,-1065 443.5,-1077 443.5,-1077 443.5,-1083 437.5,-1089 431.5,-1089"/>
<text text-anchor="start" x="383.5" y="-1067.3" font-family="Helvetica,sans-Serif" font-size="14.00">glasses</text>
</g>
<!-- 2&#45;&gt;3 -->
<g id="edge3" class="edge">
<title>2&#45;&gt;3</title>
<path fill="none" stroke="black" d="M305.58,-927.27C326.03,-955.83 365.68,-1011.2 389.35,-1044.26"/>
<polygon fill="black" stroke="black" points="386.62,-1046.46 395.29,-1052.55 392.31,-1042.38 386.62,-1046.46"/>
</g>
<!-- 12 -->
<g id="node13" class="node">
<title>12</title>
<path fill="#ffffff" stroke="black" d="M437.5,-927C437.5,-927 381.5,-927 381.5,-927 375.5,-927 369.5,-921 369.5,-915 369.5,-915 369.5,-903 369.5,-903 369.5,-897 375.5,-891 381.5,-891 381.5,-891 437.5,-891 437.5,-891 443.5,-891 449.5,-897 449.5,-903 449.5,-903 449.5,-915 449.5,-915 449.5,-921 443.5,-927 437.5,-927"/>
<text text-anchor="start" x="377.5" y="-905.3" font-family="Helvetica,sans-Serif" font-size="14.00">long_hair</text>
</g>
<!-- 2&#45;&gt;12 -->
<g id="edge12" class="edge">
<title>2&#45;&gt;12</title>
<path fill="none" stroke="black" d="M323.59,-909C334.6,-909 347.27,-909 359.41,-909"/>
<polygon fill="black" stroke="black" points="359.43,-912.5 369.43,-909 359.43,-905.5 359.43,-912.5"/>
</g>
<!-- 4 -->
<g id="node5" class="node">
<title>4</title>
<path fill="#ffffff" stroke="black" d="M556,-1203C556,-1203 485,-1203 485,-1203 479,-1203 473,-1197 473,-1191 473,-1191 473,-1179 473,-1179 473,-1173 479,-1167 485,-1167 485,-1167 556,-1167 556,-1167 562,-1167 568,-1173 568,-1179 568,-1179 568,-1191 568,-1191 568,-1197 562,-1203 556,-1203"/>
<text text-anchor="start" x="481" y="-1181.3" font-family="Helvetica,sans-Serif" font-size="14.00">ginger_hair</text>
</g>
<!-- 3&#45;&gt;4 -->
<g id="edge4" class="edge">
<title>3&#45;&gt;4</title>
<path fill="none" stroke="black" d="M427.77,-1089.06C445.84,-1107.96 474.37,-1137.8 494.82,-1159.18"/>
<polygon fill="black" stroke="black" points="492.51,-1161.83 501.95,-1166.64 497.57,-1157 492.51,-1161.83"/>
</g>
<!-- 9 -->
<g id="node10" class="node">
<title>9</title>
<path fill="#ffffff" stroke="black" d="M552.5,-1089C552.5,-1089 488.5,-1089 488.5,-1089 482.5,-1089 476.5,-1083 476.5,-1077 476.5,-1077 476.5,-1065 476.5,-1065 476.5,-1059 482.5,-1053 488.5,-1053 488.5,-1053 552.5,-1053 552.5,-1053 558.5,-1053 564.5,-1059 564.5,-1065 564.5,-1065 564.5,-1077 564.5,-1077 564.5,-1083 558.5,-1089 552.5,-1089"/>
<text text-anchor="start" x="484.5" y="-1067.3" font-family="Helvetica,sans-Serif" font-size="14.00">white_hair</text>
</g>
<!-- 3&#45;&gt;9 -->
<g id="edge9" class="edge">
<title>3&#45;&gt;9</title>
<path fill="none" stroke="black" d="M443.8,-1071C450.94,-1071 458.65,-1071 466.33,-1071"/>
<polygon fill="black" stroke="black" points="466.35,-1074.5 476.35,-1071 466.35,-1067.5 466.35,-1074.5"/>
</g>
<!-- 5 -->
<g id="node6" class="node">
<title>5</title>
<path fill="#9de539" stroke="black" d="M770,-1278C770,-1278 723,-1278 723,-1278 717,-1278 711,-1272 711,-1266 711,-1266 711,-1254 711,-1254 711,-1248 717,-1242 723,-1242 723,-1242 770,-1242 770,-1242 776,-1242 782,-1248 782,-1254 782,-1254 782,-1266 782,-1266 782,-1272 776,-1278 770,-1278"/>
<text text-anchor="start" x="719" y="-1256.3" font-family="Helvetica,sans-Serif" font-size="14.00">bernard</text>
</g>
<!-- 4&#45;&gt;5 -->
<g id="edge5" class="edge">
<title>4&#45;&gt;5</title>
<path fill="none" stroke="black" d="M563.86,-1203.01C575.5,-1207.96 585,-1212 585,-1212 585,-1212 653.39,-1232.45 700.89,-1246.66"/>
<polygon fill="black" stroke="black" points="700.09,-1250.07 710.67,-1249.58 702.1,-1243.37 700.09,-1250.07"/>
</g>
<!-- 6 -->
<g id="node7" class="node">
<title>6</title>
<path fill="#ffffff" stroke="black" d="M682,-1203C682,-1203 597,-1203 597,-1203 591,-1203 585,-1197 585,-1191 585,-1191 585,-1179 585,-1179 585,-1173 591,-1167 597,-1167 597,-1167 682,-1167 682,-1167 688,-1167 694,-1173 694,-1179 694,-1179 694,-1191 694,-1191 694,-1197 688,-1203 682,-1203"/>
<text text-anchor="start" x="593" y="-1181.3" font-family="Helvetica,sans-Serif" font-size="14.00">hair_partition</text>
</g>
<!-- 4&#45;&gt;6 -->
<g id="edge6" class="edge">
<title>4&#45;&gt;6</title>
<path fill="none" stroke="black" d="M568.08,-1185C570.22,-1185 572.38,-1185 574.55,-1185"/>
<polygon fill="black" stroke="black" points="574.75,-1188.5 584.75,-1185 574.75,-1181.5 574.75,-1188.5"/>
</g>
<!-- 7 -->
<g id="node8" class="node">
<title>7</title>
<path fill="#39e5d7" stroke="black" d="M761.5,-1224C761.5,-1224 731.5,-1224 731.5,-1224 725.5,-1224 719.5,-1218 719.5,-1212 719.5,-1212 719.5,-1200 719.5,-1200 719.5,-1194 725.5,-1188 731.5,-1188 731.5,-1188 761.5,-1188 761.5,-1188 767.5,-1188 773.5,-1194 773.5,-1200 773.5,-1200 773.5,-1212 773.5,-1212 773.5,-1218 767.5,-1224 761.5,-1224"/>
<text text-anchor="start" x="728" y="-1202.3" font-family="Helvetica,sans-Serif" font-size="14.00">frans</text>
</g>
<!-- 6&#45;&gt;7 -->
<g id="edge7" class="edge">
<title>6&#45;&gt;7</title>
<path fill="none" stroke="black" d="M694.23,-1195.75C699.44,-1196.79 704.64,-1197.83 709.61,-1198.82"/>
<polygon fill="black" stroke="black" points="708.96,-1202.26 719.45,-1200.79 710.33,-1195.4 708.96,-1202.26"/>
</g>
<!-- 8 -->
<g id="node9" class="node">
<title>8</title>
<path fill="#e5ac39" stroke="black" d="M762.5,-1170C762.5,-1170 730.5,-1170 730.5,-1170 724.5,-1170 718.5,-1164 718.5,-1158 718.5,-1158 718.5,-1146 718.5,-1146 718.5,-1140 724.5,-1134 730.5,-1134 730.5,-1134 762.5,-1134 762.5,-1134 768.5,-1134 774.5,-1140 774.5,-1146 774.5,-1146 774.5,-1158 774.5,-1158 774.5,-1164 768.5,-1170 762.5,-1170"/>
<text text-anchor="start" x="726.5" y="-1148.3" font-family="Helvetica,sans-Serif" font-size="14.00">alfred</text>
</g>
<!-- 6&#45;&gt;8 -->
<g id="edge8" class="edge">
<title>6&#45;&gt;8</title>
<path fill="none" stroke="black" d="M694.23,-1168.11C699.07,-1166.59 703.9,-1165.07 708.55,-1163.61"/>
<polygon fill="black" stroke="black" points="709.89,-1166.86 718.38,-1160.52 707.79,-1160.18 709.89,-1166.86"/>
</g>
<!-- 10 -->
<g id="node11" class="node">
<title>10</title>
<path fill="#3972e5" stroke="black" d="M761.5,-1116C761.5,-1116 731.5,-1116 731.5,-1116 725.5,-1116 719.5,-1110 719.5,-1104 719.5,-1104 719.5,-1092 719.5,-1092 719.5,-1086 725.5,-1080 731.5,-1080 731.5,-1080 761.5,-1080 761.5,-1080 767.5,-1080 773.5,-1086 773.5,-1092 773.5,-1092 773.5,-1104 773.5,-1104 773.5,-1110 767.5,-1116 761.5,-1116"/>
<text text-anchor="start" x="736" y="-1094.3" font-family="Helvetica,sans-Serif" font-size="14.00">joe</text>
</g>
<!-- 9&#45;&gt;10 -->
<g id="edge10" class="edge">
<title>9&#45;&gt;10</title>
<path fill="none" stroke="black" d="M564.69,-1076.21C606.7,-1081.27 669.81,-1088.88 709.27,-1093.63"/>
<polygon fill="black" stroke="black" points="708.91,-1097.11 719.26,-1094.84 709.75,-1090.17 708.91,-1097.11"/>
</g>
<!-- 11 -->
<g id="node12" class="node">
<title>11</title>
<path fill="#8139e5" stroke="black" d="M761.5,-1062C761.5,-1062 731.5,-1062 731.5,-1062 725.5,-1062 719.5,-1056 719.5,-1050 719.5,-1050 719.5,-1038 719.5,-1038 719.5,-1032 725.5,-1026 731.5,-1026 731.5,-1026 761.5,-1026 761.5,-1026 767.5,-1026 773.5,-1032 773.5,-1038 773.5,-1038 773.5,-1050 773.5,-1050 773.5,-1056 767.5,-1062 761.5,-1062"/>
<text text-anchor="start" x="731" y="-1040.3" font-family="Helvetica,sans-Serif" font-size="14.00">paul</text>
</g>
<!-- 9&#45;&gt;11 -->
<g id="edge11" class="edge">
<title>9&#45;&gt;11</title>
<path fill="none" stroke="black" d="M564.69,-1065.79C606.7,-1060.73 669.81,-1053.12 709.27,-1048.37"/>
<polygon fill="black" stroke="black" points="709.75,-1051.83 719.26,-1047.16 708.91,-1044.89 709.75,-1051.83"/>
</g>
<!-- 13 -->
<g id="node14" class="node">
<title>13</title>
<path fill="#ffffff" stroke="black" d="M535.5,-954C535.5,-954 505.5,-954 505.5,-954 499.5,-954 493.5,-948 493.5,-942 493.5,-942 493.5,-930 493.5,-930 493.5,-924 499.5,-918 505.5,-918 505.5,-918 535.5,-918 535.5,-918 541.5,-918 547.5,-924 547.5,-930 547.5,-930 547.5,-942 547.5,-942 547.5,-948 541.5,-954 535.5,-954"/>
<text text-anchor="start" x="509" y="-932.3" font-family="Helvetica,sans-Serif" font-size="14.00">hat</text>
</g>
<!-- 12&#45;&gt;13 -->
<g id="edge13" class="edge">
<title>12&#45;&gt;13</title>
<path fill="none" stroke="black" d="M449.54,-918.67C460.56,-921.4 472.5,-924.36 483.34,-927.04"/>
<polygon fill="black" stroke="black" points="482.78,-930.51 493.33,-929.52 484.46,-923.72 482.78,-930.51"/>
</g>
<!-- 16 -->
<g id="node17" class="node">
<title>16</title>
<path fill="#ffffff" stroke="black" d="M545.5,-900C545.5,-900 495.5,-900 495.5,-900 489.5,-900 483.5,-894 483.5,-888 483.5,-888 483.5,-876 483.5,-876 483.5,-870 489.5,-864 495.5,-864 495.5,-864 545.5,-864 545.5,-864 551.5,-864 557.5,-870 557.5,-876 557.5,-876 557.5,-888 557.5,-888 557.5,-894 551.5,-900 545.5,-900"/>
<text text-anchor="start" x="491.5" y="-878.3" font-family="Helvetica,sans-Serif" font-size="14.00">earrings</text>
</g>
<!-- 12&#45;&gt;16 -->
<g id="edge16" class="edge">
<title>12&#45;&gt;16</title>
<path fill="none" stroke="black" d="M449.54,-899.33C457.27,-897.41 465.46,-895.39 473.4,-893.42"/>
<polygon fill="black" stroke="black" points="474.41,-896.78 483.27,-890.97 472.72,-889.98 474.41,-896.78"/>
</g>
<!-- 14 -->
<g id="node15" class="node">
<title>14</title>
<path fill="#c8e539" stroke="black" d="M761.5,-1008C761.5,-1008 731.5,-1008 731.5,-1008 725.5,-1008 719.5,-1002 719.5,-996 719.5,-996 719.5,-984 719.5,-984 719.5,-978 725.5,-972 731.5,-972 731.5,-972 761.5,-972 761.5,-972 767.5,-972 773.5,-978 773.5,-984 773.5,-984 773.5,-996 773.5,-996 773.5,-1002 767.5,-1008 761.5,-1008"/>
<text text-anchor="start" x="729" y="-986.3" font-family="Helvetica,sans-Serif" font-size="14.00">anne</text>
</g>
<!-- 13&#45;&gt;14 -->
<g id="edge14" class="edge">
<title>13&#45;&gt;14</title>
<path fill="none" stroke="black" d="M547.79,-942.75C561.73,-946.33 576,-950 576,-950 576,-950 659.88,-969.8 709.63,-981.54"/>
<polygon fill="black" stroke="black" points="708.85,-984.95 719.39,-983.84 710.46,-978.13 708.85,-984.95"/>
</g>
<!-- 15 -->
<g id="node16" class="node">
<title>15</title>
<path fill="#39e556" stroke="black" d="M761.5,-954C761.5,-954 731.5,-954 731.5,-954 725.5,-954 719.5,-948 719.5,-942 719.5,-942 719.5,-930 719.5,-930 719.5,-924 725.5,-918 731.5,-918 731.5,-918 761.5,-918 761.5,-918 767.5,-918 773.5,-924 773.5,-930 773.5,-930 773.5,-942 773.5,-942 773.5,-948 767.5,-954 761.5,-954"/>
<text text-anchor="start" x="728" y="-932.3" font-family="Helvetica,sans-Serif" font-size="14.00">claire</text>
</g>
<!-- 13&#45;&gt;15 -->
<g id="edge15" class="edge">
<title>13&#45;&gt;15</title>
<path fill="none" stroke="black" d="M547.63,-936C587.49,-936 663.59,-936 708.91,-936"/>
<polygon fill="black" stroke="black" points="709.19,-939.5 719.19,-936 709.19,-932.5 709.19,-939.5"/>
</g>
<!-- 17 -->
<g id="node18" class="node">
<title>17</title>
<path fill="#e5d739" stroke="black" d="M761.5,-900C761.5,-900 731.5,-900 731.5,-900 725.5,-900 719.5,-894 719.5,-888 719.5,-888 719.5,-876 719.5,-876 719.5,-870 725.5,-864 731.5,-864 731.5,-864 761.5,-864 761.5,-864 767.5,-864 773.5,-870 773.5,-876 773.5,-876 773.5,-888 773.5,-888 773.5,-894 767.5,-900 761.5,-900"/>
<text text-anchor="start" x="729" y="-878.3" font-family="Helvetica,sans-Serif" font-size="14.00">anita</text>
</g>
<!-- 16&#45;&gt;17 -->
<g id="edge17" class="edge">
<title>16&#45;&gt;17</title>
<path fill="none" stroke="black" d="M557.99,-882C599.61,-882 667.29,-882 708.94,-882"/>
<polygon fill="black" stroke="black" points="709.19,-885.5 719.19,-882 709.19,-878.5 709.19,-885.5"/>
</g>
<!-- 18 -->
<g id="node19" class="node">
<title>18</title>
<path fill="#3947e5" stroke="black" d="M762.5,-846C762.5,-846 730.5,-846 730.5,-846 724.5,-846 718.5,-840 718.5,-834 718.5,-834 718.5,-822 718.5,-822 718.5,-816 724.5,-810 730.5,-810 730.5,-810 762.5,-810 762.5,-810 768.5,-810 774.5,-816 774.5,-822 774.5,-822 774.5,-834 774.5,-834 774.5,-840 768.5,-846 762.5,-846"/>
<text text-anchor="start" x="726.5" y="-824.3" font-family="Helvetica,sans-Serif" font-size="14.00">maria</text>
</g>
<!-- 16&#45;&gt;18 -->
<g id="edge18" class="edge">
<title>16&#45;&gt;18</title>
<path fill="none" stroke="black" d="M557.99,-873.2C599.45,-863.21 666.75,-846.99 708.44,-836.93"/>
<polygon fill="black" stroke="black" points="709.3,-840.33 718.2,-834.58 707.66,-833.52 709.3,-840.33"/>
</g>
<!-- 20 -->
<g id="node21" class="node">
<title>20</title>
<path fill="#ffffff" stroke="black" d="M441,-711C441,-711 378,-711 378,-711 372,-711 366,-705 366,-699 366,-699 366,-687 366,-687 366,-681 372,-675 378,-675 378,-675 441,-675 441,-675 447,-675 453,-681 453,-687 453,-687 453,-699 453,-699 453,-705 447,-711 441,-711"/>
<text text-anchor="start" x="374" y="-689.3" font-family="Helvetica,sans-Serif" font-size="14.00">facial_hair</text>
</g>
<!-- 19&#45;&gt;20 -->
<g id="edge20" class="edge">
<title>19&#45;&gt;20</title>
<path fill="none" stroke="black" d="M325.74,-663.04C335.27,-666.49 345.91,-670.34 356.29,-674.1"/>
<polygon fill="black" stroke="black" points="355.12,-677.4 365.72,-677.51 357.51,-670.81 355.12,-677.4"/>
</g>
<!-- 25 -->
<g id="node26" class="node">
<title>25</title>
<path fill="#ffffff" stroke="black" d="M440.5,-630C440.5,-630 378.5,-630 378.5,-630 372.5,-630 366.5,-624 366.5,-618 366.5,-618 366.5,-606 366.5,-606 366.5,-600 372.5,-594 378.5,-594 378.5,-594 440.5,-594 440.5,-594 446.5,-594 452.5,-600 452.5,-606 452.5,-606 452.5,-618 452.5,-618 452.5,-624 446.5,-630 440.5,-630"/>
<text text-anchor="start" x="374.5" y="-608.3" font-family="Helvetica,sans-Serif" font-size="14.00">blue_eyes</text>
</g>
<!-- 19&#45;&gt;25 -->
<g id="edge25" class="edge">
<title>19&#45;&gt;25</title>
<path fill="none" stroke="black" d="M325.74,-639.82C335.38,-636.58 346.14,-632.97 356.63,-629.44"/>
<polygon fill="black" stroke="black" points="357.78,-632.75 366.14,-626.24 355.55,-626.11 357.78,-632.75"/>
</g>
<!-- 21 -->
<g id="node22" class="node">
<title>21</title>
<path fill="#399de5" stroke="black" d="M769.5,-792C769.5,-792 723.5,-792 723.5,-792 717.5,-792 711.5,-786 711.5,-780 711.5,-780 711.5,-768 711.5,-768 711.5,-762 717.5,-756 723.5,-756 723.5,-756 769.5,-756 769.5,-756 775.5,-756 781.5,-762 781.5,-768 781.5,-768 781.5,-780 781.5,-780 781.5,-786 775.5,-792 769.5,-792"/>
<text text-anchor="start" x="719.5" y="-770.3" font-family="Helvetica,sans-Serif" font-size="14.00">herman</text>
</g>
<!-- 20&#45;&gt;21 -->
<g id="edge21" class="edge">
<title>20&#45;&gt;21</title>
<path fill="none" stroke="black" d="M452.19,-711.01C463.65,-715.96 473,-720 473,-720 473,-720 624.19,-749.96 701.34,-765.25"/>
<polygon fill="black" stroke="black" points="700.77,-768.7 711.26,-767.22 702.13,-761.84 700.77,-768.7"/>
</g>
<!-- 22 -->
<g id="node23" class="node">
<title>22</title>
<path fill="#ffffff" stroke="black" d="M555,-711C555,-711 486,-711 486,-711 480,-711 474,-705 474,-699 474,-699 474,-687 474,-687 474,-681 480,-675 486,-675 486,-675 555,-675 555,-675 561,-675 567,-681 567,-687 567,-687 567,-699 567,-699 567,-705 561,-711 555,-711"/>
<text text-anchor="start" x="482" y="-689.3" font-family="Helvetica,sans-Serif" font-size="14.00">moustache</text>
</g>
<!-- 20&#45;&gt;22 -->
<g id="edge22" class="edge">
<title>20&#45;&gt;22</title>
<path fill="none" stroke="black" d="M453.27,-693C456.77,-693 460.35,-693 463.93,-693"/>
<polygon fill="black" stroke="black" points="463.98,-696.5 473.98,-693 463.98,-689.5 463.98,-696.5"/>
</g>
<!-- 23 -->
<g id="node24" class="node">
<title>23</title>
<path fill="#72e539" stroke="black" d="M761.5,-738C761.5,-738 731.5,-738 731.5,-738 725.5,-738 719.5,-732 719.5,-726 719.5,-726 719.5,-714 719.5,-714 719.5,-708 725.5,-702 731.5,-702 731.5,-702 761.5,-702 761.5,-702 767.5,-702 773.5,-708 773.5,-714 773.5,-714 773.5,-726 773.5,-726 773.5,-732 767.5,-738 761.5,-738"/>
<text text-anchor="start" x="736" y="-716.3" font-family="Helvetica,sans-Serif" font-size="14.00">bill</text>
</g>
<!-- 22&#45;&gt;23 -->
<g id="edge23" class="edge">
<title>22&#45;&gt;23</title>
<path fill="none" stroke="black" d="M567.1,-698.5C608.96,-703.54 670.19,-710.92 708.92,-715.59"/>
<polygon fill="black" stroke="black" points="708.87,-719.11 719.22,-716.83 709.71,-712.16 708.87,-719.11"/>
</g>
<!-- 24 -->
<g id="node25" class="node">
<title>24</title>
<path fill="#e539c8" stroke="black" d="M767,-684C767,-684 726,-684 726,-684 720,-684 714,-678 714,-672 714,-672 714,-660 714,-660 714,-654 720,-648 726,-648 726,-648 767,-648 767,-648 773,-648 779,-654 779,-660 779,-660 779,-672 779,-672 779,-678 773,-684 767,-684"/>
<text text-anchor="start" x="722" y="-662.3" font-family="Helvetica,sans-Serif" font-size="14.00">richard</text>
</g>
<!-- 22&#45;&gt;24 -->
<g id="edge24" class="edge">
<title>22&#45;&gt;24</title>
<path fill="none" stroke="black" d="M567.1,-687.5C607.14,-682.68 664.91,-675.71 703.75,-671.03"/>
<polygon fill="black" stroke="black" points="704.18,-674.51 713.69,-669.83 703.34,-667.56 704.18,-674.51"/>
</g>
<!-- 26 -->
<g id="node27" class="node">
<title>26</title>
<path fill="#e53972" stroke="black" d="M761.5,-630C761.5,-630 731.5,-630 731.5,-630 725.5,-630 719.5,-624 719.5,-618 719.5,-618 719.5,-606 719.5,-606 719.5,-600 725.5,-594 731.5,-594 731.5,-594 761.5,-594 761.5,-594 767.5,-594 773.5,-600 773.5,-606 773.5,-606 773.5,-618 773.5,-618 773.5,-624 767.5,-630 761.5,-630"/>
<text text-anchor="start" x="731.5" y="-608.3" font-family="Helvetica,sans-Serif" font-size="14.00">sam</text>
</g>
<!-- 25&#45;&gt;26 -->
<g id="edge26" class="edge">
<title>25&#45;&gt;26</title>
<path fill="none" stroke="black" d="M452.59,-612C518.87,-612 646.46,-612 709.05,-612"/>
<polygon fill="black" stroke="black" points="709.24,-615.5 719.24,-612 709.24,-608.5 709.24,-615.5"/>
</g>
<!-- 27 -->
<g id="node28" class="node">
<title>27</title>
<path fill="#e55639" stroke="black" d="M761.5,-576C761.5,-576 731.5,-576 731.5,-576 725.5,-576 719.5,-570 719.5,-564 719.5,-564 719.5,-552 719.5,-552 719.5,-546 725.5,-540 731.5,-540 731.5,-540 761.5,-540 761.5,-540 767.5,-540 773.5,-546 773.5,-552 773.5,-552 773.5,-564 773.5,-564 773.5,-570 767.5,-576 761.5,-576"/>
<text text-anchor="start" x="732.5" y="-554.3" font-family="Helvetica,sans-Serif" font-size="14.00">tom</text>
</g>
<!-- 25&#45;&gt;27 -->
<g id="edge27" class="edge">
<title>25&#45;&gt;27</title>
<path fill="none" stroke="black" d="M452.59,-605.22C518.87,-594.53 646.46,-573.97 709.05,-563.87"/>
<polygon fill="black" stroke="black" points="709.93,-567.28 719.24,-562.23 708.81,-560.37 709.93,-567.28"/>
</g>
<!-- 29 -->
<g id="node30" class="node">
<title>29</title>
<path fill="#ffffff" stroke="black" d="M334,-438C334,-438 249,-438 249,-438 243,-438 237,-432 237,-426 237,-426 237,-414 237,-414 237,-408 243,-402 249,-402 249,-402 334,-402 334,-402 340,-402 346,-408 346,-414 346,-414 346,-426 346,-426 346,-432 340,-438 334,-438"/>
<text text-anchor="start" x="245" y="-416.3" font-family="Helvetica,sans-Serif" font-size="14.00">hair_partition</text>
</g>
<!-- 28&#45;&gt;29 -->
<g id="edge29" class="edge">
<title>28&#45;&gt;29</title>
<path fill="none" stroke="black" d="M220.22,-420C222.32,-420 224.45,-420 226.59,-420"/>
<polygon fill="black" stroke="black" points="226.67,-423.5 236.67,-420 226.67,-416.5 226.67,-423.5"/>
</g>
<!-- 38 -->
<g id="node39" class="node">
<title>38</title>
<path fill="#ffffff" stroke="black" d="M326,-231C326,-231 257,-231 257,-231 251,-231 245,-225 245,-219 245,-219 245,-207 245,-207 245,-201 251,-195 257,-195 257,-195 326,-195 326,-195 332,-195 338,-201 338,-207 338,-207 338,-219 338,-219 338,-225 332,-231 326,-231"/>
<text text-anchor="start" x="253" y="-209.3" font-family="Helvetica,sans-Serif" font-size="14.00">moustache</text>
</g>
<!-- 28&#45;&gt;38 -->
<g id="edge38" class="edge">
<title>28&#45;&gt;38</title>
<path fill="none" stroke="black" d="M187.33,-401.99C207.2,-365.6 252.23,-283.1 275.68,-240.14"/>
<polygon fill="black" stroke="black" points="278.89,-241.57 280.61,-231.11 272.75,-238.21 278.89,-241.57"/>
</g>
<!-- 30 -->
<g id="node31" class="node">
<title>30</title>
<path fill="#ffffff" stroke="black" d="M441.5,-468C441.5,-468 377.5,-468 377.5,-468 371.5,-468 365.5,-462 365.5,-456 365.5,-456 365.5,-444 365.5,-444 365.5,-438 371.5,-432 377.5,-432 377.5,-432 441.5,-432 441.5,-432 447.5,-432 453.5,-438 453.5,-444 453.5,-444 453.5,-456 453.5,-456 453.5,-462 447.5,-468 441.5,-468"/>
<text text-anchor="start" x="373.5" y="-446.3" font-family="Helvetica,sans-Serif" font-size="14.00">white_hair</text>
</g>
<!-- 29&#45;&gt;30 -->
<g id="edge30" class="edge">
<title>29&#45;&gt;30</title>
<path fill="none" stroke="black" d="M346.09,-433.86C349.19,-434.66 352.31,-435.47 355.42,-436.27"/>
<polygon fill="black" stroke="black" points="354.66,-439.69 365.22,-438.81 356.42,-432.91 354.66,-439.69"/>
</g>
<!-- 33 -->
<g id="node34" class="node">
<title>33</title>
<path fill="#ffffff" stroke="black" d="M444,-387C444,-387 375,-387 375,-387 369,-387 363,-381 363,-375 363,-375 363,-363 363,-363 363,-357 369,-351 375,-351 375,-351 444,-351 444,-351 450,-351 456,-357 456,-363 456,-363 456,-375 456,-375 456,-381 450,-387 444,-387"/>
<text text-anchor="start" x="371" y="-365.3" font-family="Helvetica,sans-Serif" font-size="14.00">brown_hair</text>
</g>
<!-- 29&#45;&gt;33 -->
<g id="edge33" class="edge">
<title>29&#45;&gt;33</title>
<path fill="none" stroke="black" d="M333.72,-401.88C341.59,-398.42 349.9,-394.76 358.01,-391.2"/>
<polygon fill="black" stroke="black" points="359.66,-394.29 367.41,-387.07 356.85,-387.89 359.66,-394.29"/>
</g>
<!-- 31 -->
<g id="node32" class="node">
<title>31</title>
<path fill="#39e5ac" stroke="black" d="M761.5,-522C761.5,-522 731.5,-522 731.5,-522 725.5,-522 719.5,-516 719.5,-510 719.5,-510 719.5,-498 719.5,-498 719.5,-492 725.5,-486 731.5,-486 731.5,-486 761.5,-486 761.5,-486 767.5,-486 773.5,-492 773.5,-498 773.5,-498 773.5,-510 773.5,-510 773.5,-516 767.5,-522 761.5,-522"/>
<text text-anchor="start" x="733.5" y="-500.3" font-family="Helvetica,sans-Serif" font-size="14.00">eric</text>
</g>
<!-- 30&#45;&gt;31 -->
<g id="edge31" class="edge">
<title>30&#45;&gt;31</title>
<path fill="none" stroke="black" d="M453.68,-461.3C459.77,-462.89 464,-464 464,-464 464,-464 633.11,-488.03 709.18,-498.84"/>
<polygon fill="black" stroke="black" points="708.88,-502.33 719.27,-500.27 709.86,-495.4 708.88,-502.33"/>
</g>
<!-- 32 -->
<g id="node33" class="node">
<title>32</title>
<path fill="#39c8e5" stroke="black" d="M767,-468C767,-468 726,-468 726,-468 720,-468 714,-462 714,-456 714,-456 714,-444 714,-444 714,-438 720,-432 726,-432 726,-432 767,-432 767,-432 773,-432 779,-438 779,-444 779,-444 779,-456 779,-456 779,-462 773,-468 767,-468"/>
<text text-anchor="start" x="722" y="-446.3" font-family="Helvetica,sans-Serif" font-size="14.00">george</text>
</g>
<!-- 30&#45;&gt;32 -->
<g id="edge32" class="edge">
<title>30&#45;&gt;32</title>
<path fill="none" stroke="black" d="M453.61,-450C518.22,-450 639.42,-450 703.42,-450"/>
<polygon fill="black" stroke="black" points="703.56,-453.5 713.56,-450 703.56,-446.5 703.56,-453.5"/>
</g>
<!-- 34 -->
<g id="node35" class="node">
<title>34</title>
<path fill="#ffffff" stroke="black" d="M551.5,-387C551.5,-387 489.5,-387 489.5,-387 483.5,-387 477.5,-381 477.5,-375 477.5,-375 477.5,-363 477.5,-363 477.5,-357 483.5,-351 489.5,-351 489.5,-351 551.5,-351 551.5,-351 557.5,-351 563.5,-357 563.5,-363 563.5,-363 563.5,-375 563.5,-375 563.5,-381 557.5,-387 551.5,-387"/>
<text text-anchor="start" x="485.5" y="-365.3" font-family="Helvetica,sans-Serif" font-size="14.00">blue_eyes</text>
</g>
<!-- 33&#45;&gt;34 -->
<g id="edge34" class="edge">
<title>33&#45;&gt;34</title>
<path fill="none" stroke="black" d="M456.09,-369C459.7,-369 463.37,-369 467.02,-369"/>
<polygon fill="black" stroke="black" points="467.22,-372.5 477.22,-369 467.22,-365.5 467.22,-372.5"/>
</g>
<!-- 37 -->
<g id="node38" class="node">
<title>37</title>
<path fill="#e5399d" stroke="black" d="M764,-306C764,-306 729,-306 729,-306 723,-306 717,-300 717,-294 717,-294 717,-282 717,-282 717,-276 723,-270 729,-270 729,-270 764,-270 764,-270 770,-270 776,-276 776,-282 776,-282 776,-294 776,-294 776,-300 770,-306 764,-306"/>
<text text-anchor="start" x="725" y="-284.3" font-family="Helvetica,sans-Serif" font-size="14.00">robert</text>
</g>
<!-- 33&#45;&gt;37 -->
<g id="edge37" class="edge">
<title>33&#45;&gt;37</title>
<path fill="none" stroke="black" d="M452.19,-350.99C463.65,-346.04 473,-342 473,-342 473,-342 631.62,-310.57 706.82,-295.67"/>
<polygon fill="black" stroke="black" points="707.72,-299.05 716.85,-293.68 706.36,-292.19 707.72,-299.05"/>
</g>
<!-- 35 -->
<g id="node36" class="node">
<title>35</title>
<path fill="#e53947" stroke="black" d="M763.5,-414C763.5,-414 729.5,-414 729.5,-414 723.5,-414 717.5,-408 717.5,-402 717.5,-402 717.5,-390 717.5,-390 717.5,-384 723.5,-378 729.5,-378 729.5,-378 763.5,-378 763.5,-378 769.5,-378 775.5,-384 775.5,-390 775.5,-390 775.5,-402 775.5,-402 775.5,-408 769.5,-414 763.5,-414"/>
<text text-anchor="start" x="725.5" y="-392.3" font-family="Helvetica,sans-Serif" font-size="14.00">susan</text>
</g>
<!-- 34&#45;&gt;35 -->
<g id="edge35" class="edge">
<title>34&#45;&gt;35</title>
<path fill="none" stroke="black" d="M563.63,-374.08C604.93,-379.06 667.34,-386.58 707.25,-391.39"/>
<polygon fill="black" stroke="black" points="707.03,-394.89 717.38,-392.61 707.87,-387.94 707.03,-394.89"/>
</g>
<!-- 36 -->
<g id="node37" class="node">
<title>36</title>
<path fill="#ac39e5" stroke="black" d="M761.5,-360C761.5,-360 731.5,-360 731.5,-360 725.5,-360 719.5,-354 719.5,-348 719.5,-348 719.5,-336 719.5,-336 719.5,-330 725.5,-324 731.5,-324 731.5,-324 761.5,-324 761.5,-324 767.5,-324 773.5,-330 773.5,-336 773.5,-336 773.5,-348 773.5,-348 773.5,-354 767.5,-360 761.5,-360"/>
<text text-anchor="start" x="728" y="-338.3" font-family="Helvetica,sans-Serif" font-size="14.00">peter</text>
</g>
<!-- 34&#45;&gt;36 -->
<g id="edge36" class="edge">
<title>34&#45;&gt;36</title>
<path fill="none" stroke="black" d="M563.63,-363.92C605.63,-358.86 669.45,-351.17 709.25,-346.37"/>
<polygon fill="black" stroke="black" points="709.8,-349.83 719.31,-345.16 708.97,-342.88 709.8,-349.83"/>
</g>
<!-- 39 -->
<g id="node40" class="node">
<title>39</title>
<path fill="#ffffff" stroke="black" d="M442,-231C442,-231 377,-231 377,-231 371,-231 365,-225 365,-219 365,-219 365,-207 365,-207 365,-201 371,-195 377,-195 377,-195 442,-195 442,-195 448,-195 454,-201 454,-207 454,-207 454,-219 454,-219 454,-225 448,-231 442,-231"/>
<text text-anchor="start" x="373" y="-209.3" font-family="Helvetica,sans-Serif" font-size="14.00">blond_hair</text>
</g>
<!-- 38&#45;&gt;39 -->
<g id="edge39" class="edge">
<title>38&#45;&gt;39</title>
<path fill="none" stroke="black" d="M338.01,-213C343.35,-213 348.84,-213 354.28,-213"/>
<polygon fill="black" stroke="black" points="354.64,-216.5 364.64,-213 354.64,-209.5 354.64,-216.5"/>
</g>
<!-- 42 -->
<g id="node43" class="node">
<title>42</title>
<path fill="#ffffff" stroke="black" d="M442,-117C442,-117 377,-117 377,-117 371,-117 365,-111 365,-105 365,-105 365,-93 365,-93 365,-87 371,-81 377,-81 377,-81 442,-81 442,-81 448,-81 454,-87 454,-93 454,-93 454,-105 454,-105 454,-111 448,-117 442,-117"/>
<text text-anchor="start" x="373" y="-95.3" font-family="Helvetica,sans-Serif" font-size="14.00">blond_hair</text>
</g>
<!-- 38&#45;&gt;42 -->
<g id="edge42" class="edge">
<title>38&#45;&gt;42</title>
<path fill="none" stroke="black" d="M310.88,-194.94C330.2,-175.95 360.74,-145.94 382.52,-124.53"/>
<polygon fill="black" stroke="black" points="385.14,-126.86 389.82,-117.36 380.24,-121.87 385.14,-126.86"/>
</g>
<!-- 40 -->
<g id="node41" class="node">
<title>40</title>
<path fill="#d739e5" stroke="black" d="M762,-252C762,-252 731,-252 731,-252 725,-252 719,-246 719,-240 719,-240 719,-228 719,-228 719,-222 725,-216 731,-216 731,-216 762,-216 762,-216 768,-216 774,-222 774,-228 774,-228 774,-240 774,-240 774,-246 768,-252 762,-252"/>
<text text-anchor="start" x="727" y="-230.3" font-family="Helvetica,sans-Serif" font-size="14.00">philip</text>
</g>
<!-- 39&#45;&gt;40 -->
<g id="edge40" class="edge">
<title>39&#45;&gt;40</title>
<path fill="none" stroke="black" d="M454.3,-215.75C520.85,-219.92 646.3,-227.78 708.54,-231.68"/>
<polygon fill="black" stroke="black" points="708.48,-235.19 718.68,-232.32 708.92,-228.2 708.48,-235.19"/>
</g>
<!-- 41 -->
<g id="node42" class="node">
<title>41</title>
<path fill="#39e581" stroke="black" d="M762,-198C762,-198 731,-198 731,-198 725,-198 719,-192 719,-186 719,-186 719,-174 719,-174 719,-168 725,-162 731,-162 731,-162 762,-162 762,-162 768,-162 774,-168 774,-174 774,-174 774,-186 774,-186 774,-192 768,-198 762,-198"/>
<text text-anchor="start" x="727" y="-176.3" font-family="Helvetica,sans-Serif" font-size="14.00">david</text>
</g>
<!-- 39&#45;&gt;41 -->
<g id="edge41" class="edge">
<title>39&#45;&gt;41</title>
<path fill="none" stroke="black" d="M454.3,-208.69C520.85,-202.13 646.3,-189.77 708.54,-183.64"/>
<polygon fill="black" stroke="black" points="709.07,-187.11 718.68,-182.64 708.39,-180.14 709.07,-187.11"/>
</g>
<!-- 43 -->
<g id="node44" class="node">
<title>43</title>
<path fill="#ffffff" stroke="black" d="M547.5,-117C547.5,-117 493.5,-117 493.5,-117 487.5,-117 481.5,-111 481.5,-105 481.5,-105 481.5,-93 481.5,-93 481.5,-87 487.5,-81 493.5,-81 493.5,-81 547.5,-81 547.5,-81 553.5,-81 559.5,-87 559.5,-93 559.5,-93 559.5,-105 559.5,-105 559.5,-111 553.5,-117 547.5,-117"/>
<text text-anchor="start" x="489.5" y="-95.3" font-family="Helvetica,sans-Serif" font-size="14.00">big_nose</text>
</g>
<!-- 42&#45;&gt;43 -->
<g id="edge43" class="edge">
<title>42&#45;&gt;43</title>
<path fill="none" stroke="black" d="M454.21,-99C459.83,-99 465.62,-99 471.31,-99"/>
<polygon fill="black" stroke="black" points="471.41,-102.5 481.41,-99 471.41,-95.5 471.41,-102.5"/>
</g>
<!-- 46 -->
<g id="node47" class="node">
<title>46</title>
<path fill="#47e539" stroke="black" d="M768,-36C768,-36 725,-36 725,-36 719,-36 713,-30 713,-24 713,-24 713,-12 713,-12 713,-6 719,0 725,0 725,0 768,0 768,0 774,0 780,-6 780,-12 780,-12 780,-24 780,-24 780,-30 774,-36 768,-36"/>
<text text-anchor="start" x="721" y="-14.3" font-family="Helvetica,sans-Serif" font-size="14.00">charles</text>
</g>
<!-- 42&#45;&gt;46 -->
<g id="edge46" class="edge">
<title>42&#45;&gt;46</title>
<path fill="none" stroke="black" d="M452.19,-80.99C463.65,-76.04 473,-72 473,-72 473,-72 626.48,-41.59 703.07,-26.41"/>
<polygon fill="black" stroke="black" points="703.77,-29.84 712.9,-24.46 702.41,-22.97 703.77,-29.84"/>
</g>
<!-- 44 -->
<g id="node45" class="node">
<title>44</title>
<path fill="#e58139" stroke="black" d="M761.5,-144C761.5,-144 731.5,-144 731.5,-144 725.5,-144 719.5,-138 719.5,-132 719.5,-132 719.5,-120 719.5,-120 719.5,-114 725.5,-108 731.5,-108 731.5,-108 761.5,-108 761.5,-108 767.5,-108 773.5,-114 773.5,-120 773.5,-120 773.5,-132 773.5,-132 773.5,-138 767.5,-144 761.5,-144"/>
<text text-anchor="start" x="732" y="-122.3" font-family="Helvetica,sans-Serif" font-size="14.00">alex</text>
</g>
<!-- 43&#45;&gt;44 -->
<g id="edge44" class="edge">
<title>43&#45;&gt;44</title>
<path fill="none" stroke="black" d="M559.75,-103.61C601.59,-108.65 668.16,-116.68 709.21,-121.63"/>
<polygon fill="black" stroke="black" points="708.97,-125.12 719.31,-122.84 709.8,-118.17 708.97,-125.12"/>
</g>
<!-- 45 -->
<g id="node46" class="node">
<title>45</title>
<path fill="#5639e5" stroke="black" d="M761.5,-90C761.5,-90 731.5,-90 731.5,-90 725.5,-90 719.5,-84 719.5,-78 719.5,-78 719.5,-66 719.5,-66 719.5,-60 725.5,-54 731.5,-54 731.5,-54 761.5,-54 761.5,-54 767.5,-54 773.5,-60 773.5,-66 773.5,-66 773.5,-78 773.5,-78 773.5,-84 767.5,-90 761.5,-90"/>
<text text-anchor="start" x="731" y="-68.3" font-family="Helvetica,sans-Serif" font-size="14.00">max</text>
</g>
<!-- 43&#45;&gt;45 -->
<g id="edge45" class="edge">
<title>43&#45;&gt;45</title>
<path fill="none" stroke="black" d="M559.75,-94.39C601.59,-89.35 668.16,-81.32 709.21,-76.37"/>
<polygon fill="black" stroke="black" points="709.8,-79.83 719.31,-75.16 708.97,-72.88 709.8,-79.83"/>
</g>
</g>
</svg>
