<?xml version="1.0" encoding="UTF-8" standalone="no"?>
<!DOCTYPE svg PUBLIC "-//W3C//DTD SVG 1.1//EN"
 "http://www.w3.org/Graphics/SVG/1.1/DTD/svg11.dtd">
<!-- Generated by graphviz version 2.50.0 (0)
 -->
<!-- Title: Tree Pages: 1 -->
<svg width="786pt" height="1286pt"
 viewBox="0.00 0.00 786.00 1286.00" xmlns="http://www.w3.org/2000/svg" xmlns:xlink="http://www.w3.org/1999/xlink">
<g id="graph0" class="graph" transform="scale(1 1) rotate(0) translate(4 1282)">
<title>Tree</title>
<polygon fill="white" stroke="transparent" points="-4,4 -4,-1282 782,-1282 782,4 -4,4"/>
<!-- 0 -->
<g id="node1" class="node">
<title>0</title>
<path fill="#ffffff" stroke="black" d="M78,-523C78,-523 12,-523 12,-523 6,-523 0,-517 0,-511 0,-511 0,-499 0,-499 0,-493 6,-487 12,-487 12,-487 78,-487 78,-487 84,-487 90,-493 90,-499 90,-499 90,-511 90,-511 90,-517 84,-523 78,-523"/>
<text text-anchor="start" x="8" y="-501.3" font-family="Helvetica,sans-Serif" font-size="14.00">big_mouth</text>
</g>
<!-- 1 -->
<g id="node2" class="node">
<title>1</title>
<path fill="#ffffff" stroke="black" d="M202.5,-656C202.5,-656 172.5,-656 172.5,-656 166.5,-656 160.5,-650 160.5,-644 160.5,-644 160.5,-632 160.5,-632 160.5,-626 166.5,-620 172.5,-620 172.5,-620 202.5,-620 202.5,-620 208.5,-620 214.5,-626 214.5,-632 214.5,-632 214.5,-644 214.5,-644 214.5,-650 208.5,-656 202.5,-656"/>
<text text-anchor="start" x="172" y="-634.3" font-family="Helvetica,sans-Serif" font-size="14.00">bald</text>
</g>
<!-- 0&#45;&gt;1 -->
<g id="edge1" class="edge">
<title>0&#45;&gt;1</title>
<path fill="none" stroke="black" d="M65.24,-523.21C89.7,-546.36 132.05,-586.45 159.67,-612.6"/>
<polygon fill="black" stroke="black" points="157.37,-615.25 167.04,-619.58 162.18,-610.16 157.37,-615.25"/>
<text text-anchor="middle" x="111.5" y="-582.8" font-family="Helvetica,sans-Serif" font-size="14.00">NO</text>
</g>
<!-- 28 -->
<g id="node29" class="node">
<title>28</title>
<path fill="#ffffff" stroke="black" d="M230,-442C230,-442 145,-442 145,-442 139,-442 133,-436 133,-430 133,-430 133,-418 133,-418 133,-412 139,-406 145,-406 145,-406 230,-406 230,-406 236,-406 242,-412 242,-418 242,-418 242,-430 242,-430 242,-436 236,-442 230,-442"/>
<text text-anchor="start" x="141" y="-420.3" font-family="Helvetica,sans-Serif" font-size="14.00">hair_partition</text>
</g>
<!-- 0&#45;&gt;28 -->
<g id="edge28" class="edge">
<title>0&#45;&gt;28</title>
<path fill="none" stroke="black" d="M77.53,-486.82C97.87,-475.1 124.5,-459.74 146.35,-447.15"/>
<polygon fill="black" stroke="black" points="148.16,-450.14 155.07,-442.12 144.66,-444.08 148.16,-450.14"/>
<text text-anchor="middle" x="111.5" y="-477.8" font-family="Helvetica,sans-Serif" font-size="14.00">YES</text>
</g>
<!-- 2 -->
<g id="node3" class="node">
<title>2</title>
<path fill="#ffffff" stroke="black" d="M323,-927C323,-927 283,-927 283,-927 277,-927 271,-921 271,-915 271,-915 271,-903 271,-903 271,-897 277,-891 283,-891 283,-891 323,-891 323,-891 329,-891 335,-897 335,-903 335,-903 335,-915 335,-915 335,-921 329,-927 323,-927"/>
<text text-anchor="start" x="279" y="-905.3" font-family="Helvetica,sans-Serif" font-size="14.00">female</text>
</g>
<!-- 1&#45;&gt;2 -->
<g id="edge2" class="edge">
<title>1&#45;&gt;2</title>
<path fill="none" stroke="black" d="M196.12,-656.2C215.59,-702.68 267.22,-825.96 290.42,-881.36"/>
<polygon fill="black" stroke="black" points="287.32,-883.01 294.41,-890.88 293.78,-880.3 287.32,-883.01"/>
</g>
<!-- 19 -->
<g id="node20" class="node">
<title>19</title>
<path fill="#ffffff" stroke="black" d="M319.5,-656C319.5,-656 286.5,-656 286.5,-656 280.5,-656 274.5,-650 274.5,-644 274.5,-644 274.5,-632 274.5,-632 274.5,-626 280.5,-620 286.5,-620 286.5,-620 319.5,-620 319.5,-620 325.5,-620 331.5,-626 331.5,-632 331.5,-632 331.5,-644 331.5,-644 331.5,-650 325.5,-656 319.5,-656"/>
<text text-anchor="start" x="282.5" y="-634.3" font-family="Helvetica,sans-Serif" font-size="14.00">beard</text>
</g>
<!-- 1&#45;&gt;19 -->
<g id="edge19" class="edge">
<title>1&#45;&gt;19</title>
<path fill="none" stroke="black" d="M214.54,-638C229.25,-638 247.9,-638 264.2,-638"/>
<polygon fill="black" stroke="black" points="264.5,-641.5 274.5,-638 264.5,-634.5 264.5,-641.5"/>
</g>
<!-- 3 -->
<g id="node4" class="node">
<title>3</title>
<path fill="#ffffff" stroke="black" d="M461,-1083C461,-1083 376,-1083 376,-1083 370,-1083 364,-1077 364,-1071 364,-1071 364,-1059 364,-1059 364,-1053 370,-1047 376,-1047 376,-1047 461,-1047 461,-1047 467,-1047 473,-1053 473,-1059 473,-1059 473,-1071 473,-1071 473,-1077 467,-1083 461,-1083"/>
<text text-anchor="start" x="372" y="-1061.3" font-family="Helvetica,sans-Serif" font-size="14.00">hair_partition</text>
</g>
<!-- 2&#45;&gt;3 -->
<g id="edge3" class="edge">
<title>2&#45;&gt;3</title>
<path fill="none" stroke="black" d="M317.24,-927.2C337.23,-954.68 375.22,-1006.89 398.27,-1038.57"/>
<polygon fill="black" stroke="black" points="395.63,-1040.89 404.34,-1046.92 401.29,-1036.77 395.63,-1040.89"/>
</g>
<!-- 12 -->
<g id="node13" class="node">
<title>12</title>
<path fill="#ffffff" stroke="black" d="M446.5,-927C446.5,-927 390.5,-927 390.5,-927 384.5,-927 378.5,-921 378.5,-915 378.5,-915 378.5,-903 378.5,-903 378.5,-897 384.5,-891 390.5,-891 390.5,-891 446.5,-891 446.5,-891 452.5,-891 458.5,-897 458.5,-903 458.5,-903 458.5,-915 458.5,-915 458.5,-921 452.5,-927 446.5,-927"/>
<text text-anchor="start" x="386.5" y="-905.3" font-family="Helvetica,sans-Serif" font-size="14.00">long_hair</text>
</g>
<!-- 2&#45;&gt;12 -->
<g id="edge12" class="edge">
<title>2&#45;&gt;12</title>
<path fill="none" stroke="black" d="M335.01,-909C345.27,-909 356.94,-909 368.21,-909"/>
<polygon fill="black" stroke="black" points="368.4,-912.5 378.4,-909 368.4,-905.5 368.4,-912.5"/>
</g>
<!-- 4 -->
<g id="node5" class="node">
<title>4</title>
<path fill="#ffffff" stroke="black" d="M571,-1170C571,-1170 502,-1170 502,-1170 496,-1170 490,-1164 490,-1158 490,-1158 490,-1146 490,-1146 490,-1140 496,-1134 502,-1134 502,-1134 571,-1134 571,-1134 577,-1134 583,-1140 583,-1146 583,-1146 583,-1158 583,-1158 583,-1164 577,-1170 571,-1170"/>
<text text-anchor="start" x="498" y="-1148.3" font-family="Helvetica,sans-Serif" font-size="14.00">brown_hair</text>
</g>
<!-- 3&#45;&gt;4 -->
<g id="edge4" class="edge">
<title>3&#45;&gt;4</title>
<path fill="none" stroke="black" d="M443.54,-1083.03C460.88,-1096.03 484.47,-1113.73 503.42,-1127.94"/>
<polygon fill="black" stroke="black" points="501.4,-1130.8 511.5,-1134 505.6,-1125.2 501.4,-1130.8"/>
</g>
<!-- 9 -->
<g id="node10" class="node">
<title>9</title>
<path fill="#ffffff" stroke="black" d="M568.5,-1083C568.5,-1083 504.5,-1083 504.5,-1083 498.5,-1083 492.5,-1077 492.5,-1071 492.5,-1071 492.5,-1059 492.5,-1059 492.5,-1053 498.5,-1047 504.5,-1047 504.5,-1047 568.5,-1047 568.5,-1047 574.5,-1047 580.5,-1053 580.5,-1059 580.5,-1059 580.5,-1071 580.5,-1071 580.5,-1077 574.5,-1083 568.5,-1083"/>
<text text-anchor="start" x="500.5" y="-1061.3" font-family="Helvetica,sans-Serif" font-size="14.00">white_hair</text>
</g>
<!-- 3&#45;&gt;9 -->
<g id="edge9" class="edge">
<title>3&#45;&gt;9</title>
<path fill="none" stroke="black" d="M473.09,-1065C476.09,-1065 479.11,-1065 482.12,-1065"/>
<polygon fill="black" stroke="black" points="482.22,-1068.5 492.22,-1065 482.22,-1061.5 482.22,-1068.5"/>
</g>
<!-- 5 -->
<g id="node6" class="node">
<title>5</title>
<path fill="#ffffff" stroke="black" d="M677,-1224C677,-1224 612,-1224 612,-1224 606,-1224 600,-1218 600,-1212 600,-1212 600,-1200 600,-1200 600,-1194 606,-1188 612,-1188 612,-1188 677,-1188 677,-1188 683,-1188 689,-1194 689,-1200 689,-1200 689,-1212 689,-1212 689,-1218 683,-1224 677,-1224"/>
<text text-anchor="start" x="608" y="-1202.3" font-family="Helvetica,sans-Serif" font-size="14.00">blond_hair</text>
</g>
<!-- 4&#45;&gt;5 -->
<g id="edge5" class="edge">
<title>4&#45;&gt;5</title>
<path fill="none" stroke="black" d="M573.09,-1170.13C581.31,-1174.32 590.15,-1178.82 598.7,-1183.18"/>
<polygon fill="black" stroke="black" points="597.32,-1186.4 607.82,-1187.82 600.5,-1180.17 597.32,-1186.4"/>
</g>
<!-- 8 -->
<g id="node9" class="node">
<title>8</title>
<path fill="#9de539" stroke="black" d="M766,-1170C766,-1170 718,-1170 718,-1170 712,-1170 706,-1164 706,-1158 706,-1158 706,-1146 706,-1146 706,-1140 712,-1134 718,-1134 718,-1134 766,-1134 766,-1134 772,-1134 778,-1140 778,-1146 778,-1146 778,-1158 778,-1158 778,-1164 772,-1170 766,-1170"/>
<text text-anchor="start" x="714" y="-1148.3" font-family="Helvetica,sans-Serif" font-size="14.00">bernard</text>
</g>
<!-- 4&#45;&gt;8 -->
<g id="edge8" class="edge">
<title>4&#45;&gt;8</title>
<path fill="none" stroke="black" d="M583.17,-1152C616.69,-1152 662.02,-1152 695.5,-1152"/>
<polygon fill="black" stroke="black" points="695.92,-1155.5 705.92,-1152 695.92,-1148.5 695.92,-1155.5"/>
</g>
<!-- 6 -->
<g id="node7" class="node">
<title>6</title>
<path fill="#39e5d7" stroke="black" d="M757,-1278C757,-1278 727,-1278 727,-1278 721,-1278 715,-1272 715,-1266 715,-1266 715,-1254 715,-1254 715,-1248 721,-1242 727,-1242 727,-1242 757,-1242 757,-1242 763,-1242 769,-1248 769,-1254 769,-1254 769,-1266 769,-1266 769,-1272 763,-1278 757,-1278"/>
<text text-anchor="start" x="723.5" y="-1256.3" font-family="Helvetica,sans-Serif" font-size="14.00">frans</text>
</g>
<!-- 5&#45;&gt;6 -->
<g id="edge6" class="edge">
<title>5&#45;&gt;6</title>
<path fill="none" stroke="black" d="M677.57,-1224.13C686.67,-1229.28 696.63,-1234.91 705.9,-1240.15"/>
<polygon fill="black" stroke="black" points="704.46,-1243.36 714.89,-1245.24 707.91,-1237.27 704.46,-1243.36"/>
</g>
<!-- 7 -->
<g id="node8" class="node">
<title>7</title>
<path fill="#3972e5" stroke="black" d="M757,-1224C757,-1224 727,-1224 727,-1224 721,-1224 715,-1218 715,-1212 715,-1212 715,-1200 715,-1200 715,-1194 721,-1188 727,-1188 727,-1188 757,-1188 757,-1188 763,-1188 769,-1194 769,-1200 769,-1200 769,-1212 769,-1212 769,-1218 763,-1224 757,-1224"/>
<text text-anchor="start" x="731.5" y="-1202.3" font-family="Helvetica,sans-Serif" font-size="14.00">joe</text>
</g>
<!-- 5&#45;&gt;7 -->
<g id="edge7" class="edge">
<title>5&#45;&gt;7</title>
<path fill="none" stroke="black" d="M689.06,-1206C694.32,-1206 699.64,-1206 704.78,-1206"/>
<polygon fill="black" stroke="black" points="704.97,-1209.5 714.97,-1206 704.97,-1202.5 704.97,-1209.5"/>
</g>
<!-- 10 -->
<g id="node11" class="node">
<title>10</title>
<path fill="#e5ac39" stroke="black" d="M758,-1116C758,-1116 726,-1116 726,-1116 720,-1116 714,-1110 714,-1104 714,-1104 714,-1092 714,-1092 714,-1086 720,-1080 726,-1080 726,-1080 758,-1080 758,-1080 764,-1080 770,-1086 770,-1092 770,-1092 770,-1104 770,-1104 770,-1110 764,-1116 758,-1116"/>
<text text-anchor="start" x="722" y="-1094.3" font-family="Helvetica,sans-Serif" font-size="14.00">alfred</text>
</g>
<!-- 9&#45;&gt;10 -->
<g id="edge10" class="edge">
<title>9&#45;&gt;10</title>
<path fill="none" stroke="black" d="M580.66,-1072C617.14,-1077.91 668.85,-1086.3 703.6,-1091.93"/>
<polygon fill="black" stroke="black" points="703.37,-1095.44 713.8,-1093.59 704.49,-1088.53 703.37,-1095.44"/>
</g>
<!-- 11 -->
<g id="node12" class="node">
<title>11</title>
<path fill="#8139e5" stroke="black" d="M757,-1062C757,-1062 727,-1062 727,-1062 721,-1062 715,-1056 715,-1050 715,-1050 715,-1038 715,-1038 715,-1032 721,-1026 727,-1026 727,-1026 757,-1026 757,-1026 763,-1026 769,-1032 769,-1038 769,-1038 769,-1050 769,-1050 769,-1056 763,-1062 757,-1062"/>
<text text-anchor="start" x="726.5" y="-1040.3" font-family="Helvetica,sans-Serif" font-size="14.00">paul</text>
</g>
<!-- 9&#45;&gt;11 -->
<g id="edge11" class="edge">
<title>9&#45;&gt;11</title>
<path fill="none" stroke="black" d="M580.66,-1060.55C617.56,-1056.74 670.06,-1051.32 704.8,-1047.74"/>
<polygon fill="black" stroke="black" points="705.39,-1051.19 714.97,-1046.69 704.67,-1044.23 705.39,-1051.19"/>
</g>
<!-- 13 -->
<g id="node14" class="node">
<title>13</title>
<path fill="#ffffff" stroke="black" d="M568,-954C568,-954 505,-954 505,-954 499,-954 493,-948 493,-942 493,-942 493,-930 493,-930 493,-924 499,-918 505,-918 505,-918 568,-918 568,-918 574,-918 580,-924 580,-930 580,-930 580,-942 580,-942 580,-948 574,-954 568,-954"/>
<text text-anchor="start" x="501" y="-932.3" font-family="Helvetica,sans-Serif" font-size="14.00">black_hair</text>
</g>
<!-- 12&#45;&gt;13 -->
<g id="edge13" class="edge">
<title>12&#45;&gt;13</title>
<path fill="none" stroke="black" d="M458.77,-918.14C466.53,-919.95 474.79,-921.87 482.9,-923.76"/>
<polygon fill="black" stroke="black" points="482.15,-927.18 492.69,-926.03 483.74,-920.36 482.15,-927.18"/>
</g>
<!-- 16 -->
<g id="node17" class="node">
<title>16</title>
<path fill="#ffffff" stroke="black" d="M567.5,-900C567.5,-900 505.5,-900 505.5,-900 499.5,-900 493.5,-894 493.5,-888 493.5,-888 493.5,-876 493.5,-876 493.5,-870 499.5,-864 505.5,-864 505.5,-864 567.5,-864 567.5,-864 573.5,-864 579.5,-870 579.5,-876 579.5,-876 579.5,-888 579.5,-888 579.5,-894 573.5,-900 567.5,-900"/>
<text text-anchor="start" x="501.5" y="-878.3" font-family="Helvetica,sans-Serif" font-size="14.00">blue_eyes</text>
</g>
<!-- 12&#45;&gt;16 -->
<g id="edge16" class="edge">
<title>12&#45;&gt;16</title>
<path fill="none" stroke="black" d="M458.77,-899.86C466.72,-898.01 475.18,-896.04 483.49,-894.11"/>
<polygon fill="black" stroke="black" points="484.54,-897.45 493.49,-891.78 482.95,-890.64 484.54,-897.45"/>
</g>
<!-- 14 -->
<g id="node15" class="node">
<title>14</title>
<path fill="#39e556" stroke="black" d="M757,-1008C757,-1008 727,-1008 727,-1008 721,-1008 715,-1002 715,-996 715,-996 715,-984 715,-984 715,-978 721,-972 727,-972 727,-972 757,-972 757,-972 763,-972 769,-978 769,-984 769,-984 769,-996 769,-996 769,-1002 763,-1008 757,-1008"/>
<text text-anchor="start" x="723.5" y="-986.3" font-family="Helvetica,sans-Serif" font-size="14.00">claire</text>
</g>
<!-- 13&#45;&gt;14 -->
<g id="edge14" class="edge">
<title>13&#45;&gt;14</title>
<path fill="none" stroke="black" d="M580.16,-947.32C617.18,-957.14 670.17,-971.21 705.07,-980.47"/>
<polygon fill="black" stroke="black" points="704.28,-983.88 714.84,-983.06 706.07,-977.11 704.28,-983.88"/>
</g>
<!-- 15 -->
<g id="node16" class="node">
<title>15</title>
<path fill="#c8e539" stroke="black" d="M757,-954C757,-954 727,-954 727,-954 721,-954 715,-948 715,-942 715,-942 715,-930 715,-930 715,-924 721,-918 727,-918 727,-918 757,-918 757,-918 763,-918 769,-924 769,-930 769,-930 769,-942 769,-942 769,-948 763,-954 757,-954"/>
<text text-anchor="start" x="724.5" y="-932.3" font-family="Helvetica,sans-Serif" font-size="14.00">anne</text>
</g>
<!-- 13&#45;&gt;15 -->
<g id="edge15" class="edge">
<title>13&#45;&gt;15</title>
<path fill="none" stroke="black" d="M580.16,-936C617.02,-936 669.72,-936 704.62,-936"/>
<polygon fill="black" stroke="black" points="704.84,-939.5 714.84,-936 704.84,-932.5 704.84,-939.5"/>
</g>
<!-- 17 -->
<g id="node18" class="node">
<title>17</title>
<path fill="#3947e5" stroke="black" d="M758,-900C758,-900 726,-900 726,-900 720,-900 714,-894 714,-888 714,-888 714,-876 714,-876 714,-870 720,-864 726,-864 726,-864 758,-864 758,-864 764,-864 770,-870 770,-876 770,-876 770,-888 770,-888 770,-894 764,-900 758,-900"/>
<text text-anchor="start" x="722" y="-878.3" font-family="Helvetica,sans-Serif" font-size="14.00">maria</text>
</g>
<!-- 16&#45;&gt;17 -->
<g id="edge17" class="edge">
<title>16&#45;&gt;17</title>
<path fill="none" stroke="black" d="M579.67,-882C616.17,-882 668.47,-882 703.53,-882"/>
<polygon fill="black" stroke="black" points="703.82,-885.5 713.82,-882 703.82,-878.5 703.82,-885.5"/>
</g>
<!-- 18 -->
<g id="node19" class="node">
<title>18</title>
<path fill="#e5d739" stroke="black" d="M757,-846C757,-846 727,-846 727,-846 721,-846 715,-840 715,-834 715,-834 715,-822 715,-822 715,-816 721,-810 727,-810 727,-810 757,-810 757,-810 763,-810 769,-816 769,-822 769,-822 769,-834 769,-834 769,-840 763,-846 757,-846"/>
<text text-anchor="start" x="724.5" y="-824.3" font-family="Helvetica,sans-Serif" font-size="14.00">anita</text>
</g>
<!-- 16&#45;&gt;18 -->
<g id="edge18" class="edge">
<title>16&#45;&gt;18</title>
<path fill="none" stroke="black" d="M579.67,-870.81C616.65,-861 669.84,-846.88 704.89,-837.58"/>
<polygon fill="black" stroke="black" points="705.94,-840.92 714.71,-834.98 704.15,-834.16 705.94,-840.92"/>
</g>
<!-- 20 -->
<g id="node21" class="node">
<title>20</title>
<path fill="#ffffff" stroke="black" d="M450.5,-684C450.5,-684 386.5,-684 386.5,-684 380.5,-684 374.5,-678 374.5,-672 374.5,-672 374.5,-660 374.5,-660 374.5,-654 380.5,-648 386.5,-648 386.5,-648 450.5,-648 450.5,-648 456.5,-648 462.5,-654 462.5,-660 462.5,-660 462.5,-672 462.5,-672 462.5,-678 456.5,-684 450.5,-684"/>
<text text-anchor="start" x="382.5" y="-662.3" font-family="Helvetica,sans-Serif" font-size="14.00">white_hair</text>
</g>
<!-- 19&#45;&gt;20 -->
<g id="edge20" class="edge">
<title>19&#45;&gt;20</title>
<path fill="none" stroke="black" d="M331.77,-644.85C341.61,-647.28 353.05,-650.1 364.3,-652.88"/>
<polygon fill="black" stroke="black" points="363.55,-656.3 374.1,-655.29 365.23,-649.5 363.55,-656.3"/>
</g>
<!-- 25 -->
<g id="node26" class="node">
<title>25</title>
<path fill="#ffffff" stroke="black" d="M454,-630C454,-630 383,-630 383,-630 377,-630 371,-624 371,-618 371,-618 371,-606 371,-606 371,-600 377,-594 383,-594 383,-594 454,-594 454,-594 460,-594 466,-600 466,-606 466,-606 466,-618 466,-618 466,-624 460,-630 454,-630"/>
<text text-anchor="start" x="379" y="-608.3" font-family="Helvetica,sans-Serif" font-size="14.00">ginger_hair</text>
</g>
<!-- 19&#45;&gt;25 -->
<g id="edge25" class="edge">
<title>19&#45;&gt;25</title>
<path fill="none" stroke="black" d="M331.77,-631.64C340.53,-629.63 350.55,-627.34 360.58,-625.04"/>
<polygon fill="black" stroke="black" points="361.59,-628.4 370.56,-622.75 360.03,-621.57 361.59,-628.4"/>
</g>
<!-- 21 -->
<g id="node22" class="node">
<title>21</title>
<path fill="#ffffff" stroke="black" d="M563.5,-738C563.5,-738 509.5,-738 509.5,-738 503.5,-738 497.5,-732 497.5,-726 497.5,-726 497.5,-714 497.5,-714 497.5,-708 503.5,-702 509.5,-702 509.5,-702 563.5,-702 563.5,-702 569.5,-702 575.5,-708 575.5,-714 575.5,-714 575.5,-726 575.5,-726 575.5,-732 569.5,-738 563.5,-738"/>
<text text-anchor="start" x="505.5" y="-716.3" font-family="Helvetica,sans-Serif" font-size="14.00">big_nose</text>
</g>
<!-- 20&#45;&gt;21 -->
<g id="edge21" class="edge">
<title>20&#45;&gt;21</title>
<path fill="none" stroke="black" d="M458.45,-684.13C467.93,-688.54 478.17,-693.31 487.99,-697.88"/>
<polygon fill="black" stroke="black" points="486.7,-701.14 497.24,-702.19 489.66,-694.8 486.7,-701.14"/>
</g>
<!-- 24 -->
<g id="node25" class="node">
<title>24</title>
<path fill="#e53972" stroke="black" d="M757,-684C757,-684 727,-684 727,-684 721,-684 715,-678 715,-672 715,-672 715,-660 715,-660 715,-654 721,-648 727,-648 727,-648 757,-648 757,-648 763,-648 769,-654 769,-660 769,-660 769,-672 769,-672 769,-678 763,-684 757,-684"/>
<text text-anchor="start" x="727" y="-662.3" font-family="Helvetica,sans-Serif" font-size="14.00">sam</text>
</g>
<!-- 20&#45;&gt;24 -->
<g id="edge24" class="edge">
<title>20&#45;&gt;24</title>
<path fill="none" stroke="black" d="M462.53,-666C526.28,-666 644.74,-666 704.5,-666"/>
<polygon fill="black" stroke="black" points="704.61,-669.5 714.61,-666 704.61,-662.5 704.61,-669.5"/>
</g>
<!-- 22 -->
<g id="node23" class="node">
<title>22</title>
<path fill="#e55639" stroke="black" d="M757,-792C757,-792 727,-792 727,-792 721,-792 715,-786 715,-780 715,-780 715,-768 715,-768 715,-762 721,-756 727,-756 727,-756 757,-756 757,-756 763,-756 769,-762 769,-768 769,-768 769,-780 769,-780 769,-786 763,-792 757,-792"/>
<text text-anchor="start" x="728" y="-770.3" font-family="Helvetica,sans-Serif" font-size="14.00">tom</text>
</g>
<!-- 21&#45;&gt;22 -->
<g id="edge22" class="edge">
<title>21&#45;&gt;22</title>
<path fill="none" stroke="black" d="M575.78,-730.16C612.93,-740.01 668.87,-754.86 705.17,-764.49"/>
<polygon fill="black" stroke="black" points="704.29,-767.88 714.85,-767.06 706.09,-761.11 704.29,-767.88"/>
</g>
<!-- 23 -->
<g id="node24" class="node">
<title>23</title>
<path fill="#399de5" stroke="black" d="M765.5,-738C765.5,-738 718.5,-738 718.5,-738 712.5,-738 706.5,-732 706.5,-726 706.5,-726 706.5,-714 706.5,-714 706.5,-708 712.5,-702 718.5,-702 718.5,-702 765.5,-702 765.5,-702 771.5,-702 777.5,-708 777.5,-714 777.5,-714 777.5,-726 777.5,-726 777.5,-732 771.5,-738 765.5,-738"/>
<text text-anchor="start" x="714.5" y="-716.3" font-family="Helvetica,sans-Serif" font-size="14.00">herman</text>
</g>
<!-- 21&#45;&gt;23 -->
<g id="edge23" class="edge">
<title>21&#45;&gt;23</title>
<path fill="none" stroke="black" d="M575.78,-720C609.94,-720 659.99,-720 696.05,-720"/>
<polygon fill="black" stroke="black" points="696.29,-723.5 706.29,-720 696.29,-716.5 696.29,-723.5"/>
</g>
<!-- 26 -->
<g id="node27" class="node">
<title>26</title>
<path fill="#e539c8" stroke="black" d="M763,-630C763,-630 721,-630 721,-630 715,-630 709,-624 709,-618 709,-618 709,-606 709,-606 709,-600 715,-594 721,-594 721,-594 763,-594 763,-594 769,-594 775,-600 775,-606 775,-606 775,-618 775,-618 775,-624 769,-630 763,-630"/>
<text text-anchor="start" x="717" y="-608.3" font-family="Helvetica,sans-Serif" font-size="14.00">richard</text>
</g>
<!-- 25&#45;&gt;26 -->
<g id="edge26" class="edge">
<title>25&#45;&gt;26</title>
<path fill="none" stroke="black" d="M466.25,-612C528.68,-612 638.37,-612 698.54,-612"/>
<polygon fill="black" stroke="black" points="698.83,-615.5 708.83,-612 698.83,-608.5 698.83,-615.5"/>
</g>
<!-- 27 -->
<g id="node28" class="node">
<title>27</title>
<path fill="#72e539" stroke="black" d="M757,-576C757,-576 727,-576 727,-576 721,-576 715,-570 715,-564 715,-564 715,-552 715,-552 715,-546 721,-540 727,-540 727,-540 757,-540 757,-540 763,-540 769,-546 769,-552 769,-552 769,-564 769,-564 769,-570 763,-576 757,-576"/>
<text text-anchor="start" x="731.5" y="-554.3" font-family="Helvetica,sans-Serif" font-size="14.00">bill</text>
</g>
<!-- 25&#45;&gt;27 -->
<g id="edge27" class="edge">
<title>25&#45;&gt;27</title>
<path fill="none" stroke="black" d="M466.25,-604.15C530.98,-593.28 646.52,-573.87 704.99,-564.05"/>
<polygon fill="black" stroke="black" points="705.6,-567.5 714.88,-562.39 704.44,-560.59 705.6,-567.5"/>
</g>
<!-- 29 -->
<g id="node30" class="node">
<title>29</title>
<path fill="#ffffff" stroke="black" d="M334.5,-442C334.5,-442 271.5,-442 271.5,-442 265.5,-442 259.5,-436 259.5,-430 259.5,-430 259.5,-418 259.5,-418 259.5,-412 265.5,-406 271.5,-406 271.5,-406 334.5,-406 334.5,-406 340.5,-406 346.5,-412 346.5,-418 346.5,-418 346.5,-430 346.5,-430 346.5,-436 340.5,-442 334.5,-442"/>
<text text-anchor="start" x="267.5" y="-420.3" font-family="Helvetica,sans-Serif" font-size="14.00">facial_hair</text>
</g>
<!-- 28&#45;&gt;29 -->
<g id="edge29" class="edge">
<title>28&#45;&gt;29</title>
<path fill="none" stroke="black" d="M242.26,-424C244.59,-424 246.92,-424 249.25,-424"/>
<polygon fill="black" stroke="black" points="249.34,-427.5 259.34,-424 249.34,-420.5 249.34,-427.5"/>
</g>
<!-- 38 -->
<g id="node39" class="node">
<title>38</title>
<path fill="#ffffff" stroke="black" d="M335,-164C335,-164 271,-164 271,-164 265,-164 259,-158 259,-152 259,-152 259,-140 259,-140 259,-134 265,-128 271,-128 271,-128 335,-128 335,-128 341,-128 347,-134 347,-140 347,-140 347,-152 347,-152 347,-158 341,-164 335,-164"/>
<text text-anchor="start" x="267" y="-142.3" font-family="Helvetica,sans-Serif" font-size="14.00">white_hair</text>
</g>
<!-- 28&#45;&gt;38 -->
<g id="edge38" class="edge">
<title>28&#45;&gt;38</title>
<path fill="none" stroke="black" d="M195.95,-405.76C215.35,-358.24 267.54,-230.4 290.68,-173.72"/>
<polygon fill="black" stroke="black" points="293.99,-174.89 294.53,-164.31 287.51,-172.24 293.99,-174.89"/>
</g>
<!-- 30 -->
<g id="node31" class="node">
<title>30</title>
<path fill="#ffffff" stroke="black" d="M450.5,-468C450.5,-468 386.5,-468 386.5,-468 380.5,-468 374.5,-462 374.5,-456 374.5,-456 374.5,-444 374.5,-444 374.5,-438 380.5,-432 386.5,-432 386.5,-432 450.5,-432 450.5,-432 456.5,-432 462.5,-438 462.5,-444 462.5,-444 462.5,-456 462.5,-456 462.5,-462 456.5,-468 450.5,-468"/>
<text text-anchor="start" x="382.5" y="-446.3" font-family="Helvetica,sans-Serif" font-size="14.00">white_hair</text>
</g>
<!-- 29&#45;&gt;30 -->
<g id="edge30" class="edge">
<title>29&#45;&gt;30</title>
<path fill="none" stroke="black" d="M346.59,-433.76C352.39,-435.08 358.4,-436.46 364.36,-437.83"/>
<polygon fill="black" stroke="black" points="363.77,-441.28 374.3,-440.1 365.33,-434.46 363.77,-441.28"/>
</g>
<!-- 33 -->
<g id="node34" class="node">
<title>33</title>
<path fill="#ffffff" stroke="black" d="M453,-414C453,-414 384,-414 384,-414 378,-414 372,-408 372,-402 372,-402 372,-390 372,-390 372,-384 378,-378 384,-378 384,-378 453,-378 453,-378 459,-378 465,-384 465,-390 465,-390 465,-402 465,-402 465,-408 459,-414 453,-414"/>
<text text-anchor="start" x="380" y="-392.3" font-family="Helvetica,sans-Serif" font-size="14.00">moustache</text>
</g>
<!-- 29&#45;&gt;33 -->
<g id="edge33" class="edge">
<title>29&#45;&gt;33</title>
<path fill="none" stroke="black" d="M346.59,-413.49C351.57,-412.26 356.71,-411 361.83,-409.73"/>
<polygon fill="black" stroke="black" points="362.76,-413.11 371.64,-407.31 361.09,-406.31 362.76,-413.11"/>
</g>
<!-- 31 -->
<g id="node32" class="node">
<title>31</title>
<path fill="#39e5ac" stroke="black" d="M757,-522C757,-522 727,-522 727,-522 721,-522 715,-516 715,-510 715,-510 715,-498 715,-498 715,-492 721,-486 727,-486 727,-486 757,-486 757,-486 763,-486 769,-492 769,-498 769,-498 769,-510 769,-510 769,-516 763,-522 757,-522"/>
<text text-anchor="start" x="729" y="-500.3" font-family="Helvetica,sans-Serif" font-size="14.00">eric</text>
</g>
<!-- 30&#45;&gt;31 -->
<g id="edge31" class="edge">
<title>30&#45;&gt;31</title>
<path fill="none" stroke="black" d="M462.55,-459.8C472.88,-462.15 481,-464 481,-464 481,-464 633.2,-487.42 704.7,-498.42"/>
<polygon fill="black" stroke="black" points="704.22,-501.88 714.64,-499.94 705.29,-494.96 704.22,-501.88"/>
</g>
<!-- 32 -->
<g id="node33" class="node">
<title>32</title>
<path fill="#39c8e5" stroke="black" d="M762.5,-468C762.5,-468 721.5,-468 721.5,-468 715.5,-468 709.5,-462 709.5,-456 709.5,-456 709.5,-444 709.5,-444 709.5,-438 715.5,-432 721.5,-432 721.5,-432 762.5,-432 762.5,-432 768.5,-432 774.5,-438 774.5,-444 774.5,-444 774.5,-456 774.5,-456 774.5,-462 768.5,-468 762.5,-468"/>
<text text-anchor="start" x="717.5" y="-446.3" font-family="Helvetica,sans-Serif" font-size="14.00">george</text>
</g>
<!-- 30&#45;&gt;32 -->
<g id="edge32" class="edge">
<title>30&#45;&gt;32</title>
<path fill="none" stroke="black" d="M462.53,-450C524.47,-450 638.06,-450 699.28,-450"/>
<polygon fill="black" stroke="black" points="699.36,-453.5 709.36,-450 699.36,-446.5 699.36,-453.5"/>
</g>
<!-- 34 -->
<g id="node35" class="node">
<title>34</title>
<path fill="#d739e5" stroke="black" d="M757.5,-414C757.5,-414 726.5,-414 726.5,-414 720.5,-414 714.5,-408 714.5,-402 714.5,-402 714.5,-390 714.5,-390 714.5,-384 720.5,-378 726.5,-378 726.5,-378 757.5,-378 757.5,-378 763.5,-378 769.5,-384 769.5,-390 769.5,-390 769.5,-402 769.5,-402 769.5,-408 763.5,-414 757.5,-414"/>
<text text-anchor="start" x="722.5" y="-392.3" font-family="Helvetica,sans-Serif" font-size="14.00">philip</text>
</g>
<!-- 33&#45;&gt;34 -->
<g id="edge34" class="edge">
<title>33&#45;&gt;34</title>
<path fill="none" stroke="black" d="M465.22,-396C529.36,-396 644.8,-396 703.92,-396"/>
<polygon fill="black" stroke="black" points="704.27,-399.5 714.27,-396 704.27,-392.5 704.27,-399.5"/>
</g>
<!-- 35 -->
<g id="node36" class="node">
<title>35</title>
<path fill="#ffffff" stroke="black" d="M563.5,-360C563.5,-360 509.5,-360 509.5,-360 503.5,-360 497.5,-354 497.5,-348 497.5,-348 497.5,-336 497.5,-336 497.5,-330 503.5,-324 509.5,-324 509.5,-324 563.5,-324 563.5,-324 569.5,-324 575.5,-330 575.5,-336 575.5,-336 575.5,-348 575.5,-348 575.5,-354 569.5,-360 563.5,-360"/>
<text text-anchor="start" x="505.5" y="-338.3" font-family="Helvetica,sans-Serif" font-size="14.00">big_nose</text>
</g>
<!-- 33&#45;&gt;35 -->
<g id="edge35" class="edge">
<title>33&#45;&gt;35</title>
<path fill="none" stroke="black" d="M458.45,-377.87C467.93,-373.46 478.17,-368.69 487.99,-364.12"/>
<polygon fill="black" stroke="black" points="489.66,-367.2 497.24,-359.81 486.7,-360.86 489.66,-367.2"/>
</g>
<!-- 36 -->
<g id="node37" class="node">
<title>36</title>
<path fill="#e58139" stroke="black" d="M757,-360C757,-360 727,-360 727,-360 721,-360 715,-354 715,-348 715,-348 715,-336 715,-336 715,-330 721,-324 727,-324 727,-324 757,-324 757,-324 763,-324 769,-330 769,-336 769,-336 769,-348 769,-348 769,-354 763,-360 757,-360"/>
<text text-anchor="start" x="727.5" y="-338.3" font-family="Helvetica,sans-Serif" font-size="14.00">alex</text>
</g>
<!-- 35&#45;&gt;36 -->
<g id="edge36" class="edge">
<title>35&#45;&gt;36</title>
<path fill="none" stroke="black" d="M575.78,-342C612.77,-342 668.39,-342 704.7,-342"/>
<polygon fill="black" stroke="black" points="704.85,-345.5 714.85,-342 704.85,-338.5 704.85,-345.5"/>
</g>
<!-- 37 -->
<g id="node38" class="node">
<title>37</title>
<path fill="#5639e5" stroke="black" d="M757,-306C757,-306 727,-306 727,-306 721,-306 715,-300 715,-294 715,-294 715,-282 715,-282 715,-276 721,-270 727,-270 727,-270 757,-270 757,-270 763,-270 769,-276 769,-282 769,-282 769,-294 769,-294 769,-300 763,-306 757,-306"/>
<text text-anchor="start" x="726.5" y="-284.3" font-family="Helvetica,sans-Serif" font-size="14.00">max</text>
</g>
<!-- 35&#45;&gt;37 -->
<g id="edge37" class="edge">
<title>35&#45;&gt;37</title>
<path fill="none" stroke="black" d="M575.78,-331.84C612.93,-321.99 668.87,-307.14 705.17,-297.51"/>
<polygon fill="black" stroke="black" points="706.09,-300.89 714.85,-294.94 704.29,-294.12 706.09,-300.89"/>
</g>
<!-- 39 -->
<g id="node40" class="node">
<title>39</title>
<path fill="#ffffff" stroke="black" d="M449.5,-164C449.5,-164 387.5,-164 387.5,-164 381.5,-164 375.5,-158 375.5,-152 375.5,-152 375.5,-140 375.5,-140 375.5,-134 381.5,-128 387.5,-128 387.5,-128 449.5,-128 449.5,-128 455.5,-128 461.5,-134 461.5,-140 461.5,-140 461.5,-152 461.5,-152 461.5,-158 455.5,-164 449.5,-164"/>
<text text-anchor="start" x="383.5" y="-142.3" font-family="Helvetica,sans-Serif" font-size="14.00">blue_eyes</text>
</g>
<!-- 38&#45;&gt;39 -->
<g id="edge39" class="edge">
<title>38&#45;&gt;39</title>
<path fill="none" stroke="black" d="M347.23,-146C352.95,-146 358.86,-146 364.71,-146"/>
<polygon fill="black" stroke="black" points="365.14,-149.5 375.14,-146 365.14,-142.5 365.14,-149.5"/>
</g>
<!-- 44 -->
<g id="node45" class="node">
<title>44</title>
<path fill="#ffffff" stroke="black" d="M446.5,-90C446.5,-90 390.5,-90 390.5,-90 384.5,-90 378.5,-84 378.5,-78 378.5,-78 378.5,-66 378.5,-66 378.5,-60 384.5,-54 390.5,-54 390.5,-54 446.5,-54 446.5,-54 452.5,-54 458.5,-60 458.5,-66 458.5,-66 458.5,-78 458.5,-78 458.5,-84 452.5,-90 446.5,-90"/>
<text text-anchor="start" x="386.5" y="-68.3" font-family="Helvetica,sans-Serif" font-size="14.00">long_hair</text>
</g>
<!-- 38&#45;&gt;44 -->
<g id="edge44" class="edge">
<title>38&#45;&gt;44</title>
<path fill="none" stroke="black" d="M331.77,-127.9C346.61,-118.22 365.06,-106.19 381.04,-95.77"/>
<polygon fill="black" stroke="black" points="383.16,-98.57 389.63,-90.17 379.34,-92.7 383.16,-98.57"/>
</g>
<!-- 40 -->
<g id="node41" class="node">
<title>40</title>
<path fill="#ffffff" stroke="black" d="M571,-198C571,-198 502,-198 502,-198 496,-198 490,-192 490,-186 490,-186 490,-174 490,-174 490,-168 496,-162 502,-162 502,-162 571,-162 571,-162 577,-162 583,-168 583,-174 583,-174 583,-186 583,-186 583,-192 577,-198 571,-198"/>
<text text-anchor="start" x="498" y="-176.3" font-family="Helvetica,sans-Serif" font-size="14.00">moustache</text>
</g>
<!-- 39&#45;&gt;40 -->
<g id="edge40" class="edge">
<title>39&#45;&gt;40</title>
<path fill="none" stroke="black" d="M461.71,-158.37C467.74,-160.14 474.03,-161.98 480.27,-163.81"/>
<polygon fill="black" stroke="black" points="479.42,-167.21 490,-166.66 481.39,-160.49 479.42,-167.21"/>
</g>
<!-- 43 -->
<g id="node44" class="node">
<title>43</title>
<path fill="#e5399d" stroke="black" d="M759.5,-144C759.5,-144 724.5,-144 724.5,-144 718.5,-144 712.5,-138 712.5,-132 712.5,-132 712.5,-120 712.5,-120 712.5,-114 718.5,-108 724.5,-108 724.5,-108 759.5,-108 759.5,-108 765.5,-108 771.5,-114 771.5,-120 771.5,-120 771.5,-132 771.5,-132 771.5,-138 765.5,-144 759.5,-144"/>
<text text-anchor="start" x="720.5" y="-122.3" font-family="Helvetica,sans-Serif" font-size="14.00">robert</text>
</g>
<!-- 39&#45;&gt;43 -->
<g id="edge43" class="edge">
<title>39&#45;&gt;43</title>
<path fill="none" stroke="black" d="M461.53,-143.39C524.15,-139.49 641.08,-132.22 701.93,-128.43"/>
<polygon fill="black" stroke="black" points="702.5,-131.9 712.27,-127.79 702.07,-124.92 702.5,-131.9"/>
</g>
<!-- 41 -->
<g id="node42" class="node">
<title>41</title>
<path fill="#39e581" stroke="black" d="M757.5,-252C757.5,-252 726.5,-252 726.5,-252 720.5,-252 714.5,-246 714.5,-240 714.5,-240 714.5,-228 714.5,-228 714.5,-222 720.5,-216 726.5,-216 726.5,-216 757.5,-216 757.5,-216 763.5,-216 769.5,-222 769.5,-228 769.5,-228 769.5,-240 769.5,-240 769.5,-246 763.5,-252 757.5,-252"/>
<text text-anchor="start" x="722.5" y="-230.3" font-family="Helvetica,sans-Serif" font-size="14.00">david</text>
</g>
<!-- 40&#45;&gt;41 -->
<g id="edge41" class="edge">
<title>40&#45;&gt;41</title>
<path fill="none" stroke="black" d="M583.17,-192.12C619.81,-201.84 670.55,-215.31 704.52,-224.32"/>
<polygon fill="black" stroke="black" points="703.92,-227.78 714.48,-226.96 705.72,-221.02 703.92,-227.78"/>
</g>
<!-- 42 -->
<g id="node43" class="node">
<title>42</title>
<path fill="#47e539" stroke="black" d="M763.5,-198C763.5,-198 720.5,-198 720.5,-198 714.5,-198 708.5,-192 708.5,-186 708.5,-186 708.5,-174 708.5,-174 708.5,-168 714.5,-162 720.5,-162 720.5,-162 763.5,-162 763.5,-162 769.5,-162 775.5,-168 775.5,-174 775.5,-174 775.5,-186 775.5,-186 775.5,-192 769.5,-198 763.5,-198"/>
<text text-anchor="start" x="716.5" y="-176.3" font-family="Helvetica,sans-Serif" font-size="14.00">charles</text>
</g>
<!-- 40&#45;&gt;42 -->
<g id="edge42" class="edge">
<title>40&#45;&gt;42</title>
<path fill="none" stroke="black" d="M583.17,-180C617.68,-180 664.72,-180 698.45,-180"/>
<polygon fill="black" stroke="black" points="698.46,-183.5 708.46,-180 698.46,-176.5 698.46,-183.5"/>
</g>
<!-- 45 -->
<g id="node46" class="node">
<title>45</title>
<path fill="#ac39e5" stroke="black" d="M757,-90C757,-90 727,-90 727,-90 721,-90 715,-84 715,-78 715,-78 715,-66 715,-66 715,-60 721,-54 727,-54 727,-54 757,-54 757,-54 763,-54 769,-60 769,-66 769,-66 769,-78 769,-78 769,-84 763,-90 757,-90"/>
<text text-anchor="start" x="723.5" y="-68.3" font-family="Helvetica,sans-Serif" font-size="14.00">peter</text>
</g>
<!-- 44&#45;&gt;45 -->
<g id="edge45" class="edge">
<title>44&#45;&gt;45</title>
<path fill="none" stroke="black" d="M458.6,-72C521.27,-72 643.36,-72 704.4,-72"/>
<polygon fill="black" stroke="black" points="704.71,-75.5 714.71,-72 704.71,-68.5 704.71,-75.5"/>
</g>
<!-- 46 -->
<g id="node47" class="node">
<title>46</title>
<path fill="#e53947" stroke="black" d="M759,-36C759,-36 725,-36 725,-36 719,-36 713,-30 713,-24 713,-24 713,-12 713,-12 713,-6 719,0 725,0 725,0 759,0 759,0 765,0 771,-6 771,-12 771,-12 771,-24 771,-24 771,-30 765,-36 759,-36"/>
<text text-anchor="start" x="721" y="-14.3" font-family="Helvetica,sans-Serif" font-size="14.00">susan</text>
</g>
<!-- 44&#45;&gt;46 -->
<g id="edge46" class="edge">
<title>44&#45;&gt;46</title>
<path fill="none" stroke="black" d="M458.6,-65.43C520.77,-54.99 641.4,-34.73 702.92,-24.4"/>
<polygon fill="black" stroke="black" points="703.7,-27.81 712.98,-22.71 702.54,-20.91 703.7,-27.81"/>
</g>
</g>
</svg>
