<?xml version="1.0" encoding="UTF-8" standalone="no"?>
<!DOCTYPE svg PUBLIC "-//W3C//DTD SVG 1.1//EN"
 "http://www.w3.org/Graphics/SVG/1.1/DTD/svg11.dtd">
<!-- Generated by graphviz version 2.50.0 (0)
 -->
<!-- Title: Call graph Pages: 1 -->
<svg width="568pt" height="479pt"
 viewBox="0.00 0.00 568.49 479.00" xmlns="http://www.w3.org/2000/svg" xmlns:xlink="http://www.w3.org/1999/xlink">
<g id="graph0" class="graph" transform="scale(1 1) rotate(0) translate(4 475)">
<title>Call graph</title>
<polygon fill="white" stroke="transparent" points="-4,4 -4,-475 564.49,-475 564.49,4 -4,4"/>
<!-- start -->
<g id="node1" class="node">
<title>start</title>
</g>
<!-- 0 -->
<g id="node2" class="node">
<title>0</title>
<ellipse fill="none" stroke="black" cx="361.75" cy="-366" rx="36" ry="18"/>
<text text-anchor="middle" x="361.75" y="-362.3" font-family="Times,serif" font-size="14.00">fib(5)</text>
</g>
<!-- start&#45;&gt;0 -->
<g id="edge1" class="edge">
<title>start&#45;&gt;0</title>
<path fill="none" stroke="black" d="M359.48,-434.94C358.91,-425.26 358.44,-412.98 358.75,-401.97 358.82,-399.41 358.92,-396.75 359.04,-394.08"/>
<path fill="none" stroke="black" d="M361.48,-434.82C360.91,-425.19 360.43,-412.9 360.75,-402.03 360.82,-399.48 360.92,-396.82 361.04,-394.17"/>
<polygon fill="black" stroke="black" points="363.54,-394.25 360.58,-384.08 356.55,-393.88 363.54,-394.25"/>
</g>
<!-- 0&#45;&gt;start -->
<g id="edge30" class="edge">
<title>0&#45;&gt;start</title>
<path fill="none" stroke="blue" d="M361.75,-384.18C361.75,-395.81 361.75,-411.42 361.75,-424.73"/>
<polygon fill="blue" stroke="blue" points="358.25,-424.8 361.75,-434.8 365.25,-424.8 358.25,-424.8"/>
<text text-anchor="middle" x="366.75" y="-405.8" font-family="Times,serif" font-size="14.00" fill="blue">5</text>
</g>
<!-- 1 -->
<g id="node3" class="node">
<title>1</title>
<ellipse fill="none" stroke="black" cx="300.75" cy="-279" rx="36" ry="18"/>
<text text-anchor="middle" x="300.75" y="-275.3" font-family="Times,serif" font-size="14.00">fib(4)</text>
</g>
<!-- 0&#45;&gt;1 -->
<g id="edge2" class="edge">
<title>0&#45;&gt;1</title>
<path fill="none" stroke="black" d="M343.46,-350.15C337.02,-344.32 330.06,-337.29 324.75,-330 319.5,-322.81 314.92,-314.3 311.2,-306.35"/>
<polygon fill="black" stroke="black" points="314.34,-304.8 307.1,-297.07 307.93,-307.63 314.34,-304.8"/>
</g>
<!-- 10 -->
<g id="node12" class="node">
<title>10</title>
<ellipse fill="none" stroke="black" cx="431.75" cy="-279" rx="36" ry="18"/>
<text text-anchor="middle" x="431.75" y="-275.3" font-family="Times,serif" font-size="14.00">fib(3)</text>
</g>
<!-- 0&#45;&gt;10 -->
<g id="edge20" class="edge">
<title>0&#45;&gt;10</title>
<path fill="none" stroke="black" d="M369.6,-348.33C374.82,-338.15 382.27,-325.17 390.75,-315 394.74,-310.21 399.43,-305.54 404.19,-301.26"/>
<polygon fill="black" stroke="black" points="406.82,-303.62 412.14,-294.46 402.27,-298.3 406.82,-303.62"/>
</g>
<!-- 1&#45;&gt;0 -->
<g id="edge19" class="edge">
<title>1&#45;&gt;0</title>
<path fill="none" stroke="blue" d="M312.27,-296.05C321.2,-308.5 333.75,-325.99 343.97,-340.23"/>
<polygon fill="blue" stroke="blue" points="341.31,-342.53 349.99,-348.61 347,-338.45 341.31,-342.53"/>
<text text-anchor="middle" x="340.75" y="-318.8" font-family="Times,serif" font-size="14.00" fill="blue">3</text>
</g>
<!-- 2 -->
<g id="node4" class="node">
<title>2</title>
<ellipse fill="none" stroke="black" cx="196.75" cy="-192" rx="36" ry="18"/>
<text text-anchor="middle" x="196.75" y="-188.3" font-family="Times,serif" font-size="14.00">fib(3)</text>
</g>
<!-- 1&#45;&gt;2 -->
<g id="edge3" class="edge">
<title>1&#45;&gt;2</title>
<path fill="none" stroke="black" d="M272.52,-267.8C258.9,-261.96 242.92,-253.64 230.75,-243 222.89,-236.13 216,-227.05 210.52,-218.51"/>
<polygon fill="black" stroke="black" points="213.51,-216.68 205.34,-209.93 207.52,-220.3 213.51,-216.68"/>
</g>
<!-- 7 -->
<g id="node9" class="node">
<title>7</title>
<ellipse fill="none" stroke="black" cx="291.75" cy="-192" rx="36" ry="18"/>
<text text-anchor="middle" x="291.75" y="-188.3" font-family="Times,serif" font-size="14.00">fib(2)</text>
</g>
<!-- 1&#45;&gt;7 -->
<g id="edge13" class="edge">
<title>1&#45;&gt;7</title>
<path fill="none" stroke="black" d="M298.93,-260.8C297.69,-249.16 296.04,-233.55 294.63,-220.24"/>
<polygon fill="black" stroke="black" points="298.1,-219.75 293.57,-210.18 291.14,-220.49 298.1,-219.75"/>
</g>
<!-- 2&#45;&gt;1 -->
<g id="edge12" class="edge">
<title>2&#45;&gt;1</title>
<path fill="none" stroke="blue" d="M214.65,-207.64C231.21,-221.17 256.02,-241.44 274.76,-256.76"/>
<polygon fill="blue" stroke="blue" points="272.67,-259.58 282.63,-263.19 277.1,-254.16 272.67,-259.58"/>
<text text-anchor="middle" x="260.75" y="-231.8" font-family="Times,serif" font-size="14.00" fill="blue">2</text>
</g>
<!-- 3 -->
<g id="node5" class="node">
<title>3</title>
<ellipse fill="none" stroke="black" cx="79.75" cy="-105" rx="36" ry="18"/>
<text text-anchor="middle" x="79.75" y="-101.3" font-family="Times,serif" font-size="14.00">fib(2)</text>
</g>
<!-- 2&#45;&gt;3 -->
<g id="edge4" class="edge">
<title>2&#45;&gt;3</title>
<path fill="none" stroke="black" d="M165.16,-183.36C147.68,-177.92 126.39,-169.21 110.75,-156 102.95,-149.42 96.52,-140.36 91.58,-131.76"/>
<polygon fill="black" stroke="black" points="94.58,-129.95 86.8,-122.75 88.39,-133.23 94.58,-129.95"/>
</g>
<!-- 6 -->
<g id="node8" class="node">
<title>6</title>
<ellipse fill="none" stroke="black" cx="168.75" cy="-105" rx="36" ry="18"/>
<text text-anchor="middle" x="168.75" y="-101.3" font-family="Times,serif" font-size="14.00">fib(1)</text>
</g>
<!-- 2&#45;&gt;6 -->
<g id="edge10" class="edge">
<title>2&#45;&gt;6</title>
<path fill="none" stroke="black" d="M187.62,-174.25C184.8,-168.58 181.87,-162.13 179.75,-156 177.25,-148.81 175.19,-140.83 173.56,-133.4"/>
<polygon fill="black" stroke="black" points="176.95,-132.51 171.53,-123.4 170.09,-133.9 176.95,-132.51"/>
</g>
<!-- 3&#45;&gt;2 -->
<g id="edge9" class="edge">
<title>3&#45;&gt;2</title>
<path fill="none" stroke="blue" d="M99.39,-120.27C118.4,-134.08 147.39,-155.14 168.79,-170.69"/>
<polygon fill="blue" stroke="blue" points="167.02,-173.73 177.16,-176.77 171.13,-168.06 167.02,-173.73"/>
<text text-anchor="middle" x="150.75" y="-144.8" font-family="Times,serif" font-size="14.00" fill="blue">1</text>
</g>
<!-- 4 -->
<g id="node6" class="node">
<title>4</title>
<ellipse fill="none" stroke="black" cx="35.75" cy="-18" rx="36" ry="18"/>
<text text-anchor="middle" x="35.75" y="-14.3" font-family="Times,serif" font-size="14.00">fib(1)</text>
</g>
<!-- 3&#45;&gt;4 -->
<g id="edge5" class="edge">
<title>3&#45;&gt;4</title>
<path fill="none" stroke="black" d="M63.49,-88.83C58.13,-83.07 52.56,-76.16 48.75,-69 45.03,-62.03 42.34,-53.95 40.4,-46.34"/>
<polygon fill="black" stroke="black" points="43.78,-45.41 38.2,-36.4 36.94,-46.92 43.78,-45.41"/>
</g>
<!-- 5 -->
<g id="node7" class="node">
<title>5</title>
<ellipse fill="none" stroke="black" cx="124.75" cy="-18" rx="36" ry="18"/>
<text text-anchor="middle" x="124.75" y="-14.3" font-family="Times,serif" font-size="14.00">fib(0)</text>
</g>
<!-- 3&#45;&gt;5 -->
<g id="edge7" class="edge">
<title>3&#45;&gt;5</title>
<path fill="none" stroke="black" d="M88.64,-87.21C95.09,-75.02 103.93,-58.32 111.25,-44.49"/>
<polygon fill="black" stroke="black" points="114.44,-45.94 116.03,-35.47 108.26,-42.67 114.44,-45.94"/>
</g>
<!-- 4&#45;&gt;3 -->
<g id="edge6" class="edge">
<title>4&#45;&gt;3</title>
<path fill="none" stroke="blue" d="M44.42,-35.76C50.68,-47.86 59.26,-64.42 66.39,-78.2"/>
<polygon fill="blue" stroke="blue" points="63.35,-79.94 71.05,-87.21 69.56,-76.72 63.35,-79.94"/>
<text text-anchor="middle" x="65.75" y="-57.8" font-family="Times,serif" font-size="14.00" fill="blue">1</text>
</g>
<!-- 5&#45;&gt;3 -->
<g id="edge8" class="edge">
<title>5&#45;&gt;3</title>
<path fill="none" stroke="blue" d="M118.57,-36.07C114.77,-45.92 109.52,-58.42 103.75,-69 101.91,-72.37 99.83,-75.81 97.68,-79.17"/>
<polygon fill="blue" stroke="blue" points="94.61,-77.45 91.94,-87.7 100.42,-81.36 94.61,-77.45"/>
<text text-anchor="middle" x="116.75" y="-57.8" font-family="Times,serif" font-size="14.00" fill="blue">0</text>
</g>
<!-- 6&#45;&gt;2 -->
<g id="edge11" class="edge">
<title>6&#45;&gt;2</title>
<path fill="none" stroke="blue" d="M174.36,-123.05C178.27,-134.91 183.55,-150.95 188.01,-164.47"/>
<polygon fill="blue" stroke="blue" points="184.76,-165.8 191.21,-174.21 191.41,-163.61 184.76,-165.8"/>
<text text-anchor="middle" x="189.75" y="-144.8" font-family="Times,serif" font-size="14.00" fill="blue">1</text>
</g>
<!-- 7&#45;&gt;1 -->
<g id="edge18" class="edge">
<title>7&#45;&gt;1</title>
<path fill="none" stroke="blue" d="M293.75,-210.08C294.4,-215.78 295.12,-222.16 295.75,-228 296.54,-235.43 297.37,-243.48 298.11,-250.91"/>
<polygon fill="blue" stroke="blue" points="294.63,-251.26 299.09,-260.87 301.59,-250.57 294.63,-251.26"/>
<text text-anchor="middle" x="302.75" y="-231.8" font-family="Times,serif" font-size="14.00" fill="blue">1</text>
</g>
<!-- 8 -->
<g id="node10" class="node">
<title>8</title>
<ellipse fill="none" stroke="black" cx="257.75" cy="-105" rx="36" ry="18"/>
<text text-anchor="middle" x="257.75" y="-101.3" font-family="Times,serif" font-size="14.00">fib(1)</text>
</g>
<!-- 7&#45;&gt;8 -->
<g id="edge14" class="edge">
<title>7&#45;&gt;8</title>
<path fill="none" stroke="black" d="M280.69,-174.78C277.14,-169.03 273.43,-162.4 270.75,-156 267.69,-148.72 265.2,-140.54 263.25,-132.93"/>
<polygon fill="black" stroke="black" points="266.62,-131.99 260.91,-123.06 259.81,-133.6 266.62,-131.99"/>
</g>
<!-- 9 -->
<g id="node11" class="node">
<title>9</title>
<ellipse fill="none" stroke="black" cx="346.75" cy="-105" rx="36" ry="18"/>
<text text-anchor="middle" x="346.75" y="-101.3" font-family="Times,serif" font-size="14.00">fib(0)</text>
</g>
<!-- 7&#45;&gt;9 -->
<g id="edge16" class="edge">
<title>7&#45;&gt;9</title>
<path fill="none" stroke="black" d="M302.35,-174.61C310.34,-162.26 321.44,-145.12 330.54,-131.05"/>
<polygon fill="black" stroke="black" points="333.68,-132.64 336.17,-122.34 327.8,-128.83 333.68,-132.64"/>
</g>
<!-- 8&#45;&gt;7 -->
<g id="edge15" class="edge">
<title>8&#45;&gt;7</title>
<path fill="none" stroke="blue" d="M264.45,-122.76C269.24,-134.74 275.79,-151.1 281.27,-164.8"/>
<polygon fill="blue" stroke="blue" points="278.07,-166.22 285.03,-174.21 284.57,-163.62 278.07,-166.22"/>
<text text-anchor="middle" x="282.75" y="-144.8" font-family="Times,serif" font-size="14.00" fill="blue">1</text>
</g>
<!-- 9&#45;&gt;7 -->
<g id="edge17" class="edge">
<title>9&#45;&gt;7</title>
<path fill="none" stroke="blue" d="M341.4,-122.99C337.81,-133.06 332.5,-145.79 325.75,-156 322.84,-160.39 319.34,-164.71 315.71,-168.74"/>
<polygon fill="blue" stroke="blue" points="313.08,-166.43 308.68,-176.07 318.13,-171.28 313.08,-166.43"/>
<text text-anchor="middle" x="338.75" y="-144.8" font-family="Times,serif" font-size="14.00" fill="blue">0</text>
</g>
<!-- 10&#45;&gt;0 -->
<g id="edge29" class="edge">
<title>10&#45;&gt;0</title>
<path fill="none" stroke="blue" d="M418.64,-295.92C408.19,-308.6 393.4,-326.56 381.52,-340.99"/>
<polygon fill="blue" stroke="blue" points="378.57,-339.07 374.91,-349.01 383.97,-343.52 378.57,-339.07"/>
<text text-anchor="middle" x="405.75" y="-318.8" font-family="Times,serif" font-size="14.00" fill="blue">2</text>
</g>
<!-- 11 -->
<g id="node13" class="node">
<title>11</title>
<ellipse fill="none" stroke="black" cx="433.75" cy="-192" rx="36" ry="18"/>
<text text-anchor="middle" x="433.75" y="-188.3" font-family="Times,serif" font-size="14.00">fib(2)</text>
</g>
<!-- 10&#45;&gt;11 -->
<g id="edge21" class="edge">
<title>10&#45;&gt;11</title>
<path fill="none" stroke="black" d="M430.24,-260.87C429.6,-251.21 429.12,-238.93 429.75,-228 429.89,-225.44 430.1,-222.77 430.34,-220.11"/>
<polygon fill="black" stroke="black" points="433.83,-220.37 431.4,-210.06 426.87,-219.63 433.83,-220.37"/>
</g>
<!-- 14 -->
<g id="node16" class="node">
<title>14</title>
<ellipse fill="none" stroke="black" cx="522.75" cy="-192" rx="36" ry="18"/>
<text text-anchor="middle" x="522.75" y="-188.3" font-family="Times,serif" font-size="14.00">fib(1)</text>
</g>
<!-- 10&#45;&gt;14 -->
<g id="edge27" class="edge">
<title>10&#45;&gt;14</title>
<path fill="none" stroke="black" d="M448.02,-262.8C462.25,-249.51 483.1,-230.03 499.17,-215.02"/>
<polygon fill="black" stroke="black" points="501.7,-217.45 506.62,-208.06 496.92,-212.33 501.7,-217.45"/>
</g>
<!-- 11&#45;&gt;10 -->
<g id="edge26" class="edge">
<title>11&#45;&gt;10</title>
<path fill="none" stroke="blue" d="M433.34,-210.18C433.07,-221.81 432.7,-237.42 432.39,-250.73"/>
<polygon fill="blue" stroke="blue" points="428.89,-250.72 432.15,-260.8 435.89,-250.88 428.89,-250.72"/>
<text text-anchor="middle" x="437.75" y="-231.8" font-family="Times,serif" font-size="14.00" fill="blue">1</text>
</g>
<!-- 12 -->
<g id="node14" class="node">
<title>12</title>
<ellipse fill="none" stroke="black" cx="435.75" cy="-105" rx="36" ry="18"/>
<text text-anchor="middle" x="435.75" y="-101.3" font-family="Times,serif" font-size="14.00">fib(1)</text>
</g>
<!-- 11&#45;&gt;12 -->
<g id="edge22" class="edge">
<title>11&#45;&gt;12</title>
<path fill="none" stroke="black" d="M432.24,-173.87C431.6,-164.21 431.12,-151.93 431.75,-141 431.89,-138.44 432.1,-135.77 432.34,-133.11"/>
<polygon fill="black" stroke="black" points="435.83,-133.37 433.4,-123.06 428.87,-132.63 435.83,-133.37"/>
</g>
<!-- 13 -->
<g id="node15" class="node">
<title>13</title>
<ellipse fill="none" stroke="black" cx="524.75" cy="-105" rx="36" ry="18"/>
<text text-anchor="middle" x="524.75" y="-101.3" font-family="Times,serif" font-size="14.00">fib(0)</text>
</g>
<!-- 11&#45;&gt;13 -->
<g id="edge24" class="edge">
<title>11&#45;&gt;13</title>
<path fill="none" stroke="black" d="M450.02,-175.8C464.25,-162.51 485.1,-143.03 501.17,-128.02"/>
<polygon fill="black" stroke="black" points="503.7,-130.45 508.62,-121.06 498.92,-125.33 503.7,-130.45"/>
</g>
<!-- 12&#45;&gt;11 -->
<g id="edge23" class="edge">
<title>12&#45;&gt;11</title>
<path fill="none" stroke="blue" d="M435.34,-123.18C435.07,-134.81 434.7,-150.42 434.39,-163.73"/>
<polygon fill="blue" stroke="blue" points="430.89,-163.72 434.15,-173.8 437.89,-163.88 430.89,-163.72"/>
<text text-anchor="middle" x="439.75" y="-144.8" font-family="Times,serif" font-size="14.00" fill="blue">1</text>
</g>
<!-- 13&#45;&gt;11 -->
<g id="edge25" class="edge">
<title>13&#45;&gt;11</title>
<path fill="none" stroke="blue" d="M516.64,-122.7C510.98,-133.15 502.68,-146.4 492.75,-156 485.57,-162.94 476.76,-169.09 468.16,-174.22"/>
<polygon fill="blue" stroke="blue" points="466.34,-171.23 459.35,-179.19 469.78,-177.33 466.34,-171.23"/>
<text text-anchor="middle" x="509.75" y="-144.8" font-family="Times,serif" font-size="14.00" fill="blue">0</text>
</g>
<!-- 14&#45;&gt;10 -->
<g id="edge28" class="edge">
<title>14&#45;&gt;10</title>
<path fill="none" stroke="blue" d="M514.64,-209.7C508.98,-220.15 500.68,-233.4 490.75,-243 483.57,-249.94 474.76,-256.09 466.16,-261.22"/>
<polygon fill="blue" stroke="blue" points="464.34,-258.23 457.35,-266.19 467.78,-264.33 464.34,-258.23"/>
<text text-anchor="middle" x="507.75" y="-231.8" font-family="Times,serif" font-size="14.00" fill="blue">1</text>
</g>
</g>
</svg>
