<?xml version="1.0" encoding="UTF-8" standalone="no"?>
<!DOCTYPE svg PUBLIC "-//W3C//DTD SVG 1.1//EN"
 "http://www.w3.org/Graphics/SVG/1.1/DTD/svg11.dtd">
<!-- Generated by graphviz version 2.50.0 (0)
 -->
<!-- Title: Call graph Pages: 1 -->
<svg width="1742pt" height="332pt"
 viewBox="0.00 0.00 1742.48 332.00" xmlns="http://www.w3.org/2000/svg" xmlns:xlink="http://www.w3.org/1999/xlink">
<g id="graph0" class="graph" transform="scale(1 1) rotate(0) translate(4 328)">
<title>Call graph</title>
<polygon fill="white" stroke="transparent" points="-4,4 -4,-328 1738.48,-328 1738.48,4 -4,4"/>
<!-- start -->
<g id="node1" class="node">
<title>start</title>
</g>
<!-- 0 -->
<g id="node2" class="node">
<title>0</title>
<ellipse fill="none" stroke="black" cx="866.74" cy="-234" rx="100.98" ry="18"/>
<text text-anchor="middle" x="866.74" y="-230.3" font-family="Times,serif" font-size="14.00">hanoi(4, &#39;A&#39;, &#39;B&#39;, &#39;C&#39;)</text>
</g>
<!-- start&#45;&gt;0 -->
<g id="edge1" class="edge">
<title>start&#45;&gt;0</title>
<path fill="none" stroke="black" d="M865.74,-287.7C865.74,-279.98 865.74,-270.71 865.74,-262.11"/>
<path fill="none" stroke="black" d="M867.74,-287.7C867.74,-279.98 867.74,-270.71 867.74,-262.11"/>
<polygon fill="black" stroke="black" points="870.24,-262.1 866.74,-252.1 863.24,-262.1 870.24,-262.1"/>
</g>
<!-- 1 -->
<g id="node3" class="node">
<title>1</title>
<ellipse fill="none" stroke="black" cx="647.74" cy="-162" rx="100.98" ry="18"/>
<text text-anchor="middle" x="647.74" y="-158.3" font-family="Times,serif" font-size="14.00">hanoi(3, &#39;A&#39;, &#39;C&#39;, &#39;B&#39;)</text>
</g>
<!-- 0&#45;&gt;1 -->
<g id="edge2" class="edge">
<title>0&#45;&gt;1</title>
<path fill="none" stroke="black" d="M819.76,-217.98C785.98,-207.19 740.28,-192.58 704.46,-181.13"/>
<polygon fill="black" stroke="black" points="705.24,-177.7 694.64,-177.99 703.1,-184.37 705.24,-177.7"/>
</g>
<!-- 8 -->
<g id="node10" class="node">
<title>8</title>
<ellipse fill="none" stroke="black" cx="1085.74" cy="-162" rx="100.98" ry="18"/>
<text text-anchor="middle" x="1085.74" y="-158.3" font-family="Times,serif" font-size="14.00">hanoi(3, &#39;C&#39;, &#39;B&#39;, &#39;A&#39;)</text>
</g>
<!-- 0&#45;&gt;8 -->
<g id="edge9" class="edge">
<title>0&#45;&gt;8</title>
<path fill="none" stroke="black" d="M913.72,-217.98C947.5,-207.19 993.21,-192.58 1029.02,-181.13"/>
<polygon fill="black" stroke="black" points="1030.38,-184.37 1038.84,-177.99 1028.25,-177.7 1030.38,-184.37"/>
</g>
<!-- 2 -->
<g id="node4" class="node">
<title>2</title>
<ellipse fill="none" stroke="black" cx="319.74" cy="-90" rx="100.98" ry="18"/>
<text text-anchor="middle" x="319.74" y="-86.3" font-family="Times,serif" font-size="14.00">hanoi(2, &#39;A&#39;, &#39;B&#39;, &#39;C&#39;)</text>
</g>
<!-- 1&#45;&gt;2 -->
<g id="edge3" class="edge">
<title>1&#45;&gt;2</title>
<path fill="none" stroke="black" d="M585.66,-147.75C530.45,-135.97 449.69,-118.73 391.68,-106.35"/>
<polygon fill="black" stroke="black" points="392.36,-102.92 381.85,-104.25 390.89,-109.76 392.36,-102.92"/>
</g>
<!-- 5 -->
<g id="node7" class="node">
<title>5</title>
<ellipse fill="none" stroke="black" cx="647.74" cy="-90" rx="100.98" ry="18"/>
<text text-anchor="middle" x="647.74" y="-86.3" font-family="Times,serif" font-size="14.00">hanoi(2, &#39;B&#39;, &#39;C&#39;, &#39;A&#39;)</text>
</g>
<!-- 1&#45;&gt;5 -->
<g id="edge6" class="edge">
<title>1&#45;&gt;5</title>
<path fill="none" stroke="black" d="M647.74,-143.7C647.74,-135.98 647.74,-126.71 647.74,-118.11"/>
<polygon fill="black" stroke="black" points="651.24,-118.1 647.74,-108.1 644.24,-118.1 651.24,-118.1"/>
</g>
<!-- 3 -->
<g id="node5" class="node">
<title>3</title>
<ellipse fill="none" stroke="black" cx="100.74" cy="-18" rx="100.98" ry="18"/>
<text text-anchor="middle" x="100.74" y="-14.3" font-family="Times,serif" font-size="14.00">hanoi(1, &#39;A&#39;, &#39;C&#39;, &#39;B&#39;)</text>
</g>
<!-- 2&#45;&gt;3 -->
<g id="edge4" class="edge">
<title>2&#45;&gt;3</title>
<path fill="none" stroke="black" d="M272.76,-73.98C238.98,-63.19 193.28,-48.58 157.46,-37.13"/>
<polygon fill="black" stroke="black" points="158.24,-33.7 147.64,-33.99 156.1,-40.37 158.24,-33.7"/>
</g>
<!-- 4 -->
<g id="node6" class="node">
<title>4</title>
<ellipse fill="none" stroke="black" cx="319.74" cy="-18" rx="100.98" ry="18"/>
<text text-anchor="middle" x="319.74" y="-14.3" font-family="Times,serif" font-size="14.00">hanoi(1, &#39;C&#39;, &#39;B&#39;, &#39;A&#39;)</text>
</g>
<!-- 2&#45;&gt;4 -->
<g id="edge5" class="edge">
<title>2&#45;&gt;4</title>
<path fill="none" stroke="black" d="M319.74,-71.7C319.74,-63.98 319.74,-54.71 319.74,-46.11"/>
<polygon fill="black" stroke="black" points="323.24,-46.1 319.74,-36.1 316.24,-46.1 323.24,-46.1"/>
</g>
<!-- 6 -->
<g id="node8" class="node">
<title>6</title>
<ellipse fill="none" stroke="black" cx="538.74" cy="-18" rx="100.98" ry="18"/>
<text text-anchor="middle" x="538.74" y="-14.3" font-family="Times,serif" font-size="14.00">hanoi(1, &#39;B&#39;, &#39;A&#39;, &#39;C&#39;)</text>
</g>
<!-- 5&#45;&gt;6 -->
<g id="edge7" class="edge">
<title>5&#45;&gt;6</title>
<path fill="none" stroke="black" d="M622.19,-72.59C607.53,-63.18 588.95,-51.24 573.04,-41.02"/>
<polygon fill="black" stroke="black" points="574.82,-38.01 564.51,-35.55 571.04,-43.9 574.82,-38.01"/>
</g>
<!-- 7 -->
<g id="node9" class="node">
<title>7</title>
<ellipse fill="none" stroke="black" cx="757.74" cy="-18" rx="100.98" ry="18"/>
<text text-anchor="middle" x="757.74" y="-14.3" font-family="Times,serif" font-size="14.00">hanoi(1, &#39;A&#39;, &#39;C&#39;, &#39;B&#39;)</text>
</g>
<!-- 5&#45;&gt;7 -->
<g id="edge8" class="edge">
<title>5&#45;&gt;7</title>
<path fill="none" stroke="black" d="M673.53,-72.59C688.32,-63.18 707.08,-51.24 723.13,-41.02"/>
<polygon fill="black" stroke="black" points="725.17,-43.87 731.73,-35.55 721.42,-37.97 725.17,-43.87"/>
</g>
<!-- 9 -->
<g id="node11" class="node">
<title>9</title>
<ellipse fill="none" stroke="black" cx="1085.74" cy="-90" rx="100.98" ry="18"/>
<text text-anchor="middle" x="1085.74" y="-86.3" font-family="Times,serif" font-size="14.00">hanoi(2, &#39;C&#39;, &#39;A&#39;, &#39;B&#39;)</text>
</g>
<!-- 8&#45;&gt;9 -->
<g id="edge10" class="edge">
<title>8&#45;&gt;9</title>
<path fill="none" stroke="black" d="M1085.74,-143.7C1085.74,-135.98 1085.74,-126.71 1085.74,-118.11"/>
<polygon fill="black" stroke="black" points="1089.24,-118.1 1085.74,-108.1 1082.24,-118.1 1089.24,-118.1"/>
</g>
<!-- 12 -->
<g id="node14" class="node">
<title>12</title>
<ellipse fill="none" stroke="black" cx="1414.74" cy="-90" rx="100.98" ry="18"/>
<text text-anchor="middle" x="1414.74" y="-86.3" font-family="Times,serif" font-size="14.00">hanoi(2, &#39;A&#39;, &#39;B&#39;, &#39;C&#39;)</text>
</g>
<!-- 8&#45;&gt;12 -->
<g id="edge13" class="edge">
<title>8&#45;&gt;12</title>
<path fill="none" stroke="black" d="M1148.01,-147.75C1203.48,-135.95 1284.65,-118.68 1342.86,-106.29"/>
<polygon fill="black" stroke="black" points="1343.67,-109.7 1352.73,-104.19 1342.22,-102.85 1343.67,-109.7"/>
</g>
<!-- 10 -->
<g id="node12" class="node">
<title>10</title>
<ellipse fill="none" stroke="black" cx="976.74" cy="-18" rx="100.98" ry="18"/>
<text text-anchor="middle" x="976.74" y="-14.3" font-family="Times,serif" font-size="14.00">hanoi(1, &#39;C&#39;, &#39;B&#39;, &#39;A&#39;)</text>
</g>
<!-- 9&#45;&gt;10 -->
<g id="edge11" class="edge">
<title>9&#45;&gt;10</title>
<path fill="none" stroke="black" d="M1060.19,-72.59C1045.53,-63.18 1026.95,-51.24 1011.04,-41.02"/>
<polygon fill="black" stroke="black" points="1012.82,-38.01 1002.51,-35.55 1009.04,-43.9 1012.82,-38.01"/>
</g>
<!-- 11 -->
<g id="node13" class="node">
<title>11</title>
<ellipse fill="none" stroke="black" cx="1195.74" cy="-18" rx="100.98" ry="18"/>
<text text-anchor="middle" x="1195.74" y="-14.3" font-family="Times,serif" font-size="14.00">hanoi(1, &#39;B&#39;, &#39;A&#39;, &#39;C&#39;)</text>
</g>
<!-- 9&#45;&gt;11 -->
<g id="edge12" class="edge">
<title>9&#45;&gt;11</title>
<path fill="none" stroke="black" d="M1111.53,-72.59C1126.32,-63.18 1145.08,-51.24 1161.13,-41.02"/>
<polygon fill="black" stroke="black" points="1163.17,-43.87 1169.73,-35.55 1159.42,-37.97 1163.17,-43.87"/>
</g>
<!-- 13 -->
<g id="node15" class="node">
<title>13</title>
<ellipse fill="none" stroke="black" cx="1414.74" cy="-18" rx="100.98" ry="18"/>
<text text-anchor="middle" x="1414.74" y="-14.3" font-family="Times,serif" font-size="14.00">hanoi(1, &#39;A&#39;, &#39;C&#39;, &#39;B&#39;)</text>
</g>
<!-- 12&#45;&gt;13 -->
<g id="edge14" class="edge">
<title>12&#45;&gt;13</title>
<path fill="none" stroke="black" d="M1414.74,-71.7C1414.74,-63.98 1414.74,-54.71 1414.74,-46.11"/>
<polygon fill="black" stroke="black" points="1418.24,-46.1 1414.74,-36.1 1411.24,-46.1 1418.24,-46.1"/>
</g>
<!-- 14 -->
<g id="node16" class="node">
<title>14</title>
<ellipse fill="none" stroke="black" cx="1633.74" cy="-18" rx="100.98" ry="18"/>
<text text-anchor="middle" x="1633.74" y="-14.3" font-family="Times,serif" font-size="14.00">hanoi(1, &#39;C&#39;, &#39;B&#39;, &#39;A&#39;)</text>
</g>
<!-- 12&#45;&gt;14 -->
<g id="edge15" class="edge">
<title>12&#45;&gt;14</title>
<path fill="none" stroke="black" d="M1461.72,-73.98C1495.5,-63.19 1541.21,-48.58 1577.02,-37.13"/>
<polygon fill="black" stroke="black" points="1578.38,-40.37 1586.84,-33.99 1576.25,-33.7 1578.38,-40.37"/>
</g>
</g>
</svg>
